<svg width="1200" height="630" viewBox="0 0 1200 630" xmlns="http://www.w3.org/2000/svg"><rect x="0" y="0" width="1200" height="630" fill="#fefbfb"/><defs><clipPath id="satori_bc-id-0"><path x="105" y="39" width="1056" height="504" d="M109,39 h1048 a4,4 0 0 1 4,4 v496 a4,4 0 0 1 -4,4 h-1048 a4,4 0 0 1 -4,-4 v-496 a4,4 0 0 1 4,-4"/></clipPath></defs><g opacity="0.9"><path x="105" y="39" width="1056" height="504" fill="#ecebeb" d="M109,39 h1048 a4,4 0 0 1 4,4 v496 a4,4 0 0 1 -4,4 h-1048 a4,4 0 0 1 -4,-4 v-496 a4,4 0 0 1 4,-4"/><path width="1056" height="504" clip-path="url(#satori_bc-id-0)" fill="none" stroke="#000" stroke-width="8" d="M106.172,40.172 A4,4 0 0 1 109,39 h1048 a4,4 0 0 1 4,4 v496 a4,4 0 0 1 -4,4 h-1048 a4,4 0 0 1 -4,-4 v-496 A4,4 0 0 1 106.172,40.172"/></g><defs><clipPath id="satori_bc-id-1"><path x="72" y="63" width="1056" height="504" d="M76,63 h1048 a4,4 0 0 1 4,4 v496 a4,4 0 0 1 -4,4 h-1048 a4,4 0 0 1 -4,-4 v-496 a4,4 0 0 1 4,-4"/></clipPath></defs><path x="72" y="63" width="1056" height="504" fill="#fefbfb" d="M76,63 h1048 a4,4 0 0 1 4,4 v496 a4,4 0 0 1 -4,4 h-1048 a4,4 0 0 1 -4,-4 v-496 a4,4 0 0 1 4,-4"/><path width="1056" height="504" clip-path="url(#satori_bc-id-1)" fill="none" stroke="#000" stroke-width="8" d="M73.172,64.172 A4,4 0 0 1 76,63 h1048 a4,4 0 0 1 4,4 v496 a4,4 0 0 1 -4,4 h-1048 a4,4 0 0 1 -4,-4 v-496 A4,4 0 0 1 73.172,64.172"/><clipPath id="satori_cp-id-1-0-0"><rect x="128" y="103" width="2247" height="187"/></clipPath><mask id="satori_om-id-1-0-0"><rect x="128" y="103" width="2247" height="187" fill="#fff"/></mask><path fill="black" d="M165.8 183.0L133.4 183.0L133.4 175.0L144.2 175.0L144.2 140.7L133.4 140.7L133.4 132.7L165.8 132.7L165.8 140.7L155 140.7L155 175.0L165.8 175.0L165.8 183.0ZM186.5 183.0L175.9 183.0L175.9 145.8L186.5 145.8L186.5 152.6L187.0 152.6Q187.6 151.0 188.6 149.6Q189.5 148.2 190.8 147.2Q192.2 146.2 193.9 145.5Q195.7 144.9 197.9 144.9L197.9 144.9Q200.6 144.9 202.8 145.8Q205.0 146.7 206.6 148.5Q208.2 150.3 209.1 152.9Q210.0 155.5 210.0 158.9L210.0 158.9L210.0 183.0L199.4 183.0L199.4 160.3Q199.4 153.1 193.1 153.1L193.1 153.1Q191.9 153.1 190.7 153.5Q189.5 153.8 188.6 154.5Q187.6 155.2 187.1 156.2Q186.5 157.2 186.5 158.5L186.5 158.5L186.5 183.0ZM252.6 183.0L238.9 183.0Q233.1 183.0 230.3 179.9Q227.5 176.9 227.5 172.2L227.5 172.2L227.5 154.1L217.4 154.1L217.4 145.8L224.0 145.8Q226.4 145.8 227.4 144.9Q228.4 143.9 228.4 141.4L228.4 141.4L228.4 132.7L238.2 132.7L238.2 145.8L252.6 145.8L252.6 154.1L238.2 154.1L238.2 174.7L252.6 174.7L252.6 183.0ZM280.2 183.8L280.2 183.8Q270.8 183.8 266.0 178.6Q261.2 173.4 261.2 164.5L261.2 164.5Q261.2 160.0 262.5 156.3Q263.7 152.7 266.1 150.2Q268.4 147.6 271.7 146.3Q275.1 144.9 279.3 144.9L279.3 144.9Q283.4 144.9 286.8 146.3Q290.1 147.6 292.4 150.0Q294.7 152.5 295.9 156.0Q297.2 159.5 297.2 163.8L297.2 163.8L297.2 167.0L271.8 167.0L271.8 167.6Q271.8 171.2 274.0 173.4Q276.2 175.6 280.6 175.6L280.6 175.6Q283.9 175.6 286.3 174.3Q288.6 173.1 290.4 171.0L290.4 171.0L296.1 177.3Q294.0 179.9 290.1 181.9Q286.2 183.8 280.2 183.8ZM279.3 152.6L279.3 152.6Q275.9 152.6 273.8 154.7Q271.8 156.8 271.8 160.4L271.8 160.4L271.8 161.0L286.8 161.0L286.8 160.4Q286.8 156.7 284.8 154.7Q282.8 152.6 279.3 152.6ZM306.1 183.0L306.1 174.7L314.7 174.7L314.7 154.1L306.1 154.1L306.1 145.8L325.4 145.8L325.4 156.3L325.9 156.3Q326.4 154.3 327.3 152.4Q328.2 150.5 329.6 149.0Q331.0 147.5 333.0 146.7Q335.0 145.8 337.7 145.8L337.7 145.8L341.3 145.8L341.3 155.6L333.3 155.6Q329.4 155.6 327.4 157.9Q325.4 160.3 325.4 163.7L325.4 163.7L325.4 174.7L337.6 174.7L337.6 183.0L306.1 183.0ZM365.2 183.8L365.2 183.8Q359.0 183.8 354.4 181.9Q349.8 180.1 347.5 176.8L347.5 176.8L353.5 171.3Q355.7 173.7 358.6 175.0Q361.5 176.3 365.2 176.3L365.2 176.3Q368.4 176.3 370.2 175.4Q372.0 174.4 372.0 172.4L372.0 172.4Q372.0 170.8 370.8 170.2Q369.6 169.6 367.4 169.2L367.4 169.2L361.4 168.3Q358.9 167.9 356.7 167.1Q354.6 166.4 353.0 165.1Q351.4 163.8 350.5 161.9Q349.5 160.1 349.5 157.4L349.5 157.4Q349.5 151.6 354.0 148.2Q358.5 144.9 366.5 144.9L366.5 144.9Q372.0 144.9 375.9 146.4Q379.7 147.9 382.0 150.6L382.0 150.6L376.7 156.7Q375.0 154.9 372.4 153.6Q369.8 152.4 366.2 152.4L366.2 152.4Q360.0 152.4 360.0 156.2L360.0 156.2Q360.0 157.8 361.2 158.4Q362.4 159.0 364.6 159.4L364.6 159.4L370.5 160.3Q373.0 160.7 375.2 161.5Q377.3 162.2 379.0 163.5Q380.6 164.8 381.5 166.7Q382.4 168.6 382.4 171.2L382.4 171.2Q382.4 177.0 377.9 180.4Q373.4 183.8 365.2 183.8ZM409.8 183.8L409.8 183.8Q400.4 183.8 395.6 178.6Q390.8 173.4 390.8 164.5L390.8 164.5Q390.8 160.0 392.1 156.3Q393.3 152.7 395.7 150.2Q398.0 147.6 401.3 146.3Q404.7 144.9 408.9 144.9L408.9 144.9Q413.0 144.9 416.4 146.3Q419.7 147.6 422.0 150.0Q424.3 152.5 425.5 156.0Q426.8 159.5 426.8 163.8L426.8 163.8L426.8 167.0L401.4 167.0L401.4 167.6Q401.4 171.2 403.6 173.4Q405.8 175.6 410.2 175.6L410.2 175.6Q413.5 175.6 415.9 174.3Q418.2 173.1 420.0 171.0L420.0 171.0L425.7 177.3Q423.6 179.9 419.7 181.9Q415.8 183.8 409.8 183.8ZM408.9 152.6L408.9 152.6Q405.5 152.6 403.4 154.7Q401.4 156.8 401.4 160.4L401.4 160.4L401.4 161.0L416.4 161.0L416.4 160.4Q416.4 156.7 414.4 154.7Q412.4 152.6 408.9 152.6ZM453.5 183.8L453.5 183.8Q449.1 183.8 445.6 182.5Q442.1 181.2 439.7 178.6Q437.3 176.1 436.0 172.5Q434.7 168.9 434.7 164.4L434.7 164.4Q434.7 159.8 436.0 156.2Q437.3 152.6 439.7 150.1Q442.1 147.6 445.6 146.3Q449.1 144.9 453.4 144.9L453.4 144.9Q459.6 144.9 463.3 147.4Q467.0 149.9 468.9 154.0L468.9 154.0L460.7 158.5Q459.7 156.3 458.1 154.9Q456.5 153.4 453.4 153.4L453.4 153.4Q449.8 153.4 447.8 155.6Q445.8 157.7 445.8 161.4L445.8 161.4L445.8 167.4Q445.8 171.1 447.8 173.2Q449.8 175.3 453.6 175.3L453.6 175.3Q456.7 175.3 458.4 173.9Q460.2 172.4 461.4 170.1L461.4 170.1L469.5 174.7Q467.5 178.8 463.6 181.3Q459.8 183.8 453.5 183.8ZM511.8 183.0L498.1 183.0Q492.3 183.0 489.5 179.9Q486.7 176.9 486.7 172.2L486.7 172.2L486.7 154.1L476.6 154.1L476.6 145.8L483.2 145.8Q485.6 145.8 486.6 144.9Q487.6 143.9 487.6 141.4L487.6 141.4L487.6 132.7L497.4 132.7L497.4 145.8L511.8 145.8L511.8 154.1L497.4 154.1L497.4 174.7L511.8 174.7L511.8 183.0ZM540.7 141.0L540.7 141.0Q537.1 141.0 535.7 139.6Q534.3 138.1 534.3 136.0L534.3 136.0L534.3 133.9Q534.3 131.8 535.7 130.3Q537.1 128.9 540.7 128.9L540.7 128.9Q544.3 128.9 545.7 130.3Q547.1 131.8 547.1 133.9L547.1 133.9L547.1 136.0Q547.1 138.1 545.7 139.6Q544.3 141.0 540.7 141.0ZM523.6 183.0L523.6 174.7L535.4 174.7L535.4 154.1L523.6 154.1L523.6 145.8L546.0 145.8L546.0 174.7L557.0 174.7L557.0 183.0L523.6 183.0ZM581.6 183.8L581.6 183.8Q577.3 183.8 573.8 182.5Q570.4 181.2 568.0 178.6Q565.5 176.1 564.2 172.5Q563.0 168.9 563.0 164.4L563.0 164.4Q563.0 159.8 564.2 156.2Q565.5 152.6 568.0 150.1Q570.4 147.6 573.8 146.3Q577.3 144.9 581.6 144.9L581.6 144.9Q585.9 144.9 589.4 146.3Q592.8 147.6 595.2 150.1Q597.7 152.6 599.0 156.2Q600.2 159.8 600.2 164.4L600.2 164.4Q600.2 168.9 599.0 172.5Q597.7 176.1 595.2 178.6Q592.8 181.2 589.4 182.5Q585.9 183.8 581.6 183.8ZM581.6 175.9L581.6 175.9Q585.2 175.9 587.2 173.7Q589.2 171.4 589.2 167.3L589.2 167.3L589.2 161.4Q589.2 157.3 587.2 155.1Q585.2 152.9 581.6 152.9L581.6 152.9Q578 152.9 576.0 155.1Q574.0 157.3 574.0 161.4L574.0 161.4L574.0 167.3Q574.0 171.4 576.0 173.7Q578 175.9 581.6 175.9ZM618.5 183.0L607.9 183.0L607.9 145.8L618.5 145.8L618.5 152.6L619.0 152.6Q619.6 151.0 620.6 149.6Q621.5 148.2 622.8 147.2Q624.2 146.2 625.9 145.5Q627.7 144.9 629.9 144.9L629.9 144.9Q632.6 144.9 634.8 145.8Q637.0 146.7 638.6 148.5Q640.2 150.3 641.1 152.9Q642.0 155.5 642.0 158.9L642.0 158.9L642.0 183.0L631.4 183.0L631.4 160.3Q631.4 153.1 625.1 153.1L625.1 153.1Q623.9 153.1 622.7 153.5Q621.5 153.8 620.6 154.5Q619.6 155.2 619.1 156.2Q618.5 157.2 618.5 158.5L618.5 158.5L618.5 183.0ZM668.0 183.8L668.0 183.8Q657.9 183.8 653.1 177.0Q648.3 170.1 648.3 157.8L648.3 157.8Q648.3 145.5 653.1 138.7Q657.9 131.8 668.0 131.8L668.0 131.8Q678.1 131.8 682.9 138.7Q687.7 145.5 687.7 157.8L687.7 157.8Q687.7 170.1 682.9 177.0Q678.1 183.8 668.0 183.8ZM668.0 175.1L668.0 175.1Q672.6 175.1 674.4 171.7Q676.1 168.3 676.1 162.1L676.1 162.1L676.1 153.4Q676.1 147.4 674.4 144.0Q672.6 140.5 668.0 140.5L668.0 140.5Q663.4 140.5 661.6 144.0Q659.9 147.4 659.9 153.4L659.9 153.4L659.9 162.2Q659.9 168.3 661.6 171.7Q663.4 175.1 668.0 175.1ZM693.8 183.0L693.8 129.7L704.5 129.7L704.5 152.6L705.0 152.6Q706.4 149.3 709.0 147.1Q711.6 144.9 716.0 144.9L716.0 144.9Q719.1 144.9 721.7 146.1Q724.2 147.2 726.1 149.6Q727.9 152.0 728.9 155.7Q730.0 159.3 730.0 164.4L730.0 164.4Q730.0 169.4 728.9 173.1Q727.9 176.8 726.1 179.1Q724.2 181.5 721.7 182.7Q719.1 183.8 716.0 183.8L716.0 183.8Q711.6 183.8 709.0 181.7Q706.4 179.6 705.0 176.2L705.0 176.2L704.5 176.2L704.5 183.0L693.8 183.0ZM711.4 175.5L711.4 175.5Q715.0 175.5 717.0 173.3Q718.9 171.1 718.9 167.3L718.9 167.3L718.9 161.5Q718.9 157.6 717.0 155.4Q715.0 153.2 711.4 153.2L711.4 153.2Q708.6 153.2 706.6 154.6Q704.5 156.0 704.5 158.9L704.5 158.9L704.5 169.8Q704.5 172.8 706.6 174.2Q708.6 175.5 711.4 175.5ZM754.0 183.8L754.0 183.8Q747.8 183.8 743.2 181.9Q738.6 180.1 736.3 176.8L736.3 176.8L742.3 171.3Q744.5 173.7 747.4 175.0Q750.3 176.3 754.0 176.3L754.0 176.3Q757.2 176.3 759.0 175.4Q760.8 174.4 760.8 172.4L760.8 172.4Q760.8 170.8 759.6 170.2Q758.4 169.6 756.2 169.2L756.2 169.2L750.2 168.3Q747.7 167.9 745.5 167.1Q743.4 166.4 741.8 165.1Q740.2 163.8 739.3 161.9Q738.3 160.1 738.3 157.4L738.3 157.4Q738.3 151.6 742.8 148.2Q747.3 144.9 755.3 144.9L755.3 144.9Q760.8 144.9 764.7 146.4Q768.5 147.9 770.8 150.6L770.8 150.6L765.5 156.7Q763.8 154.9 761.2 153.6Q758.6 152.4 755.0 152.4L755.0 152.4Q748.8 152.4 748.8 156.2L748.8 156.2Q748.8 157.8 750.0 158.4Q751.2 159.0 753.4 159.4L753.4 159.4L759.3 160.3Q761.8 160.7 764.0 161.5Q766.1 162.2 767.8 163.5Q769.4 164.8 770.3 166.7Q771.2 168.6 771.2 171.2L771.2 171.2Q771.2 177.0 766.7 180.4Q762.2 183.8 754.0 183.8ZM798.6 183.8L798.6 183.8Q789.2 183.8 784.4 178.6Q779.6 173.4 779.6 164.5L779.6 164.5Q779.6 160.0 780.9 156.3Q782.1 152.7 784.5 150.2Q786.8 147.6 790.1 146.3Q793.5 144.9 797.7 144.9L797.7 144.9Q801.8 144.9 805.2 146.3Q808.5 147.6 810.8 150.0Q813.1 152.5 814.3 156.0Q815.6 159.5 815.6 163.8L815.6 163.8L815.6 167.0L790.2 167.0L790.2 167.6Q790.2 171.2 792.4 173.4Q794.6 175.6 799.0 175.6L799.0 175.6Q802.3 175.6 804.7 174.3Q807.0 173.1 808.8 171.0L808.8 171.0L814.5 177.3Q812.4 179.9 808.5 181.9Q804.6 183.8 798.6 183.8ZM797.7 152.6L797.7 152.6Q794.3 152.6 792.2 154.7Q790.2 156.8 790.2 160.4L790.2 160.4L790.2 161.0L805.2 161.0L805.2 160.4Q805.2 156.7 803.2 154.7Q801.2 152.6 797.7 152.6ZM824.5 183.0L824.5 174.7L833.1 174.7L833.1 154.1L824.5 154.1L824.5 145.8L843.8 145.8L843.8 156.3L844.3 156.3Q844.8 154.3 845.7 152.4Q846.6 150.5 848.0 149.0Q849.4 147.5 851.4 146.7Q853.4 145.8 856.1 145.8L856.1 145.8L859.7 145.8L859.7 155.6L851.7 155.6Q847.8 155.6 845.8 157.9Q843.8 160.3 843.8 163.7L843.8 163.7L843.8 174.7L856.0 174.7L856.0 183.0L824.5 183.0ZM890.3 183.0L877.7 183.0L864.3 145.8L875.6 145.8L880.4 161.7L883.9 174.1L884.5 174.1L888.0 161.7L892.9 145.8L903.7 145.8L890.3 183.0ZM928.2 183.8L928.2 183.8Q918.8 183.8 914.0 178.6Q909.2 173.4 909.2 164.5L909.2 164.5Q909.2 160.0 910.5 156.3Q911.7 152.7 914.1 150.2Q916.4 147.6 919.7 146.3Q923.1 144.9 927.3 144.9L927.3 144.9Q931.4 144.9 934.8 146.3Q938.1 147.6 940.4 150.0Q942.7 152.5 943.9 156.0Q945.2 159.5 945.2 163.8L945.2 163.8L945.2 167.0L919.8 167.0L919.8 167.6Q919.8 171.2 922.0 173.4Q924.2 175.6 928.6 175.6L928.6 175.6Q931.9 175.6 934.3 174.3Q936.6 173.1 938.4 171.0L938.4 171.0L944.1 177.3Q942.0 179.9 938.1 181.9Q934.2 183.8 928.2 183.8ZM927.3 152.6L927.3 152.6Q923.9 152.6 921.8 154.7Q919.8 156.8 919.8 160.4L919.8 160.4L919.8 161.0L934.8 161.0L934.8 160.4Q934.8 156.7 932.8 154.7Q930.8 152.6 927.3 152.6ZM954.1 183.0L954.1 174.7L962.7 174.7L962.7 154.1L954.1 154.1L954.1 145.8L973.4 145.8L973.4 156.3L973.9 156.3Q974.4 154.3 975.3 152.4Q976.2 150.5 977.6 149.0Q979.0 147.5 981.0 146.7Q983.0 145.8 985.7 145.8L985.7 145.8L989.3 145.8L989.3 155.6L981.3 155.6Q977.4 155.6 975.4 157.9Q973.4 160.3 973.4 163.7L973.4 163.7L973.4 174.7L985.6 174.7L985.6 183.0L954.1 183.0ZM1032.9 183.0L994.3 183.0L994.3 126.8L1032.9 126.8L1032.9 183.0ZM1001.5 134.0L1001.5 175.8L1025.7 175.8L1025.7 134.0L1001.5 134.0ZM1066.2 183.0L1066.2 160.6L1066.8 146.5L1066.2 146.5L1056.8 172.4L1047.4 146.5L1046.8 146.5L1047.4 160.6L1047.4 183.0L1038.0 183.0L1038.0 132.7L1050.8 132.7L1056.9 149.6L1057.5 149.6L1063.7 132.7L1075.6 132.7L1075.6 183.0L1066.2 183.0ZM1106.3 183.0L1106.3 176.2L1105.8 176.2Q1104.6 179.4 1102.0 181.6Q1099.4 183.8 1094.9 183.8L1094.9 183.8Q1092.2 183.8 1090.0 182.9Q1087.8 182.0 1086.2 180.2Q1084.6 178.4 1083.7 175.8Q1082.8 173.2 1082.8 169.8L1082.8 169.8L1082.8 145.8L1093.4 145.8L1093.4 168.4Q1093.4 175.6 1099.7 175.6L1099.7 175.6Q1100.9 175.6 1102.1 175.3Q1103.3 175.0 1104.2 174.3Q1105.1 173.6 1105.7 172.6Q1106.3 171.6 1106.3 170.2L1106.3 170.2L1106.3 145.8L1116.9 145.8L1116.9 183.0L1106.3 183.0ZM1159.8 183.0L1146.1 183.0Q1140.3 183.0 1137.5 179.9Q1134.7 176.9 1134.7 172.2L1134.7 172.2L1134.7 154.1L1124.6 154.1L1124.6 145.8L1131.2 145.8Q1133.6 145.8 1134.6 144.9Q1135.6 143.9 1135.6 141.4L1135.6 141.4L1135.6 132.7L1145.4 132.7L1145.4 145.8L1159.8 145.8L1159.8 154.1L1145.4 154.1L1145.4 174.7L1159.8 174.7L1159.8 183.0ZM1206.0 183.0L1199.9 183.0Q1196.6 183.0 1194.5 181.3Q1192.5 179.6 1192.2 176.4L1192.2 176.4L1191.8 176.4Q1190.8 180.1 1187.8 181.9Q1184.8 183.8 1180.5 183.8L1180.5 183.8Q1175.1 183.8 1171.8 180.9Q1168.5 178.0 1168.5 172.7L1168.5 172.7Q1168.5 166.9 1172.8 164.1Q1177.0 161.3 1185.2 161.3L1185.2 161.3L1191.2 161.3L1191.2 159.4Q1191.2 156.1 1189.7 154.4Q1188.1 152.7 1184.5 152.7L1184.5 152.7Q1181.1 152.7 1179.0 154.0Q1176.9 155.3 1175.4 157.4L1175.4 157.4L1169.6 152.2Q1171.4 149.0 1175.4 147.0Q1179.4 144.9 1185.7 144.9L1185.7 144.9Q1193.3 144.9 1197.6 148.4Q1201.9 151.9 1201.9 159.0L1201.9 159.0L1201.9 175.2L1206.0 175.2L1206.0 183.0ZM1184.5 176.8L1184.5 176.8Q1187.3 176.8 1189.3 175.5Q1191.2 174.1 1191.2 171.5L1191.2 171.5L1191.2 167.0L1185.5 167.0Q1179.0 167.0 1179.0 171.4L1179.0 171.4L1179.0 172.9Q1179.0 174.8 1180.5 175.8Q1182.0 176.8 1184.5 176.8ZM1246.2 183.0L1232.5 183.0Q1226.7 183.0 1223.9 179.9Q1221.1 176.9 1221.1 172.2L1221.1 172.2L1221.1 154.1L1211.0 154.1L1211.0 145.8L1217.6 145.8Q1220.0 145.8 1221.0 144.9Q1222.0 143.9 1222.0 141.4L1222.0 141.4L1222.0 132.7L1231.8 132.7L1231.8 145.8L1246.2 145.8L1246.2 154.1L1231.8 154.1L1231.8 174.7L1246.2 174.7L1246.2 183.0ZM1275.1 141.0L1275.1 141.0Q1271.5 141.0 1270.1 139.6Q1268.7 138.1 1268.7 136.0L1268.7 136.0L1268.7 133.9Q1268.7 131.8 1270.1 130.3Q1271.5 128.9 1275.1 128.9L1275.1 128.9Q1278.7 128.9 1280.1 130.3Q1281.5 131.8 1281.5 133.9L1281.5 133.9L1281.5 136.0Q1281.5 138.1 1280.1 139.6Q1278.7 141.0 1275.1 141.0ZM1258.0 183.0L1258.0 174.7L1269.8 174.7L1269.8 154.1L1258.0 154.1L1258.0 145.8L1280.4 145.8L1280.4 174.7L1291.4 174.7L1291.4 183.0L1258.0 183.0ZM1316.0 183.8L1316.0 183.8Q1311.7 183.8 1308.2 182.5Q1304.8 181.2 1302.4 178.6Q1299.9 176.1 1298.6 172.5Q1297.4 168.9 1297.4 164.4L1297.4 164.4Q1297.4 159.8 1298.6 156.2Q1299.9 152.6 1302.4 150.1Q1304.8 147.6 1308.2 146.3Q1311.7 144.9 1316.0 144.9L1316.0 144.9Q1320.3 144.9 1323.8 146.3Q1327.2 147.6 1329.6 150.1Q1332.1 152.6 1333.4 156.2Q1334.6 159.8 1334.6 164.4L1334.6 164.4Q1334.6 168.9 1333.4 172.5Q1332.1 176.1 1329.6 178.6Q1327.2 181.2 1323.8 182.5Q1320.3 183.8 1316.0 183.8ZM1316.0 175.9L1316.0 175.9Q1319.6 175.9 1321.6 173.7Q1323.6 171.4 1323.6 167.3L1323.6 167.3L1323.6 161.4Q1323.6 157.3 1321.6 155.1Q1319.6 152.9 1316.0 152.9L1316.0 152.9Q1312.4 152.9 1310.4 155.1Q1308.4 157.3 1308.4 161.4L1308.4 161.4L1308.4 167.3Q1308.4 171.4 1310.4 173.7Q1312.4 175.9 1316.0 175.9ZM1352.9 183.0L1342.3 183.0L1342.3 145.8L1352.9 145.8L1352.9 152.6L1353.4 152.6Q1354.0 151.0 1355.0 149.6Q1355.9 148.2 1357.2 147.2Q1358.6 146.2 1360.3 145.5Q1362.1 144.9 1364.3 144.9L1364.3 144.9Q1367.0 144.9 1369.2 145.8Q1371.4 146.7 1373.0 148.5Q1374.6 150.3 1375.5 152.9Q1376.4 155.5 1376.4 158.9L1376.4 158.9L1376.4 183.0L1365.8 183.0L1365.8 160.3Q1365.8 153.1 1359.5 153.1L1359.5 153.1Q1358.3 153.1 1357.1 153.5Q1355.9 153.8 1355.0 154.5Q1354.0 155.2 1353.5 156.2Q1352.9 157.2 1352.9 158.5L1352.9 158.5L1352.9 183.0ZM1402.4 183.8L1402.4 183.8Q1392.3 183.8 1387.5 177.0Q1382.7 170.1 1382.7 157.8L1382.7 157.8Q1382.7 145.5 1387.5 138.7Q1392.3 131.8 1402.4 131.8L1402.4 131.8Q1412.5 131.8 1417.3 138.7Q1422.1 145.5 1422.1 157.8L1422.1 157.8Q1422.1 170.1 1417.3 177.0Q1412.5 183.8 1402.4 183.8ZM1402.4 175.1L1402.4 175.1Q1407.0 175.1 1408.8 171.7Q1410.5 168.3 1410.5 162.1L1410.5 162.1L1410.5 153.4Q1410.5 147.4 1408.8 144.0Q1407.0 140.5 1402.4 140.5L1402.4 140.5Q1397.8 140.5 1396.0 144.0Q1394.3 147.4 1394.3 153.4L1394.3 153.4L1394.3 162.2Q1394.3 168.3 1396.0 171.7Q1397.8 175.1 1402.4 175.1ZM1428.2 183.0L1428.2 129.7L1438.9 129.7L1438.9 152.6L1439.4 152.6Q1440.8 149.3 1443.4 147.1Q1446.0 144.9 1450.4 144.9L1450.4 144.9Q1453.5 144.9 1456.1 146.1Q1458.6 147.2 1460.5 149.6Q1462.3 152.0 1463.3 155.7Q1464.4 159.3 1464.4 164.4L1464.4 164.4Q1464.4 169.4 1463.3 173.1Q1462.3 176.8 1460.5 179.1Q1458.6 181.5 1456.1 182.7Q1453.5 183.8 1450.4 183.8L1450.4 183.8Q1446.0 183.8 1443.4 181.7Q1440.8 179.6 1439.4 176.2L1439.4 176.2L1438.9 176.2L1438.9 183.0L1428.2 183.0ZM1445.8 175.5L1445.8 175.5Q1449.4 175.5 1451.4 173.3Q1453.3 171.1 1453.3 167.3L1453.3 167.3L1453.3 161.5Q1453.3 157.6 1451.4 155.4Q1449.4 153.2 1445.8 153.2L1445.8 153.2Q1443.0 153.2 1441.0 154.6Q1438.9 156.0 1438.9 158.9L1438.9 158.9L1438.9 169.8Q1438.9 172.8 1441.0 174.2Q1443.0 175.5 1445.8 175.5ZM1488.4 183.8L1488.4 183.8Q1482.2 183.8 1477.6 181.9Q1473.0 180.1 1470.7 176.8L1470.7 176.8L1476.7 171.3Q1478.9 173.7 1481.8 175.0Q1484.7 176.3 1488.4 176.3L1488.4 176.3Q1491.6 176.3 1493.4 175.4Q1495.2 174.4 1495.2 172.4L1495.2 172.4Q1495.2 170.8 1494.0 170.2Q1492.8 169.6 1490.6 169.2L1490.6 169.2L1484.6 168.3Q1482.1 167.9 1479.9 167.1Q1477.8 166.4 1476.2 165.1Q1474.6 163.8 1473.7 161.9Q1472.7 160.1 1472.7 157.4L1472.7 157.4Q1472.7 151.6 1477.2 148.2Q1481.7 144.9 1489.7 144.9L1489.7 144.9Q1495.2 144.9 1499.1 146.4Q1502.9 147.9 1505.2 150.6L1505.2 150.6L1499.9 156.7Q1498.2 154.9 1495.6 153.6Q1493.0 152.4 1489.4 152.4L1489.4 152.4Q1483.2 152.4 1483.2 156.2L1483.2 156.2Q1483.2 157.8 1484.4 158.4Q1485.6 159.0 1487.8 159.4L1487.8 159.4L1493.7 160.3Q1496.2 160.7 1498.4 161.5Q1500.5 162.2 1502.2 163.5Q1503.8 164.8 1504.7 166.7Q1505.6 168.6 1505.6 171.2L1505.6 171.2Q1505.6 177.0 1501.1 180.4Q1496.6 183.8 1488.4 183.8ZM1533.0 183.8L1533.0 183.8Q1523.6 183.8 1518.8 178.6Q1514.0 173.4 1514.0 164.5L1514.0 164.5Q1514.0 160.0 1515.3 156.3Q1516.5 152.7 1518.9 150.2Q1521.2 147.6 1524.5 146.3Q1527.9 144.9 1532.1 144.9L1532.1 144.9Q1536.2 144.9 1539.6 146.3Q1542.9 147.6 1545.2 150.0Q1547.5 152.5 1548.7 156.0Q1550.0 159.5 1550.0 163.8L1550.0 163.8L1550.0 167.0L1524.6 167.0L1524.6 167.6Q1524.6 171.2 1526.8 173.4Q1529.0 175.6 1533.4 175.6L1533.4 175.6Q1536.7 175.6 1539.1 174.3Q1541.4 173.1 1543.2 171.0L1543.2 171.0L1548.9 177.3Q1546.8 179.9 1542.9 181.9Q1539.0 183.8 1533.0 183.8ZM1532.1 152.6L1532.1 152.6Q1528.7 152.6 1526.6 154.7Q1524.6 156.8 1524.6 160.4L1524.6 160.4L1524.6 161.0L1539.6 161.0L1539.6 160.4Q1539.6 156.7 1537.6 154.7Q1535.6 152.6 1532.1 152.6ZM1558.9 183.0L1558.9 174.7L1567.5 174.7L1567.5 154.1L1558.9 154.1L1558.9 145.8L1578.2 145.8L1578.2 156.3L1578.7 156.3Q1579.2 154.3 1580.1 152.4Q1581.0 150.5 1582.4 149.0Q1583.8 147.5 1585.8 146.7Q1587.8 145.8 1590.5 145.8L1590.5 145.8L1594.1 145.8L1594.1 155.6L1586.1 155.6Q1582.2 155.6 1580.2 157.9Q1578.2 160.3 1578.2 163.7L1578.2 163.7L1578.2 174.7L1590.4 174.7L1590.4 183.0L1558.9 183.0ZM1624.7 183.0L1612.1 183.0L1598.7 145.8L1610.0 145.8L1614.8 161.7L1618.3 174.1L1618.9 174.1L1622.4 161.7L1627.3 145.8L1638.1 145.8L1624.7 183.0ZM1662.6 183.8L1662.6 183.8Q1653.2 183.8 1648.4 178.6Q1643.6 173.4 1643.6 164.5L1643.6 164.5Q1643.6 160.0 1644.9 156.3Q1646.1 152.7 1648.5 150.2Q1650.8 147.6 1654.1 146.3Q1657.5 144.9 1661.7 144.9L1661.7 144.9Q1665.8 144.9 1669.2 146.3Q1672.5 147.6 1674.8 150.0Q1677.1 152.5 1678.3 156.0Q1679.6 159.5 1679.6 163.8L1679.6 163.8L1679.6 167.0L1654.2 167.0L1654.2 167.6Q1654.2 171.2 1656.4 173.4Q1658.6 175.6 1663.0 175.6L1663.0 175.6Q1666.3 175.6 1668.7 174.3Q1671.0 173.1 1672.8 171.0L1672.8 171.0L1678.5 177.3Q1676.4 179.9 1672.5 181.9Q1668.6 183.8 1662.6 183.8ZM1661.7 152.6L1661.7 152.6Q1658.3 152.6 1656.2 154.7Q1654.2 156.8 1654.2 160.4L1654.2 160.4L1654.2 161.0L1669.2 161.0L1669.2 160.4Q1669.2 156.7 1667.2 154.7Q1665.2 152.6 1661.7 152.6ZM1688.5 183.0L1688.5 174.7L1697.1 174.7L1697.1 154.1L1688.5 154.1L1688.5 145.8L1707.8 145.8L1707.8 156.3L1708.3 156.3Q1708.8 154.3 1709.7 152.4Q1710.6 150.5 1712.0 149.0Q1713.4 147.5 1715.4 146.7Q1717.4 145.8 1720.1 145.8L1720.1 145.8L1723.7 145.8L1723.7 155.6L1715.7 155.6Q1711.8 155.6 1709.8 157.9Q1707.8 160.3 1707.8 163.7L1707.8 163.7L1707.8 174.7L1720.0 174.7L1720.0 183.0L1688.5 183.0ZM1767.3 183.0L1728.7 183.0L1728.7 126.8L1767.3 126.8L1767.3 183.0ZM1735.9 134.0L1735.9 175.8L1760.1 175.8L1760.1 134.0L1735.9 134.0Z M144.1 257.9L144.1 276.6L133.5 276.6L133.5 226.3L152.9 226.3Q156.6 226.3 159.5 227.4Q162.3 228.5 164.3 230.6Q166.3 232.7 167.3 235.7Q168.3 238.6 168.3 242.3L168.3 242.3Q168.3 247.6 166.0 251.4Q163.7 255.2 159.5 256.5L159.5 256.5L169.3 276.6L157.5 276.6L149.1 257.9L144.1 257.9ZM144.1 249.6L150.3 249.6Q154.1 249.6 155.6 248.1Q157.1 246.7 157.1 243.4L157.1 243.4L157.1 241.2Q157.1 237.9 155.6 236.4Q154.1 235.0 150.3 235.0L150.3 235.0L144.1 235.0L144.1 249.6ZM193.8 277.4L193.8 277.4Q184.4 277.4 179.6 272.2Q174.8 267.0 174.8 258.1L174.8 258.1Q174.8 253.6 176.1 249.9Q177.3 246.3 179.7 243.8Q182 241.2 185.3 239.9Q188.7 238.5 192.9 238.5L192.9 238.5Q197.0 238.5 200.4 239.9Q203.7 241.2 206.0 243.6Q208.3 246.1 209.5 249.6Q210.8 253.1 210.8 257.4L210.8 257.4L210.8 260.6L185.4 260.6L185.4 261.2Q185.4 264.8 187.6 267.0Q189.8 269.2 194.2 269.2L194.2 269.2Q197.5 269.2 199.9 267.9Q202.2 266.7 204.0 264.6L204.0 264.6L209.7 270.9Q207.6 273.5 203.7 275.5Q199.8 277.4 193.8 277.4ZM192.9 246.2L192.9 246.2Q189.5 246.2 187.4 248.3Q185.4 250.4 185.4 254.0L185.4 254.0L185.4 254.6L200.4 254.6L200.4 254.0Q200.4 250.3 198.4 248.3Q196.4 246.2 192.9 246.2ZM235.6 277.4L235.6 277.4Q229.4 277.4 224.8 275.5Q220.2 273.7 217.9 270.4L217.9 270.4L223.9 264.9Q226.1 267.3 229.0 268.6Q231.9 269.9 235.6 269.9L235.6 269.9Q238.8 269.9 240.6 269.0Q242.4 268.0 242.4 266.0L242.4 266.0Q242.4 264.4 241.2 263.8Q240.0 263.2 237.8 262.8L237.8 262.8L231.8 261.9Q229.3 261.5 227.1 260.7Q225.0 260.0 223.4 258.7Q221.8 257.4 220.9 255.5Q219.9 253.7 219.9 251.0L219.9 251.0Q219.9 245.2 224.4 241.8Q228.9 238.5 236.9 238.5L236.9 238.5Q242.4 238.5 246.3 240.0Q250.1 241.5 252.4 244.2L252.4 244.2L247.1 250.3Q245.4 248.5 242.8 247.2Q240.2 246.0 236.6 246.0L236.6 246.0Q230.4 246.0 230.4 249.8L230.4 249.8Q230.4 251.4 231.6 252.0Q232.8 252.6 235.0 253.0L235.0 253.0L240.9 253.9Q243.4 254.3 245.6 255.1Q247.7 255.8 249.4 257.1Q251.0 258.4 251.9 260.3Q252.8 262.2 252.8 264.8L252.8 264.8Q252.8 270.6 248.3 274.0Q243.8 277.4 235.6 277.4ZM281.5 234.6L281.5 234.6Q277.9 234.6 276.5 233.2Q275.1 231.7 275.1 229.6L275.1 229.6L275.1 227.5Q275.1 225.4 276.5 223.9Q277.9 222.5 281.5 222.5L281.5 222.5Q285.1 222.5 286.5 223.9Q287.9 225.4 287.9 227.5L287.9 227.5L287.9 229.6Q287.9 231.7 286.5 233.2Q285.1 234.6 281.5 234.6ZM264.4 276.6L264.4 268.3L276.2 268.3L276.2 247.7L264.4 247.7L264.4 239.4L286.8 239.4L286.8 268.3L297.8 268.3L297.8 276.6L264.4 276.6ZM339.2 276.6L305.6 276.6L305.6 267.7L326.2 247.7L306.3 247.7L306.3 239.4L338.5 239.4L338.5 248.3L317.9 268.3L339.2 268.3L339.2 276.6ZM366.6 277.4L366.6 277.4Q357.2 277.4 352.4 272.2Q347.6 267.0 347.6 258.1L347.6 258.1Q347.6 253.6 348.9 249.9Q350.1 246.3 352.5 243.8Q354.8 241.2 358.1 239.9Q361.5 238.5 365.7 238.5L365.7 238.5Q369.8 238.5 373.2 239.9Q376.5 241.2 378.8 243.6Q381.1 246.1 382.3 249.6Q383.6 253.1 383.6 257.4L383.6 257.4L383.6 260.6L358.2 260.6L358.2 261.2Q358.2 264.8 360.4 267.0Q362.6 269.2 367.0 269.2L367.0 269.2Q370.3 269.2 372.7 267.9Q375.0 266.7 376.8 264.6L376.8 264.6L382.5 270.9Q380.4 273.5 376.5 275.5Q372.6 277.4 366.6 277.4ZM365.7 246.2L365.7 246.2Q362.3 246.2 360.2 248.3Q358.2 250.4 358.2 254.0L358.2 254.0L358.2 254.6L373.2 254.6L373.2 254.0Q373.2 250.3 371.2 248.3Q369.2 246.2 365.7 246.2ZM408.8 277.4L408.8 277.4Q398.7 277.4 393.9 270.6Q389.1 263.7 389.1 251.4L389.1 251.4Q389.1 239.1 393.9 232.3Q398.7 225.4 408.8 225.4L408.8 225.4Q418.9 225.4 423.7 232.3Q428.5 239.1 428.5 251.4L428.5 251.4Q428.5 263.7 423.7 270.6Q418.9 277.4 408.8 277.4ZM408.8 268.7L408.8 268.7Q413.4 268.7 415.2 265.3Q416.9 261.9 416.9 255.7L416.9 255.7L416.9 247.0Q416.9 241.0 415.2 237.6Q413.4 234.1 408.8 234.1L408.8 234.1Q404.2 234.1 402.4 237.6Q400.7 241.0 400.7 247.0L400.7 247.0L400.7 255.8Q400.7 261.9 402.4 265.3Q404.2 268.7 408.8 268.7ZM434.6 276.6L434.6 223.3L445.3 223.3L445.3 246.2L445.8 246.2Q447.2 242.9 449.8 240.7Q452.4 238.5 456.8 238.5L456.8 238.5Q459.9 238.5 462.5 239.7Q465.0 240.8 466.9 243.2Q468.7 245.6 469.7 249.3Q470.8 252.9 470.8 258.0L470.8 258.0Q470.8 263.0 469.7 266.7Q468.7 270.4 466.9 272.7Q465.0 275.1 462.5 276.3Q459.9 277.4 456.8 277.4L456.8 277.4Q452.4 277.4 449.8 275.3Q447.2 273.2 445.8 269.8L445.8 269.8L445.3 269.8L445.3 276.6L434.6 276.6ZM452.2 269.1L452.2 269.1Q455.8 269.1 457.8 266.9Q459.7 264.7 459.7 260.9L459.7 260.9L459.7 255.1Q459.7 251.2 457.8 249.0Q455.8 246.8 452.2 246.8L452.2 246.8Q449.4 246.8 447.4 248.2Q445.3 249.6 445.3 252.5L445.3 252.5L445.3 263.4Q445.3 266.4 447.4 267.8Q449.4 269.1 452.2 269.1ZM494.8 277.4L494.8 277.4Q488.6 277.4 484.0 275.5Q479.4 273.7 477.1 270.4L477.1 270.4L483.1 264.9Q485.3 267.3 488.2 268.6Q491.1 269.9 494.8 269.9L494.8 269.9Q498.0 269.9 499.8 269.0Q501.6 268.0 501.6 266.0L501.6 266.0Q501.6 264.4 500.4 263.8Q499.2 263.2 497.0 262.8L497.0 262.8L491.0 261.9Q488.5 261.5 486.3 260.7Q484.2 260.0 482.6 258.7Q481.0 257.4 480.1 255.5Q479.1 253.7 479.1 251.0L479.1 251.0Q479.1 245.2 483.6 241.8Q488.1 238.5 496.1 238.5L496.1 238.5Q501.6 238.5 505.5 240.0Q509.3 241.5 511.6 244.2L511.6 244.2L506.3 250.3Q504.6 248.5 502.0 247.2Q499.4 246.0 495.8 246.0L495.8 246.0Q489.6 246.0 489.6 249.8L489.6 249.8Q489.6 251.4 490.8 252.0Q492.0 252.6 494.2 253.0L494.2 253.0L500.1 253.9Q502.6 254.3 504.8 255.1Q506.9 255.8 508.6 257.1Q510.2 258.4 511.1 260.3Q512.0 262.2 512.0 264.8L512.0 264.8Q512.0 270.6 507.5 274.0Q503.0 277.4 494.8 277.4ZM539.4 277.4L539.4 277.4Q530.0 277.4 525.2 272.2Q520.4 267.0 520.4 258.1L520.4 258.1Q520.4 253.6 521.7 249.9Q522.9 246.3 525.3 243.8Q527.6 241.2 530.9 239.9Q534.3 238.5 538.5 238.5L538.5 238.5Q542.6 238.5 546.0 239.9Q549.3 241.2 551.6 243.6Q553.9 246.1 555.1 249.6Q556.4 253.1 556.4 257.4L556.4 257.4L556.4 260.6L531.0 260.6L531.0 261.2Q531.0 264.8 533.2 267.0Q535.4 269.2 539.8 269.2L539.8 269.2Q543.1 269.2 545.5 267.9Q547.8 266.7 549.6 264.6L549.6 264.6L555.3 270.9Q553.2 273.5 549.3 275.5Q545.4 277.4 539.4 277.4ZM538.5 246.2L538.5 246.2Q535.1 246.2 533.0 248.3Q531.0 250.4 531.0 254.0L531.0 254.0L531.0 254.6L546.0 254.6L546.0 254.0Q546.0 250.3 544.0 248.3Q542 246.2 538.5 246.2ZM565.3 276.6L565.3 268.3L573.9 268.3L573.9 247.7L565.3 247.7L565.3 239.4L584.6 239.4L584.6 249.9L585.1 249.9Q585.6 247.9 586.5 246.0Q587.4 244.1 588.8 242.6Q590.2 241.1 592.2 240.3Q594.2 239.4 596.9 239.4L596.9 239.4L600.5 239.4L600.5 249.2L592.5 249.2Q588.6 249.2 586.6 251.5Q584.6 253.9 584.6 257.3L584.6 257.3L584.6 268.3L596.8 268.3L596.8 276.6L565.3 276.6ZM631.1 276.6L618.5 276.6L605.1 239.4L616.4 239.4L621.2 255.3L624.7 267.7L625.3 267.7L628.8 255.3L633.7 239.4L644.5 239.4L631.1 276.6ZM669.0 277.4L669.0 277.4Q659.6 277.4 654.8 272.2Q650.0 267.0 650.0 258.1L650.0 258.1Q650.0 253.6 651.3 249.9Q652.5 246.3 654.9 243.8Q657.2 241.2 660.5 239.9Q663.9 238.5 668.1 238.5L668.1 238.5Q672.2 238.5 675.6 239.9Q678.9 241.2 681.2 243.6Q683.5 246.1 684.7 249.6Q686.0 253.1 686.0 257.4L686.0 257.4L686.0 260.6L660.6 260.6L660.6 261.2Q660.6 264.8 662.8 267.0Q665.0 269.2 669.4 269.2L669.4 269.2Q672.7 269.2 675.1 267.9Q677.4 266.7 679.2 264.6L679.2 264.6L684.9 270.9Q682.8 273.5 678.9 275.5Q675.0 277.4 669.0 277.4ZM668.1 246.2L668.1 246.2Q664.7 246.2 662.6 248.3Q660.6 250.4 660.6 254.0L660.6 254.0L660.6 254.6L675.6 254.6L675.6 254.0Q675.6 250.3 673.6 248.3Q671.6 246.2 668.1 246.2ZM694.9 276.6L694.9 268.3L703.5 268.3L703.5 247.7L694.9 247.7L694.9 239.4L714.2 239.4L714.2 249.9L714.7 249.9Q715.2 247.9 716.1 246.0Q717.0 244.1 718.4 242.6Q719.8 241.1 721.8 240.3Q723.8 239.4 726.5 239.4L726.5 239.4L730.1 239.4L730.1 249.2L722.1 249.2Q718.2 249.2 716.2 251.5Q714.2 253.9 714.2 257.3L714.2 257.3L714.2 268.3L726.4 268.3L726.4 276.6L694.9 276.6Z " clip-path="url(#satori_cp-id-1-0-0)" mask="url(#satori_om-id-1-0-0)"/><path fill="black" d="M130.7 520.3L130.7 499.6L132.9 499.6L132.9 508.2L133.0 508.2Q134.4 505.5 137.5 505.5L137.5 505.5Q140.1 505.5 141.6 507.5Q143.1 509.5 143.1 513.0L143.1 513.0Q143.1 516.6 141.6 518.6Q140.1 520.6 137.5 520.6L137.5 520.6Q134.4 520.6 133.0 517.9L133.0 517.9L132.9 517.9L132.9 520.3L130.7 520.3ZM136.6 518.6L136.6 518.6Q138.6 518.6 139.6 517.4Q140.7 516.2 140.7 514.3L140.7 514.3L140.7 511.8Q140.7 509.9 139.6 508.7Q138.6 507.5 136.6 507.5L136.6 507.5Q135.8 507.5 135.2 507.7Q134.5 507.9 134.0 508.2Q133.5 508.6 133.2 509.2Q132.9 509.7 132.9 510.4L132.9 510.4L132.9 515.7Q132.9 516.4 133.2 516.9Q133.5 517.5 134.0 517.8Q134.5 518.2 135.2 518.4Q135.8 518.6 136.6 518.6ZM155.4 511.9L157.9 505.8L160.1 505.8L152.9 523.4Q152.7 524.1 152.4 524.5Q152.1 525.0 151.7 525.3Q151.2 525.6 150.7 525.7Q150.1 525.9 149.3 525.9L149.3 525.9L147.1 525.9L147.1 524.0L150.5 524.0L152.1 520.0L146.3 505.8L148.6 505.8L151.0 511.9L153.2 517.4L153.3 517.4L155.4 511.9Z "/><clipPath id="satori_cp-id-1-0-1-0-2"><rect x="178" y="489" width="134" height="36"/></clipPath><mask id="satori_om-id-1-0-1-0-2"><rect x="178" y="489" width="134" height="36" fill="#fff"/></mask><path fill="black" d="M193.0 520.1L179.8 520.1L179.8 516.6L187.9 508.9L180.1 508.9L180.1 505.6L192.7 505.6L192.7 509.1L184.6 516.9L193.0 516.9L193.0 520.1ZM196.6 520.1L196.6 499.4L200.8 499.4L200.8 508.3L200.9 508.3Q201.2 507.7 201.5 507.1Q201.9 506.6 202.4 506.2Q202.9 505.8 203.6 505.5Q204.3 505.3 205.2 505.3L205.2 505.3Q206.2 505.3 207.1 505.7Q208.0 506.0 208.6 506.7Q209.2 507.4 209.5 508.4Q209.9 509.4 209.9 510.7L209.9 510.7L209.9 520.1L205.7 520.1L205.7 511.3Q205.7 508.5 203.3 508.5L203.3 508.5Q202.8 508.5 202.4 508.6Q201.9 508.8 201.5 509.0Q201.2 509.3 201.0 509.7Q200.8 510.1 200.8 510.6L200.8 510.6L200.8 520.1L196.6 520.1ZM227.6 520.1L225.2 520.1Q223.9 520.1 223.2 519.4Q222.4 518.8 222.2 517.5L222.2 517.5L222.1 517.5Q221.7 519.0 220.5 519.7Q219.4 520.4 217.7 520.4L217.7 520.4Q215.6 520.4 214.3 519.3Q213.1 518.2 213.1 516.1L213.1 516.1Q213.1 513.8 214.7 512.8Q216.4 511.7 219.6 511.7L219.6 511.7L221.9 511.7L221.9 510.9Q221.9 509.6 221.3 509.0Q220.7 508.3 219.2 508.3L219.2 508.3Q217.9 508.3 217.1 508.8Q216.3 509.3 215.7 510.2L215.7 510.2L213.4 508.1Q214.2 506.9 215.7 506.1Q217.3 505.3 219.7 505.3L219.7 505.3Q222.7 505.3 224.4 506.7Q226.0 508.0 226.0 510.8L226.0 510.8L226.0 517.1L227.6 517.1L227.6 520.1ZM219.3 517.7L219.3 517.7Q220.4 517.7 221.1 517.2Q221.9 516.6 221.9 515.6L221.9 515.6L221.9 513.9L219.7 513.9Q217.1 513.9 217.1 515.6L217.1 515.6L217.1 516.2Q217.1 516.9 217.7 517.3Q218.3 517.7 219.3 517.7ZM234.4 520.1L230.2 520.1L230.2 505.6L234.4 505.6L234.4 508.3L234.5 508.3Q234.8 507.7 235.1 507.1Q235.5 506.6 236.0 506.2Q236.5 505.8 237.2 505.5Q237.9 505.3 238.8 505.3L238.8 505.3Q239.8 505.3 240.7 505.7Q241.6 506.0 242.2 506.7Q242.8 507.4 243.1 508.4Q243.5 509.4 243.5 510.7L243.5 510.7L243.5 520.1L239.3 520.1L239.3 511.3Q239.3 508.5 236.9 508.5L236.9 508.5Q236.4 508.5 236.0 508.6Q235.5 508.8 235.1 509.0Q234.8 509.3 234.6 509.7Q234.4 510.1 234.4 510.6L234.4 510.6L234.4 520.1ZM261.5 521.5L261.5 521.5Q261.5 523.8 259.6 524.9Q257.7 526.0 253.5 526.0L253.5 526.0Q251.4 526.0 250.1 525.8Q248.8 525.6 248.0 525.1Q247.2 524.7 246.8 524.0Q246.5 523.4 246.5 522.7L246.5 522.7Q246.5 521.5 247.2 520.8Q248.0 520.2 249.3 519.9L249.3 519.9L249.3 519.7Q248.4 519.4 247.8 518.9Q247.3 518.4 247.3 517.4L247.3 517.4Q247.3 516.4 248.0 515.9Q248.7 515.4 249.9 515.1L249.9 515.1L249.9 514.9Q248.6 514.3 247.9 513.2Q247.2 512.1 247.2 510.5L247.2 510.5Q247.2 509.2 247.6 508.2Q248.1 507.3 248.9 506.6Q249.7 506.0 250.9 505.6Q252.0 505.3 253.4 505.3L253.4 505.3Q254.8 505.3 256.0 505.6L256.0 505.6L256.0 504.8Q256.0 504.0 256.6 503.4Q257.2 502.9 258.2 502.9L258.2 502.9L260.7 502.9L260.7 505.9L257.3 505.9L257.3 506.1Q258.4 506.8 259.1 507.8Q259.8 508.9 259.8 510.5L259.8 510.5Q259.8 511.7 259.3 512.7Q258.9 513.6 258.0 514.3Q257.2 514.9 256.0 515.3Q254.9 515.6 253.4 515.6L253.4 515.6Q252.8 515.6 252.2 515.5Q251.6 515.5 251.1 515.3L251.1 515.3Q250.8 515.5 250.6 515.8Q250.4 516.0 250.4 516.4L250.4 516.4Q250.4 516.7 250.5 516.9Q250.7 517.1 251.0 517.2Q251.3 517.3 251.7 517.3Q252.1 517.4 252.5 517.4L252.5 517.4L255.8 517.4Q257.3 517.4 258.4 517.7Q259.5 518.0 260.2 518.6Q260.9 519.1 261.2 519.9Q261.5 520.6 261.5 521.5ZM257.6 521.9L257.6 521.9Q257.6 521.3 257.2 521.0Q256.7 520.7 255.4 520.7L255.4 520.7L250.5 520.7Q249.9 521.1 249.9 521.8L249.9 521.8Q249.9 522.5 250.5 522.9Q251.1 523.4 252.5 523.4L252.5 523.4L254.9 523.4Q256.3 523.4 257.0 523.0Q257.6 522.6 257.6 521.9ZM253.4 513.0L253.4 513.0Q254.7 513.0 255.3 512.4Q255.8 511.7 255.8 510.8L255.8 510.8L255.8 510.1Q255.8 509.2 255.3 508.6Q254.7 507.9 253.4 507.9L253.4 507.9Q252.2 507.9 251.6 508.6Q251.1 509.2 251.1 510.1L251.1 510.1L251.1 510.8Q251.1 511.7 251.6 512.4Q252.2 513.0 253.4 513.0ZM263.9 520.1L263.9 516.9L268.3 516.9L268.3 502.6L263.9 502.6L263.9 499.4L272.5 499.4L272.5 516.9L276.9 516.9L276.9 520.1L263.9 520.1ZM289.6 520.1L289.6 517.5L289.5 517.5Q289.0 518.7 288.0 519.6Q286.9 520.4 285.2 520.4L285.2 520.4Q284.2 520.4 283.3 520.1Q282.4 519.7 281.8 519.0Q281.2 518.3 280.9 517.3Q280.5 516.3 280.5 515.0L280.5 515.0L280.5 505.6L284.7 505.6L284.7 514.4Q284.7 517.2 287.1 517.2L287.1 517.2Q287.6 517.2 288.0 517.1Q288.5 517.0 288.8 516.7Q289.2 516.5 289.4 516.1Q289.6 515.7 289.6 515.1L289.6 515.1L289.6 505.6L293.8 505.6L293.8 520.1L289.6 520.1ZM301.6 520.1L297.4 520.1L297.4 505.6L301.6 505.6L301.6 508.3L301.7 508.3Q302.0 507.7 302.3 507.1Q302.7 506.6 303.2 506.2Q303.7 505.8 304.4 505.5Q305.1 505.3 306.0 505.3L306.0 505.3Q307.0 505.3 307.9 505.7Q308.8 506.0 309.4 506.7Q310.0 507.4 310.3 508.4Q310.7 509.4 310.7 510.7L310.7 510.7L310.7 520.1L306.5 520.1L306.5 511.3Q306.5 508.5 304.1 508.5L304.1 508.5Q303.6 508.5 303.2 508.6Q302.7 508.8 302.3 509.0Q302.0 509.3 301.8 509.7Q301.6 510.1 301.6 510.6L301.6 510.6L301.6 520.1Z " clip-path="url(#satori_cp-id-1-0-1-0-2)" mask="url(#satori_om-id-1-0-1-0-2)"/><clipPath id="satori_cp-id-1-0-1-1"><rect x="786" y="489" width="286" height="36"/></clipPath><mask id="satori_om-id-1-0-1-1"><rect x="786" y="489" width="286" height="36" fill="#fff"/></mask><path fill="black" d="M802.7 520.1L798.2 520.1L796.9 515.4L791.6 515.4L790.4 520.1L786.1 520.1L791.4 500.5L797.4 500.5L802.7 520.1ZM796.3 512.0L794.4 504.6L794.2 504.6L792.3 512.0L796.3 512.0ZM811.0 520.4L811.0 520.4Q808.6 520.4 806.8 519.7Q805.1 519.0 804.2 517.7L804.2 517.7L806.5 515.6Q807.3 516.5 808.5 517.0Q809.6 517.5 811.1 517.5L811.1 517.5Q812.3 517.5 813.0 517.1Q813.7 516.8 813.7 516.0L813.7 516.0Q813.7 515.4 813.2 515.1Q812.7 514.9 811.9 514.7L811.9 514.7L809.6 514.4Q808.6 514.2 807.8 513.9Q806.9 513.7 806.3 513.1Q805.7 512.6 805.3 511.9Q805.0 511.2 805.0 510.2L805.0 510.2Q805.0 507.9 806.7 506.6Q808.4 505.3 811.6 505.3L811.6 505.3Q813.7 505.3 815.2 505.9Q816.7 506.5 817.6 507.5L817.6 507.5L815.5 509.9Q814.9 509.2 813.9 508.7Q812.9 508.2 811.4 508.2L811.4 508.2Q809.0 508.2 809.0 509.7L809.0 509.7Q809.0 510.3 809.5 510.6Q810.0 510.8 810.8 510.9L810.8 510.9L813.1 511.3Q814.1 511.4 814.9 511.7Q815.8 512.0 816.4 512.5Q817.0 513.0 817.4 513.8Q817.8 514.5 817.8 515.5L817.8 515.5Q817.8 517.8 816.0 519.1Q814.3 520.4 811.0 520.4ZM834.5 520.1L829.1 520.1Q826.9 520.1 825.8 518.9Q824.7 517.7 824.7 515.9L824.7 515.9L824.7 508.9L820.8 508.9L820.8 505.6L823.3 505.6Q824.2 505.6 824.6 505.3Q825.0 504.9 825.0 503.9L825.0 503.9L825.0 500.5L828.8 500.5L828.8 505.6L834.5 505.6L834.5 508.9L828.8 508.9L828.8 516.9L834.5 516.9L834.5 520.1ZM838.5 520.1L838.5 516.9L841.8 516.9L841.8 508.9L838.5 508.9L838.5 505.6L845.9 505.6L845.9 509.7L846.1 509.7Q846.3 508.9 846.7 508.2Q847.0 507.5 847.6 506.9Q848.1 506.3 848.9 506.0Q849.7 505.6 850.8 505.6L850.8 505.6L852.1 505.6L852.1 509.5L849.1 509.5Q847.5 509.5 846.7 510.4Q845.9 511.3 845.9 512.6L845.9 512.6L845.9 516.9L850.7 516.9L850.7 520.1L838.5 520.1ZM861.6 520.4L861.6 520.4Q859.9 520.4 858.6 519.9Q857.2 519.4 856.3 518.4Q855.4 517.4 854.9 516.0Q854.3 514.6 854.3 512.9L854.3 512.9Q854.3 511.1 854.9 509.7Q855.4 508.3 856.3 507.3Q857.2 506.3 858.6 505.8Q859.9 505.3 861.6 505.3L861.6 505.3Q863.3 505.3 864.6 505.8Q866.0 506.3 866.9 507.3Q867.8 508.3 868.3 509.7Q868.9 511.1 868.9 512.9L868.9 512.9Q868.9 514.6 868.3 516.0Q867.8 517.4 866.9 518.4Q866.0 519.4 864.6 519.9Q863.3 520.4 861.6 520.4ZM861.6 517.3L861.6 517.3Q863.0 517.3 863.8 516.5Q864.6 515.6 864.6 514.0L864.6 514.0L864.6 511.7Q864.6 510.1 863.8 509.3Q863.0 508.4 861.6 508.4L861.6 508.4Q860.2 508.4 859.4 509.3Q858.6 510.1 858.6 511.7L858.6 511.7L858.6 514.0Q858.6 515.6 859.4 516.5Q860.2 517.3 861.6 517.3Z M888.5 520.1L888.5 499.4L892.6 499.4L892.6 508.3L892.8 508.3Q893.3 507.0 894.3 506.1Q895.3 505.3 897.1 505.3L897.1 505.3Q898.3 505.3 899.3 505.8Q900.3 506.2 901.0 507.1Q901.7 508.1 902.1 509.5Q902.5 510.9 902.5 512.9L902.5 512.9Q902.5 514.8 902.1 516.3Q901.7 517.7 901.0 518.6Q900.3 519.5 899.3 520.0Q898.3 520.4 897.1 520.4L897.1 520.4Q895.3 520.4 894.3 519.6Q893.3 518.8 892.8 517.5L892.8 517.5L892.6 517.5L892.6 520.1L888.5 520.1ZM895.3 517.2L895.3 517.2Q896.7 517.2 897.4 516.4Q898.2 515.5 898.2 514.0L898.2 514.0L898.2 511.7Q898.2 510.2 897.4 509.4Q896.7 508.5 895.3 508.5L895.3 508.5Q894.2 508.5 893.4 509.1Q892.6 509.6 892.6 510.7L892.6 510.7L892.6 515.0Q892.6 516.1 893.4 516.7Q894.2 517.2 895.3 517.2ZM905.5 520.1L905.5 516.9L909.9 516.9L909.9 502.6L905.5 502.6L905.5 499.4L914.1 499.4L914.1 516.9L918.5 516.9L918.5 520.1L905.5 520.1ZM928.8 520.4L928.8 520.4Q927.1 520.4 925.8 519.9Q924.4 519.4 923.5 518.4Q922.6 517.4 922.1 516.0Q921.5 514.6 921.5 512.9L921.5 512.9Q921.5 511.1 922.1 509.7Q922.6 508.3 923.5 507.3Q924.4 506.3 925.8 505.8Q927.1 505.3 928.8 505.3L928.8 505.3Q930.5 505.3 931.8 505.8Q933.2 506.3 934.1 507.3Q935.0 508.3 935.5 509.7Q936.1 511.1 936.1 512.9L936.1 512.9Q936.1 514.6 935.5 516.0Q935.0 517.4 934.1 518.4Q933.2 519.4 931.8 519.9Q930.5 520.4 928.8 520.4ZM928.8 517.3L928.8 517.3Q930.2 517.3 931.0 516.5Q931.8 515.6 931.8 514.0L931.8 514.0L931.8 511.7Q931.8 510.1 931.0 509.3Q930.2 508.4 928.8 508.4L928.8 508.4Q927.4 508.4 926.6 509.3Q925.8 510.1 925.8 511.7L925.8 511.7L925.8 514.0Q925.8 515.6 926.6 516.5Q927.4 517.3 928.8 517.3ZM953.5 521.5L953.5 521.5Q953.5 523.8 951.6 524.9Q949.7 526.0 945.5 526.0L945.5 526.0Q943.4 526.0 942.1 525.8Q940.8 525.6 940.0 525.1Q939.2 524.7 938.8 524.0Q938.5 523.4 938.5 522.7L938.5 522.7Q938.5 521.5 939.2 520.8Q940.0 520.2 941.3 519.9L941.3 519.9L941.3 519.7Q940.4 519.4 939.8 518.9Q939.3 518.4 939.3 517.4L939.3 517.4Q939.3 516.4 940.0 515.9Q940.7 515.4 941.9 515.1L941.9 515.1L941.9 514.9Q940.6 514.3 939.9 513.2Q939.2 512.1 939.2 510.5L939.2 510.5Q939.2 509.2 939.6 508.2Q940.1 507.3 940.9 506.6Q941.7 506.0 942.9 505.6Q944.0 505.3 945.4 505.3L945.4 505.3Q946.8 505.3 948.0 505.6L948.0 505.6L948.0 504.8Q948.0 504.0 948.6 503.4Q949.2 502.9 950.2 502.9L950.2 502.9L952.7 502.9L952.7 505.9L949.3 505.9L949.3 506.1Q950.4 506.8 951.1 507.8Q951.8 508.9 951.8 510.5L951.8 510.5Q951.8 511.7 951.3 512.7Q950.9 513.6 950.0 514.3Q949.2 514.9 948.0 515.3Q946.9 515.6 945.4 515.6L945.4 515.6Q944.8 515.6 944.2 515.5Q943.6 515.5 943.1 515.3L943.1 515.3Q942.8 515.5 942.6 515.8Q942.4 516.0 942.4 516.4L942.4 516.4Q942.4 516.7 942.5 516.9Q942.7 517.1 943.0 517.2Q943.3 517.3 943.7 517.3Q944.1 517.4 944.5 517.4L944.5 517.4L947.8 517.4Q949.3 517.4 950.4 517.7Q951.5 518.0 952.2 518.6Q952.9 519.1 953.2 519.9Q953.5 520.6 953.5 521.5ZM949.6 521.9L949.6 521.9Q949.6 521.3 949.2 521.0Q948.7 520.7 947.4 520.7L947.4 520.7L942.5 520.7Q941.9 521.1 941.9 521.8L941.9 521.8Q941.9 522.5 942.5 522.9Q943.1 523.4 944.5 523.4L944.5 523.4L946.9 523.4Q948.3 523.4 949.0 523.0Q949.6 522.6 949.6 521.9ZM945.4 513.0L945.4 513.0Q946.7 513.0 947.3 512.4Q947.8 511.7 947.8 510.8L947.8 510.8L947.8 510.1Q947.8 509.2 947.3 508.6Q946.7 507.9 945.4 507.9L945.4 507.9Q944.2 507.9 943.6 508.6Q943.1 509.2 943.1 510.1L943.1 510.1L943.1 510.8Q943.1 511.7 943.6 512.4Q944.2 513.0 945.4 513.0Z M972.8 520.1L972.8 516.9L977.0 516.9L977.0 508.9L972.5 508.9L972.5 505.6L977.0 505.6L977.0 503.5Q977.0 501.7 978.1 500.5Q979.2 499.4 981.5 499.4L981.5 499.4L986.4 499.4L986.4 502.6L981.2 502.6L981.2 505.6L986.4 505.6L986.4 508.9L981.2 508.9L981.2 516.9L985.7 516.9L985.7 520.1L972.8 520.1ZM1003.6 520.1L1001.2 520.1Q999.9 520.1 999.2 519.4Q998.4 518.8 998.2 517.5L998.2 517.5L998.1 517.5Q997.7 519.0 996.5 519.7Q995.4 520.4 993.7 520.4L993.7 520.4Q991.6 520.4 990.3 519.3Q989.1 518.2 989.1 516.1L989.1 516.1Q989.1 513.8 990.7 512.8Q992.4 511.7 995.6 511.7L995.6 511.7L997.9 511.7L997.9 510.9Q997.9 509.6 997.3 509.0Q996.7 508.3 995.2 508.3L995.2 508.3Q993.9 508.3 993.1 508.8Q992.3 509.3 991.7 510.2L991.7 510.2L989.4 508.1Q990.2 506.9 991.7 506.1Q993.3 505.3 995.7 505.3L995.7 505.3Q998.7 505.3 1000.4 506.7Q1002.0 508.0 1002.0 510.8L1002.0 510.8L1002.0 517.1L1003.6 517.1L1003.6 520.1ZM995.3 517.7L995.3 517.7Q996.4 517.7 997.1 517.2Q997.9 516.6 997.9 515.6L997.9 515.6L997.9 513.9L995.7 513.9Q993.1 513.9 993.1 515.6L993.1 515.6L993.1 516.2Q993.1 516.9 993.7 517.3Q994.3 517.7 995.3 517.7ZM1013.4 520.4L1013.4 520.4Q1011.7 520.4 1010.3 519.9Q1009.0 519.4 1008.0 518.4Q1007.1 517.4 1006.6 516.0Q1006.1 514.6 1006.1 512.9L1006.1 512.9Q1006.1 511.1 1006.6 509.7Q1007.1 508.3 1008.0 507.3Q1009.0 506.3 1010.3 505.8Q1011.7 505.3 1013.4 505.3L1013.4 505.3Q1015.7 505.3 1017.2 506.3Q1018.6 507.2 1019.4 508.8L1019.4 508.8L1016.2 510.6Q1015.8 509.7 1015.2 509.2Q1014.5 508.6 1013.4 508.6L1013.4 508.6Q1011.9 508.6 1011.2 509.4Q1010.4 510.3 1010.4 511.7L1010.4 511.7L1010.4 514.0Q1010.4 515.5 1011.2 516.3Q1011.9 517.1 1013.4 517.1L1013.4 517.1Q1014.6 517.1 1015.3 516.6Q1016.0 516.0 1016.5 515.1L1016.5 515.1L1019.6 516.9Q1018.8 518.5 1017.3 519.5Q1015.8 520.4 1013.4 520.4ZM1030.5 503.8L1030.5 503.8Q1029.1 503.8 1028.5 503.2Q1028.0 502.6 1028.0 501.8L1028.0 501.8L1028.0 501.0Q1028.0 500.2 1028.5 499.6Q1029.1 499.1 1030.5 499.1L1030.5 499.1Q1031.9 499.1 1032.4 499.6Q1033.0 500.2 1033.0 501.0L1033.0 501.0L1033.0 501.8Q1033.0 502.6 1032.4 503.2Q1031.9 503.8 1030.5 503.8ZM1023.8 520.1L1023.8 516.9L1028.4 516.9L1028.4 508.9L1023.8 508.9L1023.8 505.6L1032.6 505.6L1032.6 516.9L1036.8 516.9L1036.8 520.1L1023.8 520.1ZM1039.9 520.1L1039.9 516.9L1044.3 516.9L1044.3 502.6L1039.9 502.6L1039.9 499.4L1048.5 499.4L1048.5 516.9L1052.9 516.9L1052.9 520.1L1039.9 520.1ZM1063.6 520.4L1063.6 520.4Q1060.0 520.4 1058.1 518.4Q1056.2 516.4 1056.2 512.9L1056.2 512.9Q1056.2 511.2 1056.7 509.7Q1057.2 508.3 1058.1 507.3Q1059.0 506.3 1060.3 505.8Q1061.6 505.3 1063.2 505.3L1063.2 505.3Q1064.9 505.3 1066.1 505.8Q1067.4 506.3 1068.3 507.3Q1069.2 508.2 1069.7 509.6Q1070.2 511.0 1070.2 512.6L1070.2 512.6L1070.2 513.9L1060.3 513.9L1060.3 514.1Q1060.3 515.5 1061.2 516.4Q1062.1 517.2 1063.7 517.2L1063.7 517.2Q1065.0 517.2 1065.9 516.7Q1066.9 516.3 1067.5 515.4L1067.5 515.4L1069.8 517.9Q1068.9 518.9 1067.4 519.7Q1065.9 520.4 1063.6 520.4ZM1063.3 508.3L1063.3 508.3Q1061.9 508.3 1061.1 509.1Q1060.3 509.9 1060.3 511.3L1060.3 511.3L1060.3 511.6L1066.1 511.6L1066.1 511.3Q1066.1 509.9 1065.4 509.1Q1064.6 508.3 1063.3 508.3Z " clip-path="url(#satori_cp-id-1-0-1-1)" mask="url(#satori_om-id-1-0-1-1)"/></svg>