<svg width="1200" height="630" viewBox="0 0 1200 630" xmlns="http://www.w3.org/2000/svg"><rect x="0" y="0" width="1200" height="630" fill="#fefbfb"/><defs><clipPath id="satori_bc-id-0"><path x="105" y="39" width="1056" height="504" d="M109,39 h1048 a4,4 0 0 1 4,4 v496 a4,4 0 0 1 -4,4 h-1048 a4,4 0 0 1 -4,-4 v-496 a4,4 0 0 1 4,-4"/></clipPath></defs><g opacity="0.9"><path x="105" y="39" width="1056" height="504" fill="#ecebeb" d="M109,39 h1048 a4,4 0 0 1 4,4 v496 a4,4 0 0 1 -4,4 h-1048 a4,4 0 0 1 -4,-4 v-496 a4,4 0 0 1 4,-4"/><path width="1056" height="504" clip-path="url(#satori_bc-id-0)" fill="none" stroke="#000" stroke-width="8" d="M106.172,40.172 A4,4 0 0 1 109,39 h1048 a4,4 0 0 1 4,4 v496 a4,4 0 0 1 -4,4 h-1048 a4,4 0 0 1 -4,-4 v-496 A4,4 0 0 1 106.172,40.172"/></g><defs><clipPath id="satori_bc-id-1"><path x="72" y="63" width="1056" height="504" d="M76,63 h1048 a4,4 0 0 1 4,4 v496 a4,4 0 0 1 -4,4 h-1048 a4,4 0 0 1 -4,-4 v-496 a4,4 0 0 1 4,-4"/></clipPath></defs><path x="72" y="63" width="1056" height="504" fill="#fefbfb" d="M76,63 h1048 a4,4 0 0 1 4,4 v496 a4,4 0 0 1 -4,4 h-1048 a4,4 0 0 1 -4,-4 v-496 a4,4 0 0 1 4,-4"/><path width="1056" height="504" clip-path="url(#satori_bc-id-1)" fill="none" stroke="#000" stroke-width="8" d="M73.172,64.172 A4,4 0 0 1 76,63 h1048 a4,4 0 0 1 4,4 v496 a4,4 0 0 1 -4,4 h-1048 a4,4 0 0 1 -4,-4 v-496 A4,4 0 0 1 73.172,64.172"/><clipPath id="satori_cp-id-1-0-0"><rect x="128" y="103" width="648" height="94"/></clipPath><mask id="satori_om-id-1-0-0"><rect x="128" y="103" width="648" height="94" fill="#fff"/></mask><path fill="black" d="M137.3 132.7L164.8 132.7L164.8 168.9Q164.8 172.3 163.6 175.1Q162.4 177.8 160.2 179.8Q158.0 181.7 154.9 182.8Q151.8 183.8 148.0 183.8L148.0 183.8Q140.3 183.8 136.1 180.0Q131.9 176.1 130.7 169.8L130.7 169.8L141.0 167.8Q141.5 171.0 143.2 173.0Q144.8 175.0 148.0 175.0L148.0 175.0Q150.8 175.0 152.3 173.3Q153.8 171.5 153.8 167.8L153.8 167.8L153.8 141.6L137.3 141.6L137.3 132.7ZM212.4 183.0L206.3 183.0Q203.0 183.0 200.9 181.3Q198.9 179.6 198.6 176.4L198.6 176.4L198.2 176.4Q197.2 180.1 194.2 181.9Q191.2 183.8 186.9 183.8L186.9 183.8Q181.5 183.8 178.2 180.9Q174.9 178.0 174.9 172.7L174.9 172.7Q174.9 166.9 179.2 164.1Q183.4 161.3 191.6 161.3L191.6 161.3L197.6 161.3L197.6 159.4Q197.6 156.1 196.1 154.4Q194.5 152.7 190.9 152.7L190.9 152.7Q187.5 152.7 185.4 154.0Q183.3 155.3 181.8 157.4L181.8 157.4L176.0 152.2Q177.8 149.0 181.8 147.0Q185.8 144.9 192.1 144.9L192.1 144.9Q199.7 144.9 204.0 148.4Q208.3 151.9 208.3 159.0L208.3 159.0L208.3 175.2L212.4 175.2L212.4 183.0ZM190.9 176.8L190.9 176.8Q193.7 176.8 195.7 175.5Q197.6 174.1 197.6 171.5L197.6 171.5L197.6 167.0L191.9 167.0Q185.4 167.0 185.4 171.4L185.4 171.4L185.4 172.9Q185.4 174.8 186.9 175.8Q188.4 176.8 190.9 176.8ZM242.3 183.0L229.7 183.0L216.3 145.8L227.6 145.8L232.4 161.7L235.9 174.1L236.5 174.1L240.0 161.7L244.9 145.8L255.7 145.8L242.3 183.0ZM298.8 183.0L292.7 183.0Q289.4 183.0 287.3 181.3Q285.3 179.6 285.0 176.4L285.0 176.4L284.6 176.4Q283.6 180.1 280.6 181.9Q277.6 183.8 273.3 183.8L273.3 183.8Q267.9 183.8 264.6 180.9Q261.3 178.0 261.3 172.7L261.3 172.7Q261.3 166.9 265.6 164.1Q269.8 161.3 278.0 161.3L278.0 161.3L284.0 161.3L284.0 159.4Q284.0 156.1 282.5 154.4Q280.9 152.7 277.3 152.7L277.3 152.7Q273.9 152.7 271.8 154.0Q269.7 155.3 268.2 157.4L268.2 157.4L262.4 152.2Q264.2 149.0 268.2 147.0Q272.2 144.9 278.5 144.9L278.5 144.9Q286.1 144.9 290.4 148.4Q294.7 151.9 294.7 159.0L294.7 159.0L294.7 175.2L298.8 175.2L298.8 183.0ZM277.3 176.8L277.3 176.8Q280.1 176.8 282.1 175.5Q284.0 174.1 284.0 171.5L284.0 171.5L284.0 167.0L278.3 167.0Q271.8 167.0 271.8 171.4L271.8 171.4L271.8 172.9Q271.8 174.8 273.3 175.8Q274.8 176.8 277.3 176.8ZM321.6 183.8L321.6 183.8Q315.3 183.8 310.6 181.7Q305.9 179.6 303.0 176.0L303.0 176.0L309.3 169.1Q312.0 172.2 315.3 173.6Q318.6 175.0 322.0 175.0L322.0 175.0Q325.9 175.0 327.9 173.3Q329.9 171.6 329.9 168.3L329.9 168.3Q329.9 165.7 328.3 164.3Q326.8 162.9 323.1 162.4L323.1 162.4L317.9 161.5Q311.1 160.3 308.1 156.5Q305.0 152.6 305.0 147.1L305.0 147.1Q305.0 139.8 309.8 135.8Q314.6 131.8 323.1 131.8L323.1 131.8Q329.0 131.8 333.3 133.6Q337.6 135.4 340.3 138.5L340.3 138.5L334.1 145.4Q332.1 143.1 329.4 141.9Q326.6 140.6 323.2 140.6L323.2 140.6Q315.9 140.6 315.9 146.6L315.9 146.6Q315.9 149.2 317.5 150.5Q319.2 151.8 322.8 152.4L322.8 152.4L328.1 153.4Q334.2 154.4 337.5 158.0Q340.8 161.5 340.8 167.5L340.8 167.5Q340.8 171.0 339.6 174.0Q338.4 177.0 335.9 179.2Q333.5 181.4 329.9 182.6Q326.4 183.8 321.6 183.8ZM367.1 183.8L367.1 183.8Q362.7 183.8 359.2 182.5Q355.7 181.2 353.3 178.6Q350.9 176.1 349.6 172.5Q348.3 168.9 348.3 164.4L348.3 164.4Q348.3 159.8 349.6 156.2Q350.9 152.6 353.3 150.1Q355.7 147.6 359.2 146.3Q362.7 144.9 367.0 144.9L367.0 144.9Q373.2 144.9 376.9 147.4Q380.6 149.9 382.5 154.0L382.5 154.0L374.3 158.5Q373.3 156.3 371.7 154.9Q370.1 153.4 367.0 153.4L367.0 153.4Q363.4 153.4 361.4 155.6Q359.4 157.7 359.4 161.4L359.4 161.4L359.4 167.4Q359.4 171.1 361.4 173.2Q363.4 175.3 367.2 175.3L367.2 175.3Q370.3 175.3 372.0 173.9Q373.8 172.4 375.0 170.1L375.0 170.1L383.1 174.7Q381.1 178.8 377.2 181.3Q373.4 183.8 367.1 183.8ZM392.5 183.0L392.5 174.7L401.1 174.7L401.1 154.1L392.5 154.1L392.5 145.8L411.8 145.8L411.8 156.3L412.3 156.3Q412.8 154.3 413.7 152.4Q414.6 150.5 416.0 149.0Q417.4 147.5 419.4 146.7Q421.4 145.8 424.1 145.8L424.1 145.8L427.7 145.8L427.7 155.6L419.7 155.6Q415.8 155.6 413.8 157.9Q411.8 160.3 411.8 163.7L411.8 163.7L411.8 174.7L424.0 174.7L424.0 183.0L392.5 183.0ZM454.3 141.0L454.3 141.0Q450.7 141.0 449.3 139.6Q447.9 138.1 447.9 136.0L447.9 136.0L447.9 133.9Q447.9 131.8 449.3 130.3Q450.7 128.9 454.3 128.9L454.3 128.9Q457.9 128.9 459.3 130.3Q460.7 131.8 460.7 133.9L460.7 133.9L460.7 136.0Q460.7 138.1 459.3 139.6Q457.9 141.0 454.3 141.0ZM437.2 183.0L437.2 174.7L449.0 174.7L449.0 154.1L437.2 154.1L437.2 145.8L459.6 145.8L459.6 174.7L470.6 174.7L470.6 183.0L437.2 183.0ZM477.8 197.4L477.8 145.8L488.5 145.8L488.5 152.6L489.0 152.6Q490.4 149.3 493.0 147.1Q495.6 144.9 500.0 144.9L500.0 144.9Q503.1 144.9 505.7 146.1Q508.2 147.2 510.1 149.6Q511.9 152.0 512.9 155.7Q514.0 159.3 514.0 164.4L514.0 164.4Q514.0 169.4 512.9 173.1Q511.9 176.8 510.1 179.1Q508.2 181.5 505.7 182.7Q503.1 183.8 500.0 183.8L500.0 183.8Q495.6 183.8 493.0 181.7Q490.4 179.6 489.0 176.2L489.0 176.2L488.5 176.2L488.5 197.4L477.8 197.4ZM495.4 175.5L495.4 175.5Q499.0 175.5 501.0 173.3Q502.9 171.1 502.9 167.3L502.9 167.3L502.9 161.5Q502.9 157.6 501.0 155.4Q499.0 153.2 495.4 153.2L495.4 153.2Q492.6 153.2 490.6 154.6Q488.5 156.0 488.5 158.9L488.5 158.9L488.5 169.8Q488.5 172.8 490.6 174.2Q492.6 175.5 495.4 175.5ZM557.7 183.0L519.1 183.0L519.1 126.8L557.7 126.8L557.7 183.0ZM526.3 134.0L526.3 175.8L550.5 175.8L550.5 134.0L526.3 134.0ZM600.9 183.0L562.3 183.0L562.3 126.8L600.9 126.8L600.9 183.0ZM569.5 134.0L569.5 175.8L593.7 175.8L593.7 134.0L569.5 134.0ZM644.1 183.0L605.5 183.0L605.5 126.8L644.1 126.8L644.1 183.0ZM612.7 134.0L612.7 175.8L636.9 175.8L636.9 134.0L612.7 134.0ZM687.3 183.0L648.7 183.0L648.7 126.8L687.3 126.8L687.3 183.0ZM655.9 134.0L655.9 175.8L680.1 175.8L680.1 134.0L655.9 134.0ZM730.5 183.0L691.9 183.0L691.9 126.8L730.5 126.8L730.5 183.0ZM699.1 134.0L699.1 175.8L723.3 175.8L723.3 134.0L699.1 134.0ZM773.7 183.0L735.1 183.0L735.1 126.8L773.7 126.8L773.7 183.0ZM742.3 134.0L742.3 175.8L766.5 175.8L766.5 134.0L742.3 134.0Z " clip-path="url(#satori_cp-id-1-0-0)" mask="url(#satori_om-id-1-0-0)"/><path fill="black" d="M130.7 520.3L130.7 499.6L132.9 499.6L132.9 508.2L133.0 508.2Q134.4 505.5 137.5 505.5L137.5 505.5Q140.1 505.5 141.6 507.5Q143.1 509.5 143.1 513.0L143.1 513.0Q143.1 516.6 141.6 518.6Q140.1 520.6 137.5 520.6L137.5 520.6Q134.4 520.6 133.0 517.9L133.0 517.9L132.9 517.9L132.9 520.3L130.7 520.3ZM136.6 518.6L136.6 518.6Q138.6 518.6 139.6 517.4Q140.7 516.2 140.7 514.3L140.7 514.3L140.7 511.8Q140.7 509.9 139.6 508.7Q138.6 507.5 136.6 507.5L136.6 507.5Q135.8 507.5 135.2 507.7Q134.5 507.9 134.0 508.2Q133.5 508.6 133.2 509.2Q132.9 509.7 132.9 510.4L132.9 510.4L132.9 515.7Q132.9 516.4 133.2 516.9Q133.5 517.5 134.0 517.8Q134.5 518.2 135.2 518.4Q135.8 518.6 136.6 518.6ZM155.4 511.9L157.9 505.8L160.1 505.8L152.9 523.4Q152.7 524.1 152.4 524.5Q152.1 525.0 151.7 525.3Q151.2 525.6 150.7 525.7Q150.1 525.9 149.3 525.9L149.3 525.9L147.1 525.9L147.1 524.0L150.5 524.0L152.1 520.0L146.3 505.8L148.6 505.8L151.0 511.9L153.2 517.4L153.3 517.4L155.4 511.9Z "/><clipPath id="satori_cp-id-1-0-1-0-2"><rect x="178" y="489" width="134" height="36"/></clipPath><mask id="satori_om-id-1-0-1-0-2"><rect x="178" y="489" width="134" height="36" fill="#fff"/></mask><path fill="black" d="M193.0 520.1L179.8 520.1L179.8 516.6L187.9 508.9L180.1 508.9L180.1 505.6L192.7 505.6L192.7 509.1L184.6 516.9L193.0 516.9L193.0 520.1ZM196.6 520.1L196.6 499.4L200.8 499.4L200.8 508.3L200.9 508.3Q201.2 507.7 201.5 507.1Q201.9 506.6 202.4 506.2Q202.9 505.8 203.6 505.5Q204.3 505.3 205.2 505.3L205.2 505.3Q206.2 505.3 207.1 505.7Q208.0 506.0 208.6 506.7Q209.2 507.4 209.5 508.4Q209.9 509.4 209.9 510.7L209.9 510.7L209.9 520.1L205.7 520.1L205.7 511.3Q205.7 508.5 203.3 508.5L203.3 508.5Q202.8 508.5 202.4 508.6Q201.9 508.8 201.5 509.0Q201.2 509.3 201.0 509.7Q200.8 510.1 200.8 510.6L200.8 510.6L200.8 520.1L196.6 520.1ZM227.6 520.1L225.2 520.1Q223.9 520.1 223.2 519.4Q222.4 518.8 222.2 517.5L222.2 517.5L222.1 517.5Q221.7 519.0 220.5 519.7Q219.4 520.4 217.7 520.4L217.7 520.4Q215.6 520.4 214.3 519.3Q213.1 518.2 213.1 516.1L213.1 516.1Q213.1 513.8 214.7 512.8Q216.4 511.7 219.6 511.7L219.6 511.7L221.9 511.7L221.9 510.9Q221.9 509.6 221.3 509.0Q220.7 508.3 219.2 508.3L219.2 508.3Q217.9 508.3 217.1 508.8Q216.3 509.3 215.7 510.2L215.7 510.2L213.4 508.1Q214.2 506.9 215.7 506.1Q217.3 505.3 219.7 505.3L219.7 505.3Q222.7 505.3 224.4 506.7Q226.0 508.0 226.0 510.8L226.0 510.8L226.0 517.1L227.6 517.1L227.6 520.1ZM219.3 517.7L219.3 517.7Q220.4 517.7 221.1 517.2Q221.9 516.6 221.9 515.6L221.9 515.6L221.9 513.9L219.7 513.9Q217.1 513.9 217.1 515.6L217.1 515.6L217.1 516.2Q217.1 516.9 217.7 517.3Q218.3 517.7 219.3 517.7ZM234.4 520.1L230.2 520.1L230.2 505.6L234.4 505.6L234.4 508.3L234.5 508.3Q234.8 507.7 235.1 507.1Q235.5 506.6 236.0 506.2Q236.5 505.8 237.2 505.5Q237.9 505.3 238.8 505.3L238.8 505.3Q239.8 505.3 240.7 505.7Q241.6 506.0 242.2 506.7Q242.8 507.4 243.1 508.4Q243.5 509.4 243.5 510.7L243.5 510.7L243.5 520.1L239.3 520.1L239.3 511.3Q239.3 508.5 236.9 508.5L236.9 508.5Q236.4 508.5 236.0 508.6Q235.5 508.8 235.1 509.0Q234.8 509.3 234.6 509.7Q234.4 510.1 234.4 510.6L234.4 510.6L234.4 520.1ZM261.5 521.5L261.5 521.5Q261.5 523.8 259.6 524.9Q257.7 526.0 253.5 526.0L253.5 526.0Q251.4 526.0 250.1 525.8Q248.8 525.6 248.0 525.1Q247.2 524.7 246.8 524.0Q246.5 523.4 246.5 522.7L246.5 522.7Q246.5 521.5 247.2 520.8Q248.0 520.2 249.3 519.9L249.3 519.9L249.3 519.7Q248.4 519.4 247.8 518.9Q247.3 518.4 247.3 517.4L247.3 517.4Q247.3 516.4 248.0 515.9Q248.7 515.4 249.9 515.1L249.9 515.1L249.9 514.9Q248.6 514.3 247.9 513.2Q247.2 512.1 247.2 510.5L247.2 510.5Q247.2 509.2 247.6 508.2Q248.1 507.3 248.9 506.6Q249.7 506.0 250.9 505.6Q252.0 505.3 253.4 505.3L253.4 505.3Q254.8 505.3 256.0 505.6L256.0 505.6L256.0 504.8Q256.0 504.0 256.6 503.4Q257.2 502.9 258.2 502.9L258.2 502.9L260.7 502.9L260.7 505.9L257.3 505.9L257.3 506.1Q258.4 506.8 259.1 507.8Q259.8 508.9 259.8 510.5L259.8 510.5Q259.8 511.7 259.3 512.7Q258.9 513.6 258.0 514.3Q257.2 514.9 256.0 515.3Q254.9 515.6 253.4 515.6L253.4 515.6Q252.8 515.6 252.2 515.5Q251.6 515.5 251.1 515.3L251.1 515.3Q250.8 515.5 250.6 515.8Q250.4 516.0 250.4 516.4L250.4 516.4Q250.4 516.7 250.5 516.9Q250.7 517.1 251.0 517.2Q251.3 517.3 251.7 517.3Q252.1 517.4 252.5 517.4L252.5 517.4L255.8 517.4Q257.3 517.4 258.4 517.7Q259.5 518.0 260.2 518.6Q260.9 519.1 261.2 519.9Q261.5 520.6 261.5 521.5ZM257.6 521.9L257.6 521.9Q257.6 521.3 257.2 521.0Q256.7 520.7 255.4 520.7L255.4 520.7L250.5 520.7Q249.9 521.1 249.9 521.8L249.9 521.8Q249.9 522.5 250.5 522.9Q251.1 523.4 252.5 523.4L252.5 523.4L254.9 523.4Q256.3 523.4 257.0 523.0Q257.6 522.6 257.6 521.9ZM253.4 513.0L253.4 513.0Q254.7 513.0 255.3 512.4Q255.8 511.7 255.8 510.8L255.8 510.8L255.8 510.1Q255.8 509.2 255.3 508.6Q254.7 507.9 253.4 507.9L253.4 507.9Q252.2 507.9 251.6 508.6Q251.1 509.2 251.1 510.1L251.1 510.1L251.1 510.8Q251.1 511.7 251.6 512.4Q252.2 513.0 253.4 513.0ZM263.9 520.1L263.9 516.9L268.3 516.9L268.3 502.6L263.9 502.6L263.9 499.4L272.5 499.4L272.5 516.9L276.9 516.9L276.9 520.1L263.9 520.1ZM289.6 520.1L289.6 517.5L289.5 517.5Q289.0 518.7 288.0 519.6Q286.9 520.4 285.2 520.4L285.2 520.4Q284.2 520.4 283.3 520.1Q282.4 519.7 281.8 519.0Q281.2 518.3 280.9 517.3Q280.5 516.3 280.5 515.0L280.5 515.0L280.5 505.6L284.7 505.6L284.7 514.4Q284.7 517.2 287.1 517.2L287.1 517.2Q287.6 517.2 288.0 517.1Q288.5 517.0 288.8 516.7Q289.2 516.5 289.4 516.1Q289.6 515.7 289.6 515.1L289.6 515.1L289.6 505.6L293.8 505.6L293.8 520.1L289.6 520.1ZM301.6 520.1L297.4 520.1L297.4 505.6L301.6 505.6L301.6 508.3L301.7 508.3Q302.0 507.7 302.3 507.1Q302.7 506.6 303.2 506.2Q303.7 505.8 304.4 505.5Q305.1 505.3 306.0 505.3L306.0 505.3Q307.0 505.3 307.9 505.7Q308.8 506.0 309.4 506.7Q310.0 507.4 310.3 508.4Q310.7 509.4 310.7 510.7L310.7 510.7L310.7 520.1L306.5 520.1L306.5 511.3Q306.5 508.5 304.1 508.5L304.1 508.5Q303.6 508.5 303.2 508.6Q302.7 508.8 302.3 509.0Q302.0 509.3 301.8 509.7Q301.6 510.1 301.6 510.6L301.6 510.6L301.6 520.1Z " clip-path="url(#satori_cp-id-1-0-1-0-2)" mask="url(#satori_om-id-1-0-1-0-2)"/><clipPath id="satori_cp-id-1-0-1-1"><rect x="786" y="489" width="286" height="36"/></clipPath><mask id="satori_om-id-1-0-1-1"><rect x="786" y="489" width="286" height="36" fill="#fff"/></mask><path fill="black" d="M802.7 520.1L798.2 520.1L796.9 515.4L791.6 515.4L790.4 520.1L786.1 520.1L791.4 500.5L797.4 500.5L802.7 520.1ZM796.3 512.0L794.4 504.6L794.2 504.6L792.3 512.0L796.3 512.0ZM811.0 520.4L811.0 520.4Q808.6 520.4 806.8 519.7Q805.1 519.0 804.2 517.7L804.2 517.7L806.5 515.6Q807.3 516.5 808.5 517.0Q809.6 517.5 811.1 517.5L811.1 517.5Q812.3 517.5 813.0 517.1Q813.7 516.8 813.7 516.0L813.7 516.0Q813.7 515.4 813.2 515.1Q812.7 514.9 811.9 514.7L811.9 514.7L809.6 514.4Q808.6 514.2 807.8 513.9Q806.9 513.7 806.3 513.1Q805.7 512.6 805.3 511.9Q805.0 511.2 805.0 510.2L805.0 510.2Q805.0 507.9 806.7 506.6Q808.4 505.3 811.6 505.3L811.6 505.3Q813.7 505.3 815.2 505.9Q816.7 506.5 817.6 507.5L817.6 507.5L815.5 509.9Q814.9 509.2 813.9 508.7Q812.9 508.2 811.4 508.2L811.4 508.2Q809.0 508.2 809.0 509.7L809.0 509.7Q809.0 510.3 809.5 510.6Q810.0 510.8 810.8 510.9L810.8 510.9L813.1 511.3Q814.1 511.4 814.9 511.7Q815.8 512.0 816.4 512.5Q817.0 513.0 817.4 513.8Q817.8 514.5 817.8 515.5L817.8 515.5Q817.8 517.8 816.0 519.1Q814.3 520.4 811.0 520.4ZM834.5 520.1L829.1 520.1Q826.9 520.1 825.8 518.9Q824.7 517.7 824.7 515.9L824.7 515.9L824.7 508.9L820.8 508.9L820.8 505.6L823.3 505.6Q824.2 505.6 824.6 505.3Q825.0 504.9 825.0 503.9L825.0 503.9L825.0 500.5L828.8 500.5L828.8 505.6L834.5 505.6L834.5 508.9L828.8 508.9L828.8 516.9L834.5 516.9L834.5 520.1ZM838.5 520.1L838.5 516.9L841.8 516.9L841.8 508.9L838.5 508.9L838.5 505.6L845.9 505.6L845.9 509.7L846.1 509.7Q846.3 508.9 846.7 508.2Q847.0 507.5 847.6 506.9Q848.1 506.3 848.9 506.0Q849.7 505.6 850.8 505.6L850.8 505.6L852.1 505.6L852.1 509.5L849.1 509.5Q847.5 509.5 846.7 510.4Q845.9 511.3 845.9 512.6L845.9 512.6L845.9 516.9L850.7 516.9L850.7 520.1L838.5 520.1ZM861.6 520.4L861.6 520.4Q859.9 520.4 858.6 519.9Q857.2 519.4 856.3 518.4Q855.4 517.4 854.9 516.0Q854.3 514.6 854.3 512.9L854.3 512.9Q854.3 511.1 854.9 509.7Q855.4 508.3 856.3 507.3Q857.2 506.3 858.6 505.8Q859.9 505.3 861.6 505.3L861.6 505.3Q863.3 505.3 864.6 505.8Q866.0 506.3 866.9 507.3Q867.8 508.3 868.3 509.7Q868.9 511.1 868.9 512.9L868.9 512.9Q868.9 514.6 868.3 516.0Q867.8 517.4 866.9 518.4Q866.0 519.4 864.6 519.9Q863.3 520.4 861.6 520.4ZM861.6 517.3L861.6 517.3Q863.0 517.3 863.8 516.5Q864.6 515.6 864.6 514.0L864.6 514.0L864.6 511.7Q864.6 510.1 863.8 509.3Q863.0 508.4 861.6 508.4L861.6 508.4Q860.2 508.4 859.4 509.3Q858.6 510.1 858.6 511.7L858.6 511.7L858.6 514.0Q858.6 515.6 859.4 516.5Q860.2 517.3 861.6 517.3Z M888.5 520.1L888.5 499.4L892.6 499.4L892.6 508.3L892.8 508.3Q893.3 507.0 894.3 506.1Q895.3 505.3 897.1 505.3L897.1 505.3Q898.3 505.3 899.3 505.8Q900.3 506.2 901.0 507.1Q901.7 508.1 902.1 509.5Q902.5 510.9 902.5 512.9L902.5 512.9Q902.5 514.8 902.1 516.3Q901.7 517.7 901.0 518.6Q900.3 519.5 899.3 520.0Q898.3 520.4 897.1 520.4L897.1 520.4Q895.3 520.4 894.3 519.6Q893.3 518.8 892.8 517.5L892.8 517.5L892.6 517.5L892.6 520.1L888.5 520.1ZM895.3 517.2L895.3 517.2Q896.7 517.2 897.4 516.4Q898.2 515.5 898.2 514.0L898.2 514.0L898.2 511.7Q898.2 510.2 897.4 509.4Q896.7 508.5 895.3 508.5L895.3 508.5Q894.2 508.5 893.4 509.1Q892.6 509.6 892.6 510.7L892.6 510.7L892.6 515.0Q892.6 516.1 893.4 516.7Q894.2 517.2 895.3 517.2ZM905.5 520.1L905.5 516.9L909.9 516.9L909.9 502.6L905.5 502.6L905.5 499.4L914.1 499.4L914.1 516.9L918.5 516.9L918.5 520.1L905.5 520.1ZM928.8 520.4L928.8 520.4Q927.1 520.4 925.8 519.9Q924.4 519.4 923.5 518.4Q922.6 517.4 922.1 516.0Q921.5 514.6 921.5 512.9L921.5 512.9Q921.5 511.1 922.1 509.7Q922.6 508.3 923.5 507.3Q924.4 506.3 925.8 505.8Q927.1 505.3 928.8 505.3L928.8 505.3Q930.5 505.3 931.8 505.8Q933.2 506.3 934.1 507.3Q935.0 508.3 935.5 509.7Q936.1 511.1 936.1 512.9L936.1 512.9Q936.1 514.6 935.5 516.0Q935.0 517.4 934.1 518.4Q933.2 519.4 931.8 519.9Q930.5 520.4 928.8 520.4ZM928.8 517.3L928.8 517.3Q930.2 517.3 931.0 516.5Q931.8 515.6 931.8 514.0L931.8 514.0L931.8 511.7Q931.8 510.1 931.0 509.3Q930.2 508.4 928.8 508.4L928.8 508.4Q927.4 508.4 926.6 509.3Q925.8 510.1 925.8 511.7L925.8 511.7L925.8 514.0Q925.8 515.6 926.6 516.5Q927.4 517.3 928.8 517.3ZM953.5 521.5L953.5 521.5Q953.5 523.8 951.6 524.9Q949.7 526.0 945.5 526.0L945.5 526.0Q943.4 526.0 942.1 525.8Q940.8 525.6 940.0 525.1Q939.2 524.7 938.8 524.0Q938.5 523.4 938.5 522.7L938.5 522.7Q938.5 521.5 939.2 520.8Q940.0 520.2 941.3 519.9L941.3 519.9L941.3 519.7Q940.4 519.4 939.8 518.9Q939.3 518.4 939.3 517.4L939.3 517.4Q939.3 516.4 940.0 515.9Q940.7 515.4 941.9 515.1L941.9 515.1L941.9 514.9Q940.6 514.3 939.9 513.2Q939.2 512.1 939.2 510.5L939.2 510.5Q939.2 509.2 939.6 508.2Q940.1 507.3 940.9 506.6Q941.7 506.0 942.9 505.6Q944.0 505.3 945.4 505.3L945.4 505.3Q946.8 505.3 948.0 505.6L948.0 505.6L948.0 504.8Q948.0 504.0 948.6 503.4Q949.2 502.9 950.2 502.9L950.2 502.9L952.7 502.9L952.7 505.9L949.3 505.9L949.3 506.1Q950.4 506.8 951.1 507.8Q951.8 508.9 951.8 510.5L951.8 510.5Q951.8 511.7 951.3 512.7Q950.9 513.6 950.0 514.3Q949.2 514.9 948.0 515.3Q946.9 515.6 945.4 515.6L945.4 515.6Q944.8 515.6 944.2 515.5Q943.6 515.5 943.1 515.3L943.1 515.3Q942.8 515.5 942.6 515.8Q942.4 516.0 942.4 516.4L942.4 516.4Q942.4 516.7 942.5 516.9Q942.7 517.1 943.0 517.2Q943.3 517.3 943.7 517.3Q944.1 517.4 944.5 517.4L944.5 517.4L947.8 517.4Q949.3 517.4 950.4 517.7Q951.5 518.0 952.2 518.6Q952.9 519.1 953.2 519.9Q953.5 520.6 953.5 521.5ZM949.6 521.9L949.6 521.9Q949.6 521.3 949.2 521.0Q948.7 520.7 947.4 520.7L947.4 520.7L942.5 520.7Q941.9 521.1 941.9 521.8L941.9 521.8Q941.9 522.5 942.5 522.9Q943.1 523.4 944.5 523.4L944.5 523.4L946.9 523.4Q948.3 523.4 949.0 523.0Q949.6 522.6 949.6 521.9ZM945.4 513.0L945.4 513.0Q946.7 513.0 947.3 512.4Q947.8 511.7 947.8 510.8L947.8 510.8L947.8 510.1Q947.8 509.2 947.3 508.6Q946.7 507.9 945.4 507.9L945.4 507.9Q944.2 507.9 943.6 508.6Q943.1 509.2 943.1 510.1L943.1 510.1L943.1 510.8Q943.1 511.7 943.6 512.4Q944.2 513.0 945.4 513.0Z M972.8 520.1L972.8 516.9L977.0 516.9L977.0 508.9L972.5 508.9L972.5 505.6L977.0 505.6L977.0 503.5Q977.0 501.7 978.1 500.5Q979.2 499.4 981.5 499.4L981.5 499.4L986.4 499.4L986.4 502.6L981.2 502.6L981.2 505.6L986.4 505.6L986.4 508.9L981.2 508.9L981.2 516.9L985.7 516.9L985.7 520.1L972.8 520.1ZM1003.6 520.1L1001.2 520.1Q999.9 520.1 999.2 519.4Q998.4 518.8 998.2 517.5L998.2 517.5L998.1 517.5Q997.7 519.0 996.5 519.7Q995.4 520.4 993.7 520.4L993.7 520.4Q991.6 520.4 990.3 519.3Q989.1 518.2 989.1 516.1L989.1 516.1Q989.1 513.8 990.7 512.8Q992.4 511.7 995.6 511.7L995.6 511.7L997.9 511.7L997.9 510.9Q997.9 509.6 997.3 509.0Q996.7 508.3 995.2 508.3L995.2 508.3Q993.9 508.3 993.1 508.8Q992.3 509.3 991.7 510.2L991.7 510.2L989.4 508.1Q990.2 506.9 991.7 506.1Q993.3 505.3 995.7 505.3L995.7 505.3Q998.7 505.3 1000.4 506.7Q1002.0 508.0 1002.0 510.8L1002.0 510.8L1002.0 517.1L1003.6 517.1L1003.6 520.1ZM995.3 517.7L995.3 517.7Q996.4 517.7 997.1 517.2Q997.9 516.6 997.9 515.6L997.9 515.6L997.9 513.9L995.7 513.9Q993.1 513.9 993.1 515.6L993.1 515.6L993.1 516.2Q993.1 516.9 993.7 517.3Q994.3 517.7 995.3 517.7ZM1013.4 520.4L1013.4 520.4Q1011.7 520.4 1010.3 519.9Q1009.0 519.4 1008.0 518.4Q1007.1 517.4 1006.6 516.0Q1006.1 514.6 1006.1 512.9L1006.1 512.9Q1006.1 511.1 1006.6 509.7Q1007.1 508.3 1008.0 507.3Q1009.0 506.3 1010.3 505.8Q1011.7 505.3 1013.4 505.3L1013.4 505.3Q1015.7 505.3 1017.2 506.3Q1018.6 507.2 1019.4 508.8L1019.4 508.8L1016.2 510.6Q1015.8 509.7 1015.2 509.2Q1014.5 508.6 1013.4 508.6L1013.4 508.6Q1011.9 508.6 1011.2 509.4Q1010.4 510.3 1010.4 511.7L1010.4 511.7L1010.4 514.0Q1010.4 515.5 1011.2 516.3Q1011.9 517.1 1013.4 517.1L1013.4 517.1Q1014.6 517.1 1015.3 516.6Q1016.0 516.0 1016.5 515.1L1016.5 515.1L1019.6 516.9Q1018.8 518.5 1017.3 519.5Q1015.8 520.4 1013.4 520.4ZM1030.5 503.8L1030.5 503.8Q1029.1 503.8 1028.5 503.2Q1028.0 502.6 1028.0 501.8L1028.0 501.8L1028.0 501.0Q1028.0 500.2 1028.5 499.6Q1029.1 499.1 1030.5 499.1L1030.5 499.1Q1031.9 499.1 1032.4 499.6Q1033.0 500.2 1033.0 501.0L1033.0 501.0L1033.0 501.8Q1033.0 502.6 1032.4 503.2Q1031.9 503.8 1030.5 503.8ZM1023.8 520.1L1023.8 516.9L1028.4 516.9L1028.4 508.9L1023.8 508.9L1023.8 505.6L1032.6 505.6L1032.6 516.9L1036.8 516.9L1036.8 520.1L1023.8 520.1ZM1039.9 520.1L1039.9 516.9L1044.3 516.9L1044.3 502.6L1039.9 502.6L1039.9 499.4L1048.5 499.4L1048.5 516.9L1052.9 516.9L1052.9 520.1L1039.9 520.1ZM1063.6 520.4L1063.6 520.4Q1060.0 520.4 1058.1 518.4Q1056.2 516.4 1056.2 512.9L1056.2 512.9Q1056.2 511.2 1056.7 509.7Q1057.2 508.3 1058.1 507.3Q1059.0 506.3 1060.3 505.8Q1061.6 505.3 1063.2 505.3L1063.2 505.3Q1064.9 505.3 1066.1 505.8Q1067.4 506.3 1068.3 507.3Q1069.2 508.2 1069.7 509.6Q1070.2 511.0 1070.2 512.6L1070.2 512.6L1070.2 513.9L1060.3 513.9L1060.3 514.1Q1060.3 515.5 1061.2 516.4Q1062.1 517.2 1063.7 517.2L1063.7 517.2Q1065.0 517.2 1065.9 516.7Q1066.9 516.3 1067.5 515.4L1067.5 515.4L1069.8 517.9Q1068.9 518.9 1067.4 519.7Q1065.9 520.4 1063.6 520.4ZM1063.3 508.3L1063.3 508.3Q1061.9 508.3 1061.1 509.1Q1060.3 509.9 1060.3 511.3L1060.3 511.3L1060.3 511.6L1066.1 511.6L1066.1 511.3Q1066.1 509.9 1065.4 509.1Q1064.6 508.3 1063.3 508.3Z " clip-path="url(#satori_cp-id-1-0-1-1)" mask="url(#satori_om-id-1-0-1-1)"/></svg>