<svg width="1200" height="630" viewBox="0 0 1200 630" xmlns="http://www.w3.org/2000/svg"><rect x="0" y="0" width="1200" height="630" fill="#fefbfb"/><defs><clipPath id="satori_bc-id-0"><path x="105" y="39" width="1056" height="504" d="M109,39 h1048 a4,4 0 0 1 4,4 v496 a4,4 0 0 1 -4,4 h-1048 a4,4 0 0 1 -4,-4 v-496 a4,4 0 0 1 4,-4"/></clipPath></defs><g opacity="0.9"><path x="105" y="39" width="1056" height="504" fill="#ecebeb" d="M109,39 h1048 a4,4 0 0 1 4,4 v496 a4,4 0 0 1 -4,4 h-1048 a4,4 0 0 1 -4,-4 v-496 a4,4 0 0 1 4,-4"/><path width="1056" height="504" clip-path="url(#satori_bc-id-0)" fill="none" stroke="#000" stroke-width="8" d="M106.172,40.172 A4,4 0 0 1 109,39 h1048 a4,4 0 0 1 4,4 v496 a4,4 0 0 1 -4,4 h-1048 a4,4 0 0 1 -4,-4 v-496 A4,4 0 0 1 106.172,40.172"/></g><defs><clipPath id="satori_bc-id-1"><path x="72" y="63" width="1056" height="504" d="M76,63 h1048 a4,4 0 0 1 4,4 v496 a4,4 0 0 1 -4,4 h-1048 a4,4 0 0 1 -4,-4 v-496 a4,4 0 0 1 4,-4"/></clipPath></defs><path x="72" y="63" width="1056" height="504" fill="#fefbfb" d="M76,63 h1048 a4,4 0 0 1 4,4 v496 a4,4 0 0 1 -4,4 h-1048 a4,4 0 0 1 -4,-4 v-496 a4,4 0 0 1 4,-4"/><path width="1056" height="504" clip-path="url(#satori_bc-id-1)" fill="none" stroke="#000" stroke-width="8" d="M73.172,64.172 A4,4 0 0 1 76,63 h1048 a4,4 0 0 1 4,4 v496 a4,4 0 0 1 -4,4 h-1048 a4,4 0 0 1 -4,-4 v-496 A4,4 0 0 1 73.172,64.172"/><clipPath id="satori_cp-id-1-0-0"><rect x="128" y="103" width="944" height="187"/></clipPath><mask id="satori_om-id-1-0-0"><rect x="128" y="103" width="944" height="187" fill="#fff"/></mask><path fill="black" d="M153.8 183.0L142.4 149.5L141.6 149.5L141.6 183.0L132.4 183.0L132.4 132.7L145.4 132.7L156.8 166.1L157.6 166.1L157.6 132.7L166.8 132.7L166.8 183.0L153.8 183.0ZM192.8 183.8L192.8 183.8Q188.5 183.8 185.0 182.5Q181.6 181.2 179.2 178.6Q176.7 176.1 175.4 172.5Q174.2 168.9 174.2 164.4L174.2 164.4Q174.2 159.8 175.4 156.2Q176.7 152.6 179.2 150.1Q181.6 147.6 185.0 146.3Q188.5 144.9 192.8 144.9L192.8 144.9Q197.1 144.9 200.6 146.3Q204.0 147.6 206.4 150.1Q208.9 152.6 210.2 156.2Q211.4 159.8 211.4 164.4L211.4 164.4Q211.4 168.9 210.2 172.5Q208.9 176.1 206.4 178.6Q204.0 181.2 200.6 182.5Q197.1 183.8 192.8 183.8ZM192.8 175.9L192.8 175.9Q196.4 175.9 198.4 173.7Q200.4 171.4 200.4 167.3L200.4 167.3L200.4 161.4Q200.4 157.3 198.4 155.1Q196.4 152.9 192.8 152.9L192.8 152.9Q189.2 152.9 187.2 155.1Q185.2 157.3 185.2 161.4L185.2 161.4L185.2 167.3Q185.2 171.4 187.2 173.7Q189.2 175.9 192.8 175.9ZM242.7 183.0L242.7 176.2L242.2 176.2Q240.8 179.6 238.2 181.7Q235.6 183.8 231.2 183.8L231.2 183.8Q228.1 183.8 225.5 182.7Q223.0 181.5 221.1 179.1Q219.3 176.8 218.3 173.1Q217.2 169.4 217.2 164.4L217.2 164.4Q217.2 159.3 218.3 155.7Q219.3 152.0 221.1 149.6Q223.0 147.2 225.5 146.1Q228.1 144.9 231.2 144.9L231.2 144.9Q233.4 144.9 235.1 145.5Q236.9 146.1 238.2 147.1Q239.5 148.1 240.5 149.5Q241.5 150.9 242.2 152.6L242.2 152.6L242.7 152.6L242.7 129.7L253.4 129.7L253.4 183.0L242.7 183.0ZM235.8 175.5L235.8 175.5Q238.6 175.5 240.6 174.2Q242.7 172.8 242.7 169.8L242.7 169.8L242.7 158.9Q242.7 156.0 240.6 154.6Q238.6 153.2 235.8 153.2L235.8 153.2Q232.2 153.2 230.2 155.4Q228.3 157.6 228.3 161.5L228.3 161.5L228.3 167.3Q228.3 171.1 230.2 173.3Q232.2 175.5 235.8 175.5ZM280.2 183.8L280.2 183.8Q270.8 183.8 266.0 178.6Q261.2 173.4 261.2 164.5L261.2 164.5Q261.2 160.0 262.5 156.3Q263.7 152.7 266.1 150.2Q268.4 147.6 271.7 146.3Q275.1 144.9 279.3 144.9L279.3 144.9Q283.4 144.9 286.8 146.3Q290.1 147.6 292.4 150.0Q294.7 152.5 295.9 156.0Q297.2 159.5 297.2 163.8L297.2 163.8L297.2 167.0L271.8 167.0L271.8 167.6Q271.8 171.2 274.0 173.4Q276.2 175.6 280.6 175.6L280.6 175.6Q283.9 175.6 286.3 174.3Q288.6 173.1 290.4 171.0L290.4 171.0L296.1 177.3Q294.0 179.9 290.1 181.9Q286.2 183.8 280.2 183.8ZM279.3 152.6L279.3 152.6Q275.9 152.6 273.8 154.7Q271.8 156.8 271.8 160.4L271.8 160.4L271.8 161.0L286.8 161.0L286.8 160.4Q286.8 156.7 284.8 154.7Q282.8 152.6 279.3 152.6ZM341.7 183.0L303.1 183.0L303.1 126.8L341.7 126.8L341.7 183.0ZM310.3 134.0L310.3 175.8L334.5 175.8L334.5 134.0L310.3 134.0ZM384.9 183.0L346.3 183.0L346.3 126.8L384.9 126.8L384.9 183.0ZM353.5 134.0L353.5 175.8L377.7 175.8L377.7 134.0L353.5 134.0ZM428.1 183.0L389.5 183.0L389.5 126.8L428.1 126.8L428.1 183.0ZM396.7 134.0L396.7 175.8L420.9 175.8L420.9 134.0L396.7 134.0ZM471.3 183.0L432.7 183.0L432.7 126.8L471.3 126.8L471.3 183.0ZM439.9 134.0L439.9 175.8L464.1 175.8L464.1 134.0L439.9 134.0ZM506.7 166.1L483.7 166.1L483.7 155.9L506.7 155.9L506.7 166.1ZM521.4 183.0L521.4 132.7L537.6 132.7Q547.8 132.7 552.7 139.2Q557.6 145.7 557.6 157.8L557.6 157.8Q557.6 170.0 552.7 176.5Q547.8 183.0 537.6 183.0L537.6 183.0L521.4 183.0ZM532.1 174.5L536.9 174.5Q541.7 174.5 543.9 171.4Q546.2 168.3 546.2 162.4L546.2 162.4L546.2 153.2Q546.2 147.4 543.9 144.3Q541.7 141.2 536.9 141.2L536.9 141.2L532.1 141.2L532.1 174.5ZM601.2 183.0L595.1 183.0Q591.8 183.0 589.7 181.3Q587.7 179.6 587.4 176.4L587.4 176.4L587 176.4Q586.0 180.1 583.0 181.9Q580.0 183.8 575.7 183.8L575.7 183.8Q570.3 183.8 567.0 180.9Q563.7 178.0 563.7 172.7L563.7 172.7Q563.7 166.9 568.0 164.1Q572.2 161.3 580.4 161.3L580.4 161.3L586.4 161.3L586.4 159.4Q586.4 156.1 584.9 154.4Q583.3 152.7 579.7 152.7L579.7 152.7Q576.3 152.7 574.2 154.0Q572.1 155.3 570.6 157.4L570.6 157.4L564.8 152.2Q566.6 149.0 570.6 147.0Q574.6 144.9 580.9 144.9L580.9 144.9Q588.5 144.9 592.8 148.4Q597.1 151.9 597.1 159.0L597.1 159.0L597.1 175.2L601.2 175.2L601.2 183.0ZM579.7 176.8L579.7 176.8Q582.5 176.8 584.5 175.5Q586.4 174.1 586.4 171.5L586.4 171.5L586.4 167.0L580.7 167.0Q574.2 167.0 574.2 171.4L574.2 171.4L574.2 172.9Q574.2 174.8 575.7 175.8Q577.2 176.8 579.7 176.8ZM641.4 183.0L627.7 183.0Q621.9 183.0 619.1 179.9Q616.3 176.9 616.3 172.2L616.3 172.2L616.3 154.1L606.2 154.1L606.2 145.8L612.8 145.8Q615.2 145.8 616.2 144.9Q617.2 143.9 617.2 141.4L617.2 141.4L617.2 132.7L627.0 132.7L627.0 145.8L641.4 145.8L641.4 154.1L627.0 154.1L627.0 174.7L641.4 174.7L641.4 183.0ZM687.6 183.0L681.5 183.0Q678.2 183.0 676.1 181.3Q674.1 179.6 673.8 176.4L673.8 176.4L673.4 176.4Q672.4 180.1 669.4 181.9Q666.4 183.8 662.1 183.8L662.1 183.8Q656.7 183.8 653.4 180.9Q650.1 178.0 650.1 172.7L650.1 172.7Q650.1 166.9 654.4 164.1Q658.6 161.3 666.8 161.3L666.8 161.3L672.8 161.3L672.8 159.4Q672.8 156.1 671.3 154.4Q669.7 152.7 666.1 152.7L666.1 152.7Q662.7 152.7 660.6 154.0Q658.5 155.3 657.0 157.4L657.0 157.4L651.2 152.2Q653.0 149.0 657.0 147.0Q661.0 144.9 667.3 144.9L667.3 144.9Q674.9 144.9 679.2 148.4Q683.5 151.9 683.5 159.0L683.5 159.0L683.5 175.2L687.6 175.2L687.6 183.0ZM666.1 176.8L666.1 176.8Q668.9 176.8 670.9 175.5Q672.8 174.1 672.8 171.5L672.8 171.5L672.8 167.0L667.1 167.0Q660.6 167.0 660.6 171.4L660.6 171.4L660.6 172.9Q660.6 174.8 662.1 175.8Q663.6 176.8 666.1 176.8Z M753.6 183.8L753.6 183.8Q747.3 183.8 742.6 181.7Q737.9 179.6 735.0 176.0L735.0 176.0L741.3 169.1Q744.0 172.2 747.3 173.6Q750.6 175.0 754.0 175.0L754.0 175.0Q757.9 175.0 759.9 173.3Q761.9 171.6 761.9 168.3L761.9 168.3Q761.9 165.7 760.3 164.3Q758.8 162.9 755.1 162.4L755.1 162.4L749.9 161.5Q743.1 160.3 740.1 156.5Q737.0 152.6 737.0 147.1L737.0 147.1Q737.0 139.8 741.8 135.8Q746.6 131.8 755.1 131.8L755.1 131.8Q761.0 131.8 765.3 133.6Q769.6 135.4 772.3 138.5L772.3 138.5L766.1 145.4Q764.1 143.1 761.4 141.9Q758.6 140.6 755.2 140.6L755.2 140.6Q747.9 140.6 747.9 146.6L747.9 146.6Q747.9 149.2 749.5 150.5Q751.2 151.8 754.8 152.4L754.8 152.4L760.1 153.4Q766.2 154.4 769.5 158.0Q772.8 161.5 772.8 167.5L772.8 167.5Q772.8 171.0 771.6 174.0Q770.4 177.0 767.9 179.2Q765.5 181.4 761.9 182.6Q758.4 183.8 753.6 183.8ZM797.6 183.8L797.6 183.8Q793.3 183.8 789.8 182.5Q786.4 181.2 784.0 178.6Q781.5 176.1 780.2 172.5Q779.0 168.9 779.0 164.4L779.0 164.4Q779.0 159.8 780.2 156.2Q781.5 152.6 784.0 150.1Q786.4 147.6 789.8 146.3Q793.3 144.9 797.6 144.9L797.6 144.9Q801.9 144.9 805.4 146.3Q808.8 147.6 811.2 150.1Q813.7 152.6 815.0 156.2Q816.2 159.8 816.2 164.4L816.2 164.4Q816.2 168.9 815.0 172.5Q813.7 176.1 811.2 178.6Q808.8 181.2 805.4 182.5Q801.9 183.8 797.6 183.8ZM797.6 175.9L797.6 175.9Q801.2 175.9 803.2 173.7Q805.2 171.4 805.2 167.3L805.2 167.3L805.2 161.4Q805.2 157.3 803.2 155.1Q801.2 152.9 797.6 152.9L797.6 152.9Q794.0 152.9 792.0 155.1Q790.0 157.3 790.0 161.4L790.0 161.4L790.0 167.3Q790.0 171.4 792.0 173.7Q794.0 175.9 797.6 175.9ZM847.1 183.0L847.1 176.2L846.6 176.2Q845.4 179.4 842.8 181.6Q840.2 183.8 835.7 183.8L835.7 183.8Q833.0 183.8 830.8 182.9Q828.6 182.0 827.0 180.2Q825.4 178.4 824.5 175.8Q823.6 173.2 823.6 169.8L823.6 169.8L823.6 145.8L834.2 145.8L834.2 168.4Q834.2 175.6 840.5 175.6L840.5 175.6Q841.7 175.6 842.9 175.3Q844.1 175.0 845.0 174.3Q845.9 173.6 846.5 172.6Q847.1 171.6 847.1 170.2L847.1 170.2L847.1 145.8L857.7 145.8L857.7 183.0L847.1 183.0ZM867.7 183.0L867.7 174.7L876.3 174.7L876.3 154.1L867.7 154.1L867.7 145.8L887.0 145.8L887.0 156.3L887.5 156.3Q888.0 154.3 888.9 152.4Q889.8 150.5 891.2 149.0Q892.6 147.5 894.6 146.7Q896.6 145.8 899.3 145.8L899.3 145.8L902.9 145.8L902.9 155.6L894.9 155.6Q891.0 155.6 889.0 157.9Q887.0 160.3 887.0 163.7L887.0 163.7L887.0 174.7L899.2 174.7L899.2 183.0L867.7 183.0ZM928.7 183.8L928.7 183.8Q924.3 183.8 920.8 182.5Q917.3 181.2 914.9 178.6Q912.5 176.1 911.2 172.5Q909.9 168.9 909.9 164.4L909.9 164.4Q909.9 159.8 911.2 156.2Q912.5 152.6 914.9 150.1Q917.3 147.6 920.8 146.3Q924.3 144.9 928.6 144.9L928.6 144.9Q934.8 144.9 938.5 147.4Q942.2 149.9 944.1 154.0L944.1 154.0L935.9 158.5Q934.9 156.3 933.3 154.9Q931.7 153.4 928.6 153.4L928.6 153.4Q925.0 153.4 923.0 155.6Q921.0 157.7 921.0 161.4L921.0 161.4L921.0 167.4Q921.0 171.1 923.0 173.2Q925.0 175.3 928.8 175.3L928.8 175.3Q931.9 175.3 933.6 173.9Q935.4 172.4 936.6 170.1L936.6 170.1L944.7 174.7Q942.7 178.8 938.8 181.3Q935.0 183.8 928.7 183.8ZM971.4 183.8L971.4 183.8Q962.0 183.8 957.2 178.6Q952.4 173.4 952.4 164.5L952.4 164.5Q952.4 160.0 953.7 156.3Q954.9 152.7 957.3 150.2Q959.6 147.6 962.9 146.3Q966.3 144.9 970.5 144.9L970.5 144.9Q974.6 144.9 978.0 146.3Q981.3 147.6 983.6 150.0Q985.9 152.5 987.1 156.0Q988.4 159.5 988.4 163.8L988.4 163.8L988.4 167.0L963.0 167.0L963.0 167.6Q963.0 171.2 965.2 173.4Q967.4 175.6 971.8 175.6L971.8 175.6Q975.1 175.6 977.5 174.3Q979.8 173.1 981.6 171.0L981.6 171.0L987.3 177.3Q985.2 179.9 981.3 181.9Q977.4 183.8 971.4 183.8ZM970.5 152.6L970.5 152.6Q967.1 152.6 965.0 154.7Q963.0 156.8 963.0 160.4L963.0 160.4L963.0 161.0L978.0 161.0L978.0 160.4Q978.0 156.7 976.0 154.7Q974.0 152.6 970.5 152.6ZM1013.2 183.8L1013.2 183.8Q1007.0 183.8 1002.4 181.9Q997.8 180.1 995.5 176.8L995.5 176.8L1001.5 171.3Q1003.7 173.7 1006.6 175.0Q1009.5 176.3 1013.2 176.3L1013.2 176.3Q1016.4 176.3 1018.2 175.4Q1020.0 174.4 1020.0 172.4L1020.0 172.4Q1020.0 170.8 1018.8 170.2Q1017.6 169.6 1015.4 169.2L1015.4 169.2L1009.4 168.3Q1006.9 167.9 1004.7 167.1Q1002.6 166.4 1001.0 165.1Q999.4 163.8 998.5 161.9Q997.5 160.1 997.5 157.4L997.5 157.4Q997.5 151.6 1002.0 148.2Q1006.5 144.9 1014.5 144.9L1014.5 144.9Q1020.0 144.9 1023.9 146.4Q1027.7 147.9 1030.0 150.6L1030.0 150.6L1024.7 156.7Q1023.0 154.9 1020.4 153.6Q1017.8 152.4 1014.2 152.4L1014.2 152.4Q1008.0 152.4 1008.0 156.2L1008.0 156.2Q1008.0 157.8 1009.2 158.4Q1010.4 159.0 1012.6 159.4L1012.6 159.4L1018.5 160.3Q1021.0 160.7 1023.2 161.5Q1025.3 162.2 1027.0 163.5Q1028.6 164.8 1029.5 166.7Q1030.4 168.6 1030.4 171.2L1030.4 171.2Q1030.4 177.0 1025.9 180.4Q1021.4 183.8 1013.2 183.8Z M169.2 276.6L163.1 276.6Q159.8 276.6 157.7 274.9Q155.7 273.2 155.4 270.0L155.4 270.0L155 270.0Q154.0 273.7 151.0 275.5Q148.0 277.4 143.7 277.4L143.7 277.4Q138.3 277.4 135.0 274.5Q131.7 271.6 131.7 266.3L131.7 266.3Q131.7 260.5 136.0 257.7Q140.2 254.9 148.4 254.9L148.4 254.9L154.4 254.9L154.4 253.0Q154.4 249.7 152.9 248.0Q151.3 246.3 147.7 246.3L147.7 246.3Q144.3 246.3 142.2 247.6Q140.1 248.9 138.6 251.0L138.6 251.0L132.8 245.8Q134.6 242.6 138.6 240.6Q142.6 238.5 148.9 238.5L148.9 238.5Q156.5 238.5 160.8 242.0Q165.1 245.5 165.1 252.6L165.1 252.6L165.1 268.8L169.2 268.8L169.2 276.6ZM147.7 270.4L147.7 270.4Q150.5 270.4 152.5 269.1Q154.4 267.7 154.4 265.1L154.4 265.1L154.4 260.6L148.7 260.6Q142.2 260.6 142.2 265.0L142.2 265.0L142.2 266.5Q142.2 268.4 143.7 269.4Q145.2 270.4 147.7 270.4ZM186.5 276.6L175.9 276.6L175.9 239.4L186.5 239.4L186.5 246.2L187.0 246.2Q187.6 244.6 188.6 243.2Q189.5 241.8 190.8 240.8Q192.2 239.8 193.9 239.1Q195.7 238.5 197.9 238.5L197.9 238.5Q200.6 238.5 202.8 239.4Q205.0 240.3 206.6 242.1Q208.2 243.9 209.1 246.5Q210.0 249.1 210.0 252.5L210.0 252.5L210.0 276.6L199.4 276.6L199.4 253.9Q199.4 246.7 193.1 246.7L193.1 246.7Q191.9 246.7 190.7 247.1Q189.5 247.4 188.6 248.1Q187.6 248.8 187.1 249.8Q186.5 250.8 186.5 252.1L186.5 252.1L186.5 276.6ZM242.7 276.6L242.7 269.8L242.2 269.8Q240.8 273.2 238.2 275.3Q235.6 277.4 231.2 277.4L231.2 277.4Q228.1 277.4 225.5 276.3Q223.0 275.1 221.1 272.7Q219.3 270.4 218.3 266.7Q217.2 263.0 217.2 258.0L217.2 258.0Q217.2 252.9 218.3 249.3Q219.3 245.6 221.1 243.2Q223.0 240.8 225.5 239.7Q228.1 238.5 231.2 238.5L231.2 238.5Q233.4 238.5 235.1 239.1Q236.9 239.7 238.2 240.7Q239.5 241.7 240.5 243.1Q241.5 244.5 242.2 246.2L242.2 246.2L242.7 246.2L242.7 223.3L253.4 223.3L253.4 276.6L242.7 276.6ZM235.8 269.1L235.8 269.1Q238.6 269.1 240.6 267.8Q242.7 266.4 242.7 263.4L242.7 263.4L242.7 252.5Q242.7 249.6 240.6 248.2Q238.6 246.8 235.8 246.8L235.8 246.8Q232.2 246.8 230.2 249.0Q228.3 251.2 228.3 255.1L228.3 255.1L228.3 260.9Q228.3 264.7 230.2 266.9Q232.2 269.1 235.8 269.1Z M317.4 276.6L306.6 276.6L306.6 226.3L339.9 226.3L339.9 235.2L317.4 235.2L317.4 246.7L337.5 246.7L337.5 255.5L317.4 255.5L317.4 276.6ZM348.9 276.6L348.9 268.3L360.3 268.3L360.3 231.6L348.9 231.6L348.9 223.3L370.9 223.3L370.9 268.3L382.3 268.3L382.3 276.6L348.9 276.6ZM408.8 277.4L408.8 277.4Q404.5 277.4 401.0 276.1Q397.6 274.8 395.2 272.2Q392.7 269.7 391.4 266.1Q390.2 262.5 390.2 258.0L390.2 258.0Q390.2 253.4 391.4 249.8Q392.7 246.2 395.2 243.7Q397.6 241.2 401.0 239.9Q404.5 238.5 408.8 238.5L408.8 238.5Q413.1 238.5 416.6 239.9Q420.0 241.2 422.4 243.7Q424.9 246.2 426.2 249.8Q427.4 253.4 427.4 258.0L427.4 258.0Q427.4 262.5 426.2 266.1Q424.9 269.7 422.4 272.2Q420.0 274.8 416.6 276.1Q413.1 277.4 408.8 277.4ZM408.8 269.5L408.8 269.5Q412.4 269.5 414.4 267.3Q416.4 265.0 416.4 260.9L416.4 260.9L416.4 255.0Q416.4 250.9 414.4 248.7Q412.4 246.5 408.8 246.5L408.8 246.5Q405.2 246.5 403.2 248.7Q401.2 250.9 401.2 255.0L401.2 255.0L401.2 260.9Q401.2 265.0 403.2 267.3Q405.2 269.5 408.8 269.5ZM435.3 276.6L430.9 239.4L439.8 239.4L442.4 269.5L443.1 269.5L447.5 239.4L456.9 239.4L461.2 269.5L461.9 269.5L464.7 239.4L473.1 239.4L468.7 276.6L456.0 276.6L452.4 250.9L451.6 250.9L448.0 276.6L435.3 276.6Z M539.6 277.4L539.6 277.4Q529.5 277.4 524.6 270.6Q519.8 263.8 519.8 251.4L519.8 251.4Q519.8 239.0 524.6 232.2Q529.5 225.4 539.6 225.4L539.6 225.4Q543.4 225.4 546.4 226.5Q549.4 227.5 551.6 229.4Q553.7 231.3 555.1 233.9Q556.5 236.6 557.3 239.9L557.3 239.9L547.3 242.4Q546.8 240.6 546.2 239.0Q545.7 237.5 544.8 236.4Q543.9 235.4 542.5 234.8Q541.2 234.1 539.3 234.1L539.3 234.1Q534.9 234.1 533.1 237.6Q531.3 241.0 531.3 247.0L531.3 247.0L531.3 255.8Q531.3 261.9 533.1 265.3Q534.9 268.7 539.3 268.7L539.3 268.7Q543.1 268.7 544.8 266.4Q546.5 264.1 547.3 260.5L547.3 260.5L557.3 262.9Q556.5 266.3 555.1 268.9Q553.7 271.6 551.6 273.5Q549.4 275.4 546.4 276.4Q543.4 277.4 539.6 277.4ZM581.6 277.4L581.6 277.4Q577.3 277.4 573.8 276.1Q570.4 274.8 568.0 272.2Q565.5 269.7 564.2 266.1Q563.0 262.5 563.0 258.0L563.0 258.0Q563.0 253.4 564.2 249.8Q565.5 246.2 568.0 243.7Q570.4 241.2 573.8 239.9Q577.3 238.5 581.6 238.5L581.6 238.5Q585.9 238.5 589.4 239.9Q592.8 241.2 595.2 243.7Q597.7 246.2 599.0 249.8Q600.2 253.4 600.2 258.0L600.2 258.0Q600.2 262.5 599.0 266.1Q597.7 269.7 595.2 272.2Q592.8 274.8 589.4 276.1Q585.9 277.4 581.6 277.4ZM581.6 269.5L581.6 269.5Q585.2 269.5 587.2 267.3Q589.2 265.0 589.2 260.9L589.2 260.9L589.2 255.0Q589.2 250.9 587.2 248.7Q585.2 246.5 581.6 246.5L581.6 246.5Q578.0 246.5 576.0 248.7Q574.0 250.9 574.0 255.0L574.0 255.0L574.0 260.9Q574.0 265.0 576.0 267.3Q578.0 269.5 581.6 269.5ZM618.5 276.6L607.9 276.6L607.9 239.4L618.5 239.4L618.5 246.2L619.0 246.2Q619.6 244.6 620.6 243.2Q621.5 241.8 622.8 240.8Q624.2 239.8 625.9 239.1Q627.7 238.5 629.9 238.5L629.9 238.5Q632.6 238.5 634.8 239.4Q637.0 240.3 638.6 242.1Q640.2 243.9 641.1 246.5Q642.0 249.1 642.0 252.5L642.0 252.5L642.0 276.6L631.4 276.6L631.4 253.9Q631.4 246.7 625.1 246.7L625.1 246.7Q623.9 246.7 622.7 247.1Q621.5 247.4 620.6 248.1Q619.6 248.8 619.1 249.8Q618.5 250.8 618.5 252.1L618.5 252.1L618.5 276.6ZM684.6 276.6L670.9 276.6Q665.1 276.6 662.3 273.5Q659.5 270.5 659.5 265.8L659.5 265.8L659.5 247.7L649.4 247.7L649.4 239.4L656.0 239.4Q658.4 239.4 659.4 238.5Q660.4 237.5 660.4 235.0L660.4 235.0L660.4 226.3L670.2 226.3L670.2 239.4L684.6 239.4L684.6 247.7L670.2 247.7L670.2 268.3L684.6 268.3L684.6 276.6ZM694.9 276.6L694.9 268.3L703.5 268.3L703.5 247.7L694.9 247.7L694.9 239.4L714.2 239.4L714.2 249.9L714.7 249.9Q715.2 247.9 716.1 246.0Q717.0 244.1 718.4 242.6Q719.8 241.1 721.8 240.3Q723.8 239.4 726.5 239.4L726.5 239.4L730.1 239.4L730.1 249.2L722.1 249.2Q718.2 249.2 716.2 251.5Q714.2 253.9 714.2 257.3L714.2 257.3L714.2 268.3L726.4 268.3L726.4 276.6L694.9 276.6ZM754.4 277.4L754.4 277.4Q750.1 277.4 746.6 276.1Q743.2 274.8 740.8 272.2Q738.3 269.7 737.0 266.1Q735.8 262.5 735.8 258.0L735.8 258.0Q735.8 253.4 737.0 249.8Q738.3 246.2 740.8 243.7Q743.2 241.2 746.6 239.9Q750.1 238.5 754.4 238.5L754.4 238.5Q758.7 238.5 762.2 239.9Q765.6 241.2 768.0 243.7Q770.5 246.2 771.8 249.8Q773.0 253.4 773.0 258.0L773.0 258.0Q773.0 262.5 771.8 266.1Q770.5 269.7 768.0 272.2Q765.6 274.8 762.2 276.1Q758.7 277.4 754.4 277.4ZM754.4 269.5L754.4 269.5Q758.0 269.5 760.0 267.3Q762.0 265.0 762.0 260.9L762.0 260.9L762.0 255.0Q762.0 250.9 760.0 248.7Q758.0 246.5 754.4 246.5L754.4 246.5Q750.8 246.5 748.8 248.7Q746.8 250.9 746.8 255.0L746.8 255.0L746.8 260.9Q746.8 265.0 748.8 267.3Q750.8 269.5 754.4 269.5ZM780.9 276.6L780.9 268.3L792.3 268.3L792.3 231.6L780.9 231.6L780.9 223.3L802.9 223.3L802.9 268.3L814.3 268.3L814.3 276.6L780.9 276.6Z " clip-path="url(#satori_cp-id-1-0-0)" mask="url(#satori_om-id-1-0-0)"/><path fill="black" d="M130.7 520.3L130.7 499.6L132.9 499.6L132.9 508.2L133.0 508.2Q134.4 505.5 137.5 505.5L137.5 505.5Q140.1 505.5 141.6 507.5Q143.1 509.5 143.1 513.0L143.1 513.0Q143.1 516.6 141.6 518.6Q140.1 520.6 137.5 520.6L137.5 520.6Q134.4 520.6 133.0 517.9L133.0 517.9L132.9 517.9L132.9 520.3L130.7 520.3ZM136.6 518.6L136.6 518.6Q138.6 518.6 139.6 517.4Q140.7 516.2 140.7 514.3L140.7 514.3L140.7 511.8Q140.7 509.9 139.6 508.7Q138.6 507.5 136.6 507.5L136.6 507.5Q135.8 507.5 135.2 507.7Q134.5 507.9 134.0 508.2Q133.5 508.6 133.2 509.2Q132.9 509.7 132.9 510.4L132.9 510.4L132.9 515.7Q132.9 516.4 133.2 516.9Q133.5 517.5 134.0 517.8Q134.5 518.2 135.2 518.4Q135.8 518.6 136.6 518.6ZM155.4 511.9L157.9 505.8L160.1 505.8L152.9 523.4Q152.7 524.1 152.4 524.5Q152.1 525.0 151.7 525.3Q151.2 525.6 150.7 525.7Q150.1 525.9 149.3 525.9L149.3 525.9L147.1 525.9L147.1 524.0L150.5 524.0L152.1 520.0L146.3 505.8L148.6 505.8L151.0 511.9L153.2 517.4L153.3 517.4L155.4 511.9Z "/><clipPath id="satori_cp-id-1-0-1-0-2"><rect x="178" y="489" width="134" height="36"/></clipPath><mask id="satori_om-id-1-0-1-0-2"><rect x="178" y="489" width="134" height="36" fill="#fff"/></mask><path fill="black" d="M193.0 520.1L179.8 520.1L179.8 516.6L187.9 508.9L180.1 508.9L180.1 505.6L192.7 505.6L192.7 509.1L184.6 516.9L193.0 516.9L193.0 520.1ZM196.6 520.1L196.6 499.4L200.8 499.4L200.8 508.3L200.9 508.3Q201.2 507.7 201.5 507.1Q201.9 506.6 202.4 506.2Q202.9 505.8 203.6 505.5Q204.3 505.3 205.2 505.3L205.2 505.3Q206.2 505.3 207.1 505.7Q208.0 506.0 208.6 506.7Q209.2 507.4 209.5 508.4Q209.9 509.4 209.9 510.7L209.9 510.7L209.9 520.1L205.7 520.1L205.7 511.3Q205.7 508.5 203.3 508.5L203.3 508.5Q202.8 508.5 202.4 508.6Q201.9 508.8 201.5 509.0Q201.2 509.3 201.0 509.7Q200.8 510.1 200.8 510.6L200.8 510.6L200.8 520.1L196.6 520.1ZM227.6 520.1L225.2 520.1Q223.9 520.1 223.2 519.4Q222.4 518.8 222.2 517.5L222.2 517.5L222.1 517.5Q221.7 519.0 220.5 519.7Q219.4 520.4 217.7 520.4L217.7 520.4Q215.6 520.4 214.3 519.3Q213.1 518.2 213.1 516.1L213.1 516.1Q213.1 513.8 214.7 512.8Q216.4 511.7 219.6 511.7L219.6 511.7L221.9 511.7L221.9 510.9Q221.9 509.6 221.3 509.0Q220.7 508.3 219.2 508.3L219.2 508.3Q217.9 508.3 217.1 508.8Q216.3 509.3 215.7 510.2L215.7 510.2L213.4 508.1Q214.2 506.9 215.7 506.1Q217.3 505.3 219.7 505.3L219.7 505.3Q222.7 505.3 224.4 506.7Q226.0 508.0 226.0 510.8L226.0 510.8L226.0 517.1L227.6 517.1L227.6 520.1ZM219.3 517.7L219.3 517.7Q220.4 517.7 221.1 517.2Q221.9 516.6 221.9 515.6L221.9 515.6L221.9 513.9L219.7 513.9Q217.1 513.9 217.1 515.6L217.1 515.6L217.1 516.2Q217.1 516.9 217.7 517.3Q218.3 517.7 219.3 517.7ZM234.4 520.1L230.2 520.1L230.2 505.6L234.4 505.6L234.4 508.3L234.5 508.3Q234.8 507.7 235.1 507.1Q235.5 506.6 236.0 506.2Q236.5 505.8 237.2 505.5Q237.9 505.3 238.8 505.3L238.8 505.3Q239.8 505.3 240.7 505.7Q241.6 506.0 242.2 506.7Q242.8 507.4 243.1 508.4Q243.5 509.4 243.5 510.7L243.5 510.7L243.5 520.1L239.3 520.1L239.3 511.3Q239.3 508.5 236.9 508.5L236.9 508.5Q236.4 508.5 236.0 508.6Q235.5 508.8 235.1 509.0Q234.8 509.3 234.6 509.7Q234.4 510.1 234.4 510.6L234.4 510.6L234.4 520.1ZM261.5 521.5L261.5 521.5Q261.5 523.8 259.6 524.9Q257.7 526.0 253.5 526.0L253.5 526.0Q251.4 526.0 250.1 525.8Q248.8 525.6 248.0 525.1Q247.2 524.7 246.8 524.0Q246.5 523.4 246.5 522.7L246.5 522.7Q246.5 521.5 247.2 520.8Q248.0 520.2 249.3 519.9L249.3 519.9L249.3 519.7Q248.4 519.4 247.8 518.9Q247.3 518.4 247.3 517.4L247.3 517.4Q247.3 516.4 248.0 515.9Q248.7 515.4 249.9 515.1L249.9 515.1L249.9 514.9Q248.6 514.3 247.9 513.2Q247.2 512.1 247.2 510.5L247.2 510.5Q247.2 509.2 247.6 508.2Q248.1 507.3 248.9 506.6Q249.7 506.0 250.9 505.6Q252.0 505.3 253.4 505.3L253.4 505.3Q254.8 505.3 256.0 505.6L256.0 505.6L256.0 504.8Q256.0 504.0 256.6 503.4Q257.2 502.9 258.2 502.9L258.2 502.9L260.7 502.9L260.7 505.9L257.3 505.9L257.3 506.1Q258.4 506.8 259.1 507.8Q259.8 508.9 259.8 510.5L259.8 510.5Q259.8 511.7 259.3 512.7Q258.9 513.6 258.0 514.3Q257.2 514.9 256.0 515.3Q254.9 515.6 253.4 515.6L253.4 515.6Q252.8 515.6 252.2 515.5Q251.6 515.5 251.1 515.3L251.1 515.3Q250.8 515.5 250.6 515.8Q250.4 516.0 250.4 516.4L250.4 516.4Q250.4 516.7 250.5 516.9Q250.7 517.1 251.0 517.2Q251.3 517.3 251.7 517.3Q252.1 517.4 252.5 517.4L252.5 517.4L255.8 517.4Q257.3 517.4 258.4 517.7Q259.5 518.0 260.2 518.6Q260.9 519.1 261.2 519.9Q261.5 520.6 261.5 521.5ZM257.6 521.9L257.6 521.9Q257.6 521.3 257.2 521.0Q256.7 520.7 255.4 520.7L255.4 520.7L250.5 520.7Q249.9 521.1 249.9 521.8L249.9 521.8Q249.9 522.5 250.5 522.9Q251.1 523.4 252.5 523.4L252.5 523.4L254.9 523.4Q256.3 523.4 257.0 523.0Q257.6 522.6 257.6 521.9ZM253.4 513.0L253.4 513.0Q254.7 513.0 255.3 512.4Q255.8 511.7 255.8 510.8L255.8 510.8L255.8 510.1Q255.8 509.2 255.3 508.6Q254.7 507.9 253.4 507.9L253.4 507.9Q252.2 507.9 251.6 508.6Q251.1 509.2 251.1 510.1L251.1 510.1L251.1 510.8Q251.1 511.7 251.6 512.4Q252.2 513.0 253.4 513.0ZM263.9 520.1L263.9 516.9L268.3 516.9L268.3 502.6L263.9 502.6L263.9 499.4L272.5 499.4L272.5 516.9L276.9 516.9L276.9 520.1L263.9 520.1ZM289.6 520.1L289.6 517.5L289.5 517.5Q289.0 518.7 288.0 519.6Q286.9 520.4 285.2 520.4L285.2 520.4Q284.2 520.4 283.3 520.1Q282.4 519.7 281.8 519.0Q281.2 518.3 280.9 517.3Q280.5 516.3 280.5 515.0L280.5 515.0L280.5 505.6L284.7 505.6L284.7 514.4Q284.7 517.2 287.1 517.2L287.1 517.2Q287.6 517.2 288.0 517.1Q288.5 517.0 288.8 516.7Q289.2 516.5 289.4 516.1Q289.6 515.7 289.6 515.1L289.6 515.1L289.6 505.6L293.8 505.6L293.8 520.1L289.6 520.1ZM301.6 520.1L297.4 520.1L297.4 505.6L301.6 505.6L301.6 508.3L301.7 508.3Q302.0 507.7 302.3 507.1Q302.7 506.6 303.2 506.2Q303.7 505.8 304.4 505.5Q305.1 505.3 306.0 505.3L306.0 505.3Q307.0 505.3 307.9 505.7Q308.8 506.0 309.4 506.7Q310.0 507.4 310.3 508.4Q310.7 509.4 310.7 510.7L310.7 510.7L310.7 520.1L306.5 520.1L306.5 511.3Q306.5 508.5 304.1 508.5L304.1 508.5Q303.6 508.5 303.2 508.6Q302.7 508.8 302.3 509.0Q302.0 509.3 301.8 509.7Q301.6 510.1 301.6 510.6L301.6 510.6L301.6 520.1Z " clip-path="url(#satori_cp-id-1-0-1-0-2)" mask="url(#satori_om-id-1-0-1-0-2)"/><clipPath id="satori_cp-id-1-0-1-1"><rect x="786" y="489" width="286" height="36"/></clipPath><mask id="satori_om-id-1-0-1-1"><rect x="786" y="489" width="286" height="36" fill="#fff"/></mask><path fill="black" d="M802.7 520.1L798.2 520.1L796.9 515.4L791.6 515.4L790.4 520.1L786.1 520.1L791.4 500.5L797.4 500.5L802.7 520.1ZM796.3 512.0L794.4 504.6L794.2 504.6L792.3 512.0L796.3 512.0ZM811.0 520.4L811.0 520.4Q808.6 520.4 806.8 519.7Q805.1 519.0 804.2 517.7L804.2 517.7L806.5 515.6Q807.3 516.5 808.5 517.0Q809.6 517.5 811.1 517.5L811.1 517.5Q812.3 517.5 813.0 517.1Q813.7 516.8 813.7 516.0L813.7 516.0Q813.7 515.4 813.2 515.1Q812.7 514.9 811.9 514.7L811.9 514.7L809.6 514.4Q808.6 514.2 807.8 513.9Q806.9 513.7 806.3 513.1Q805.7 512.6 805.3 511.9Q805.0 511.2 805.0 510.2L805.0 510.2Q805.0 507.9 806.7 506.6Q808.4 505.3 811.6 505.3L811.6 505.3Q813.7 505.3 815.2 505.9Q816.7 506.5 817.6 507.5L817.6 507.5L815.5 509.9Q814.9 509.2 813.9 508.7Q812.9 508.2 811.4 508.2L811.4 508.2Q809.0 508.2 809.0 509.7L809.0 509.7Q809.0 510.3 809.5 510.6Q810.0 510.8 810.8 510.9L810.8 510.9L813.1 511.3Q814.1 511.4 814.9 511.7Q815.8 512.0 816.4 512.5Q817.0 513.0 817.4 513.8Q817.8 514.5 817.8 515.5L817.8 515.5Q817.8 517.8 816.0 519.1Q814.3 520.4 811.0 520.4ZM834.5 520.1L829.1 520.1Q826.9 520.1 825.8 518.9Q824.7 517.7 824.7 515.9L824.7 515.9L824.7 508.9L820.8 508.9L820.8 505.6L823.3 505.6Q824.2 505.6 824.6 505.3Q825.0 504.9 825.0 503.9L825.0 503.9L825.0 500.5L828.8 500.5L828.8 505.6L834.5 505.6L834.5 508.9L828.8 508.9L828.8 516.9L834.5 516.9L834.5 520.1ZM838.5 520.1L838.5 516.9L841.8 516.9L841.8 508.9L838.5 508.9L838.5 505.6L845.9 505.6L845.9 509.7L846.1 509.7Q846.3 508.9 846.7 508.2Q847.0 507.5 847.6 506.9Q848.1 506.3 848.9 506.0Q849.7 505.6 850.8 505.6L850.8 505.6L852.1 505.6L852.1 509.5L849.1 509.5Q847.5 509.5 846.7 510.4Q845.9 511.3 845.9 512.6L845.9 512.6L845.9 516.9L850.7 516.9L850.7 520.1L838.5 520.1ZM861.6 520.4L861.6 520.4Q859.9 520.4 858.6 519.9Q857.2 519.4 856.3 518.4Q855.4 517.4 854.9 516.0Q854.3 514.6 854.3 512.9L854.3 512.9Q854.3 511.1 854.9 509.7Q855.4 508.3 856.3 507.3Q857.2 506.3 858.6 505.8Q859.9 505.3 861.6 505.3L861.6 505.3Q863.3 505.3 864.6 505.8Q866.0 506.3 866.9 507.3Q867.8 508.3 868.3 509.7Q868.9 511.1 868.9 512.9L868.9 512.9Q868.9 514.6 868.3 516.0Q867.8 517.4 866.9 518.4Q866.0 519.4 864.6 519.9Q863.3 520.4 861.6 520.4ZM861.6 517.3L861.6 517.3Q863.0 517.3 863.8 516.5Q864.6 515.6 864.6 514.0L864.6 514.0L864.6 511.7Q864.6 510.1 863.8 509.3Q863.0 508.4 861.6 508.4L861.6 508.4Q860.2 508.4 859.4 509.3Q858.6 510.1 858.6 511.7L858.6 511.7L858.6 514.0Q858.6 515.6 859.4 516.5Q860.2 517.3 861.6 517.3Z M888.5 520.1L888.5 499.4L892.6 499.4L892.6 508.3L892.8 508.3Q893.3 507.0 894.3 506.1Q895.3 505.3 897.1 505.3L897.1 505.3Q898.3 505.3 899.3 505.8Q900.3 506.2 901.0 507.1Q901.7 508.1 902.1 509.5Q902.5 510.9 902.5 512.9L902.5 512.9Q902.5 514.8 902.1 516.3Q901.7 517.7 901.0 518.6Q900.3 519.5 899.3 520.0Q898.3 520.4 897.1 520.4L897.1 520.4Q895.3 520.4 894.3 519.6Q893.3 518.8 892.8 517.5L892.8 517.5L892.6 517.5L892.6 520.1L888.5 520.1ZM895.3 517.2L895.3 517.2Q896.7 517.2 897.4 516.4Q898.2 515.5 898.2 514.0L898.2 514.0L898.2 511.7Q898.2 510.2 897.4 509.4Q896.7 508.5 895.3 508.5L895.3 508.5Q894.2 508.5 893.4 509.1Q892.6 509.6 892.6 510.7L892.6 510.7L892.6 515.0Q892.6 516.1 893.4 516.7Q894.2 517.2 895.3 517.2ZM905.5 520.1L905.5 516.9L909.9 516.9L909.9 502.6L905.5 502.6L905.5 499.4L914.1 499.4L914.1 516.9L918.5 516.9L918.5 520.1L905.5 520.1ZM928.8 520.4L928.8 520.4Q927.1 520.4 925.8 519.9Q924.4 519.4 923.5 518.4Q922.6 517.4 922.1 516.0Q921.5 514.6 921.5 512.9L921.5 512.9Q921.5 511.1 922.1 509.7Q922.6 508.3 923.5 507.3Q924.4 506.3 925.8 505.8Q927.1 505.3 928.8 505.3L928.8 505.3Q930.5 505.3 931.8 505.8Q933.2 506.3 934.1 507.3Q935.0 508.3 935.5 509.7Q936.1 511.1 936.1 512.9L936.1 512.9Q936.1 514.6 935.5 516.0Q935.0 517.4 934.1 518.4Q933.2 519.4 931.8 519.9Q930.5 520.4 928.8 520.4ZM928.8 517.3L928.8 517.3Q930.2 517.3 931.0 516.5Q931.8 515.6 931.8 514.0L931.8 514.0L931.8 511.7Q931.8 510.1 931.0 509.3Q930.2 508.4 928.8 508.4L928.8 508.4Q927.4 508.4 926.6 509.3Q925.8 510.1 925.8 511.7L925.8 511.7L925.8 514.0Q925.8 515.6 926.6 516.5Q927.4 517.3 928.8 517.3ZM953.5 521.5L953.5 521.5Q953.5 523.8 951.6 524.9Q949.7 526.0 945.5 526.0L945.5 526.0Q943.4 526.0 942.1 525.8Q940.8 525.6 940.0 525.1Q939.2 524.7 938.8 524.0Q938.5 523.4 938.5 522.7L938.5 522.7Q938.5 521.5 939.2 520.8Q940.0 520.2 941.3 519.9L941.3 519.9L941.3 519.7Q940.4 519.4 939.8 518.9Q939.3 518.4 939.3 517.4L939.3 517.4Q939.3 516.4 940.0 515.9Q940.7 515.4 941.9 515.1L941.9 515.1L941.9 514.9Q940.6 514.3 939.9 513.2Q939.2 512.1 939.2 510.5L939.2 510.5Q939.2 509.2 939.6 508.2Q940.1 507.3 940.9 506.6Q941.7 506.0 942.9 505.6Q944.0 505.3 945.4 505.3L945.4 505.3Q946.8 505.3 948.0 505.6L948.0 505.6L948.0 504.8Q948.0 504.0 948.6 503.4Q949.2 502.9 950.2 502.9L950.2 502.9L952.7 502.9L952.7 505.9L949.3 505.9L949.3 506.1Q950.4 506.8 951.1 507.8Q951.8 508.9 951.8 510.5L951.8 510.5Q951.8 511.7 951.3 512.7Q950.9 513.6 950.0 514.3Q949.2 514.9 948.0 515.3Q946.9 515.6 945.4 515.6L945.4 515.6Q944.8 515.6 944.2 515.5Q943.6 515.5 943.1 515.3L943.1 515.3Q942.8 515.5 942.6 515.8Q942.4 516.0 942.4 516.4L942.4 516.4Q942.4 516.7 942.5 516.9Q942.7 517.1 943.0 517.2Q943.3 517.3 943.7 517.3Q944.1 517.4 944.5 517.4L944.5 517.4L947.8 517.4Q949.3 517.4 950.4 517.7Q951.5 518.0 952.2 518.6Q952.9 519.1 953.2 519.9Q953.5 520.6 953.5 521.5ZM949.6 521.9L949.6 521.9Q949.6 521.3 949.2 521.0Q948.7 520.7 947.4 520.7L947.4 520.7L942.5 520.7Q941.9 521.1 941.9 521.8L941.9 521.8Q941.9 522.5 942.5 522.9Q943.1 523.4 944.5 523.4L944.5 523.4L946.9 523.4Q948.3 523.4 949.0 523.0Q949.6 522.6 949.6 521.9ZM945.4 513.0L945.4 513.0Q946.7 513.0 947.3 512.4Q947.8 511.7 947.8 510.8L947.8 510.8L947.8 510.1Q947.8 509.2 947.3 508.6Q946.7 507.9 945.4 507.9L945.4 507.9Q944.2 507.9 943.6 508.6Q943.1 509.2 943.1 510.1L943.1 510.1L943.1 510.8Q943.1 511.7 943.6 512.4Q944.2 513.0 945.4 513.0Z M972.8 520.1L972.8 516.9L977.0 516.9L977.0 508.9L972.5 508.9L972.5 505.6L977.0 505.6L977.0 503.5Q977.0 501.7 978.1 500.5Q979.2 499.4 981.5 499.4L981.5 499.4L986.4 499.4L986.4 502.6L981.2 502.6L981.2 505.6L986.4 505.6L986.4 508.9L981.2 508.9L981.2 516.9L985.7 516.9L985.7 520.1L972.8 520.1ZM1003.6 520.1L1001.2 520.1Q999.9 520.1 999.2 519.4Q998.4 518.8 998.2 517.5L998.2 517.5L998.1 517.5Q997.7 519.0 996.5 519.7Q995.4 520.4 993.7 520.4L993.7 520.4Q991.6 520.4 990.3 519.3Q989.1 518.2 989.1 516.1L989.1 516.1Q989.1 513.8 990.7 512.8Q992.4 511.7 995.6 511.7L995.6 511.7L997.9 511.7L997.9 510.9Q997.9 509.6 997.3 509.0Q996.7 508.3 995.2 508.3L995.2 508.3Q993.9 508.3 993.1 508.8Q992.3 509.3 991.7 510.2L991.7 510.2L989.4 508.1Q990.2 506.9 991.7 506.1Q993.3 505.3 995.7 505.3L995.7 505.3Q998.7 505.3 1000.4 506.7Q1002.0 508.0 1002.0 510.8L1002.0 510.8L1002.0 517.1L1003.6 517.1L1003.6 520.1ZM995.3 517.7L995.3 517.7Q996.4 517.7 997.1 517.2Q997.9 516.6 997.9 515.6L997.9 515.6L997.9 513.9L995.7 513.9Q993.1 513.9 993.1 515.6L993.1 515.6L993.1 516.2Q993.1 516.9 993.7 517.3Q994.3 517.7 995.3 517.7ZM1013.4 520.4L1013.4 520.4Q1011.7 520.4 1010.3 519.9Q1009.0 519.4 1008.0 518.4Q1007.1 517.4 1006.6 516.0Q1006.1 514.6 1006.1 512.9L1006.1 512.9Q1006.1 511.1 1006.6 509.7Q1007.1 508.3 1008.0 507.3Q1009.0 506.3 1010.3 505.8Q1011.7 505.3 1013.4 505.3L1013.4 505.3Q1015.7 505.3 1017.2 506.3Q1018.6 507.2 1019.4 508.8L1019.4 508.8L1016.2 510.6Q1015.8 509.7 1015.2 509.2Q1014.5 508.6 1013.4 508.6L1013.4 508.6Q1011.9 508.6 1011.2 509.4Q1010.4 510.3 1010.4 511.7L1010.4 511.7L1010.4 514.0Q1010.4 515.5 1011.2 516.3Q1011.9 517.1 1013.4 517.1L1013.4 517.1Q1014.6 517.1 1015.3 516.6Q1016.0 516.0 1016.5 515.1L1016.5 515.1L1019.6 516.9Q1018.8 518.5 1017.3 519.5Q1015.8 520.4 1013.4 520.4ZM1030.5 503.8L1030.5 503.8Q1029.1 503.8 1028.5 503.2Q1028.0 502.6 1028.0 501.8L1028.0 501.8L1028.0 501.0Q1028.0 500.2 1028.5 499.6Q1029.1 499.1 1030.5 499.1L1030.5 499.1Q1031.9 499.1 1032.4 499.6Q1033.0 500.2 1033.0 501.0L1033.0 501.0L1033.0 501.8Q1033.0 502.6 1032.4 503.2Q1031.9 503.8 1030.5 503.8ZM1023.8 520.1L1023.8 516.9L1028.4 516.9L1028.4 508.9L1023.8 508.9L1023.8 505.6L1032.6 505.6L1032.6 516.9L1036.8 516.9L1036.8 520.1L1023.8 520.1ZM1039.9 520.1L1039.9 516.9L1044.3 516.9L1044.3 502.6L1039.9 502.6L1039.9 499.4L1048.5 499.4L1048.5 516.9L1052.9 516.9L1052.9 520.1L1039.9 520.1ZM1063.6 520.4L1063.6 520.4Q1060.0 520.4 1058.1 518.4Q1056.2 516.4 1056.2 512.9L1056.2 512.9Q1056.2 511.2 1056.7 509.7Q1057.2 508.3 1058.1 507.3Q1059.0 506.3 1060.3 505.8Q1061.6 505.3 1063.2 505.3L1063.2 505.3Q1064.9 505.3 1066.1 505.8Q1067.4 506.3 1068.3 507.3Q1069.2 508.2 1069.7 509.6Q1070.2 511.0 1070.2 512.6L1070.2 512.6L1070.2 513.9L1060.3 513.9L1060.3 514.1Q1060.3 515.5 1061.2 516.4Q1062.1 517.2 1063.7 517.2L1063.7 517.2Q1065.0 517.2 1065.9 516.7Q1066.9 516.3 1067.5 515.4L1067.5 515.4L1069.8 517.9Q1068.9 518.9 1067.4 519.7Q1065.9 520.4 1063.6 520.4ZM1063.3 508.3L1063.3 508.3Q1061.9 508.3 1061.1 509.1Q1060.3 509.9 1060.3 511.3L1060.3 511.3L1060.3 511.6L1066.1 511.6L1066.1 511.3Q1066.1 509.9 1065.4 509.1Q1064.6 508.3 1063.3 508.3Z " clip-path="url(#satori_cp-id-1-0-1-1)" mask="url(#satori_om-id-1-0-1-1)"/></svg>