<svg width="1200" height="630" viewBox="0 0 1200 630" xmlns="http://www.w3.org/2000/svg"><rect x="0" y="0" width="1200" height="630" fill="#fefbfb"/><defs><clipPath id="satori_bc-id-0"><path x="105" y="39" width="1056" height="504" d="M109,39 h1048 a4,4 0 0 1 4,4 v496 a4,4 0 0 1 -4,4 h-1048 a4,4 0 0 1 -4,-4 v-496 a4,4 0 0 1 4,-4"/></clipPath></defs><g opacity="0.9"><path x="105" y="39" width="1056" height="504" fill="#ecebeb" d="M109,39 h1048 a4,4 0 0 1 4,4 v496 a4,4 0 0 1 -4,4 h-1048 a4,4 0 0 1 -4,-4 v-496 a4,4 0 0 1 4,-4"/><path width="1056" height="504" clip-path="url(#satori_bc-id-0)" fill="none" stroke="#000" stroke-width="8" d="M106.172,40.172 A4,4 0 0 1 109,39 h1048 a4,4 0 0 1 4,4 v496 a4,4 0 0 1 -4,4 h-1048 a4,4 0 0 1 -4,-4 v-496 A4,4 0 0 1 106.172,40.172"/></g><defs><clipPath id="satori_bc-id-1"><path x="72" y="63" width="1056" height="504" d="M76,63 h1048 a4,4 0 0 1 4,4 v496 a4,4 0 0 1 -4,4 h-1048 a4,4 0 0 1 -4,-4 v-496 a4,4 0 0 1 4,-4"/></clipPath></defs><path x="72" y="63" width="1056" height="504" fill="#fefbfb" d="M76,63 h1048 a4,4 0 0 1 4,4 v496 a4,4 0 0 1 -4,4 h-1048 a4,4 0 0 1 -4,-4 v-496 a4,4 0 0 1 4,-4"/><path width="1056" height="504" clip-path="url(#satori_bc-id-1)" fill="none" stroke="#000" stroke-width="8" d="M73.172,64.172 A4,4 0 0 1 76,63 h1048 a4,4 0 0 1 4,4 v496 a4,4 0 0 1 -4,4 h-1048 a4,4 0 0 1 -4,-4 v-496 A4,4 0 0 1 73.172,64.172"/><clipPath id="satori_cp-id-1-0-0"><rect x="128" y="103" width="944" height="187"/></clipPath><mask id="satori_om-id-1-0-0"><rect x="128" y="103" width="944" height="187" fill="#fff"/></mask><path fill="black" d="M153.8 183.0L142.4 149.5L141.6 149.5L141.6 183.0L132.4 183.0L132.4 132.7L145.4 132.7L156.8 166.1L157.6 166.1L157.6 132.7L166.8 132.7L166.8 183.0L153.8 183.0ZM192.8 183.8L192.8 183.8Q188.5 183.8 185.0 182.5Q181.6 181.2 179.2 178.6Q176.7 176.1 175.4 172.5Q174.2 168.9 174.2 164.4L174.2 164.4Q174.2 159.8 175.4 156.2Q176.7 152.6 179.2 150.1Q181.6 147.6 185.0 146.3Q188.5 144.9 192.8 144.9L192.8 144.9Q197.1 144.9 200.6 146.3Q204.0 147.6 206.4 150.1Q208.9 152.6 210.2 156.2Q211.4 159.8 211.4 164.4L211.4 164.4Q211.4 168.9 210.2 172.5Q208.9 176.1 206.4 178.6Q204.0 181.2 200.6 182.5Q197.1 183.8 192.8 183.8ZM192.8 175.9L192.8 175.9Q196.4 175.9 198.4 173.7Q200.4 171.4 200.4 167.3L200.4 167.3L200.4 161.4Q200.4 157.3 198.4 155.1Q196.4 152.9 192.8 152.9L192.8 152.9Q189.2 152.9 187.2 155.1Q185.2 157.3 185.2 161.4L185.2 161.4L185.2 167.3Q185.2 171.4 187.2 173.7Q189.2 175.9 192.8 175.9ZM242.7 183.0L242.7 176.2L242.2 176.2Q240.8 179.6 238.2 181.7Q235.6 183.8 231.2 183.8L231.2 183.8Q228.1 183.8 225.5 182.7Q223.0 181.5 221.1 179.1Q219.3 176.8 218.3 173.1Q217.2 169.4 217.2 164.4L217.2 164.4Q217.2 159.3 218.3 155.7Q219.3 152.0 221.1 149.6Q223.0 147.2 225.5 146.1Q228.1 144.9 231.2 144.9L231.2 144.9Q233.4 144.9 235.1 145.5Q236.9 146.1 238.2 147.1Q239.5 148.1 240.5 149.5Q241.5 150.9 242.2 152.6L242.2 152.6L242.7 152.6L242.7 129.7L253.4 129.7L253.4 183.0L242.7 183.0ZM235.8 175.5L235.8 175.5Q238.6 175.5 240.6 174.2Q242.7 172.8 242.7 169.8L242.7 169.8L242.7 158.9Q242.7 156.0 240.6 154.6Q238.6 153.2 235.8 153.2L235.8 153.2Q232.2 153.2 230.2 155.4Q228.3 157.6 228.3 161.5L228.3 161.5L228.3 167.3Q228.3 171.1 230.2 173.3Q232.2 175.5 235.8 175.5ZM280.2 183.8L280.2 183.8Q270.8 183.8 266.0 178.6Q261.2 173.4 261.2 164.5L261.2 164.5Q261.2 160.0 262.5 156.3Q263.7 152.7 266.1 150.2Q268.4 147.6 271.7 146.3Q275.1 144.9 279.3 144.9L279.3 144.9Q283.4 144.9 286.8 146.3Q290.1 147.6 292.4 150.0Q294.7 152.5 295.9 156.0Q297.2 159.5 297.2 163.8L297.2 163.8L297.2 167.0L271.8 167.0L271.8 167.6Q271.8 171.2 274.0 173.4Q276.2 175.6 280.6 175.6L280.6 175.6Q283.9 175.6 286.3 174.3Q288.6 173.1 290.4 171.0L290.4 171.0L296.1 177.3Q294.0 179.9 290.1 181.9Q286.2 183.8 280.2 183.8ZM279.3 152.6L279.3 152.6Q275.9 152.6 273.8 154.7Q271.8 156.8 271.8 160.4L271.8 160.4L271.8 161.0L286.8 161.0L286.8 160.4Q286.8 156.7 284.8 154.7Q282.8 152.6 279.3 152.6ZM341.7 183.0L303.1 183.0L303.1 126.8L341.7 126.8L341.7 183.0ZM310.3 134.0L310.3 175.8L334.5 175.8L334.5 134.0L310.3 134.0ZM384.9 183.0L346.3 183.0L346.3 126.8L384.9 126.8L384.9 183.0ZM353.5 134.0L353.5 175.8L377.7 175.8L377.7 134.0L353.5 134.0ZM428.1 183.0L389.5 183.0L389.5 126.8L428.1 126.8L428.1 183.0ZM396.7 134.0L396.7 175.8L420.9 175.8L420.9 134.0L396.7 134.0ZM471.3 183.0L432.7 183.0L432.7 126.8L471.3 126.8L471.3 183.0ZM439.9 134.0L439.9 175.8L464.1 175.8L464.1 134.0L439.9 134.0ZM506.7 166.1L483.7 166.1L483.7 155.9L506.7 155.9L506.7 166.1ZM534.4 183.0L520.7 183.0L517.6 132.7L526.9 132.7L528.3 162.8L528.8 172.3L529.4 172.3L533.7 143.6L543.4 143.6L547.8 172.3L548.4 172.3L548.8 163.1L550.3 132.7L559.2 132.7L556.1 183.0L542.4 183.0L538.8 155.2L538.0 155.2L534.4 183.0ZM565.3 183.0L565.3 174.7L573.9 174.7L573.9 154.1L565.3 154.1L565.3 145.8L584.6 145.8L584.6 156.3L585.1 156.3Q585.6 154.3 586.5 152.4Q587.4 150.5 588.8 149.0Q590.2 147.5 592.2 146.7Q594.2 145.8 596.9 145.8L596.9 145.8L600.5 145.8L600.5 155.6L592.5 155.6Q588.6 155.6 586.6 157.9Q584.6 160.3 584.6 163.7L584.6 163.7L584.6 174.7L596.8 174.7L596.8 183.0L565.3 183.0ZM644.4 183.0L638.3 183.0Q635.0 183.0 632.9 181.3Q630.9 179.6 630.6 176.4L630.6 176.4L630.2 176.4Q629.2 180.1 626.2 181.9Q623.2 183.8 618.9 183.8L618.9 183.8Q613.5 183.8 610.2 180.9Q606.9 178.0 606.9 172.7L606.9 172.7Q606.9 166.9 611.2 164.1Q615.4 161.3 623.6 161.3L623.6 161.3L629.6 161.3L629.6 159.4Q629.6 156.1 628.1 154.4Q626.5 152.7 622.9 152.7L622.9 152.7Q619.5 152.7 617.4 154.0Q615.3 155.3 613.8 157.4L613.8 157.4L608.0 152.2Q609.8 149.0 613.8 147.0Q617.8 144.9 624.1 144.9L624.1 144.9Q631.7 144.9 636.0 148.4Q640.3 151.9 640.3 159.0L640.3 159.0L640.3 175.2L644.4 175.2L644.4 183.0ZM622.9 176.8L622.9 176.8Q625.7 176.8 627.7 175.5Q629.6 174.1 629.6 171.5L629.6 171.5L629.6 167.0L623.9 167.0Q617.4 167.0 617.4 171.4L617.4 171.4L617.4 172.9Q617.4 174.8 618.9 175.8Q620.4 176.8 622.9 176.8ZM661.7 183.0L651.1 183.0L651.1 145.8L661.7 145.8L661.7 152.6L662.2 152.6Q662.8 151.0 663.8 149.6Q664.7 148.2 666.0 147.2Q667.4 146.2 669.1 145.5Q670.9 144.9 673.1 144.9L673.1 144.9Q675.8 144.9 678.0 145.8Q680.2 146.7 681.8 148.5Q683.4 150.3 684.3 152.9Q685.2 155.5 685.2 158.9L685.2 158.9L685.2 183.0L674.6 183.0L674.6 160.3Q674.6 153.1 668.3 153.1L668.3 153.1Q667.1 153.1 665.9 153.5Q664.7 153.8 663.8 154.5Q662.8 155.2 662.3 156.2Q661.7 157.2 661.7 158.5L661.7 158.5L661.7 183.0ZM731.6 186.7L731.6 186.7Q731.6 192.6 726.6 195.4Q721.6 198.2 711.0 198.2L711.0 198.2Q705.7 198.2 702.2 197.6Q698.7 197.0 696.7 195.8Q694.6 194.7 693.8 193.1Q693.0 191.5 693.0 189.6L693.0 189.6Q693.0 186.5 694.9 184.9Q696.7 183.2 700.1 182.4L700.1 182.4L700.1 181.9Q697.7 181.2 696.3 179.9Q694.9 178.6 694.9 176.1L694.9 176.1Q694.9 173.4 696.8 172.1Q698.6 170.8 701.6 170.1L701.6 170.1L701.6 169.6Q698.3 168.0 696.5 165.2Q694.6 162.3 694.6 158.2L694.6 158.2Q694.6 154.9 695.8 152.5Q696.9 150.0 699.1 148.3Q701.2 146.7 704.1 145.8Q707.1 144.9 710.8 144.9L710.8 144.9Q714.3 144.9 717.3 145.7L717.3 145.7L717.3 143.7Q717.3 141.6 718.8 140.1Q720.3 138.7 723.0 138.7L723.0 138.7L729.6 138.7L729.6 146.4L720.6 146.4L720.6 147.1Q723.7 148.7 725.3 151.5Q727.0 154.2 727.0 158.2L727.0 158.2Q727.0 161.4 725.9 163.9Q724.7 166.3 722.6 168.0Q720.4 169.7 717.4 170.6Q714.4 171.4 710.8 171.4L710.8 171.4Q709.1 171.4 707.6 171.3Q706.1 171.1 704.7 170.7L704.7 170.7Q703.9 171.1 703.4 171.8Q702.8 172.4 702.8 173.4L702.8 173.4Q702.8 174.3 703.3 174.8Q703.7 175.3 704.5 175.6Q705.2 175.8 706.2 175.9Q707.2 176.0 708.3 176.0L708.3 176.0L716.8 176.0Q720.8 176.0 723.6 176.8Q726.4 177.6 728.2 179.0Q730.0 180.4 730.8 182.4Q731.6 184.3 731.6 186.7ZM721.5 187.5L721.5 187.5Q721.5 186.0 720.3 185.2Q719.2 184.4 716.0 184.4L716.0 184.4L703.2 184.4Q701.8 185.6 701.8 187.4L701.8 187.4Q701.8 189.1 703.2 190.3Q704.7 191.4 708.2 191.4L708.2 191.4L714.5 191.4Q718.2 191.4 719.8 190.4Q721.5 189.4 721.5 187.5ZM710.8 164.7L710.8 164.7Q714.0 164.7 715.5 163.1Q717.0 161.5 717.0 159.0L717.0 159.0L717.0 157.3Q717.0 154.9 715.5 153.3Q714.0 151.7 710.8 151.7L710.8 151.7Q707.6 151.7 706.2 153.3Q704.7 154.9 704.7 157.3L704.7 157.3L704.7 159.0Q704.7 161.5 706.2 163.1Q707.6 164.7 710.8 164.7ZM737.7 183.0L737.7 174.7L749.1 174.7L749.1 138.0L737.7 138.0L737.7 129.7L759.7 129.7L759.7 174.7L771.1 174.7L771.1 183.0L737.7 183.0ZM799.9 141.0L799.9 141.0Q796.3 141.0 794.9 139.6Q793.5 138.1 793.5 136.0L793.5 136.0L793.5 133.9Q793.5 131.8 794.9 130.3Q796.3 128.9 799.9 128.9L799.9 128.9Q803.5 128.9 804.9 130.3Q806.3 131.8 806.3 133.9L806.3 133.9L806.3 136.0Q806.3 138.1 804.9 139.6Q803.5 141.0 799.9 141.0ZM782.8 183.0L782.8 174.7L794.6 174.7L794.6 154.1L782.8 154.1L782.8 145.8L805.2 145.8L805.2 174.7L816.2 174.7L816.2 183.0L782.8 183.0ZM834.5 183.0L823.9 183.0L823.9 145.8L834.5 145.8L834.5 152.6L835.0 152.6Q835.6 151.0 836.6 149.6Q837.5 148.2 838.8 147.2Q840.2 146.2 841.9 145.5Q843.7 144.9 845.9 144.9L845.9 144.9Q848.6 144.9 850.8 145.8Q853.0 146.7 854.6 148.5Q856.2 150.3 857.1 152.9Q858.0 155.5 858.0 158.9L858.0 158.9L858.0 183.0L847.4 183.0L847.4 160.3Q847.4 153.1 841.1 153.1L841.1 153.1Q839.9 153.1 838.7 153.5Q837.5 153.8 836.6 154.5Q835.6 155.2 835.1 156.2Q834.5 157.2 834.5 158.5L834.5 158.5L834.5 183.0ZM904.4 186.7L904.4 186.7Q904.4 192.6 899.4 195.4Q894.4 198.2 883.8 198.2L883.8 198.2Q878.5 198.2 875.0 197.6Q871.5 197.0 869.5 195.8Q867.4 194.7 866.6 193.1Q865.8 191.5 865.8 189.6L865.8 189.6Q865.8 186.5 867.7 184.9Q869.5 183.2 872.9 182.4L872.9 182.4L872.9 181.9Q870.5 181.2 869.1 179.9Q867.7 178.6 867.7 176.1L867.7 176.1Q867.7 173.4 869.6 172.1Q871.4 170.8 874.4 170.1L874.4 170.1L874.4 169.6Q871.1 168.0 869.3 165.2Q867.4 162.3 867.4 158.2L867.4 158.2Q867.4 154.9 868.6 152.5Q869.7 150.0 871.9 148.3Q874.0 146.7 876.9 145.8Q879.9 144.9 883.6 144.9L883.6 144.9Q887.1 144.9 890.1 145.7L890.1 145.7L890.1 143.7Q890.1 141.6 891.6 140.1Q893.1 138.7 895.8 138.7L895.8 138.7L902.4 138.7L902.4 146.4L893.4 146.4L893.4 147.1Q896.5 148.7 898.1 151.5Q899.8 154.2 899.8 158.2L899.8 158.2Q899.8 161.4 898.7 163.9Q897.5 166.3 895.4 168.0Q893.2 169.7 890.2 170.6Q887.2 171.4 883.6 171.4L883.6 171.4Q881.9 171.4 880.4 171.3Q878.9 171.1 877.5 170.7L877.5 170.7Q876.7 171.1 876.2 171.8Q875.6 172.4 875.6 173.4L875.6 173.4Q875.6 174.3 876.1 174.8Q876.5 175.3 877.3 175.6Q878.0 175.8 879.0 175.9Q880.0 176.0 881.1 176.0L881.1 176.0L889.6 176.0Q893.6 176.0 896.4 176.8Q899.2 177.6 901.0 179.0Q902.8 180.4 903.6 182.4Q904.4 184.3 904.4 186.7ZM894.3 187.5L894.3 187.5Q894.3 186.0 893.1 185.2Q892.0 184.4 888.8 184.4L888.8 184.4L876.0 184.4Q874.6 185.6 874.6 187.4L874.6 187.4Q874.6 189.1 876.0 190.3Q877.5 191.4 881.0 191.4L881.0 191.4L887.3 191.4Q891.0 191.4 892.6 190.4Q894.3 189.4 894.3 187.5ZM883.6 164.7L883.6 164.7Q886.8 164.7 888.3 163.1Q889.8 161.5 889.8 159.0L889.8 159.0L889.8 157.3Q889.8 154.9 888.3 153.3Q886.8 151.7 883.6 151.7L883.6 151.7Q880.4 151.7 879.0 153.3Q877.5 154.9 877.5 157.3L877.5 157.3L877.5 159.0Q877.5 161.5 879.0 163.1Q880.4 164.7 883.6 164.7Z M166.2 276.6L152.5 276.6Q146.7 276.6 143.9 273.5Q141.1 270.5 141.1 265.8L141.1 265.8L141.1 247.7L131.0 247.7L131.0 239.4L137.6 239.4Q140.0 239.4 141.0 238.5Q142.0 237.5 142.0 235.0L142.0 235.0L142.0 226.3L151.8 226.3L151.8 239.4L166.2 239.4L166.2 247.7L151.8 247.7L151.8 268.3L166.2 268.3L166.2 276.6ZM175.9 276.6L175.9 223.3L186.5 223.3L186.5 246.2L187.0 246.2Q187.6 244.6 188.6 243.2Q189.5 241.8 190.8 240.8Q192.2 239.8 193.9 239.1Q195.7 238.5 197.9 238.5L197.9 238.5Q200.6 238.5 202.8 239.4Q205.0 240.3 206.6 242.1Q208.2 243.9 209.1 246.5Q210.0 249.1 210.0 252.5L210.0 252.5L210.0 276.6L199.4 276.6L199.4 253.9Q199.4 246.7 193.1 246.7L193.1 246.7Q191.9 246.7 190.7 247.1Q189.5 247.4 188.6 248.1Q187.6 248.8 187.1 249.8Q186.5 250.8 186.5 252.1L186.5 252.1L186.5 276.6L175.9 276.6ZM237.0 277.4L237.0 277.4Q227.6 277.4 222.8 272.2Q218.0 267.0 218.0 258.1L218.0 258.1Q218.0 253.6 219.3 249.9Q220.5 246.3 222.9 243.8Q225.2 241.2 228.5 239.9Q231.9 238.5 236.1 238.5L236.1 238.5Q240.2 238.5 243.6 239.9Q246.9 241.2 249.2 243.6Q251.5 246.1 252.7 249.6Q254.0 253.1 254.0 257.4L254.0 257.4L254.0 260.6L228.6 260.6L228.6 261.2Q228.6 264.8 230.8 267.0Q233.0 269.2 237.4 269.2L237.4 269.2Q240.7 269.2 243.1 267.9Q245.4 266.7 247.2 264.6L247.2 264.6L252.9 270.9Q250.8 273.5 246.9 275.5Q243.0 277.4 237.0 277.4ZM236.1 246.2L236.1 246.2Q232.7 246.2 230.6 248.3Q228.6 250.4 228.6 254.0L228.6 254.0L228.6 254.6L243.6 254.6L243.6 254.0Q243.6 250.3 241.6 248.3Q239.6 246.2 236.1 246.2Z M317.4 276.6L306.6 276.6L306.6 226.3L339.9 226.3L339.9 235.2L317.4 235.2L317.4 246.7L337.5 246.7L337.5 255.5L317.4 255.5L317.4 276.6ZM367.9 234.6L367.9 234.6Q364.3 234.6 362.9 233.2Q361.5 231.7 361.5 229.6L361.5 229.6L361.5 227.5Q361.5 225.4 362.9 223.9Q364.3 222.5 367.9 222.5L367.9 222.5Q371.5 222.5 372.9 223.9Q374.3 225.4 374.3 227.5L374.3 227.5L374.3 229.6Q374.3 231.7 372.9 233.2Q371.5 234.6 367.9 234.6ZM350.8 276.6L350.8 268.3L362.6 268.3L362.6 247.7L350.8 247.7L350.8 239.4L373.2 239.4L373.2 268.3L384.2 268.3L384.2 276.6L350.8 276.6ZM392.1 276.6L392.1 268.3L403.5 268.3L403.5 231.6L392.1 231.6L392.1 223.3L414.1 223.3L414.1 268.3L425.5 268.3L425.5 276.6L392.1 276.6ZM453.0 277.4L453.0 277.4Q443.6 277.4 438.8 272.2Q434 267.0 434 258.1L434 258.1Q434 253.6 435.3 249.9Q436.5 246.3 438.9 243.8Q441.2 241.2 444.5 239.9Q447.9 238.5 452.1 238.5L452.1 238.5Q456.2 238.5 459.6 239.9Q462.9 241.2 465.2 243.6Q467.5 246.1 468.7 249.6Q470 253.1 470 257.4L470 257.4L470 260.6L444.6 260.6L444.6 261.2Q444.6 264.8 446.8 267.0Q449.0 269.2 453.4 269.2L453.4 269.2Q456.7 269.2 459.1 267.9Q461.4 266.7 463.2 264.6L463.2 264.6L468.9 270.9Q466.8 273.5 462.9 275.5Q459.0 277.4 453.0 277.4ZM452.1 246.2L452.1 246.2Q448.7 246.2 446.6 248.3Q444.6 250.4 444.6 254.0L444.6 254.0L444.6 254.6L459.6 254.6L459.6 254.0Q459.6 250.3 457.6 248.3Q455.6 246.2 452.1 246.2Z M537.6 277.4L537.6 277.4Q531.3 277.4 526.6 275.3Q521.9 273.2 519.0 269.6L519.0 269.6L525.3 262.7Q528.0 265.8 531.3 267.2Q534.6 268.6 538.0 268.6L538.0 268.6Q541.9 268.6 543.9 266.9Q545.9 265.2 545.9 261.9L545.9 261.9Q545.9 259.3 544.3 257.9Q542.8 256.5 539.1 256.0L539.1 256.0L533.9 255.1Q527.1 253.9 524.1 250.1Q521.0 246.2 521.0 240.7L521.0 240.7Q521.0 233.4 525.8 229.4Q530.6 225.4 539.1 225.4L539.1 225.4Q545.0 225.4 549.3 227.2Q553.6 229.0 556.3 232.1L556.3 232.1L550.1 239.0Q548.1 236.7 545.4 235.5Q542.6 234.2 539.2 234.2L539.2 234.2Q531.9 234.2 531.9 240.2L531.9 240.2Q531.9 242.8 533.5 244.1Q535.2 245.4 538.8 246.0L538.8 246.0L544.1 247.0Q550.2 248.0 553.5 251.6Q556.8 255.1 556.8 261.1L556.8 261.1Q556.8 264.6 555.6 267.6Q554.4 270.6 551.9 272.8Q549.5 275.0 545.9 276.2Q542.4 277.4 537.6 277.4ZM585.4 255.0L591.0 239.4L601.8 239.4L584.3 282.5Q582.7 286.6 579.9 288.8Q577.2 291.0 572.5 291.0L572.5 291.0L565.1 291.0L565.1 282.7L574.0 282.7L576.3 276.3L561.4 239.4L572.8 239.4L578.2 255.0L581.6 265.8L582.2 265.8L585.4 255.0ZM624.4 277.4L624.4 277.4Q618.2 277.4 613.6 275.5Q609.0 273.7 606.7 270.4L606.7 270.4L612.7 264.9Q614.9 267.3 617.8 268.6Q620.7 269.9 624.4 269.9L624.4 269.9Q627.6 269.9 629.4 269.0Q631.2 268.0 631.2 266.0L631.2 266.0Q631.2 264.4 630.0 263.8Q628.8 263.2 626.6 262.8L626.6 262.8L620.6 261.9Q618.1 261.5 615.9 260.7Q613.8 260.0 612.2 258.7Q610.6 257.4 609.7 255.5Q608.7 253.7 608.7 251.0L608.7 251.0Q608.7 245.2 613.2 241.8Q617.7 238.5 625.7 238.5L625.7 238.5Q631.2 238.5 635.1 240.0Q638.9 241.5 641.2 244.2L641.2 244.2L635.9 250.3Q634.2 248.5 631.6 247.2Q629.0 246.0 625.4 246.0L625.4 246.0Q619.2 246.0 619.2 249.8L619.2 249.8Q619.2 251.4 620.4 252.0Q621.6 252.6 623.8 253.0L623.8 253.0L629.7 253.9Q632.2 254.3 634.4 255.1Q636.5 255.8 638.2 257.1Q639.8 258.4 640.7 260.3Q641.6 262.2 641.6 264.8L641.6 264.8Q641.6 270.6 637.1 274.0Q632.6 277.4 624.4 277.4ZM684.6 276.6L670.9 276.6Q665.1 276.6 662.3 273.5Q659.5 270.5 659.5 265.8L659.5 265.8L659.5 247.7L649.4 247.7L649.4 239.4L656.0 239.4Q658.4 239.4 659.4 238.5Q660.4 237.5 660.4 235.0L660.4 235.0L660.4 226.3L670.2 226.3L670.2 239.4L684.6 239.4L684.6 247.7L670.2 247.7L670.2 268.3L684.6 268.3L684.6 276.6ZM712.2 277.4L712.2 277.4Q702.8 277.4 698.0 272.2Q693.2 267.0 693.2 258.1L693.2 258.1Q693.2 253.6 694.5 249.9Q695.7 246.3 698.1 243.8Q700.4 241.2 703.7 239.9Q707.1 238.5 711.3 238.5L711.3 238.5Q715.4 238.5 718.8 239.9Q722.1 241.2 724.4 243.6Q726.7 246.1 727.9 249.6Q729.2 253.1 729.2 257.4L729.2 257.4L729.2 260.6L703.8 260.6L703.8 261.2Q703.8 264.8 706.0 267.0Q708.2 269.2 712.6 269.2L712.6 269.2Q715.9 269.2 718.3 267.9Q720.6 266.7 722.4 264.6L722.4 264.6L728.1 270.9Q726.0 273.5 722.1 275.5Q718.2 277.4 712.2 277.4ZM711.3 246.2L711.3 246.2Q707.9 246.2 705.8 248.3Q703.8 250.4 703.8 254.0L703.8 254.0L703.8 254.6L718.8 254.6L718.8 254.0Q718.8 250.3 716.8 248.3Q714.8 246.2 711.3 246.2ZM743.5 276.6L735.0 276.6L735.0 239.4L743.5 239.4L743.5 244.9L744.0 244.9Q744.9 242.3 746.5 240.4Q748.1 238.5 751.1 238.5L751.1 238.5Q756.5 238.5 757.7 244.9L757.7 244.9L758.1 244.9Q758.6 243.6 759.2 242.4Q759.9 241.3 760.8 240.4Q761.7 239.5 763.0 239.0Q764.3 238.5 766.1 238.5L766.1 238.5Q773.8 238.5 773.8 250.0L773.8 250.0L773.8 276.6L765.3 276.6L765.3 251.1Q765.3 248.5 764.4 247.4Q763.5 246.4 762.0 246.4L762.0 246.4Q760.7 246.4 759.7 247.3Q758.7 248.2 758.7 250.1L758.7 250.1L758.7 276.6L750.1 276.6L750.1 251.1Q750.1 248.5 749.3 247.4Q748.4 246.4 747.0 246.4L747.0 246.4Q745.5 246.4 744.5 247.3Q743.5 248.2 743.5 250.1L743.5 250.1L743.5 276.6Z " clip-path="url(#satori_cp-id-1-0-0)" mask="url(#satori_om-id-1-0-0)"/><path fill="black" d="M130.7 520.3L130.7 499.6L132.9 499.6L132.9 508.2L133.0 508.2Q134.4 505.5 137.5 505.5L137.5 505.5Q140.1 505.5 141.6 507.5Q143.1 509.5 143.1 513.0L143.1 513.0Q143.1 516.6 141.6 518.6Q140.1 520.6 137.5 520.6L137.5 520.6Q134.4 520.6 133.0 517.9L133.0 517.9L132.9 517.9L132.9 520.3L130.7 520.3ZM136.6 518.6L136.6 518.6Q138.6 518.6 139.6 517.4Q140.7 516.2 140.7 514.3L140.7 514.3L140.7 511.8Q140.7 509.9 139.6 508.7Q138.6 507.5 136.6 507.5L136.6 507.5Q135.8 507.5 135.2 507.7Q134.5 507.9 134.0 508.2Q133.5 508.6 133.2 509.2Q132.9 509.7 132.9 510.4L132.9 510.4L132.9 515.7Q132.9 516.4 133.2 516.9Q133.5 517.5 134.0 517.8Q134.5 518.2 135.2 518.4Q135.8 518.6 136.6 518.6ZM155.4 511.9L157.9 505.8L160.1 505.8L152.9 523.4Q152.7 524.1 152.4 524.5Q152.1 525.0 151.7 525.3Q151.2 525.6 150.7 525.7Q150.1 525.9 149.3 525.9L149.3 525.9L147.1 525.9L147.1 524.0L150.5 524.0L152.1 520.0L146.3 505.8L148.6 505.8L151.0 511.9L153.2 517.4L153.3 517.4L155.4 511.9Z "/><clipPath id="satori_cp-id-1-0-1-0-2"><rect x="178" y="489" width="134" height="36"/></clipPath><mask id="satori_om-id-1-0-1-0-2"><rect x="178" y="489" width="134" height="36" fill="#fff"/></mask><path fill="black" d="M193.0 520.1L179.8 520.1L179.8 516.6L187.9 508.9L180.1 508.9L180.1 505.6L192.7 505.6L192.7 509.1L184.6 516.9L193.0 516.9L193.0 520.1ZM196.6 520.1L196.6 499.4L200.8 499.4L200.8 508.3L200.9 508.3Q201.2 507.7 201.5 507.1Q201.9 506.6 202.4 506.2Q202.9 505.8 203.6 505.5Q204.3 505.3 205.2 505.3L205.2 505.3Q206.2 505.3 207.1 505.7Q208.0 506.0 208.6 506.7Q209.2 507.4 209.5 508.4Q209.9 509.4 209.9 510.7L209.9 510.7L209.9 520.1L205.7 520.1L205.7 511.3Q205.7 508.5 203.3 508.5L203.3 508.5Q202.8 508.5 202.4 508.6Q201.9 508.8 201.5 509.0Q201.2 509.3 201.0 509.7Q200.8 510.1 200.8 510.6L200.8 510.6L200.8 520.1L196.6 520.1ZM227.6 520.1L225.2 520.1Q223.9 520.1 223.2 519.4Q222.4 518.8 222.2 517.5L222.2 517.5L222.1 517.5Q221.7 519.0 220.5 519.7Q219.4 520.4 217.7 520.4L217.7 520.4Q215.6 520.4 214.3 519.3Q213.1 518.2 213.1 516.1L213.1 516.1Q213.1 513.8 214.7 512.8Q216.4 511.7 219.6 511.7L219.6 511.7L221.9 511.7L221.9 510.9Q221.9 509.6 221.3 509.0Q220.7 508.3 219.2 508.3L219.2 508.3Q217.9 508.3 217.1 508.8Q216.3 509.3 215.7 510.2L215.7 510.2L213.4 508.1Q214.2 506.9 215.7 506.1Q217.3 505.3 219.7 505.3L219.7 505.3Q222.7 505.3 224.4 506.7Q226.0 508.0 226.0 510.8L226.0 510.8L226.0 517.1L227.6 517.1L227.6 520.1ZM219.3 517.7L219.3 517.7Q220.4 517.7 221.1 517.2Q221.9 516.6 221.9 515.6L221.9 515.6L221.9 513.9L219.7 513.9Q217.1 513.9 217.1 515.6L217.1 515.6L217.1 516.2Q217.1 516.9 217.7 517.3Q218.3 517.7 219.3 517.7ZM234.4 520.1L230.2 520.1L230.2 505.6L234.4 505.6L234.4 508.3L234.5 508.3Q234.8 507.7 235.1 507.1Q235.5 506.6 236.0 506.2Q236.5 505.8 237.2 505.5Q237.9 505.3 238.8 505.3L238.8 505.3Q239.8 505.3 240.7 505.7Q241.6 506.0 242.2 506.7Q242.8 507.4 243.1 508.4Q243.5 509.4 243.5 510.7L243.5 510.7L243.5 520.1L239.3 520.1L239.3 511.3Q239.3 508.5 236.9 508.5L236.9 508.5Q236.4 508.5 236.0 508.6Q235.5 508.8 235.1 509.0Q234.8 509.3 234.6 509.7Q234.4 510.1 234.4 510.6L234.4 510.6L234.4 520.1ZM261.5 521.5L261.5 521.5Q261.5 523.8 259.6 524.9Q257.7 526.0 253.5 526.0L253.5 526.0Q251.4 526.0 250.1 525.8Q248.8 525.6 248.0 525.1Q247.2 524.7 246.8 524.0Q246.5 523.4 246.5 522.7L246.5 522.7Q246.5 521.5 247.2 520.8Q248.0 520.2 249.3 519.9L249.3 519.9L249.3 519.7Q248.4 519.4 247.8 518.9Q247.3 518.4 247.3 517.4L247.3 517.4Q247.3 516.4 248.0 515.9Q248.7 515.4 249.9 515.1L249.9 515.1L249.9 514.9Q248.6 514.3 247.9 513.2Q247.2 512.1 247.2 510.5L247.2 510.5Q247.2 509.2 247.6 508.2Q248.1 507.3 248.9 506.6Q249.7 506.0 250.9 505.6Q252.0 505.3 253.4 505.3L253.4 505.3Q254.8 505.3 256.0 505.6L256.0 505.6L256.0 504.8Q256.0 504.0 256.6 503.4Q257.2 502.9 258.2 502.9L258.2 502.9L260.7 502.9L260.7 505.9L257.3 505.9L257.3 506.1Q258.4 506.8 259.1 507.8Q259.8 508.9 259.8 510.5L259.8 510.5Q259.8 511.7 259.3 512.7Q258.9 513.6 258.0 514.3Q257.2 514.9 256.0 515.3Q254.9 515.6 253.4 515.6L253.4 515.6Q252.8 515.6 252.2 515.5Q251.6 515.5 251.1 515.3L251.1 515.3Q250.8 515.5 250.6 515.8Q250.4 516.0 250.4 516.4L250.4 516.4Q250.4 516.7 250.5 516.9Q250.7 517.1 251.0 517.2Q251.3 517.3 251.7 517.3Q252.1 517.4 252.5 517.4L252.5 517.4L255.8 517.4Q257.3 517.4 258.4 517.7Q259.5 518.0 260.2 518.6Q260.9 519.1 261.2 519.9Q261.5 520.6 261.5 521.5ZM257.6 521.9L257.6 521.9Q257.6 521.3 257.2 521.0Q256.7 520.7 255.4 520.7L255.4 520.7L250.5 520.7Q249.9 521.1 249.9 521.8L249.9 521.8Q249.9 522.5 250.5 522.9Q251.1 523.4 252.5 523.4L252.5 523.4L254.9 523.4Q256.3 523.4 257.0 523.0Q257.6 522.6 257.6 521.9ZM253.4 513.0L253.4 513.0Q254.7 513.0 255.3 512.4Q255.8 511.7 255.8 510.8L255.8 510.8L255.8 510.1Q255.8 509.2 255.3 508.6Q254.7 507.9 253.4 507.9L253.4 507.9Q252.2 507.9 251.6 508.6Q251.1 509.2 251.1 510.1L251.1 510.1L251.1 510.8Q251.1 511.7 251.6 512.4Q252.2 513.0 253.4 513.0ZM263.9 520.1L263.9 516.9L268.3 516.9L268.3 502.6L263.9 502.6L263.9 499.4L272.5 499.4L272.5 516.9L276.9 516.9L276.9 520.1L263.9 520.1ZM289.6 520.1L289.6 517.5L289.5 517.5Q289.0 518.7 288.0 519.6Q286.9 520.4 285.2 520.4L285.2 520.4Q284.2 520.4 283.3 520.1Q282.4 519.7 281.8 519.0Q281.2 518.3 280.9 517.3Q280.5 516.3 280.5 515.0L280.5 515.0L280.5 505.6L284.7 505.6L284.7 514.4Q284.7 517.2 287.1 517.2L287.1 517.2Q287.6 517.2 288.0 517.1Q288.5 517.0 288.8 516.7Q289.2 516.5 289.4 516.1Q289.6 515.7 289.6 515.1L289.6 515.1L289.6 505.6L293.8 505.6L293.8 520.1L289.6 520.1ZM301.6 520.1L297.4 520.1L297.4 505.6L301.6 505.6L301.6 508.3L301.7 508.3Q302.0 507.7 302.3 507.1Q302.7 506.6 303.2 506.2Q303.7 505.8 304.4 505.5Q305.1 505.3 306.0 505.3L306.0 505.3Q307.0 505.3 307.9 505.7Q308.8 506.0 309.4 506.7Q310.0 507.4 310.3 508.4Q310.7 509.4 310.7 510.7L310.7 510.7L310.7 520.1L306.5 520.1L306.5 511.3Q306.5 508.5 304.1 508.5L304.1 508.5Q303.6 508.5 303.2 508.6Q302.7 508.8 302.3 509.0Q302.0 509.3 301.8 509.7Q301.6 510.1 301.6 510.6L301.6 510.6L301.6 520.1Z " clip-path="url(#satori_cp-id-1-0-1-0-2)" mask="url(#satori_om-id-1-0-1-0-2)"/><clipPath id="satori_cp-id-1-0-1-1"><rect x="786" y="489" width="286" height="36"/></clipPath><mask id="satori_om-id-1-0-1-1"><rect x="786" y="489" width="286" height="36" fill="#fff"/></mask><path fill="black" d="M802.7 520.1L798.2 520.1L796.9 515.4L791.6 515.4L790.4 520.1L786.1 520.1L791.4 500.5L797.4 500.5L802.7 520.1ZM796.3 512.0L794.4 504.6L794.2 504.6L792.3 512.0L796.3 512.0ZM811.0 520.4L811.0 520.4Q808.6 520.4 806.8 519.7Q805.1 519.0 804.2 517.7L804.2 517.7L806.5 515.6Q807.3 516.5 808.5 517.0Q809.6 517.5 811.1 517.5L811.1 517.5Q812.3 517.5 813.0 517.1Q813.7 516.8 813.7 516.0L813.7 516.0Q813.7 515.4 813.2 515.1Q812.7 514.9 811.9 514.7L811.9 514.7L809.6 514.4Q808.6 514.2 807.8 513.9Q806.9 513.7 806.3 513.1Q805.7 512.6 805.3 511.9Q805.0 511.2 805.0 510.2L805.0 510.2Q805.0 507.9 806.7 506.6Q808.4 505.3 811.6 505.3L811.6 505.3Q813.7 505.3 815.2 505.9Q816.7 506.5 817.6 507.5L817.6 507.5L815.5 509.9Q814.9 509.2 813.9 508.7Q812.9 508.2 811.4 508.2L811.4 508.2Q809.0 508.2 809.0 509.7L809.0 509.7Q809.0 510.3 809.5 510.6Q810.0 510.8 810.8 510.9L810.8 510.9L813.1 511.3Q814.1 511.4 814.9 511.7Q815.8 512.0 816.4 512.5Q817.0 513.0 817.4 513.8Q817.8 514.5 817.8 515.5L817.8 515.5Q817.8 517.8 816.0 519.1Q814.3 520.4 811.0 520.4ZM834.5 520.1L829.1 520.1Q826.9 520.1 825.8 518.9Q824.7 517.7 824.7 515.9L824.7 515.9L824.7 508.9L820.8 508.9L820.8 505.6L823.3 505.6Q824.2 505.6 824.6 505.3Q825.0 504.9 825.0 503.9L825.0 503.9L825.0 500.5L828.8 500.5L828.8 505.6L834.5 505.6L834.5 508.9L828.8 508.9L828.8 516.9L834.5 516.9L834.5 520.1ZM838.5 520.1L838.5 516.9L841.8 516.9L841.8 508.9L838.5 508.9L838.5 505.6L845.9 505.6L845.9 509.7L846.1 509.7Q846.3 508.9 846.7 508.2Q847.0 507.5 847.6 506.9Q848.1 506.3 848.9 506.0Q849.7 505.6 850.8 505.6L850.8 505.6L852.1 505.6L852.1 509.5L849.1 509.5Q847.5 509.5 846.7 510.4Q845.9 511.3 845.9 512.6L845.9 512.6L845.9 516.9L850.7 516.9L850.7 520.1L838.5 520.1ZM861.6 520.4L861.6 520.4Q859.9 520.4 858.6 519.9Q857.2 519.4 856.3 518.4Q855.4 517.4 854.9 516.0Q854.3 514.6 854.3 512.9L854.3 512.9Q854.3 511.1 854.9 509.7Q855.4 508.3 856.3 507.3Q857.2 506.3 858.6 505.8Q859.9 505.3 861.6 505.3L861.6 505.3Q863.3 505.3 864.6 505.8Q866.0 506.3 866.9 507.3Q867.8 508.3 868.3 509.7Q868.9 511.1 868.9 512.9L868.9 512.9Q868.9 514.6 868.3 516.0Q867.8 517.4 866.9 518.4Q866.0 519.4 864.6 519.9Q863.3 520.4 861.6 520.4ZM861.6 517.3L861.6 517.3Q863.0 517.3 863.8 516.5Q864.6 515.6 864.6 514.0L864.6 514.0L864.6 511.7Q864.6 510.1 863.8 509.3Q863.0 508.4 861.6 508.4L861.6 508.4Q860.2 508.4 859.4 509.3Q858.6 510.1 858.6 511.7L858.6 511.7L858.6 514.0Q858.6 515.6 859.4 516.5Q860.2 517.3 861.6 517.3Z M888.5 520.1L888.5 499.4L892.6 499.4L892.6 508.3L892.8 508.3Q893.3 507.0 894.3 506.1Q895.3 505.3 897.1 505.3L897.1 505.3Q898.3 505.3 899.3 505.8Q900.3 506.2 901.0 507.1Q901.7 508.1 902.1 509.5Q902.5 510.9 902.5 512.9L902.5 512.9Q902.5 514.8 902.1 516.3Q901.7 517.7 901.0 518.6Q900.3 519.5 899.3 520.0Q898.3 520.4 897.1 520.4L897.1 520.4Q895.3 520.4 894.3 519.6Q893.3 518.8 892.8 517.5L892.8 517.5L892.6 517.5L892.6 520.1L888.5 520.1ZM895.3 517.2L895.3 517.2Q896.7 517.2 897.4 516.4Q898.2 515.5 898.2 514.0L898.2 514.0L898.2 511.7Q898.2 510.2 897.4 509.4Q896.7 508.5 895.3 508.5L895.3 508.5Q894.2 508.5 893.4 509.1Q892.6 509.6 892.6 510.7L892.6 510.7L892.6 515.0Q892.6 516.1 893.4 516.7Q894.2 517.2 895.3 517.2ZM905.5 520.1L905.5 516.9L909.9 516.9L909.9 502.6L905.5 502.6L905.5 499.4L914.1 499.4L914.1 516.9L918.5 516.9L918.5 520.1L905.5 520.1ZM928.8 520.4L928.8 520.4Q927.1 520.4 925.8 519.9Q924.4 519.4 923.5 518.4Q922.6 517.4 922.1 516.0Q921.5 514.6 921.5 512.9L921.5 512.9Q921.5 511.1 922.1 509.7Q922.6 508.3 923.5 507.3Q924.4 506.3 925.8 505.8Q927.1 505.3 928.8 505.3L928.8 505.3Q930.5 505.3 931.8 505.8Q933.2 506.3 934.1 507.3Q935.0 508.3 935.5 509.7Q936.1 511.1 936.1 512.9L936.1 512.9Q936.1 514.6 935.5 516.0Q935.0 517.4 934.1 518.4Q933.2 519.4 931.8 519.9Q930.5 520.4 928.8 520.4ZM928.8 517.3L928.8 517.3Q930.2 517.3 931.0 516.5Q931.8 515.6 931.8 514.0L931.8 514.0L931.8 511.7Q931.8 510.1 931.0 509.3Q930.2 508.4 928.8 508.4L928.8 508.4Q927.4 508.4 926.6 509.3Q925.8 510.1 925.8 511.7L925.8 511.7L925.8 514.0Q925.8 515.6 926.6 516.5Q927.4 517.3 928.8 517.3ZM953.5 521.5L953.5 521.5Q953.5 523.8 951.6 524.9Q949.7 526.0 945.5 526.0L945.5 526.0Q943.4 526.0 942.1 525.8Q940.8 525.6 940.0 525.1Q939.2 524.7 938.8 524.0Q938.5 523.4 938.5 522.7L938.5 522.7Q938.5 521.5 939.2 520.8Q940.0 520.2 941.3 519.9L941.3 519.9L941.3 519.7Q940.4 519.4 939.8 518.9Q939.3 518.4 939.3 517.4L939.3 517.4Q939.3 516.4 940.0 515.9Q940.7 515.4 941.9 515.1L941.9 515.1L941.9 514.9Q940.6 514.3 939.9 513.2Q939.2 512.1 939.2 510.5L939.2 510.5Q939.2 509.2 939.6 508.2Q940.1 507.3 940.9 506.6Q941.7 506.0 942.9 505.6Q944.0 505.3 945.4 505.3L945.4 505.3Q946.8 505.3 948.0 505.6L948.0 505.6L948.0 504.8Q948.0 504.0 948.6 503.4Q949.2 502.9 950.2 502.9L950.2 502.9L952.7 502.9L952.7 505.9L949.3 505.9L949.3 506.1Q950.4 506.8 951.1 507.8Q951.8 508.9 951.8 510.5L951.8 510.5Q951.8 511.7 951.3 512.7Q950.9 513.6 950.0 514.3Q949.2 514.9 948.0 515.3Q946.9 515.6 945.4 515.6L945.4 515.6Q944.8 515.6 944.2 515.5Q943.6 515.5 943.1 515.3L943.1 515.3Q942.8 515.5 942.6 515.8Q942.4 516.0 942.4 516.4L942.4 516.4Q942.4 516.7 942.5 516.9Q942.7 517.1 943.0 517.2Q943.3 517.3 943.7 517.3Q944.1 517.4 944.5 517.4L944.5 517.4L947.8 517.4Q949.3 517.4 950.4 517.7Q951.5 518.0 952.2 518.6Q952.9 519.1 953.2 519.9Q953.5 520.6 953.5 521.5ZM949.6 521.9L949.6 521.9Q949.6 521.3 949.2 521.0Q948.7 520.7 947.4 520.7L947.4 520.7L942.5 520.7Q941.9 521.1 941.9 521.8L941.9 521.8Q941.9 522.5 942.5 522.9Q943.1 523.4 944.5 523.4L944.5 523.4L946.9 523.4Q948.3 523.4 949.0 523.0Q949.6 522.6 949.6 521.9ZM945.4 513.0L945.4 513.0Q946.7 513.0 947.3 512.4Q947.8 511.7 947.8 510.8L947.8 510.8L947.8 510.1Q947.8 509.2 947.3 508.6Q946.7 507.9 945.4 507.9L945.4 507.9Q944.2 507.9 943.6 508.6Q943.1 509.2 943.1 510.1L943.1 510.1L943.1 510.8Q943.1 511.7 943.6 512.4Q944.2 513.0 945.4 513.0Z M972.8 520.1L972.8 516.9L977.0 516.9L977.0 508.9L972.5 508.9L972.5 505.6L977.0 505.6L977.0 503.5Q977.0 501.7 978.1 500.5Q979.2 499.4 981.5 499.4L981.5 499.4L986.4 499.4L986.4 502.6L981.2 502.6L981.2 505.6L986.4 505.6L986.4 508.9L981.2 508.9L981.2 516.9L985.7 516.9L985.7 520.1L972.8 520.1ZM1003.6 520.1L1001.2 520.1Q999.9 520.1 999.2 519.4Q998.4 518.8 998.2 517.5L998.2 517.5L998.1 517.5Q997.7 519.0 996.5 519.7Q995.4 520.4 993.7 520.4L993.7 520.4Q991.6 520.4 990.3 519.3Q989.1 518.2 989.1 516.1L989.1 516.1Q989.1 513.8 990.7 512.8Q992.4 511.7 995.6 511.7L995.6 511.7L997.9 511.7L997.9 510.9Q997.9 509.6 997.3 509.0Q996.7 508.3 995.2 508.3L995.2 508.3Q993.9 508.3 993.1 508.8Q992.3 509.3 991.7 510.2L991.7 510.2L989.4 508.1Q990.2 506.9 991.7 506.1Q993.3 505.3 995.7 505.3L995.7 505.3Q998.7 505.3 1000.4 506.7Q1002.0 508.0 1002.0 510.8L1002.0 510.8L1002.0 517.1L1003.6 517.1L1003.6 520.1ZM995.3 517.7L995.3 517.7Q996.4 517.7 997.1 517.2Q997.9 516.6 997.9 515.6L997.9 515.6L997.9 513.9L995.7 513.9Q993.1 513.9 993.1 515.6L993.1 515.6L993.1 516.2Q993.1 516.9 993.7 517.3Q994.3 517.7 995.3 517.7ZM1013.4 520.4L1013.4 520.4Q1011.7 520.4 1010.3 519.9Q1009.0 519.4 1008.0 518.4Q1007.1 517.4 1006.6 516.0Q1006.1 514.6 1006.1 512.9L1006.1 512.9Q1006.1 511.1 1006.6 509.7Q1007.1 508.3 1008.0 507.3Q1009.0 506.3 1010.3 505.8Q1011.7 505.3 1013.4 505.3L1013.4 505.3Q1015.7 505.3 1017.2 506.3Q1018.6 507.2 1019.4 508.8L1019.4 508.8L1016.2 510.6Q1015.8 509.7 1015.2 509.2Q1014.5 508.6 1013.4 508.6L1013.4 508.6Q1011.9 508.6 1011.2 509.4Q1010.4 510.3 1010.4 511.7L1010.4 511.7L1010.4 514.0Q1010.4 515.5 1011.2 516.3Q1011.9 517.1 1013.4 517.1L1013.4 517.1Q1014.6 517.1 1015.3 516.6Q1016.0 516.0 1016.5 515.1L1016.5 515.1L1019.6 516.9Q1018.8 518.5 1017.3 519.5Q1015.8 520.4 1013.4 520.4ZM1030.5 503.8L1030.5 503.8Q1029.1 503.8 1028.5 503.2Q1028.0 502.6 1028.0 501.8L1028.0 501.8L1028.0 501.0Q1028.0 500.2 1028.5 499.6Q1029.1 499.1 1030.5 499.1L1030.5 499.1Q1031.9 499.1 1032.4 499.6Q1033.0 500.2 1033.0 501.0L1033.0 501.0L1033.0 501.8Q1033.0 502.6 1032.4 503.2Q1031.9 503.8 1030.5 503.8ZM1023.8 520.1L1023.8 516.9L1028.4 516.9L1028.4 508.9L1023.8 508.9L1023.8 505.6L1032.6 505.6L1032.6 516.9L1036.8 516.9L1036.8 520.1L1023.8 520.1ZM1039.9 520.1L1039.9 516.9L1044.3 516.9L1044.3 502.6L1039.9 502.6L1039.9 499.4L1048.5 499.4L1048.5 516.9L1052.9 516.9L1052.9 520.1L1039.9 520.1ZM1063.6 520.4L1063.6 520.4Q1060.0 520.4 1058.1 518.4Q1056.2 516.4 1056.2 512.9L1056.2 512.9Q1056.2 511.2 1056.7 509.7Q1057.2 508.3 1058.1 507.3Q1059.0 506.3 1060.3 505.8Q1061.6 505.3 1063.2 505.3L1063.2 505.3Q1064.9 505.3 1066.1 505.8Q1067.4 506.3 1068.3 507.3Q1069.2 508.2 1069.7 509.6Q1070.2 511.0 1070.2 512.6L1070.2 512.6L1070.2 513.9L1060.3 513.9L1060.3 514.1Q1060.3 515.5 1061.2 516.4Q1062.1 517.2 1063.7 517.2L1063.7 517.2Q1065.0 517.2 1065.9 516.7Q1066.9 516.3 1067.5 515.4L1067.5 515.4L1069.8 517.9Q1068.9 518.9 1067.4 519.7Q1065.9 520.4 1063.6 520.4ZM1063.3 508.3L1063.3 508.3Q1061.9 508.3 1061.1 509.1Q1060.3 509.9 1060.3 511.3L1060.3 511.3L1060.3 511.6L1066.1 511.6L1066.1 511.3Q1066.1 509.9 1065.4 509.1Q1064.6 508.3 1063.3 508.3Z " clip-path="url(#satori_cp-id-1-0-1-1)" mask="url(#satori_om-id-1-0-1-1)"/></svg>