<svg width="1200" height="630" viewBox="0 0 1200 630" xmlns="http://www.w3.org/2000/svg"><rect x="0" y="0" width="1200" height="630" fill="#fefbfb"/><defs><clipPath id="satori_bc-id-0"><path x="105" y="39" width="1056" height="504" d="M109,39 h1048 a4,4 0 0 1 4,4 v496 a4,4 0 0 1 -4,4 h-1048 a4,4 0 0 1 -4,-4 v-496 a4,4 0 0 1 4,-4"/></clipPath></defs><g opacity="0.9"><path x="105" y="39" width="1056" height="504" fill="#ecebeb" d="M109,39 h1048 a4,4 0 0 1 4,4 v496 a4,4 0 0 1 -4,4 h-1048 a4,4 0 0 1 -4,-4 v-496 a4,4 0 0 1 4,-4"/><path width="1056" height="504" clip-path="url(#satori_bc-id-0)" fill="none" stroke="#000" stroke-width="8" d="M106.172,40.172 A4,4 0 0 1 109,39 h1048 a4,4 0 0 1 4,4 v496 a4,4 0 0 1 -4,4 h-1048 a4,4 0 0 1 -4,-4 v-496 A4,4 0 0 1 106.172,40.172"/></g><defs><clipPath id="satori_bc-id-1"><path x="72" y="63" width="1056" height="504" d="M76,63 h1048 a4,4 0 0 1 4,4 v496 a4,4 0 0 1 -4,4 h-1048 a4,4 0 0 1 -4,-4 v-496 a4,4 0 0 1 4,-4"/></clipPath></defs><path x="72" y="63" width="1056" height="504" fill="#fefbfb" d="M76,63 h1048 a4,4 0 0 1 4,4 v496 a4,4 0 0 1 -4,4 h-1048 a4,4 0 0 1 -4,-4 v-496 a4,4 0 0 1 4,-4"/><path width="1056" height="504" clip-path="url(#satori_bc-id-1)" fill="none" stroke="#000" stroke-width="8" d="M73.172,64.172 A4,4 0 0 1 76,63 h1048 a4,4 0 0 1 4,4 v496 a4,4 0 0 1 -4,4 h-1048 a4,4 0 0 1 -4,-4 v-496 A4,4 0 0 1 73.172,64.172"/><clipPath id="satori_cp-id-1-0-0"><rect x="128" y="103" width="1728" height="187"/></clipPath><mask id="satori_om-id-1-0-0"><rect x="128" y="103" width="1728" height="187" fill="#fff"/></mask><path fill="black" d="M149.2 183.8L149.2 183.8Q143.0 183.8 138.4 181.9Q133.8 180.1 131.5 176.8L131.5 176.8L137.5 171.3Q139.7 173.7 142.6 175.0Q145.5 176.3 149.2 176.3L149.2 176.3Q152.4 176.3 154.2 175.4Q156.0 174.4 156.0 172.4L156.0 172.4Q156.0 170.8 154.8 170.2Q153.6 169.6 151.4 169.2L151.4 169.2L145.4 168.3Q142.9 167.9 140.7 167.1Q138.6 166.4 137 165.1Q135.4 163.8 134.5 161.9Q133.5 160.1 133.5 157.4L133.5 157.4Q133.5 151.6 138.0 148.2Q142.5 144.9 150.5 144.9L150.5 144.9Q156.0 144.9 159.9 146.4Q163.7 147.9 166.0 150.6L166.0 150.6L160.7 156.7Q159.0 154.9 156.4 153.6Q153.8 152.4 150.2 152.4L150.2 152.4Q144.0 152.4 144.0 156.2L144.0 156.2Q144.0 157.8 145.2 158.4Q146.4 159.0 148.6 159.4L148.6 159.4L154.5 160.3Q157.0 160.7 159.2 161.5Q161.3 162.2 163.0 163.5Q164.6 164.8 165.5 166.7Q166.4 168.6 166.4 171.2L166.4 171.2Q166.4 177.0 161.9 180.4Q157.4 183.8 149.2 183.8ZM195.1 141.0L195.1 141.0Q191.5 141.0 190.1 139.6Q188.7 138.1 188.7 136.0L188.7 136.0L188.7 133.9Q188.7 131.8 190.1 130.3Q191.5 128.9 195.1 128.9L195.1 128.9Q198.7 128.9 200.1 130.3Q201.5 131.8 201.5 133.9L201.5 133.9L201.5 136.0Q201.5 138.1 200.1 139.6Q198.7 141.0 195.1 141.0ZM178.0 183.0L178.0 174.7L189.8 174.7L189.8 154.1L178.0 154.1L178.0 145.8L200.4 145.8L200.4 174.7L211.4 174.7L211.4 183.0L178.0 183.0ZM229.7 183.0L219.1 183.0L219.1 145.8L229.7 145.8L229.7 152.6L230.2 152.6Q230.8 151.0 231.8 149.6Q232.7 148.2 234.0 147.2Q235.4 146.2 237.1 145.5Q238.9 144.9 241.1 144.9L241.1 144.9Q243.8 144.9 246.0 145.8Q248.2 146.7 249.8 148.5Q251.4 150.3 252.3 152.9Q253.2 155.5 253.2 158.9L253.2 158.9L253.2 183.0L242.6 183.0L242.6 160.3Q242.6 153.1 236.3 153.1L236.3 153.1Q235.1 153.1 233.9 153.5Q232.7 153.8 231.8 154.5Q230.8 155.2 230.3 156.2Q229.7 157.2 229.7 158.5L229.7 158.5L229.7 183.0ZM299.6 186.7L299.6 186.7Q299.6 192.6 294.6 195.4Q289.6 198.2 279.0 198.2L279.0 198.2Q273.7 198.2 270.2 197.6Q266.7 197.0 264.7 195.8Q262.6 194.7 261.8 193.1Q261.0 191.5 261.0 189.6L261.0 189.6Q261.0 186.5 262.9 184.9Q264.7 183.2 268.1 182.4L268.1 182.4L268.1 181.9Q265.7 181.2 264.3 179.9Q262.9 178.6 262.9 176.1L262.9 176.1Q262.9 173.4 264.8 172.1Q266.6 170.8 269.6 170.1L269.6 170.1L269.6 169.6Q266.3 168.0 264.5 165.2Q262.6 162.3 262.6 158.2L262.6 158.2Q262.6 154.9 263.8 152.5Q264.9 150.0 267.1 148.3Q269.2 146.7 272.1 145.8Q275.1 144.9 278.8 144.9L278.8 144.9Q282.3 144.9 285.3 145.7L285.3 145.7L285.3 143.7Q285.3 141.6 286.8 140.1Q288.3 138.7 291.0 138.7L291.0 138.7L297.6 138.7L297.6 146.4L288.6 146.4L288.6 147.1Q291.7 148.7 293.3 151.5Q295.0 154.2 295.0 158.2L295.0 158.2Q295.0 161.4 293.9 163.9Q292.7 166.3 290.6 168.0Q288.4 169.7 285.4 170.6Q282.4 171.4 278.8 171.4L278.8 171.4Q277.1 171.4 275.6 171.3Q274.1 171.1 272.7 170.7L272.7 170.7Q271.9 171.1 271.4 171.8Q270.8 172.4 270.8 173.4L270.8 173.4Q270.8 174.3 271.3 174.8Q271.7 175.3 272.5 175.6Q273.2 175.8 274.2 175.9Q275.2 176.0 276.3 176.0L276.3 176.0L284.8 176.0Q288.8 176.0 291.6 176.8Q294.4 177.6 296.2 179.0Q298.0 180.4 298.8 182.4Q299.6 184.3 299.6 186.7ZM289.5 187.5L289.5 187.5Q289.5 186.0 288.3 185.2Q287.2 184.4 284.0 184.4L284.0 184.4L271.2 184.4Q269.8 185.6 269.8 187.4L269.8 187.4Q269.8 189.1 271.2 190.3Q272.7 191.4 276.2 191.4L276.2 191.4L282.5 191.4Q286.2 191.4 287.8 190.4Q289.5 189.4 289.5 187.5ZM278.8 164.7L278.8 164.7Q282.0 164.7 283.5 163.1Q285.0 161.5 285.0 159.0L285.0 159.0L285.0 157.3Q285.0 154.9 283.5 153.3Q282.0 151.7 278.8 151.7L278.8 151.7Q275.6 151.7 274.2 153.3Q272.7 154.9 272.7 157.3L272.7 157.3L272.7 159.0Q272.7 161.5 274.2 163.1Q275.6 164.7 278.8 164.7ZM305.7 183.0L305.7 174.7L317.1 174.7L317.1 138.0L305.7 138.0L305.7 129.7L327.7 129.7L327.7 174.7L339.1 174.7L339.1 183.0L305.7 183.0ZM366.6 183.8L366.6 183.8Q357.2 183.8 352.4 178.6Q347.6 173.4 347.6 164.5L347.6 164.5Q347.6 160.0 348.9 156.3Q350.1 152.7 352.5 150.2Q354.8 147.6 358.1 146.3Q361.5 144.9 365.7 144.9L365.7 144.9Q369.8 144.9 373.2 146.3Q376.5 147.6 378.8 150.0Q381.1 152.5 382.3 156.0Q383.6 159.5 383.6 163.8L383.6 163.8L383.6 167.0L358.2 167.0L358.2 167.6Q358.2 171.2 360.4 173.4Q362.6 175.6 367.0 175.6L367.0 175.6Q370.3 175.6 372.7 174.3Q375.0 173.1 376.8 171.0L376.8 171.0L382.5 177.3Q380.4 179.9 376.5 181.9Q372.6 183.8 366.6 183.8ZM365.7 152.6L365.7 152.6Q362.3 152.6 360.2 154.7Q358.2 156.8 358.2 160.4L358.2 160.4L358.2 161.0L373.2 161.0L373.2 160.4Q373.2 156.7 371.2 154.7Q369.2 152.6 365.7 152.6ZM420.3 166.1L397.3 166.1L397.3 155.9L420.3 155.9L420.3 166.1ZM451.6 183.8L451.6 183.8Q445.4 183.8 440.8 181.9Q436.2 180.1 433.9 176.8L433.9 176.8L439.9 171.3Q442.1 173.7 445.0 175.0Q447.9 176.3 451.6 176.3L451.6 176.3Q454.8 176.3 456.6 175.4Q458.4 174.4 458.4 172.4L458.4 172.4Q458.4 170.8 457.2 170.2Q456.0 169.6 453.8 169.2L453.8 169.2L447.8 168.3Q445.3 167.9 443.1 167.1Q441.0 166.4 439.4 165.1Q437.8 163.8 436.9 161.9Q435.9 160.1 435.9 157.4L435.9 157.4Q435.9 151.6 440.4 148.2Q444.9 144.9 452.9 144.9L452.9 144.9Q458.4 144.9 462.3 146.4Q466.1 147.9 468.4 150.6L468.4 150.6L463.1 156.7Q461.4 154.9 458.8 153.6Q456.2 152.4 452.6 152.4L452.6 152.4Q446.4 152.4 446.4 156.2L446.4 156.2Q446.4 157.8 447.6 158.4Q448.8 159.0 451.0 159.4L451.0 159.4L456.9 160.3Q459.4 160.7 461.6 161.5Q463.7 162.2 465.4 163.5Q467.0 164.8 467.9 166.7Q468.8 168.6 468.8 171.2L468.8 171.2Q468.8 177.0 464.3 180.4Q459.8 183.8 451.6 183.8ZM477.8 197.4L477.8 145.8L488.5 145.8L488.5 152.6L489.0 152.6Q490.4 149.3 493.0 147.1Q495.6 144.9 500.0 144.9L500.0 144.9Q503.1 144.9 505.7 146.1Q508.2 147.2 510.1 149.6Q511.9 152.0 512.9 155.7Q514.0 159.3 514.0 164.4L514.0 164.4Q514.0 169.4 512.9 173.1Q511.9 176.8 510.1 179.1Q508.2 181.5 505.7 182.7Q503.1 183.8 500.0 183.8L500.0 183.8Q495.6 183.8 493.0 181.7Q490.4 179.6 489.0 176.2L489.0 176.2L488.5 176.2L488.5 197.4L477.8 197.4ZM495.4 175.5L495.4 175.5Q499.0 175.5 501.0 173.3Q502.9 171.1 502.9 167.3L502.9 167.3L502.9 161.5Q502.9 157.6 501.0 155.4Q499.0 153.2 495.4 153.2L495.4 153.2Q492.6 153.2 490.6 154.6Q488.5 156.0 488.5 158.9L488.5 158.9L488.5 169.8Q488.5 172.8 490.6 174.2Q492.6 175.5 495.4 175.5ZM558.0 183.0L551.9 183.0Q548.6 183.0 546.5 181.3Q544.5 179.6 544.2 176.4L544.2 176.4L543.8 176.4Q542.8 180.1 539.8 181.9Q536.8 183.8 532.5 183.8L532.5 183.8Q527.1 183.8 523.8 180.9Q520.5 178.0 520.5 172.7L520.5 172.7Q520.5 166.9 524.8 164.1Q529.0 161.3 537.2 161.3L537.2 161.3L543.2 161.3L543.2 159.4Q543.2 156.1 541.7 154.4Q540.1 152.7 536.5 152.7L536.5 152.7Q533.1 152.7 531.0 154.0Q528.9 155.3 527.4 157.4L527.4 157.4L521.6 152.2Q523.4 149.0 527.4 147.0Q531.4 144.9 537.7 144.9L537.7 144.9Q545.3 144.9 549.6 148.4Q553.9 151.9 553.9 159.0L553.9 159.0L553.9 175.2L558.0 175.2L558.0 183.0ZM536.5 176.8L536.5 176.8Q539.3 176.8 541.3 175.5Q543.2 174.1 543.2 171.5L543.2 171.5L543.2 167.0L537.5 167.0Q531.0 167.0 531.0 171.4L531.0 171.4L531.0 172.9Q531.0 174.8 532.5 175.8Q534.0 176.8 536.5 176.8ZM600.9 183.0L562.3 183.0L562.3 126.8L600.9 126.8L600.9 183.0ZM569.5 134.0L569.5 175.8L593.7 175.8L593.7 134.0L569.5 134.0ZM644.1 183.0L605.5 183.0L605.5 126.8L644.1 126.8L644.1 183.0ZM612.7 134.0L612.7 175.8L636.9 175.8L636.9 134.0L612.7 134.0ZM687.3 183.0L648.7 183.0L648.7 126.8L687.3 126.8L687.3 183.0ZM655.9 134.0L655.9 175.8L680.1 175.8L680.1 134.0L655.9 134.0ZM730.5 183.0L691.9 183.0L691.9 126.8L730.5 126.8L730.5 183.0ZM699.1 134.0L699.1 175.8L723.3 175.8L723.3 134.0L699.1 134.0ZM765.9 166.1L742.9 166.1L742.9 155.9L765.9 155.9L765.9 166.1ZM781.3 183.0L781.3 174.7L789.9 174.7L789.9 154.1L781.3 154.1L781.3 145.8L800.6 145.8L800.6 156.3L801.1 156.3Q801.6 154.3 802.5 152.4Q803.4 150.5 804.8 149.0Q806.2 147.5 808.2 146.7Q810.2 145.8 812.9 145.8L812.9 145.8L816.5 145.8L816.5 155.6L808.5 155.6Q804.6 155.6 802.6 157.9Q800.6 160.3 800.6 163.7L800.6 163.7L800.6 174.7L812.8 174.7L812.8 183.0L781.3 183.0ZM841.8 183.8L841.8 183.8Q832.4 183.8 827.6 178.6Q822.8 173.4 822.8 164.5L822.8 164.5Q822.8 160.0 824.1 156.3Q825.3 152.7 827.7 150.2Q830.0 147.6 833.3 146.3Q836.7 144.9 840.9 144.9L840.9 144.9Q845.0 144.9 848.4 146.3Q851.7 147.6 854.0 150.0Q856.3 152.5 857.5 156.0Q858.8 159.5 858.8 163.8L858.8 163.8L858.8 167.0L833.4 167.0L833.4 167.6Q833.4 171.2 835.6 173.4Q837.8 175.6 842.2 175.6L842.2 175.6Q845.5 175.6 847.9 174.3Q850.2 173.1 852.0 171.0L852.0 171.0L857.7 177.3Q855.6 179.9 851.7 181.9Q847.8 183.8 841.8 183.8ZM840.9 152.6L840.9 152.6Q837.5 152.6 835.4 154.7Q833.4 156.8 833.4 160.4L833.4 160.4L833.4 161.0L848.4 161.0L848.4 160.4Q848.4 156.7 846.4 154.7Q844.4 152.6 840.9 152.6ZM904.4 186.7L904.4 186.7Q904.4 192.6 899.4 195.4Q894.4 198.2 883.8 198.2L883.8 198.2Q878.5 198.2 875.0 197.6Q871.5 197.0 869.5 195.8Q867.4 194.7 866.6 193.1Q865.8 191.5 865.8 189.6L865.8 189.6Q865.8 186.5 867.7 184.9Q869.5 183.2 872.9 182.4L872.9 182.4L872.9 181.9Q870.5 181.2 869.1 179.9Q867.7 178.6 867.7 176.1L867.7 176.1Q867.7 173.4 869.6 172.1Q871.4 170.8 874.4 170.1L874.4 170.1L874.4 169.6Q871.1 168.0 869.3 165.2Q867.4 162.3 867.4 158.2L867.4 158.2Q867.4 154.9 868.6 152.5Q869.7 150.0 871.9 148.3Q874.0 146.7 876.9 145.8Q879.9 144.9 883.6 144.9L883.6 144.9Q887.1 144.9 890.1 145.7L890.1 145.7L890.1 143.7Q890.1 141.6 891.6 140.1Q893.1 138.7 895.8 138.7L895.8 138.7L902.4 138.7L902.4 146.4L893.4 146.4L893.4 147.1Q896.5 148.7 898.1 151.5Q899.8 154.2 899.8 158.2L899.8 158.2Q899.8 161.4 898.7 163.9Q897.5 166.3 895.4 168.0Q893.2 169.7 890.2 170.6Q887.2 171.4 883.6 171.4L883.6 171.4Q881.9 171.4 880.4 171.3Q878.9 171.1 877.5 170.7L877.5 170.7Q876.7 171.1 876.2 171.8Q875.6 172.4 875.6 173.4L875.6 173.4Q875.6 174.3 876.1 174.8Q876.5 175.3 877.3 175.6Q878.0 175.8 879.0 175.9Q880.0 176.0 881.1 176.0L881.1 176.0L889.6 176.0Q893.6 176.0 896.4 176.8Q899.2 177.6 901.0 179.0Q902.8 180.4 903.6 182.4Q904.4 184.3 904.4 186.7ZM894.3 187.5L894.3 187.5Q894.3 186.0 893.1 185.2Q892.0 184.4 888.8 184.4L888.8 184.4L876.0 184.4Q874.6 185.6 874.6 187.4L874.6 187.4Q874.6 189.1 876.0 190.3Q877.5 191.4 881.0 191.4L881.0 191.4L887.3 191.4Q891.0 191.4 892.6 190.4Q894.3 189.4 894.3 187.5ZM883.6 164.7L883.6 164.7Q886.8 164.7 888.3 163.1Q889.8 161.5 889.8 159.0L889.8 159.0L889.8 157.3Q889.8 154.9 888.3 153.3Q886.8 151.7 883.6 151.7L883.6 151.7Q880.4 151.7 879.0 153.3Q877.5 154.9 877.5 157.3L877.5 157.3L877.5 159.0Q877.5 161.5 879.0 163.1Q880.4 164.7 883.6 164.7ZM929.5 141.0L929.5 141.0Q925.9 141.0 924.5 139.6Q923.1 138.1 923.1 136.0L923.1 136.0L923.1 133.9Q923.1 131.8 924.5 130.3Q925.9 128.9 929.5 128.9L929.5 128.9Q933.1 128.9 934.5 130.3Q935.9 131.8 935.9 133.9L935.9 133.9L935.9 136.0Q935.9 138.1 934.5 139.6Q933.1 141.0 929.5 141.0ZM912.4 183.0L912.4 174.7L924.2 174.7L924.2 154.1L912.4 154.1L912.4 145.8L934.8 145.8L934.8 174.7L945.8 174.7L945.8 183.0L912.4 183.0ZM970.0 183.8L970.0 183.8Q963.8 183.8 959.2 181.9Q954.6 180.1 952.3 176.8L952.3 176.8L958.3 171.3Q960.5 173.7 963.4 175.0Q966.3 176.3 970.0 176.3L970.0 176.3Q973.2 176.3 975.0 175.4Q976.8 174.4 976.8 172.4L976.8 172.4Q976.8 170.8 975.6 170.2Q974.4 169.6 972.2 169.2L972.2 169.2L966.2 168.3Q963.7 167.9 961.5 167.1Q959.4 166.4 957.8 165.1Q956.2 163.8 955.3 161.9Q954.3 160.1 954.3 157.4L954.3 157.4Q954.3 151.6 958.8 148.2Q963.3 144.9 971.3 144.9L971.3 144.9Q976.8 144.9 980.7 146.4Q984.5 147.9 986.8 150.6L986.8 150.6L981.5 156.7Q979.8 154.9 977.2 153.6Q974.6 152.4 971.0 152.4L971.0 152.4Q964.8 152.4 964.8 156.2L964.8 156.2Q964.8 157.8 966.0 158.4Q967.2 159.0 969.4 159.4L969.4 159.4L975.3 160.3Q977.8 160.7 980.0 161.5Q982.1 162.2 983.8 163.5Q985.4 164.8 986.3 166.7Q987.2 168.6 987.2 171.2L987.2 171.2Q987.2 177.0 982.7 180.4Q978.2 183.8 970.0 183.8ZM1030.2 183.0L1016.5 183.0Q1010.7 183.0 1007.9 179.9Q1005.1 176.9 1005.1 172.2L1005.1 172.2L1005.1 154.1L995.0 154.1L995.0 145.8L1001.6 145.8Q1004.0 145.8 1005.0 144.9Q1006.0 143.9 1006.0 141.4L1006.0 141.4L1006.0 132.7L1015.8 132.7L1015.8 145.8L1030.2 145.8L1030.2 154.1L1015.8 154.1L1015.8 174.7L1030.2 174.7L1030.2 183.0ZM1057.8 183.8L1057.8 183.8Q1048.4 183.8 1043.6 178.6Q1038.8 173.4 1038.8 164.5L1038.8 164.5Q1038.8 160.0 1040.1 156.3Q1041.3 152.7 1043.7 150.2Q1046.0 147.6 1049.3 146.3Q1052.7 144.9 1056.9 144.9L1056.9 144.9Q1061.0 144.9 1064.4 146.3Q1067.7 147.6 1070.0 150.0Q1072.3 152.5 1073.5 156.0Q1074.8 159.5 1074.8 163.8L1074.8 163.8L1074.8 167.0L1049.4 167.0L1049.4 167.6Q1049.4 171.2 1051.6 173.4Q1053.8 175.6 1058.2 175.6L1058.2 175.6Q1061.5 175.6 1063.9 174.3Q1066.2 173.1 1068.0 171.0L1068.0 171.0L1073.7 177.3Q1071.6 179.9 1067.7 181.9Q1063.8 183.8 1057.8 183.8ZM1056.9 152.6L1056.9 152.6Q1053.5 152.6 1051.4 154.7Q1049.4 156.8 1049.4 160.4L1049.4 160.4L1049.4 161.0L1064.4 161.0L1064.4 160.4Q1064.4 156.7 1062.4 154.7Q1060.4 152.6 1056.9 152.6ZM1083.7 183.0L1083.7 174.7L1092.3 174.7L1092.3 154.1L1083.7 154.1L1083.7 145.8L1103.0 145.8L1103.0 156.3L1103.5 156.3Q1104.0 154.3 1104.9 152.4Q1105.8 150.5 1107.2 149.0Q1108.6 147.5 1110.6 146.7Q1112.6 145.8 1115.3 145.8L1115.3 145.8L1118.9 145.8L1118.9 155.6L1110.9 155.6Q1107.0 155.6 1105.0 157.9Q1103.0 160.3 1103.0 163.7L1103.0 163.7L1103.0 174.7L1115.2 174.7L1115.2 183.0L1083.7 183.0ZM1164.4 183.0L1152.9 183.0L1149.8 170.9L1136.0 170.9L1132.9 183.0L1122.0 183.0L1135.6 132.7L1150.8 132.7L1164.4 183.0ZM1148.1 162.1L1143.2 143.1L1142.6 143.1L1137.7 162.1L1148.1 162.1ZM1169.0 197.4L1169.0 145.8L1179.7 145.8L1179.7 152.6L1180.2 152.6Q1181.6 149.3 1184.2 147.1Q1186.8 144.9 1191.2 144.9L1191.2 144.9Q1194.3 144.9 1196.9 146.1Q1199.4 147.2 1201.3 149.6Q1203.1 152.0 1204.1 155.7Q1205.2 159.3 1205.2 164.4L1205.2 164.4Q1205.2 169.4 1204.1 173.1Q1203.1 176.8 1201.3 179.1Q1199.4 181.5 1196.9 182.7Q1194.3 183.8 1191.2 183.8L1191.2 183.8Q1186.8 183.8 1184.2 181.7Q1181.6 179.6 1180.2 176.2L1180.2 176.2L1179.7 176.2L1179.7 197.4L1169.0 197.4ZM1186.6 175.5L1186.6 175.5Q1190.2 175.5 1192.2 173.3Q1194.1 171.1 1194.1 167.3L1194.1 167.3L1194.1 161.5Q1194.1 157.6 1192.2 155.4Q1190.2 153.2 1186.6 153.2L1186.6 153.2Q1183.8 153.2 1181.8 154.6Q1179.7 156.0 1179.7 158.9L1179.7 158.9L1179.7 169.8Q1179.7 172.8 1181.8 174.2Q1183.8 175.5 1186.6 175.5ZM1212.2 197.4L1212.2 145.8L1222.9 145.8L1222.9 152.6L1223.4 152.6Q1224.8 149.3 1227.4 147.1Q1230.0 144.9 1234.4 144.9L1234.4 144.9Q1237.5 144.9 1240.1 146.1Q1242.6 147.2 1244.5 149.6Q1246.3 152.0 1247.3 155.7Q1248.4 159.3 1248.4 164.4L1248.4 164.4Q1248.4 169.4 1247.3 173.1Q1246.3 176.8 1244.5 179.1Q1242.6 181.5 1240.1 182.7Q1237.5 183.8 1234.4 183.8L1234.4 183.8Q1230.0 183.8 1227.4 181.7Q1224.8 179.6 1223.4 176.2L1223.4 176.2L1222.9 176.2L1222.9 197.4L1212.2 197.4ZM1229.8 175.5L1229.8 175.5Q1233.4 175.5 1235.4 173.3Q1237.3 171.1 1237.3 167.3L1237.3 167.3L1237.3 161.5Q1237.3 157.6 1235.4 155.4Q1233.4 153.2 1229.8 153.2L1229.8 153.2Q1227.0 153.2 1225.0 154.6Q1222.9 156.0 1222.9 158.9L1222.9 158.9L1222.9 169.8Q1222.9 172.8 1225.0 174.2Q1227.0 175.5 1229.8 175.5ZM1256.1 183.0L1256.1 174.7L1267.5 174.7L1267.5 138.0L1256.1 138.0L1256.1 129.7L1278.1 129.7L1278.1 174.7L1289.5 174.7L1289.5 183.0L1256.1 183.0ZM1318.3 141.0L1318.3 141.0Q1314.7 141.0 1313.3 139.6Q1311.9 138.1 1311.9 136.0L1311.9 136.0L1311.9 133.9Q1311.9 131.8 1313.3 130.3Q1314.7 128.9 1318.3 128.9L1318.3 128.9Q1321.9 128.9 1323.3 130.3Q1324.7 131.8 1324.7 133.9L1324.7 133.9L1324.7 136.0Q1324.7 138.1 1323.3 139.6Q1321.9 141.0 1318.3 141.0ZM1301.2 183.0L1301.2 174.7L1313.0 174.7L1313.0 154.1L1301.2 154.1L1301.2 145.8L1323.6 145.8L1323.6 174.7L1334.6 174.7L1334.6 183.0L1301.2 183.0ZM1360.7 183.8L1360.7 183.8Q1356.3 183.8 1352.8 182.5Q1349.3 181.2 1346.9 178.6Q1344.5 176.1 1343.2 172.5Q1341.9 168.9 1341.9 164.4L1341.9 164.4Q1341.9 159.8 1343.2 156.2Q1344.5 152.6 1346.9 150.1Q1349.3 147.6 1352.8 146.3Q1356.3 144.9 1360.6 144.9L1360.6 144.9Q1366.8 144.9 1370.5 147.4Q1374.2 149.9 1376.1 154.0L1376.1 154.0L1367.9 158.5Q1366.9 156.3 1365.3 154.9Q1363.7 153.4 1360.6 153.4L1360.6 153.4Q1357.0 153.4 1355.0 155.6Q1353.0 157.7 1353.0 161.4L1353.0 161.4L1353.0 167.4Q1353.0 171.1 1355.0 173.2Q1357.0 175.3 1360.8 175.3L1360.8 175.3Q1363.9 175.3 1365.6 173.9Q1367.4 172.4 1368.6 170.1L1368.6 170.1L1376.7 174.7Q1374.7 178.8 1370.8 181.3Q1367.0 183.8 1360.7 183.8ZM1422.0 183.0L1415.9 183.0Q1412.6 183.0 1410.5 181.3Q1408.5 179.6 1408.2 176.4L1408.2 176.4L1407.8 176.4Q1406.8 180.1 1403.8 181.9Q1400.8 183.8 1396.5 183.8L1396.5 183.8Q1391.1 183.8 1387.8 180.9Q1384.5 178.0 1384.5 172.7L1384.5 172.7Q1384.5 166.9 1388.8 164.1Q1393.0 161.3 1401.2 161.3L1401.2 161.3L1407.2 161.3L1407.2 159.4Q1407.2 156.1 1405.7 154.4Q1404.1 152.7 1400.5 152.7L1400.5 152.7Q1397.1 152.7 1395.0 154.0Q1392.9 155.3 1391.4 157.4L1391.4 157.4L1385.6 152.2Q1387.4 149.0 1391.4 147.0Q1395.4 144.9 1401.7 144.9L1401.7 144.9Q1409.3 144.9 1413.6 148.4Q1417.9 151.9 1417.9 159.0L1417.9 159.0L1417.9 175.2L1422.0 175.2L1422.0 183.0ZM1400.5 176.8L1400.5 176.8Q1403.3 176.8 1405.3 175.5Q1407.2 174.1 1407.2 171.5L1407.2 171.5L1407.2 167.0L1401.5 167.0Q1395.0 167.0 1395.0 171.4L1395.0 171.4L1395.0 172.9Q1395.0 174.8 1396.5 175.8Q1398.0 176.8 1400.5 176.8ZM1462.2 183.0L1448.5 183.0Q1442.7 183.0 1439.9 179.9Q1437.1 176.9 1437.1 172.2L1437.1 172.2L1437.1 154.1L1427.0 154.1L1427.0 145.8L1433.6 145.8Q1436.0 145.8 1437.0 144.9Q1438.0 143.9 1438.0 141.4L1438.0 141.4L1438.0 132.7L1447.8 132.7L1447.8 145.8L1462.2 145.8L1462.2 154.1L1447.8 154.1L1447.8 174.7L1462.2 174.7L1462.2 183.0ZM1491.1 141.0L1491.1 141.0Q1487.5 141.0 1486.1 139.6Q1484.7 138.1 1484.7 136.0L1484.7 136.0L1484.7 133.9Q1484.7 131.8 1486.1 130.3Q1487.5 128.9 1491.1 128.9L1491.1 128.9Q1494.7 128.9 1496.1 130.3Q1497.5 131.8 1497.5 133.9L1497.5 133.9L1497.5 136.0Q1497.5 138.1 1496.1 139.6Q1494.7 141.0 1491.1 141.0ZM1474.0 183.0L1474.0 174.7L1485.8 174.7L1485.8 154.1L1474.0 154.1L1474.0 145.8L1496.4 145.8L1496.4 174.7L1507.4 174.7L1507.4 183.0L1474.0 183.0ZM1532.0 183.8L1532.0 183.8Q1527.7 183.8 1524.2 182.5Q1520.8 181.2 1518.4 178.6Q1515.9 176.1 1514.6 172.5Q1513.4 168.9 1513.4 164.4L1513.4 164.4Q1513.4 159.8 1514.6 156.2Q1515.9 152.6 1518.4 150.1Q1520.8 147.6 1524.2 146.3Q1527.7 144.9 1532.0 144.9L1532.0 144.9Q1536.3 144.9 1539.8 146.3Q1543.2 147.6 1545.6 150.1Q1548.1 152.6 1549.4 156.2Q1550.6 159.8 1550.6 164.4L1550.6 164.4Q1550.6 168.9 1549.4 172.5Q1548.1 176.1 1545.6 178.6Q1543.2 181.2 1539.8 182.5Q1536.3 183.8 1532.0 183.8ZM1532.0 175.9L1532.0 175.9Q1535.6 175.9 1537.6 173.7Q1539.6 171.4 1539.6 167.3L1539.6 167.3L1539.6 161.4Q1539.6 157.3 1537.6 155.1Q1535.6 152.9 1532.0 152.9L1532.0 152.9Q1528.4 152.9 1526.4 155.1Q1524.4 157.3 1524.4 161.4L1524.4 161.4L1524.4 167.3Q1524.4 171.4 1526.4 173.7Q1528.4 175.9 1532.0 175.9ZM1568.9 183.0L1558.3 183.0L1558.3 145.8L1568.9 145.8L1568.9 152.6L1569.4 152.6Q1570.0 151.0 1571.0 149.6Q1571.9 148.2 1573.2 147.2Q1574.6 146.2 1576.3 145.5Q1578.1 144.9 1580.3 144.9L1580.3 144.9Q1583.0 144.9 1585.2 145.8Q1587.4 146.7 1589.0 148.5Q1590.6 150.3 1591.5 152.9Q1592.4 155.5 1592.4 158.9L1592.4 158.9L1592.4 183.0L1581.8 183.0L1581.8 160.3Q1581.8 153.1 1575.5 153.1L1575.5 153.1Q1574.3 153.1 1573.1 153.5Q1571.9 153.8 1571.0 154.5Q1570.0 155.2 1569.5 156.2Q1568.9 157.2 1568.9 158.5L1568.9 158.5L1568.9 183.0ZM1637.7 183.0L1599.1 183.0L1599.1 126.8L1637.7 126.8L1637.7 183.0ZM1606.3 134.0L1606.3 175.8L1630.5 175.8L1630.5 134.0L1606.3 134.0Z M149.2 277.4L149.2 277.4Q143.0 277.4 138.4 275.5Q133.8 273.7 131.5 270.4L131.5 270.4L137.5 264.9Q139.7 267.3 142.6 268.6Q145.5 269.9 149.2 269.9L149.2 269.9Q152.4 269.9 154.2 269.0Q156.0 268.0 156.0 266.0L156.0 266.0Q156.0 264.4 154.8 263.8Q153.6 263.2 151.4 262.8L151.4 262.8L145.4 261.9Q142.9 261.5 140.7 260.7Q138.6 260.0 137 258.7Q135.4 257.4 134.5 255.5Q133.5 253.7 133.5 251.0L133.5 251.0Q133.5 245.2 138.0 241.8Q142.5 238.5 150.5 238.5L150.5 238.5Q156.0 238.5 159.9 240.0Q163.7 241.5 166.0 244.2L166.0 244.2L160.7 250.3Q159.0 248.5 156.4 247.2Q153.8 246.0 150.2 246.0L150.2 246.0Q144.0 246.0 144.0 249.8L144.0 249.8Q144.0 251.4 145.2 252.0Q146.4 252.6 148.6 253.0L148.6 253.0L154.5 253.9Q157.0 254.3 159.2 255.1Q161.3 255.8 163.0 257.1Q164.6 258.4 165.5 260.3Q166.4 262.2 166.4 264.8L166.4 264.8Q166.4 270.6 161.9 274.0Q157.4 277.4 149.2 277.4ZM209.4 276.6L195.7 276.6Q189.9 276.6 187.1 273.5Q184.3 270.5 184.3 265.8L184.3 265.8L184.3 247.7L174.2 247.7L174.2 239.4L180.8 239.4Q183.2 239.4 184.2 238.5Q185.2 237.5 185.2 235.0L185.2 235.0L185.2 226.3L195.0 226.3L195.0 239.4L209.4 239.4L209.4 247.7L195.0 247.7L195.0 268.3L209.4 268.3L209.4 276.6ZM255.6 276.6L249.5 276.6Q246.2 276.6 244.1 274.9Q242.1 273.2 241.8 270.0L241.8 270.0L241.4 270.0Q240.4 273.7 237.4 275.5Q234.4 277.4 230.1 277.4L230.1 277.4Q224.7 277.4 221.4 274.5Q218.1 271.6 218.1 266.3L218.1 266.3Q218.1 260.5 222.4 257.7Q226.6 254.9 234.8 254.9L234.8 254.9L240.8 254.9L240.8 253.0Q240.8 249.7 239.3 248.0Q237.7 246.3 234.1 246.3L234.1 246.3Q230.7 246.3 228.6 247.6Q226.5 248.9 225.0 251.0L225.0 251.0L219.2 245.8Q221.0 242.6 225.0 240.6Q229.0 238.5 235.3 238.5L235.3 238.5Q242.9 238.5 247.2 242.0Q251.5 245.5 251.5 252.6L251.5 252.6L251.5 268.8L255.6 268.8L255.6 276.6ZM234.1 270.4L234.1 270.4Q236.9 270.4 238.9 269.1Q240.8 267.7 240.8 265.1L240.8 265.1L240.8 260.6L235.1 260.6Q228.6 260.6 228.6 265.0L228.6 265.0L228.6 266.5Q228.6 268.4 230.1 269.4Q231.6 270.4 234.1 270.4ZM262.9 276.6L262.9 268.3L271.5 268.3L271.5 247.7L262.9 247.7L262.9 239.4L282.2 239.4L282.2 249.9L282.7 249.9Q283.2 247.9 284.1 246.0Q285.0 244.1 286.4 242.6Q287.8 241.1 289.8 240.3Q291.8 239.4 294.5 239.4L294.5 239.4L298.1 239.4L298.1 249.2L290.1 249.2Q286.2 249.2 284.2 251.5Q282.2 253.9 282.2 257.3L282.2 257.3L282.2 268.3L294.4 268.3L294.4 276.6L262.9 276.6ZM339.0 276.6L325.3 276.6Q319.5 276.6 316.7 273.5Q313.9 270.5 313.9 265.8L313.9 265.8L313.9 247.7L303.8 247.7L303.8 239.4L310.4 239.4Q312.8 239.4 313.8 238.5Q314.8 237.5 314.8 235.0L314.8 235.0L314.8 226.3L324.6 226.3L324.6 239.4L339.0 239.4L339.0 247.7L324.6 247.7L324.6 268.3L339.0 268.3L339.0 276.6Z " clip-path="url(#satori_cp-id-1-0-0)" mask="url(#satori_om-id-1-0-0)"/><path fill="black" d="M130.7 520.3L130.7 499.6L132.9 499.6L132.9 508.2L133.0 508.2Q134.4 505.5 137.5 505.5L137.5 505.5Q140.1 505.5 141.6 507.5Q143.1 509.5 143.1 513.0L143.1 513.0Q143.1 516.6 141.6 518.6Q140.1 520.6 137.5 520.6L137.5 520.6Q134.4 520.6 133.0 517.9L133.0 517.9L132.9 517.9L132.9 520.3L130.7 520.3ZM136.6 518.6L136.6 518.6Q138.6 518.6 139.6 517.4Q140.7 516.2 140.7 514.3L140.7 514.3L140.7 511.8Q140.7 509.9 139.6 508.7Q138.6 507.5 136.6 507.5L136.6 507.5Q135.8 507.5 135.2 507.7Q134.5 507.9 134.0 508.2Q133.5 508.6 133.2 509.2Q132.9 509.7 132.9 510.4L132.9 510.4L132.9 515.7Q132.9 516.4 133.2 516.9Q133.5 517.5 134.0 517.8Q134.5 518.2 135.2 518.4Q135.8 518.6 136.6 518.6ZM155.4 511.9L157.9 505.8L160.1 505.8L152.9 523.4Q152.7 524.1 152.4 524.5Q152.1 525.0 151.7 525.3Q151.2 525.6 150.7 525.7Q150.1 525.9 149.3 525.9L149.3 525.9L147.1 525.9L147.1 524.0L150.5 524.0L152.1 520.0L146.3 505.8L148.6 505.8L151.0 511.9L153.2 517.4L153.3 517.4L155.4 511.9Z "/><clipPath id="satori_cp-id-1-0-1-0-2"><rect x="178" y="489" width="134" height="36"/></clipPath><mask id="satori_om-id-1-0-1-0-2"><rect x="178" y="489" width="134" height="36" fill="#fff"/></mask><path fill="black" d="M193.0 520.1L179.8 520.1L179.8 516.6L187.9 508.9L180.1 508.9L180.1 505.6L192.7 505.6L192.7 509.1L184.6 516.9L193.0 516.9L193.0 520.1ZM196.6 520.1L196.6 499.4L200.8 499.4L200.8 508.3L200.9 508.3Q201.2 507.7 201.5 507.1Q201.9 506.6 202.4 506.2Q202.9 505.8 203.6 505.5Q204.3 505.3 205.2 505.3L205.2 505.3Q206.2 505.3 207.1 505.7Q208.0 506.0 208.6 506.7Q209.2 507.4 209.5 508.4Q209.9 509.4 209.9 510.7L209.9 510.7L209.9 520.1L205.7 520.1L205.7 511.3Q205.7 508.5 203.3 508.5L203.3 508.5Q202.8 508.5 202.4 508.6Q201.9 508.8 201.5 509.0Q201.2 509.3 201.0 509.7Q200.8 510.1 200.8 510.6L200.8 510.6L200.8 520.1L196.6 520.1ZM227.6 520.1L225.2 520.1Q223.9 520.1 223.2 519.4Q222.4 518.8 222.2 517.5L222.2 517.5L222.1 517.5Q221.7 519.0 220.5 519.7Q219.4 520.4 217.7 520.4L217.7 520.4Q215.6 520.4 214.3 519.3Q213.1 518.2 213.1 516.1L213.1 516.1Q213.1 513.8 214.7 512.8Q216.4 511.7 219.6 511.7L219.6 511.7L221.9 511.7L221.9 510.9Q221.9 509.6 221.3 509.0Q220.7 508.3 219.2 508.3L219.2 508.3Q217.9 508.3 217.1 508.8Q216.3 509.3 215.7 510.2L215.7 510.2L213.4 508.1Q214.2 506.9 215.7 506.1Q217.3 505.3 219.7 505.3L219.7 505.3Q222.7 505.3 224.4 506.7Q226.0 508.0 226.0 510.8L226.0 510.8L226.0 517.1L227.6 517.1L227.6 520.1ZM219.3 517.7L219.3 517.7Q220.4 517.7 221.1 517.2Q221.9 516.6 221.9 515.6L221.9 515.6L221.9 513.9L219.7 513.9Q217.1 513.9 217.1 515.6L217.1 515.6L217.1 516.2Q217.1 516.9 217.7 517.3Q218.3 517.7 219.3 517.7ZM234.4 520.1L230.2 520.1L230.2 505.6L234.4 505.6L234.4 508.3L234.5 508.3Q234.8 507.7 235.1 507.1Q235.5 506.6 236.0 506.2Q236.5 505.8 237.2 505.5Q237.9 505.3 238.8 505.3L238.8 505.3Q239.8 505.3 240.7 505.7Q241.6 506.0 242.2 506.7Q242.8 507.4 243.1 508.4Q243.5 509.4 243.5 510.7L243.5 510.7L243.5 520.1L239.3 520.1L239.3 511.3Q239.3 508.5 236.9 508.5L236.9 508.5Q236.4 508.5 236.0 508.6Q235.5 508.8 235.1 509.0Q234.8 509.3 234.6 509.7Q234.4 510.1 234.4 510.6L234.4 510.6L234.4 520.1ZM261.5 521.5L261.5 521.5Q261.5 523.8 259.6 524.9Q257.7 526.0 253.5 526.0L253.5 526.0Q251.4 526.0 250.1 525.8Q248.8 525.6 248.0 525.1Q247.2 524.7 246.8 524.0Q246.5 523.4 246.5 522.7L246.5 522.7Q246.5 521.5 247.2 520.8Q248.0 520.2 249.3 519.9L249.3 519.9L249.3 519.7Q248.4 519.4 247.8 518.9Q247.3 518.4 247.3 517.4L247.3 517.4Q247.3 516.4 248.0 515.9Q248.7 515.4 249.9 515.1L249.9 515.1L249.9 514.9Q248.6 514.3 247.9 513.2Q247.2 512.1 247.2 510.5L247.2 510.5Q247.2 509.2 247.6 508.2Q248.1 507.3 248.9 506.6Q249.7 506.0 250.9 505.6Q252.0 505.3 253.4 505.3L253.4 505.3Q254.8 505.3 256.0 505.6L256.0 505.6L256.0 504.8Q256.0 504.0 256.6 503.4Q257.2 502.9 258.2 502.9L258.2 502.9L260.7 502.9L260.7 505.9L257.3 505.9L257.3 506.1Q258.4 506.8 259.1 507.8Q259.8 508.9 259.8 510.5L259.8 510.5Q259.8 511.7 259.3 512.7Q258.9 513.6 258.0 514.3Q257.2 514.9 256.0 515.3Q254.9 515.6 253.4 515.6L253.4 515.6Q252.8 515.6 252.2 515.5Q251.6 515.5 251.1 515.3L251.1 515.3Q250.8 515.5 250.6 515.8Q250.4 516.0 250.4 516.4L250.4 516.4Q250.4 516.7 250.5 516.9Q250.7 517.1 251.0 517.2Q251.3 517.3 251.7 517.3Q252.1 517.4 252.5 517.4L252.5 517.4L255.8 517.4Q257.3 517.4 258.4 517.7Q259.5 518.0 260.2 518.6Q260.9 519.1 261.2 519.9Q261.5 520.6 261.5 521.5ZM257.6 521.9L257.6 521.9Q257.6 521.3 257.2 521.0Q256.7 520.7 255.4 520.7L255.4 520.7L250.5 520.7Q249.9 521.1 249.9 521.8L249.9 521.8Q249.9 522.5 250.5 522.9Q251.1 523.4 252.5 523.4L252.5 523.4L254.9 523.4Q256.3 523.4 257.0 523.0Q257.6 522.6 257.6 521.9ZM253.4 513.0L253.4 513.0Q254.7 513.0 255.3 512.4Q255.8 511.7 255.8 510.8L255.8 510.8L255.8 510.1Q255.8 509.2 255.3 508.6Q254.7 507.9 253.4 507.9L253.4 507.9Q252.2 507.9 251.6 508.6Q251.1 509.2 251.1 510.1L251.1 510.1L251.1 510.8Q251.1 511.7 251.6 512.4Q252.2 513.0 253.4 513.0ZM263.9 520.1L263.9 516.9L268.3 516.9L268.3 502.6L263.9 502.6L263.9 499.4L272.5 499.4L272.5 516.9L276.9 516.9L276.9 520.1L263.9 520.1ZM289.6 520.1L289.6 517.5L289.5 517.5Q289.0 518.7 288.0 519.6Q286.9 520.4 285.2 520.4L285.2 520.4Q284.2 520.4 283.3 520.1Q282.4 519.7 281.8 519.0Q281.2 518.3 280.9 517.3Q280.5 516.3 280.5 515.0L280.5 515.0L280.5 505.6L284.7 505.6L284.7 514.4Q284.7 517.2 287.1 517.2L287.1 517.2Q287.6 517.2 288.0 517.1Q288.5 517.0 288.8 516.7Q289.2 516.5 289.4 516.1Q289.6 515.7 289.6 515.1L289.6 515.1L289.6 505.6L293.8 505.6L293.8 520.1L289.6 520.1ZM301.6 520.1L297.4 520.1L297.4 505.6L301.6 505.6L301.6 508.3L301.7 508.3Q302.0 507.7 302.3 507.1Q302.7 506.6 303.2 506.2Q303.7 505.8 304.4 505.5Q305.1 505.3 306.0 505.3L306.0 505.3Q307.0 505.3 307.9 505.7Q308.8 506.0 309.4 506.7Q310.0 507.4 310.3 508.4Q310.7 509.4 310.7 510.7L310.7 510.7L310.7 520.1L306.5 520.1L306.5 511.3Q306.5 508.5 304.1 508.5L304.1 508.5Q303.6 508.5 303.2 508.6Q302.7 508.8 302.3 509.0Q302.0 509.3 301.8 509.7Q301.6 510.1 301.6 510.6L301.6 510.6L301.6 520.1Z " clip-path="url(#satori_cp-id-1-0-1-0-2)" mask="url(#satori_om-id-1-0-1-0-2)"/><clipPath id="satori_cp-id-1-0-1-1"><rect x="786" y="489" width="286" height="36"/></clipPath><mask id="satori_om-id-1-0-1-1"><rect x="786" y="489" width="286" height="36" fill="#fff"/></mask><path fill="black" d="M802.7 520.1L798.2 520.1L796.9 515.4L791.6 515.4L790.4 520.1L786.1 520.1L791.4 500.5L797.4 500.5L802.7 520.1ZM796.3 512.0L794.4 504.6L794.2 504.6L792.3 512.0L796.3 512.0ZM811.0 520.4L811.0 520.4Q808.6 520.4 806.8 519.7Q805.1 519.0 804.2 517.7L804.2 517.7L806.5 515.6Q807.3 516.5 808.5 517.0Q809.6 517.5 811.1 517.5L811.1 517.5Q812.3 517.5 813.0 517.1Q813.7 516.8 813.7 516.0L813.7 516.0Q813.7 515.4 813.2 515.1Q812.7 514.9 811.9 514.7L811.9 514.7L809.6 514.4Q808.6 514.2 807.8 513.9Q806.9 513.7 806.3 513.1Q805.7 512.6 805.3 511.9Q805.0 511.2 805.0 510.2L805.0 510.2Q805.0 507.9 806.7 506.6Q808.4 505.3 811.6 505.3L811.6 505.3Q813.7 505.3 815.2 505.9Q816.7 506.5 817.6 507.5L817.6 507.5L815.5 509.9Q814.9 509.2 813.9 508.7Q812.9 508.2 811.4 508.2L811.4 508.2Q809.0 508.2 809.0 509.7L809.0 509.7Q809.0 510.3 809.5 510.6Q810.0 510.8 810.8 510.9L810.8 510.9L813.1 511.3Q814.1 511.4 814.9 511.7Q815.8 512.0 816.4 512.5Q817.0 513.0 817.4 513.8Q817.8 514.5 817.8 515.5L817.8 515.5Q817.8 517.8 816.0 519.1Q814.3 520.4 811.0 520.4ZM834.5 520.1L829.1 520.1Q826.9 520.1 825.8 518.9Q824.7 517.7 824.7 515.9L824.7 515.9L824.7 508.9L820.8 508.9L820.8 505.6L823.3 505.6Q824.2 505.6 824.6 505.3Q825.0 504.9 825.0 503.9L825.0 503.9L825.0 500.5L828.8 500.5L828.8 505.6L834.5 505.6L834.5 508.9L828.8 508.9L828.8 516.9L834.5 516.9L834.5 520.1ZM838.5 520.1L838.5 516.9L841.8 516.9L841.8 508.9L838.5 508.9L838.5 505.6L845.9 505.6L845.9 509.7L846.1 509.7Q846.3 508.9 846.7 508.2Q847.0 507.5 847.6 506.9Q848.1 506.3 848.9 506.0Q849.7 505.6 850.8 505.6L850.8 505.6L852.1 505.6L852.1 509.5L849.1 509.5Q847.5 509.5 846.7 510.4Q845.9 511.3 845.9 512.6L845.9 512.6L845.9 516.9L850.7 516.9L850.7 520.1L838.5 520.1ZM861.6 520.4L861.6 520.4Q859.9 520.4 858.6 519.9Q857.2 519.4 856.3 518.4Q855.4 517.4 854.9 516.0Q854.3 514.6 854.3 512.9L854.3 512.9Q854.3 511.1 854.9 509.7Q855.4 508.3 856.3 507.3Q857.2 506.3 858.6 505.8Q859.9 505.3 861.6 505.3L861.6 505.3Q863.3 505.3 864.6 505.8Q866.0 506.3 866.9 507.3Q867.8 508.3 868.3 509.7Q868.9 511.1 868.9 512.9L868.9 512.9Q868.9 514.6 868.3 516.0Q867.8 517.4 866.9 518.4Q866.0 519.4 864.6 519.9Q863.3 520.4 861.6 520.4ZM861.6 517.3L861.6 517.3Q863.0 517.3 863.8 516.5Q864.6 515.6 864.6 514.0L864.6 514.0L864.6 511.7Q864.6 510.1 863.8 509.3Q863.0 508.4 861.6 508.4L861.6 508.4Q860.2 508.4 859.4 509.3Q858.6 510.1 858.6 511.7L858.6 511.7L858.6 514.0Q858.6 515.6 859.4 516.5Q860.2 517.3 861.6 517.3Z M888.5 520.1L888.5 499.4L892.6 499.4L892.6 508.3L892.8 508.3Q893.3 507.0 894.3 506.1Q895.3 505.3 897.1 505.3L897.1 505.3Q898.3 505.3 899.3 505.8Q900.3 506.2 901.0 507.1Q901.7 508.1 902.1 509.5Q902.5 510.9 902.5 512.9L902.5 512.9Q902.5 514.8 902.1 516.3Q901.7 517.7 901.0 518.6Q900.3 519.5 899.3 520.0Q898.3 520.4 897.1 520.4L897.1 520.4Q895.3 520.4 894.3 519.6Q893.3 518.8 892.8 517.5L892.8 517.5L892.6 517.5L892.6 520.1L888.5 520.1ZM895.3 517.2L895.3 517.2Q896.7 517.2 897.4 516.4Q898.2 515.5 898.2 514.0L898.2 514.0L898.2 511.7Q898.2 510.2 897.4 509.4Q896.7 508.5 895.3 508.5L895.3 508.5Q894.2 508.5 893.4 509.1Q892.6 509.6 892.6 510.7L892.6 510.7L892.6 515.0Q892.6 516.1 893.4 516.7Q894.2 517.2 895.3 517.2ZM905.5 520.1L905.5 516.9L909.9 516.9L909.9 502.6L905.5 502.6L905.5 499.4L914.1 499.4L914.1 516.9L918.5 516.9L918.5 520.1L905.5 520.1ZM928.8 520.4L928.8 520.4Q927.1 520.4 925.8 519.9Q924.4 519.4 923.5 518.4Q922.6 517.4 922.1 516.0Q921.5 514.6 921.5 512.9L921.5 512.9Q921.5 511.1 922.1 509.7Q922.6 508.3 923.5 507.3Q924.4 506.3 925.8 505.8Q927.1 505.3 928.8 505.3L928.8 505.3Q930.5 505.3 931.8 505.8Q933.2 506.3 934.1 507.3Q935.0 508.3 935.5 509.7Q936.1 511.1 936.1 512.9L936.1 512.9Q936.1 514.6 935.5 516.0Q935.0 517.4 934.1 518.4Q933.2 519.4 931.8 519.9Q930.5 520.4 928.8 520.4ZM928.8 517.3L928.8 517.3Q930.2 517.3 931.0 516.5Q931.8 515.6 931.8 514.0L931.8 514.0L931.8 511.7Q931.8 510.1 931.0 509.3Q930.2 508.4 928.8 508.4L928.8 508.4Q927.4 508.4 926.6 509.3Q925.8 510.1 925.8 511.7L925.8 511.7L925.8 514.0Q925.8 515.6 926.6 516.5Q927.4 517.3 928.8 517.3ZM953.5 521.5L953.5 521.5Q953.5 523.8 951.6 524.9Q949.7 526.0 945.5 526.0L945.5 526.0Q943.4 526.0 942.1 525.8Q940.8 525.6 940.0 525.1Q939.2 524.7 938.8 524.0Q938.5 523.4 938.5 522.7L938.5 522.7Q938.5 521.5 939.2 520.8Q940.0 520.2 941.3 519.9L941.3 519.9L941.3 519.7Q940.4 519.4 939.8 518.9Q939.3 518.4 939.3 517.4L939.3 517.4Q939.3 516.4 940.0 515.9Q940.7 515.4 941.9 515.1L941.9 515.1L941.9 514.9Q940.6 514.3 939.9 513.2Q939.2 512.1 939.2 510.5L939.2 510.5Q939.2 509.2 939.6 508.2Q940.1 507.3 940.9 506.6Q941.7 506.0 942.9 505.6Q944.0 505.3 945.4 505.3L945.4 505.3Q946.8 505.3 948.0 505.6L948.0 505.6L948.0 504.8Q948.0 504.0 948.6 503.4Q949.2 502.9 950.2 502.9L950.2 502.9L952.7 502.9L952.7 505.9L949.3 505.9L949.3 506.1Q950.4 506.8 951.1 507.8Q951.8 508.9 951.8 510.5L951.8 510.5Q951.8 511.7 951.3 512.7Q950.9 513.6 950.0 514.3Q949.2 514.9 948.0 515.3Q946.9 515.6 945.4 515.6L945.4 515.6Q944.8 515.6 944.2 515.5Q943.6 515.5 943.1 515.3L943.1 515.3Q942.8 515.5 942.6 515.8Q942.4 516.0 942.4 516.4L942.4 516.4Q942.4 516.7 942.5 516.9Q942.7 517.1 943.0 517.2Q943.3 517.3 943.7 517.3Q944.1 517.4 944.5 517.4L944.5 517.4L947.8 517.4Q949.3 517.4 950.4 517.7Q951.5 518.0 952.2 518.6Q952.9 519.1 953.2 519.9Q953.5 520.6 953.5 521.5ZM949.6 521.9L949.6 521.9Q949.6 521.3 949.2 521.0Q948.7 520.7 947.4 520.7L947.4 520.7L942.5 520.7Q941.9 521.1 941.9 521.8L941.9 521.8Q941.9 522.5 942.5 522.9Q943.1 523.4 944.5 523.4L944.5 523.4L946.9 523.4Q948.3 523.4 949.0 523.0Q949.6 522.6 949.6 521.9ZM945.4 513.0L945.4 513.0Q946.7 513.0 947.3 512.4Q947.8 511.7 947.8 510.8L947.8 510.8L947.8 510.1Q947.8 509.2 947.3 508.6Q946.7 507.9 945.4 507.9L945.4 507.9Q944.2 507.9 943.6 508.6Q943.1 509.2 943.1 510.1L943.1 510.1L943.1 510.8Q943.1 511.7 943.6 512.4Q944.2 513.0 945.4 513.0Z M972.8 520.1L972.8 516.9L977.0 516.9L977.0 508.9L972.5 508.9L972.5 505.6L977.0 505.6L977.0 503.5Q977.0 501.7 978.1 500.5Q979.2 499.4 981.5 499.4L981.5 499.4L986.4 499.4L986.4 502.6L981.2 502.6L981.2 505.6L986.4 505.6L986.4 508.9L981.2 508.9L981.2 516.9L985.7 516.9L985.7 520.1L972.8 520.1ZM1003.6 520.1L1001.2 520.1Q999.9 520.1 999.2 519.4Q998.4 518.8 998.2 517.5L998.2 517.5L998.1 517.5Q997.7 519.0 996.5 519.7Q995.4 520.4 993.7 520.4L993.7 520.4Q991.6 520.4 990.3 519.3Q989.1 518.2 989.1 516.1L989.1 516.1Q989.1 513.8 990.7 512.8Q992.4 511.7 995.6 511.7L995.6 511.7L997.9 511.7L997.9 510.9Q997.9 509.6 997.3 509.0Q996.7 508.3 995.2 508.3L995.2 508.3Q993.9 508.3 993.1 508.8Q992.3 509.3 991.7 510.2L991.7 510.2L989.4 508.1Q990.2 506.9 991.7 506.1Q993.3 505.3 995.7 505.3L995.7 505.3Q998.7 505.3 1000.4 506.7Q1002.0 508.0 1002.0 510.8L1002.0 510.8L1002.0 517.1L1003.6 517.1L1003.6 520.1ZM995.3 517.7L995.3 517.7Q996.4 517.7 997.1 517.2Q997.9 516.6 997.9 515.6L997.9 515.6L997.9 513.9L995.7 513.9Q993.1 513.9 993.1 515.6L993.1 515.6L993.1 516.2Q993.1 516.9 993.7 517.3Q994.3 517.7 995.3 517.7ZM1013.4 520.4L1013.4 520.4Q1011.7 520.4 1010.3 519.9Q1009.0 519.4 1008.0 518.4Q1007.1 517.4 1006.6 516.0Q1006.1 514.6 1006.1 512.9L1006.1 512.9Q1006.1 511.1 1006.6 509.7Q1007.1 508.3 1008.0 507.3Q1009.0 506.3 1010.3 505.8Q1011.7 505.3 1013.4 505.3L1013.4 505.3Q1015.7 505.3 1017.2 506.3Q1018.6 507.2 1019.4 508.8L1019.4 508.8L1016.2 510.6Q1015.8 509.7 1015.2 509.2Q1014.5 508.6 1013.4 508.6L1013.4 508.6Q1011.9 508.6 1011.2 509.4Q1010.4 510.3 1010.4 511.7L1010.4 511.7L1010.4 514.0Q1010.4 515.5 1011.2 516.3Q1011.9 517.1 1013.4 517.1L1013.4 517.1Q1014.6 517.1 1015.3 516.6Q1016.0 516.0 1016.5 515.1L1016.5 515.1L1019.6 516.9Q1018.8 518.5 1017.3 519.5Q1015.8 520.4 1013.4 520.4ZM1030.5 503.8L1030.5 503.8Q1029.1 503.8 1028.5 503.2Q1028.0 502.6 1028.0 501.8L1028.0 501.8L1028.0 501.0Q1028.0 500.2 1028.5 499.6Q1029.1 499.1 1030.5 499.1L1030.5 499.1Q1031.9 499.1 1032.4 499.6Q1033.0 500.2 1033.0 501.0L1033.0 501.0L1033.0 501.8Q1033.0 502.6 1032.4 503.2Q1031.9 503.8 1030.5 503.8ZM1023.8 520.1L1023.8 516.9L1028.4 516.9L1028.4 508.9L1023.8 508.9L1023.8 505.6L1032.6 505.6L1032.6 516.9L1036.8 516.9L1036.8 520.1L1023.8 520.1ZM1039.9 520.1L1039.9 516.9L1044.3 516.9L1044.3 502.6L1039.9 502.6L1039.9 499.4L1048.5 499.4L1048.5 516.9L1052.9 516.9L1052.9 520.1L1039.9 520.1ZM1063.6 520.4L1063.6 520.4Q1060.0 520.4 1058.1 518.4Q1056.2 516.4 1056.2 512.9L1056.2 512.9Q1056.2 511.2 1056.7 509.7Q1057.2 508.3 1058.1 507.3Q1059.0 506.3 1060.3 505.8Q1061.6 505.3 1063.2 505.3L1063.2 505.3Q1064.9 505.3 1066.1 505.8Q1067.4 506.3 1068.3 507.3Q1069.2 508.2 1069.7 509.6Q1070.2 511.0 1070.2 512.6L1070.2 512.6L1070.2 513.9L1060.3 513.9L1060.3 514.1Q1060.3 515.5 1061.2 516.4Q1062.1 517.2 1063.7 517.2L1063.7 517.2Q1065.0 517.2 1065.9 516.7Q1066.9 516.3 1067.5 515.4L1067.5 515.4L1069.8 517.9Q1068.9 518.9 1067.4 519.7Q1065.9 520.4 1063.6 520.4ZM1063.3 508.3L1063.3 508.3Q1061.9 508.3 1061.1 509.1Q1060.3 509.9 1060.3 511.3L1060.3 511.3L1060.3 511.6L1066.1 511.6L1066.1 511.3Q1066.1 509.9 1065.4 509.1Q1064.6 508.3 1063.3 508.3Z " clip-path="url(#satori_cp-id-1-0-1-1)" mask="url(#satori_om-id-1-0-1-1)"/></svg>