<svg width="1200" height="630" viewBox="0 0 1200 630" xmlns="http://www.w3.org/2000/svg"><rect x="0" y="0" width="1200" height="630" fill="#fefbfb"/><defs><clipPath id="satori_bc-id-0"><path x="105" y="39" width="1056" height="504" d="M109,39 h1048 a4,4 0 0 1 4,4 v496 a4,4 0 0 1 -4,4 h-1048 a4,4 0 0 1 -4,-4 v-496 a4,4 0 0 1 4,-4"/></clipPath></defs><g opacity="0.9"><path x="105" y="39" width="1056" height="504" fill="#ecebeb" d="M109,39 h1048 a4,4 0 0 1 4,4 v496 a4,4 0 0 1 -4,4 h-1048 a4,4 0 0 1 -4,-4 v-496 a4,4 0 0 1 4,-4"/><path width="1056" height="504" clip-path="url(#satori_bc-id-0)" fill="none" stroke="#000" stroke-width="8" d="M106.172,40.172 A4,4 0 0 1 109,39 h1048 a4,4 0 0 1 4,4 v496 a4,4 0 0 1 -4,4 h-1048 a4,4 0 0 1 -4,-4 v-496 A4,4 0 0 1 106.172,40.172"/></g><defs><clipPath id="satori_bc-id-1"><path x="72" y="63" width="1056" height="504" d="M76,63 h1048 a4,4 0 0 1 4,4 v496 a4,4 0 0 1 -4,4 h-1048 a4,4 0 0 1 -4,-4 v-496 a4,4 0 0 1 4,-4"/></clipPath></defs><path x="72" y="63" width="1056" height="504" fill="#fefbfb" d="M76,63 h1048 a4,4 0 0 1 4,4 v496 a4,4 0 0 1 -4,4 h-1048 a4,4 0 0 1 -4,-4 v-496 a4,4 0 0 1 4,-4"/><path width="1056" height="504" clip-path="url(#satori_bc-id-1)" fill="none" stroke="#000" stroke-width="8" d="M73.172,64.172 A4,4 0 0 1 76,63 h1048 a4,4 0 0 1 4,4 v496 a4,4 0 0 1 -4,4 h-1048 a4,4 0 0 1 -4,-4 v-496 A4,4 0 0 1 73.172,64.172"/><clipPath id="satori_cp-id-1-0-0"><rect x="128" y="103" width="1556" height="187"/></clipPath><mask id="satori_om-id-1-0-0"><rect x="128" y="103" width="1556" height="187" fill="#fff"/></mask><path fill="black" d="M168.9 183.0L130.3 183.0L130.3 126.8L168.9 126.8L168.9 183.0ZM137.5 134.0L137.5 175.8L161.7 175.8L161.7 134.0L137.5 134.0ZM212.1 183.0L173.5 183.0L173.5 126.8L212.1 126.8L212.1 183.0ZM180.7 134.0L180.7 175.8L204.9 175.8L204.9 134.0L180.7 134.0ZM255.3 183.0L216.7 183.0L216.7 126.8L255.3 126.8L255.3 183.0ZM223.9 134.0L223.9 175.8L248.1 175.8L248.1 134.0L223.9 134.0ZM283.4 183.0L272.0 149.5L271.2 149.5L271.2 183.0L262.0 183.0L262.0 132.7L275.0 132.7L286.4 166.1L287.2 166.1L287.2 132.7L296.4 132.7L296.4 183.0L283.4 183.0ZM322.4 183.8L322.4 183.8Q318.1 183.8 314.6 182.5Q311.2 181.2 308.8 178.6Q306.3 176.1 305.0 172.5Q303.8 168.9 303.8 164.4L303.8 164.4Q303.8 159.8 305.0 156.2Q306.3 152.6 308.8 150.1Q311.2 147.6 314.6 146.3Q318.1 144.9 322.4 144.9L322.4 144.9Q326.7 144.9 330.2 146.3Q333.6 147.6 336.0 150.1Q338.5 152.6 339.8 156.2Q341.0 159.8 341.0 164.4L341.0 164.4Q341.0 168.9 339.8 172.5Q338.5 176.1 336.0 178.6Q333.6 181.2 330.2 182.5Q326.7 183.8 322.4 183.8ZM322.4 175.9L322.4 175.9Q326.0 175.9 328.0 173.7Q330.0 171.4 330.0 167.3L330.0 167.3L330.0 161.4Q330.0 157.3 328.0 155.1Q326.0 152.9 322.4 152.9L322.4 152.9Q318.8 152.9 316.8 155.1Q314.8 157.3 314.8 161.4L314.8 161.4L314.8 167.3Q314.8 171.4 316.8 173.7Q318.8 175.9 322.4 175.9ZM372.3 183.0L372.3 176.2L371.8 176.2Q370.4 179.6 367.8 181.7Q365.2 183.8 360.8 183.8L360.8 183.8Q357.7 183.8 355.1 182.7Q352.6 181.5 350.7 179.1Q348.9 176.8 347.9 173.1Q346.8 169.4 346.8 164.4L346.8 164.4Q346.8 159.3 347.9 155.7Q348.9 152.0 350.7 149.6Q352.6 147.2 355.1 146.1Q357.7 144.9 360.8 144.9L360.8 144.9Q363.0 144.9 364.7 145.5Q366.5 146.1 367.8 147.1Q369.1 148.1 370.1 149.5Q371.1 150.9 371.8 152.6L371.8 152.6L372.3 152.6L372.3 129.7L383.0 129.7L383.0 183.0L372.3 183.0ZM365.4 175.5L365.4 175.5Q368.2 175.5 370.2 174.2Q372.3 172.8 372.3 169.8L372.3 169.8L372.3 158.9Q372.3 156.0 370.2 154.6Q368.2 153.2 365.4 153.2L365.4 153.2Q361.8 153.2 359.8 155.4Q357.9 157.6 357.9 161.5L357.9 161.5L357.9 167.3Q357.9 171.1 359.8 173.3Q361.8 175.5 365.4 175.5ZM409.8 183.8L409.8 183.8Q400.4 183.8 395.6 178.6Q390.8 173.4 390.8 164.5L390.8 164.5Q390.8 160.0 392.1 156.3Q393.3 152.7 395.7 150.2Q398.0 147.6 401.3 146.3Q404.7 144.9 408.9 144.9L408.9 144.9Q413.0 144.9 416.4 146.3Q419.7 147.6 422.0 150.0Q424.3 152.5 425.5 156.0Q426.8 159.5 426.8 163.8L426.8 163.8L426.8 167.0L401.4 167.0L401.4 167.6Q401.4 171.2 403.6 173.4Q405.8 175.6 410.2 175.6L410.2 175.6Q413.5 175.6 415.9 174.3Q418.2 173.1 420.0 171.0L420.0 171.0L425.7 177.3Q423.6 179.9 419.7 181.9Q415.8 183.8 409.8 183.8ZM408.9 152.6L408.9 152.6Q405.5 152.6 403.4 154.7Q401.4 156.8 401.4 160.4L401.4 160.4L401.4 161.0L416.4 161.0L416.4 160.4Q416.4 156.7 414.4 154.7Q412.4 152.6 408.9 152.6ZM452.0 183.8L452.0 183.8Q448.0 183.8 446.2 182.1Q444.4 180.3 444.4 177.8L444.4 177.8L444.4 175.3Q444.4 172.9 446.2 171.1Q448.0 169.3 452.0 169.3L452.0 169.3Q456.0 169.3 457.8 171.1Q459.6 172.9 459.6 175.3L459.6 175.3L459.6 177.8Q459.6 180.3 457.8 182.1Q456.0 183.8 452.0 183.8ZM480.2 197.4L480.2 189.1L494.5 189.1L494.5 154.1L480.1 154.1L480.1 145.8L505.1 145.8L505.1 186.6Q505.1 191.3 502.3 194.3Q499.5 197.4 493.8 197.4L493.8 197.4L480.2 197.4ZM499.8 141.0L499.8 141.0Q496.2 141.0 494.8 139.6Q493.4 138.1 493.4 136.0L493.4 136.0L493.4 133.9Q493.4 131.8 494.8 130.3Q496.2 128.9 499.8 128.9L499.8 128.9Q503.3 128.9 504.8 130.3Q506.2 131.8 506.2 133.9L506.2 133.9L506.2 136.0Q506.2 138.1 504.8 139.6Q503.3 141.0 499.8 141.0ZM538.0 183.8L538.0 183.8Q531.8 183.8 527.2 181.9Q522.6 180.1 520.3 176.8L520.3 176.8L526.3 171.3Q528.5 173.7 531.4 175.0Q534.3 176.3 538.0 176.3L538.0 176.3Q541.2 176.3 543.0 175.4Q544.8 174.4 544.8 172.4L544.8 172.4Q544.8 170.8 543.6 170.2Q542.4 169.6 540.2 169.2L540.2 169.2L534.2 168.3Q531.7 167.9 529.5 167.1Q527.4 166.4 525.8 165.1Q524.2 163.8 523.3 161.9Q522.3 160.1 522.3 157.4L522.3 157.4Q522.3 151.6 526.8 148.2Q531.3 144.9 539.3 144.9L539.3 144.9Q544.8 144.9 548.7 146.4Q552.5 147.9 554.8 150.6L554.8 150.6L549.5 156.7Q547.8 154.9 545.2 153.6Q542.6 152.4 539.0 152.4L539.0 152.4Q532.8 152.4 532.8 156.2L532.8 156.2Q532.8 157.8 534.0 158.4Q535.2 159.0 537.4 159.4L537.4 159.4L543.3 160.3Q545.8 160.7 548.0 161.5Q550.1 162.2 551.8 163.5Q553.4 164.8 554.3 166.7Q555.2 168.6 555.2 171.2L555.2 171.2Q555.2 177.0 550.7 180.4Q546.2 183.8 538.0 183.8ZM600.9 183.0L562.3 183.0L562.3 126.8L600.9 126.8L600.9 183.0ZM569.5 134.0L569.5 175.8L593.7 175.8L593.7 134.0L569.5 134.0ZM644.1 183.0L605.5 183.0L605.5 126.8L644.1 126.8L644.1 183.0ZM612.7 134.0L612.7 175.8L636.9 175.8L636.9 134.0L612.7 134.0ZM687.3 183.0L648.7 183.0L648.7 126.8L687.3 126.8L687.3 183.0ZM655.9 134.0L655.9 175.8L680.1 175.8L680.1 134.0L655.9 134.0ZM722.7 166.1L699.7 166.1L699.7 155.9L722.7 155.9L722.7 166.1ZM755.4 183.8L755.4 183.8Q746.0 183.8 741.2 178.6Q736.4 173.4 736.4 164.5L736.4 164.5Q736.4 160.0 737.7 156.3Q738.9 152.7 741.3 150.2Q743.6 147.6 746.9 146.3Q750.3 144.9 754.5 144.9L754.5 144.9Q758.6 144.9 762.0 146.3Q765.3 147.6 767.6 150.0Q769.9 152.5 771.1 156.0Q772.4 159.5 772.4 163.8L772.4 163.8L772.4 167.0L747.0 167.0L747.0 167.6Q747.0 171.2 749.2 173.4Q751.4 175.6 755.8 175.6L755.8 175.6Q759.1 175.6 761.5 174.3Q763.8 173.1 765.6 171.0L765.6 171.0L771.3 177.3Q769.2 179.9 765.3 181.9Q761.4 183.8 755.4 183.8ZM754.5 152.6L754.5 152.6Q751.1 152.6 749.0 154.7Q747.0 156.8 747.0 160.4L747.0 160.4L747.0 161.0L762.0 161.0L762.0 160.4Q762.0 156.7 760.0 154.7Q758.0 152.6 754.5 152.6ZM788.9 183.0L777.7 183.0L791.6 164.1L778.6 145.8L790.8 145.8L794.7 151.8L797.7 156.6L798.3 156.6L801.4 151.8L805.4 145.8L816.6 145.8L803.6 163.5L817.5 183.0L805.3 183.0L800.6 176.0L797.4 171.0L796.8 171.0L793.6 176.0L788.9 183.0ZM823.4 197.4L823.4 145.8L834.1 145.8L834.1 152.6L834.6 152.6Q836.0 149.3 838.6 147.1Q841.2 144.9 845.6 144.9L845.6 144.9Q848.7 144.9 851.3 146.1Q853.8 147.2 855.7 149.6Q857.5 152.0 858.5 155.7Q859.6 159.3 859.6 164.4L859.6 164.4Q859.6 169.4 858.5 173.1Q857.5 176.8 855.7 179.1Q853.8 181.5 851.3 182.7Q848.7 183.8 845.6 183.8L845.6 183.8Q841.2 183.8 838.6 181.7Q836.0 179.6 834.6 176.2L834.6 176.2L834.1 176.2L834.1 197.4L823.4 197.4ZM841.0 175.5L841.0 175.5Q844.6 175.5 846.6 173.3Q848.5 171.1 848.5 167.3L848.5 167.3L848.5 161.5Q848.5 157.6 846.6 155.4Q844.6 153.2 841.0 153.2L841.0 153.2Q838.2 153.2 836.2 154.6Q834.1 156.0 834.1 158.9L834.1 158.9L834.1 169.8Q834.1 172.8 836.2 174.2Q838.2 175.5 841.0 175.5ZM884.0 183.8L884.0 183.8Q879.7 183.8 876.2 182.5Q872.8 181.2 870.4 178.6Q867.9 176.1 866.6 172.5Q865.4 168.9 865.4 164.4L865.4 164.4Q865.4 159.8 866.6 156.2Q867.9 152.6 870.4 150.1Q872.8 147.6 876.2 146.3Q879.7 144.9 884.0 144.9L884.0 144.9Q888.3 144.9 891.8 146.3Q895.2 147.6 897.6 150.1Q900.1 152.6 901.4 156.2Q902.6 159.8 902.6 164.4L902.6 164.4Q902.6 168.9 901.4 172.5Q900.1 176.1 897.6 178.6Q895.2 181.2 891.8 182.5Q888.3 183.8 884.0 183.8ZM884.0 175.9L884.0 175.9Q887.6 175.9 889.6 173.7Q891.6 171.4 891.6 167.3L891.6 167.3L891.6 161.4Q891.6 157.3 889.6 155.1Q887.6 152.9 884.0 152.9L884.0 152.9Q880.4 152.9 878.4 155.1Q876.4 157.3 876.4 161.4L876.4 161.4L876.4 167.3Q876.4 171.4 878.4 173.7Q880.4 175.9 884.0 175.9ZM910.9 183.0L910.9 174.7L919.5 174.7L919.5 154.1L910.9 154.1L910.9 145.8L930.2 145.8L930.2 156.3L930.7 156.3Q931.2 154.3 932.1 152.4Q933.0 150.5 934.4 149.0Q935.8 147.5 937.8 146.7Q939.8 145.8 942.5 145.8L942.5 145.8L946.1 145.8L946.1 155.6L938.1 155.6Q934.2 155.6 932.2 157.9Q930.2 160.3 930.2 163.7L930.2 163.7L930.2 174.7L942.4 174.7L942.4 183.0L910.9 183.0ZM987.0 183.0L973.3 183.0Q967.5 183.0 964.7 179.9Q961.9 176.9 961.9 172.2L961.9 172.2L961.9 154.1L951.8 154.1L951.8 145.8L958.4 145.8Q960.8 145.8 961.8 144.9Q962.8 143.9 962.8 141.4L962.8 141.4L962.8 132.7L972.6 132.7L972.6 145.8L987.0 145.8L987.0 154.1L972.6 154.1L972.6 174.7L987.0 174.7L987.0 183.0ZM1013.2 183.8L1013.2 183.8Q1007.0 183.8 1002.4 181.9Q997.8 180.1 995.5 176.8L995.5 176.8L1001.5 171.3Q1003.7 173.7 1006.6 175.0Q1009.5 176.3 1013.2 176.3L1013.2 176.3Q1016.4 176.3 1018.2 175.4Q1020.0 174.4 1020.0 172.4L1020.0 172.4Q1020.0 170.8 1018.8 170.2Q1017.6 169.6 1015.4 169.2L1015.4 169.2L1009.4 168.3Q1006.9 167.9 1004.7 167.1Q1002.6 166.4 1001.0 165.1Q999.4 163.8 998.5 161.9Q997.5 160.1 997.5 157.4L997.5 157.4Q997.5 151.6 1002.0 148.2Q1006.5 144.9 1014.5 144.9L1014.5 144.9Q1020.0 144.9 1023.9 146.4Q1027.7 147.9 1030.0 150.6L1030.0 150.6L1024.7 156.7Q1023.0 154.9 1020.4 153.6Q1017.8 152.4 1014.2 152.4L1014.2 152.4Q1008.0 152.4 1008.0 156.2L1008.0 156.2Q1008.0 157.8 1009.2 158.4Q1010.4 159.0 1012.6 159.4L1012.6 159.4L1018.5 160.3Q1021.0 160.7 1023.2 161.5Q1025.3 162.2 1027.0 163.5Q1028.6 164.8 1029.5 166.7Q1030.4 168.6 1030.4 171.2L1030.4 171.2Q1030.4 177.0 1025.9 180.4Q1021.4 183.8 1013.2 183.8ZM1076.1 183.0L1037.5 183.0L1037.5 126.8L1076.1 126.8L1076.1 183.0ZM1044.7 134.0L1044.7 175.8L1068.9 175.8L1068.9 134.0L1044.7 134.0Z M138.7 276.6L130.2 276.6L130.2 239.4L138.7 239.4L138.7 244.9L139.2 244.9Q140.1 242.3 141.7 240.4Q143.3 238.5 146.3 238.5L146.3 238.5Q151.7 238.5 152.9 244.9L152.9 244.9L153.3 244.9Q153.8 243.6 154.4 242.4Q155.1 241.3 156.0 240.4Q156.9 239.5 158.2 239.0Q159.5 238.5 161.3 238.5L161.3 238.5Q169.0 238.5 169.0 250.0L169.0 250.0L169.0 276.6L160.5 276.6L160.5 251.1Q160.5 248.5 159.6 247.4Q158.7 246.4 157.2 246.4L157.2 246.4Q155.9 246.4 154.9 247.3Q153.9 248.2 153.9 250.1L153.9 250.1L153.9 276.6L145.3 276.6L145.3 251.1Q145.3 248.5 144.5 247.4Q143.6 246.4 142.2 246.4L142.2 246.4Q140.7 246.4 139.7 247.3Q138.7 248.2 138.7 250.1L138.7 250.1L138.7 276.6ZM192.8 277.4L192.8 277.4Q188.5 277.4 185.0 276.1Q181.6 274.8 179.2 272.2Q176.7 269.7 175.4 266.1Q174.2 262.5 174.2 258.0L174.2 258.0Q174.2 253.4 175.4 249.8Q176.7 246.2 179.2 243.7Q181.6 241.2 185.0 239.9Q188.5 238.5 192.8 238.5L192.8 238.5Q197.1 238.5 200.6 239.9Q204.0 241.2 206.4 243.7Q208.9 246.2 210.2 249.8Q211.4 253.4 211.4 258.0L211.4 258.0Q211.4 262.5 210.2 266.1Q208.9 269.7 206.4 272.2Q204.0 274.8 200.6 276.1Q197.1 277.4 192.8 277.4ZM192.8 269.5L192.8 269.5Q196.4 269.5 198.4 267.3Q200.4 265.0 200.4 260.9L200.4 260.9L200.4 255.0Q200.4 250.9 198.4 248.7Q196.4 246.5 192.8 246.5L192.8 246.5Q189.2 246.5 187.2 248.7Q185.2 250.9 185.2 255.0L185.2 255.0L185.2 260.9Q185.2 265.0 187.2 267.3Q189.2 269.5 192.8 269.5ZM242.7 276.6L242.7 269.8L242.2 269.8Q240.8 273.2 238.2 275.3Q235.6 277.4 231.2 277.4L231.2 277.4Q228.1 277.4 225.5 276.3Q223.0 275.1 221.1 272.7Q219.3 270.4 218.3 266.7Q217.2 263.0 217.2 258.0L217.2 258.0Q217.2 252.9 218.3 249.3Q219.3 245.6 221.1 243.2Q223.0 240.8 225.5 239.7Q228.1 238.5 231.2 238.5L231.2 238.5Q233.4 238.5 235.1 239.1Q236.9 239.7 238.2 240.7Q239.5 241.7 240.5 243.1Q241.5 244.5 242.2 246.2L242.2 246.2L242.7 246.2L242.7 223.3L253.4 223.3L253.4 276.6L242.7 276.6ZM235.8 269.1L235.8 269.1Q238.6 269.1 240.6 267.8Q242.7 266.4 242.7 263.4L242.7 263.4L242.7 252.5Q242.7 249.6 240.6 248.2Q238.6 246.8 235.8 246.8L235.8 246.8Q232.2 246.8 230.2 249.0Q228.3 251.2 228.3 255.1L228.3 255.1L228.3 260.9Q228.3 264.7 230.2 266.9Q232.2 269.1 235.8 269.1ZM285.5 276.6L285.5 269.8L285.0 269.8Q283.8 273.0 281.2 275.2Q278.6 277.4 274.1 277.4L274.1 277.4Q271.4 277.4 269.2 276.5Q267.0 275.6 265.4 273.8Q263.8 272.0 262.9 269.4Q262.0 266.8 262.0 263.4L262.0 263.4L262.0 239.4L272.6 239.4L272.6 262.0Q272.6 269.2 278.9 269.2L278.9 269.2Q280.1 269.2 281.3 268.9Q282.5 268.6 283.4 267.9Q284.3 267.2 284.9 266.2Q285.5 265.2 285.5 263.8L285.5 263.8L285.5 239.4L296.1 239.4L296.1 276.6L285.5 276.6ZM305.7 276.6L305.7 268.3L317.1 268.3L317.1 231.6L305.7 231.6L305.7 223.3L327.7 223.3L327.7 268.3L339.1 268.3L339.1 276.6L305.7 276.6ZM366.6 277.4L366.6 277.4Q357.2 277.4 352.4 272.2Q347.6 267.0 347.6 258.1L347.6 258.1Q347.6 253.6 348.9 249.9Q350.1 246.3 352.5 243.8Q354.8 241.2 358.1 239.9Q361.5 238.5 365.7 238.5L365.7 238.5Q369.8 238.5 373.2 239.9Q376.5 241.2 378.8 243.6Q381.1 246.1 382.3 249.6Q383.6 253.1 383.6 257.4L383.6 257.4L383.6 260.6L358.2 260.6L358.2 261.2Q358.2 264.8 360.4 267.0Q362.6 269.2 367.0 269.2L367.0 269.2Q370.3 269.2 372.7 267.9Q375.0 266.7 376.8 264.6L376.8 264.6L382.5 270.9Q380.4 273.5 376.5 275.5Q372.6 277.4 366.6 277.4ZM365.7 246.2L365.7 246.2Q362.3 246.2 360.2 248.3Q358.2 250.4 358.2 254.0L358.2 254.0L358.2 254.6L373.2 254.6L373.2 254.0Q373.2 250.3 371.2 248.3Q369.2 246.2 365.7 246.2ZM408.8 277.4L408.8 277.4Q404.8 277.4 403.0 275.7Q401.2 273.9 401.2 271.4L401.2 271.4L401.2 268.9Q401.2 266.5 403.0 264.7Q404.8 262.9 408.8 262.9L408.8 262.9Q412.8 262.9 414.6 264.7Q416.4 266.5 416.4 268.9L416.4 268.9L416.4 271.4Q416.4 273.9 414.6 275.7Q412.8 277.4 408.8 277.4ZM453.0 277.4L453.0 277.4Q443.6 277.4 438.8 272.2Q434.0 267.0 434.0 258.1L434.0 258.1Q434.0 253.6 435.3 249.9Q436.5 246.3 438.9 243.8Q441.2 241.2 444.5 239.9Q447.9 238.5 452.1 238.5L452.1 238.5Q456.2 238.5 459.6 239.9Q462.9 241.2 465.2 243.6Q467.5 246.1 468.7 249.6Q470.0 253.1 470.0 257.4L470.0 257.4L470.0 260.6L444.6 260.6L444.6 261.2Q444.6 264.8 446.8 267.0Q449.0 269.2 453.4 269.2L453.4 269.2Q456.7 269.2 459.1 267.9Q461.4 266.7 463.2 264.6L463.2 264.6L468.9 270.9Q466.8 273.5 462.9 275.5Q459.0 277.4 453.0 277.4ZM452.1 246.2L452.1 246.2Q448.7 246.2 446.6 248.3Q444.6 250.4 444.6 254.0L444.6 254.0L444.6 254.6L459.6 254.6L459.6 254.0Q459.6 250.3 457.6 248.3Q455.6 246.2 452.1 246.2ZM486.5 276.6L475.3 276.6L489.2 257.7L476.2 239.4L488.4 239.4L492.3 245.4L495.3 250.2L495.9 250.2L499.0 245.4L503.0 239.4L514.2 239.4L501.2 257.1L515.1 276.6L502.9 276.6L498.2 269.6L495.0 264.6L494.4 264.6L491.2 269.6L486.5 276.6ZM521.0 291.0L521.0 239.4L531.7 239.4L531.7 246.2L532.2 246.2Q533.6 242.9 536.2 240.7Q538.8 238.5 543.2 238.5L543.2 238.5Q546.3 238.5 548.9 239.7Q551.4 240.8 553.3 243.2Q555.1 245.6 556.1 249.3Q557.2 252.9 557.2 258.0L557.2 258.0Q557.2 263.0 556.1 266.7Q555.1 270.4 553.3 272.7Q551.4 275.1 548.9 276.3Q546.3 277.4 543.2 277.4L543.2 277.4Q538.8 277.4 536.2 275.3Q533.6 273.2 532.2 269.8L532.2 269.8L531.7 269.8L531.7 291.0L521.0 291.0ZM538.6 269.1L538.6 269.1Q542.2 269.1 544.2 266.9Q546.1 264.7 546.1 260.9L546.1 260.9L546.1 255.1Q546.1 251.2 544.2 249.0Q542.2 246.8 538.6 246.8L538.6 246.8Q535.8 246.8 533.8 248.2Q531.7 249.6 531.7 252.5L531.7 252.5L531.7 263.4Q531.7 266.4 533.8 267.8Q535.8 269.1 538.6 269.1ZM581.6 277.4L581.6 277.4Q577.3 277.4 573.8 276.1Q570.4 274.8 568.0 272.2Q565.5 269.7 564.2 266.1Q563.0 262.5 563.0 258.0L563.0 258.0Q563.0 253.4 564.2 249.8Q565.5 246.2 568.0 243.7Q570.4 241.2 573.8 239.9Q577.3 238.5 581.6 238.5L581.6 238.5Q585.9 238.5 589.4 239.9Q592.8 241.2 595.2 243.7Q597.7 246.2 599.0 249.8Q600.2 253.4 600.2 258.0L600.2 258.0Q600.2 262.5 599.0 266.1Q597.7 269.7 595.2 272.2Q592.8 274.8 589.4 276.1Q585.9 277.4 581.6 277.4ZM581.6 269.5L581.6 269.5Q585.2 269.5 587.2 267.3Q589.2 265.0 589.2 260.9L589.2 260.9L589.2 255.0Q589.2 250.9 587.2 248.7Q585.2 246.5 581.6 246.5L581.6 246.5Q578 246.5 576.0 248.7Q574.0 250.9 574.0 255.0L574.0 255.0L574.0 260.9Q574.0 265.0 576.0 267.3Q578 269.5 581.6 269.5ZM608.5 276.6L608.5 268.3L617.1 268.3L617.1 247.7L608.5 247.7L608.5 239.4L627.8 239.4L627.8 249.9L628.3 249.9Q628.8 247.9 629.7 246.0Q630.6 244.1 632.0 242.6Q633.4 241.1 635.4 240.3Q637.4 239.4 640.1 239.4L640.1 239.4L643.7 239.4L643.7 249.2L635.7 249.2Q631.8 249.2 629.8 251.5Q627.8 253.9 627.8 257.3L627.8 257.3L627.8 268.3L640.0 268.3L640.0 276.6L608.5 276.6ZM684.6 276.6L670.9 276.6Q665.1 276.6 662.3 273.5Q659.5 270.5 659.5 265.8L659.5 265.8L659.5 247.7L649.4 247.7L649.4 239.4L656.0 239.4Q658.4 239.4 659.4 238.5Q660.4 237.5 660.4 235.0L660.4 235.0L660.4 226.3L670.2 226.3L670.2 239.4L684.6 239.4L684.6 247.7L670.2 247.7L670.2 268.3L684.6 268.3L684.6 276.6ZM710.8 277.4L710.8 277.4Q704.6 277.4 700.0 275.5Q695.4 273.7 693.1 270.4L693.1 270.4L699.1 264.9Q701.3 267.3 704.2 268.6Q707.1 269.9 710.8 269.9L710.8 269.9Q714.0 269.9 715.8 269.0Q717.6 268.0 717.6 266.0L717.6 266.0Q717.6 264.4 716.4 263.8Q715.2 263.2 713.0 262.8L713.0 262.8L707.0 261.9Q704.5 261.5 702.3 260.7Q700.2 260.0 698.6 258.7Q697.0 257.4 696.1 255.5Q695.1 253.7 695.1 251.0L695.1 251.0Q695.1 245.2 699.6 241.8Q704.1 238.5 712.1 238.5L712.1 238.5Q717.6 238.5 721.5 240.0Q725.3 241.5 727.6 244.2L727.6 244.2L722.3 250.3Q720.6 248.5 718.0 247.2Q715.4 246.0 711.8 246.0L711.8 246.0Q705.6 246.0 705.6 249.8L705.6 249.8Q705.6 251.4 706.8 252.0Q708.0 252.6 710.2 253.0L710.2 253.0L716.1 253.9Q718.6 254.3 720.8 255.1Q722.9 255.8 724.6 257.1Q726.2 258.4 727.1 260.3Q728.0 262.2 728.0 264.8L728.0 264.8Q728.0 270.6 723.5 274.0Q719.0 277.4 710.8 277.4Z " clip-path="url(#satori_cp-id-1-0-0)" mask="url(#satori_om-id-1-0-0)"/><path fill="black" d="M130.7 520.3L130.7 499.6L132.9 499.6L132.9 508.2L133.0 508.2Q134.4 505.5 137.5 505.5L137.5 505.5Q140.1 505.5 141.6 507.5Q143.1 509.5 143.1 513.0L143.1 513.0Q143.1 516.6 141.6 518.6Q140.1 520.6 137.5 520.6L137.5 520.6Q134.4 520.6 133.0 517.9L133.0 517.9L132.9 517.9L132.9 520.3L130.7 520.3ZM136.6 518.6L136.6 518.6Q138.6 518.6 139.6 517.4Q140.7 516.2 140.7 514.3L140.7 514.3L140.7 511.8Q140.7 509.9 139.6 508.7Q138.6 507.5 136.6 507.5L136.6 507.5Q135.8 507.5 135.2 507.7Q134.5 507.9 134.0 508.2Q133.5 508.6 133.2 509.2Q132.9 509.7 132.9 510.4L132.9 510.4L132.9 515.7Q132.9 516.4 133.2 516.9Q133.5 517.5 134.0 517.8Q134.5 518.2 135.2 518.4Q135.8 518.6 136.6 518.6ZM155.4 511.9L157.9 505.8L160.1 505.8L152.9 523.4Q152.7 524.1 152.4 524.5Q152.1 525.0 151.7 525.3Q151.2 525.6 150.7 525.7Q150.1 525.9 149.3 525.9L149.3 525.9L147.1 525.9L147.1 524.0L150.5 524.0L152.1 520.0L146.3 505.8L148.6 505.8L151.0 511.9L153.2 517.4L153.3 517.4L155.4 511.9Z "/><clipPath id="satori_cp-id-1-0-1-0-2"><rect x="178" y="489" width="134" height="36"/></clipPath><mask id="satori_om-id-1-0-1-0-2"><rect x="178" y="489" width="134" height="36" fill="#fff"/></mask><path fill="black" d="M193.0 520.1L179.8 520.1L179.8 516.6L187.9 508.9L180.1 508.9L180.1 505.6L192.7 505.6L192.7 509.1L184.6 516.9L193.0 516.9L193.0 520.1ZM196.6 520.1L196.6 499.4L200.8 499.4L200.8 508.3L200.9 508.3Q201.2 507.7 201.5 507.1Q201.9 506.6 202.4 506.2Q202.9 505.8 203.6 505.5Q204.3 505.3 205.2 505.3L205.2 505.3Q206.2 505.3 207.1 505.7Q208.0 506.0 208.6 506.7Q209.2 507.4 209.5 508.4Q209.9 509.4 209.9 510.7L209.9 510.7L209.9 520.1L205.7 520.1L205.7 511.3Q205.7 508.5 203.3 508.5L203.3 508.5Q202.8 508.5 202.4 508.6Q201.9 508.8 201.5 509.0Q201.2 509.3 201.0 509.7Q200.8 510.1 200.8 510.6L200.8 510.6L200.8 520.1L196.6 520.1ZM227.6 520.1L225.2 520.1Q223.9 520.1 223.2 519.4Q222.4 518.8 222.2 517.5L222.2 517.5L222.1 517.5Q221.7 519.0 220.5 519.7Q219.4 520.4 217.7 520.4L217.7 520.4Q215.6 520.4 214.3 519.3Q213.1 518.2 213.1 516.1L213.1 516.1Q213.1 513.8 214.7 512.8Q216.4 511.7 219.6 511.7L219.6 511.7L221.9 511.7L221.9 510.9Q221.9 509.6 221.3 509.0Q220.7 508.3 219.2 508.3L219.2 508.3Q217.9 508.3 217.1 508.8Q216.3 509.3 215.7 510.2L215.7 510.2L213.4 508.1Q214.2 506.9 215.7 506.1Q217.3 505.3 219.7 505.3L219.7 505.3Q222.7 505.3 224.4 506.7Q226.0 508.0 226.0 510.8L226.0 510.8L226.0 517.1L227.6 517.1L227.6 520.1ZM219.3 517.7L219.3 517.7Q220.4 517.7 221.1 517.2Q221.9 516.6 221.9 515.6L221.9 515.6L221.9 513.9L219.7 513.9Q217.1 513.9 217.1 515.6L217.1 515.6L217.1 516.2Q217.1 516.9 217.7 517.3Q218.3 517.7 219.3 517.7ZM234.4 520.1L230.2 520.1L230.2 505.6L234.4 505.6L234.4 508.3L234.5 508.3Q234.8 507.7 235.1 507.1Q235.5 506.6 236.0 506.2Q236.5 505.8 237.2 505.5Q237.9 505.3 238.8 505.3L238.8 505.3Q239.8 505.3 240.7 505.7Q241.6 506.0 242.2 506.7Q242.8 507.4 243.1 508.4Q243.5 509.4 243.5 510.7L243.5 510.7L243.5 520.1L239.3 520.1L239.3 511.3Q239.3 508.5 236.9 508.5L236.9 508.5Q236.4 508.5 236.0 508.6Q235.5 508.8 235.1 509.0Q234.8 509.3 234.6 509.7Q234.4 510.1 234.4 510.6L234.4 510.6L234.4 520.1ZM261.5 521.5L261.5 521.5Q261.5 523.8 259.6 524.9Q257.7 526.0 253.5 526.0L253.5 526.0Q251.4 526.0 250.1 525.8Q248.8 525.6 248.0 525.1Q247.2 524.7 246.8 524.0Q246.5 523.4 246.5 522.7L246.5 522.7Q246.5 521.5 247.2 520.8Q248.0 520.2 249.3 519.9L249.3 519.9L249.3 519.7Q248.4 519.4 247.8 518.9Q247.3 518.4 247.3 517.4L247.3 517.4Q247.3 516.4 248.0 515.9Q248.7 515.4 249.9 515.1L249.9 515.1L249.9 514.9Q248.6 514.3 247.9 513.2Q247.2 512.1 247.2 510.5L247.2 510.5Q247.2 509.2 247.6 508.2Q248.1 507.3 248.9 506.6Q249.7 506.0 250.9 505.6Q252.0 505.3 253.4 505.3L253.4 505.3Q254.8 505.3 256.0 505.6L256.0 505.6L256.0 504.8Q256.0 504.0 256.6 503.4Q257.2 502.9 258.2 502.9L258.2 502.9L260.7 502.9L260.7 505.9L257.3 505.9L257.3 506.1Q258.4 506.8 259.1 507.8Q259.8 508.9 259.8 510.5L259.8 510.5Q259.8 511.7 259.3 512.7Q258.9 513.6 258.0 514.3Q257.2 514.9 256.0 515.3Q254.9 515.6 253.4 515.6L253.4 515.6Q252.8 515.6 252.2 515.5Q251.6 515.5 251.1 515.3L251.1 515.3Q250.8 515.5 250.6 515.8Q250.4 516.0 250.4 516.4L250.4 516.4Q250.4 516.7 250.5 516.9Q250.7 517.1 251.0 517.2Q251.3 517.3 251.7 517.3Q252.1 517.4 252.5 517.4L252.5 517.4L255.8 517.4Q257.3 517.4 258.4 517.7Q259.5 518.0 260.2 518.6Q260.9 519.1 261.2 519.9Q261.5 520.6 261.5 521.5ZM257.6 521.9L257.6 521.9Q257.6 521.3 257.2 521.0Q256.7 520.7 255.4 520.7L255.4 520.7L250.5 520.7Q249.9 521.1 249.9 521.8L249.9 521.8Q249.9 522.5 250.5 522.9Q251.1 523.4 252.5 523.4L252.5 523.4L254.9 523.4Q256.3 523.4 257.0 523.0Q257.6 522.6 257.6 521.9ZM253.4 513.0L253.4 513.0Q254.7 513.0 255.3 512.4Q255.8 511.7 255.8 510.8L255.8 510.8L255.8 510.1Q255.8 509.2 255.3 508.6Q254.7 507.9 253.4 507.9L253.4 507.9Q252.2 507.9 251.6 508.6Q251.1 509.2 251.1 510.1L251.1 510.1L251.1 510.8Q251.1 511.7 251.6 512.4Q252.2 513.0 253.4 513.0ZM263.9 520.1L263.9 516.9L268.3 516.9L268.3 502.6L263.9 502.6L263.9 499.4L272.5 499.4L272.5 516.9L276.9 516.9L276.9 520.1L263.9 520.1ZM289.6 520.1L289.6 517.5L289.5 517.5Q289.0 518.7 288.0 519.6Q286.9 520.4 285.2 520.4L285.2 520.4Q284.2 520.4 283.3 520.1Q282.4 519.7 281.8 519.0Q281.2 518.3 280.9 517.3Q280.5 516.3 280.5 515.0L280.5 515.0L280.5 505.6L284.7 505.6L284.7 514.4Q284.7 517.2 287.1 517.2L287.1 517.2Q287.6 517.2 288.0 517.1Q288.5 517.0 288.8 516.7Q289.2 516.5 289.4 516.1Q289.6 515.7 289.6 515.1L289.6 515.1L289.6 505.6L293.8 505.6L293.8 520.1L289.6 520.1ZM301.6 520.1L297.4 520.1L297.4 505.6L301.6 505.6L301.6 508.3L301.7 508.3Q302.0 507.7 302.3 507.1Q302.7 506.6 303.2 506.2Q303.7 505.8 304.4 505.5Q305.1 505.3 306.0 505.3L306.0 505.3Q307.0 505.3 307.9 505.7Q308.8 506.0 309.4 506.7Q310.0 507.4 310.3 508.4Q310.7 509.4 310.7 510.7L310.7 510.7L310.7 520.1L306.5 520.1L306.5 511.3Q306.5 508.5 304.1 508.5L304.1 508.5Q303.6 508.5 303.2 508.6Q302.7 508.8 302.3 509.0Q302.0 509.3 301.8 509.7Q301.6 510.1 301.6 510.6L301.6 510.6L301.6 520.1Z " clip-path="url(#satori_cp-id-1-0-1-0-2)" mask="url(#satori_om-id-1-0-1-0-2)"/><clipPath id="satori_cp-id-1-0-1-1"><rect x="786" y="489" width="286" height="36"/></clipPath><mask id="satori_om-id-1-0-1-1"><rect x="786" y="489" width="286" height="36" fill="#fff"/></mask><path fill="black" d="M802.7 520.1L798.2 520.1L796.9 515.4L791.6 515.4L790.4 520.1L786.1 520.1L791.4 500.5L797.4 500.5L802.7 520.1ZM796.3 512.0L794.4 504.6L794.2 504.6L792.3 512.0L796.3 512.0ZM811.0 520.4L811.0 520.4Q808.6 520.4 806.8 519.7Q805.1 519.0 804.2 517.7L804.2 517.7L806.5 515.6Q807.3 516.5 808.5 517.0Q809.6 517.5 811.1 517.5L811.1 517.5Q812.3 517.5 813.0 517.1Q813.7 516.8 813.7 516.0L813.7 516.0Q813.7 515.4 813.2 515.1Q812.7 514.9 811.9 514.7L811.9 514.7L809.6 514.4Q808.6 514.2 807.8 513.9Q806.9 513.7 806.3 513.1Q805.7 512.6 805.3 511.9Q805.0 511.2 805.0 510.2L805.0 510.2Q805.0 507.9 806.7 506.6Q808.4 505.3 811.6 505.3L811.6 505.3Q813.7 505.3 815.2 505.9Q816.7 506.5 817.6 507.5L817.6 507.5L815.5 509.9Q814.9 509.2 813.9 508.7Q812.9 508.2 811.4 508.2L811.4 508.2Q809.0 508.2 809.0 509.7L809.0 509.7Q809.0 510.3 809.5 510.6Q810.0 510.8 810.8 510.9L810.8 510.9L813.1 511.3Q814.1 511.4 814.9 511.7Q815.8 512.0 816.4 512.5Q817.0 513.0 817.4 513.8Q817.8 514.5 817.8 515.5L817.8 515.5Q817.8 517.8 816.0 519.1Q814.3 520.4 811.0 520.4ZM834.5 520.1L829.1 520.1Q826.9 520.1 825.8 518.9Q824.7 517.7 824.7 515.9L824.7 515.9L824.7 508.9L820.8 508.9L820.8 505.6L823.3 505.6Q824.2 505.6 824.6 505.3Q825.0 504.9 825.0 503.9L825.0 503.9L825.0 500.5L828.8 500.5L828.8 505.6L834.5 505.6L834.5 508.9L828.8 508.9L828.8 516.9L834.5 516.9L834.5 520.1ZM838.5 520.1L838.5 516.9L841.8 516.9L841.8 508.9L838.5 508.9L838.5 505.6L845.9 505.6L845.9 509.7L846.1 509.7Q846.3 508.9 846.7 508.2Q847.0 507.5 847.6 506.9Q848.1 506.3 848.9 506.0Q849.7 505.6 850.8 505.6L850.8 505.6L852.1 505.6L852.1 509.5L849.1 509.5Q847.5 509.5 846.7 510.4Q845.9 511.3 845.9 512.6L845.9 512.6L845.9 516.9L850.7 516.9L850.7 520.1L838.5 520.1ZM861.6 520.4L861.6 520.4Q859.9 520.4 858.6 519.9Q857.2 519.4 856.3 518.4Q855.4 517.4 854.9 516.0Q854.3 514.6 854.3 512.9L854.3 512.9Q854.3 511.1 854.9 509.7Q855.4 508.3 856.3 507.3Q857.2 506.3 858.6 505.8Q859.9 505.3 861.6 505.3L861.6 505.3Q863.3 505.3 864.6 505.8Q866.0 506.3 866.9 507.3Q867.8 508.3 868.3 509.7Q868.9 511.1 868.9 512.9L868.9 512.9Q868.9 514.6 868.3 516.0Q867.8 517.4 866.9 518.4Q866.0 519.4 864.6 519.9Q863.3 520.4 861.6 520.4ZM861.6 517.3L861.6 517.3Q863.0 517.3 863.8 516.5Q864.6 515.6 864.6 514.0L864.6 514.0L864.6 511.7Q864.6 510.1 863.8 509.3Q863.0 508.4 861.6 508.4L861.6 508.4Q860.2 508.4 859.4 509.3Q858.6 510.1 858.6 511.7L858.6 511.7L858.6 514.0Q858.6 515.6 859.4 516.5Q860.2 517.3 861.6 517.3Z M888.5 520.1L888.5 499.4L892.6 499.4L892.6 508.3L892.8 508.3Q893.3 507.0 894.3 506.1Q895.3 505.3 897.1 505.3L897.1 505.3Q898.3 505.3 899.3 505.8Q900.3 506.2 901.0 507.1Q901.7 508.1 902.1 509.5Q902.5 510.9 902.5 512.9L902.5 512.9Q902.5 514.8 902.1 516.3Q901.7 517.7 901.0 518.6Q900.3 519.5 899.3 520.0Q898.3 520.4 897.1 520.4L897.1 520.4Q895.3 520.4 894.3 519.6Q893.3 518.8 892.8 517.5L892.8 517.5L892.6 517.5L892.6 520.1L888.5 520.1ZM895.3 517.2L895.3 517.2Q896.7 517.2 897.4 516.4Q898.2 515.5 898.2 514.0L898.2 514.0L898.2 511.7Q898.2 510.2 897.4 509.4Q896.7 508.5 895.3 508.5L895.3 508.5Q894.2 508.5 893.4 509.1Q892.6 509.6 892.6 510.7L892.6 510.7L892.6 515.0Q892.6 516.1 893.4 516.7Q894.2 517.2 895.3 517.2ZM905.5 520.1L905.5 516.9L909.9 516.9L909.9 502.6L905.5 502.6L905.5 499.4L914.1 499.4L914.1 516.9L918.5 516.9L918.5 520.1L905.5 520.1ZM928.8 520.4L928.8 520.4Q927.1 520.4 925.8 519.9Q924.4 519.4 923.5 518.4Q922.6 517.4 922.1 516.0Q921.5 514.6 921.5 512.9L921.5 512.9Q921.5 511.1 922.1 509.7Q922.6 508.3 923.5 507.3Q924.4 506.3 925.8 505.8Q927.1 505.3 928.8 505.3L928.8 505.3Q930.5 505.3 931.8 505.8Q933.2 506.3 934.1 507.3Q935.0 508.3 935.5 509.7Q936.1 511.1 936.1 512.9L936.1 512.9Q936.1 514.6 935.5 516.0Q935.0 517.4 934.1 518.4Q933.2 519.4 931.8 519.9Q930.5 520.4 928.8 520.4ZM928.8 517.3L928.8 517.3Q930.2 517.3 931.0 516.5Q931.8 515.6 931.8 514.0L931.8 514.0L931.8 511.7Q931.8 510.1 931.0 509.3Q930.2 508.4 928.8 508.4L928.8 508.4Q927.4 508.4 926.6 509.3Q925.8 510.1 925.8 511.7L925.8 511.7L925.8 514.0Q925.8 515.6 926.6 516.5Q927.4 517.3 928.8 517.3ZM953.5 521.5L953.5 521.5Q953.5 523.8 951.6 524.9Q949.7 526.0 945.5 526.0L945.5 526.0Q943.4 526.0 942.1 525.8Q940.8 525.6 940.0 525.1Q939.2 524.7 938.8 524.0Q938.5 523.4 938.5 522.7L938.5 522.7Q938.5 521.5 939.2 520.8Q940.0 520.2 941.3 519.9L941.3 519.9L941.3 519.7Q940.4 519.4 939.8 518.9Q939.3 518.4 939.3 517.4L939.3 517.4Q939.3 516.4 940.0 515.9Q940.7 515.4 941.9 515.1L941.9 515.1L941.9 514.9Q940.6 514.3 939.9 513.2Q939.2 512.1 939.2 510.5L939.2 510.5Q939.2 509.2 939.6 508.2Q940.1 507.3 940.9 506.6Q941.7 506.0 942.9 505.6Q944.0 505.3 945.4 505.3L945.4 505.3Q946.8 505.3 948.0 505.6L948.0 505.6L948.0 504.8Q948.0 504.0 948.6 503.4Q949.2 502.9 950.2 502.9L950.2 502.9L952.7 502.9L952.7 505.9L949.3 505.9L949.3 506.1Q950.4 506.8 951.1 507.8Q951.8 508.9 951.8 510.5L951.8 510.5Q951.8 511.7 951.3 512.7Q950.9 513.6 950.0 514.3Q949.2 514.9 948.0 515.3Q946.9 515.6 945.4 515.6L945.4 515.6Q944.8 515.6 944.2 515.5Q943.6 515.5 943.1 515.3L943.1 515.3Q942.8 515.5 942.6 515.8Q942.4 516.0 942.4 516.4L942.4 516.4Q942.4 516.7 942.5 516.9Q942.7 517.1 943.0 517.2Q943.3 517.3 943.7 517.3Q944.1 517.4 944.5 517.4L944.5 517.4L947.8 517.4Q949.3 517.4 950.4 517.7Q951.5 518.0 952.2 518.6Q952.9 519.1 953.2 519.9Q953.5 520.6 953.5 521.5ZM949.6 521.9L949.6 521.9Q949.6 521.3 949.2 521.0Q948.7 520.7 947.4 520.7L947.4 520.7L942.5 520.7Q941.9 521.1 941.9 521.8L941.9 521.8Q941.9 522.5 942.5 522.9Q943.1 523.4 944.5 523.4L944.5 523.4L946.9 523.4Q948.3 523.4 949.0 523.0Q949.6 522.6 949.6 521.9ZM945.4 513.0L945.4 513.0Q946.7 513.0 947.3 512.4Q947.8 511.7 947.8 510.8L947.8 510.8L947.8 510.1Q947.8 509.2 947.3 508.6Q946.7 507.9 945.4 507.9L945.4 507.9Q944.2 507.9 943.6 508.6Q943.1 509.2 943.1 510.1L943.1 510.1L943.1 510.8Q943.1 511.7 943.6 512.4Q944.2 513.0 945.4 513.0Z M972.8 520.1L972.8 516.9L977.0 516.9L977.0 508.9L972.5 508.9L972.5 505.6L977.0 505.6L977.0 503.5Q977.0 501.7 978.1 500.5Q979.2 499.4 981.5 499.4L981.5 499.4L986.4 499.4L986.4 502.6L981.2 502.6L981.2 505.6L986.4 505.6L986.4 508.9L981.2 508.9L981.2 516.9L985.7 516.9L985.7 520.1L972.8 520.1ZM1003.6 520.1L1001.2 520.1Q999.9 520.1 999.2 519.4Q998.4 518.8 998.2 517.5L998.2 517.5L998.1 517.5Q997.7 519.0 996.5 519.7Q995.4 520.4 993.7 520.4L993.7 520.4Q991.6 520.4 990.3 519.3Q989.1 518.2 989.1 516.1L989.1 516.1Q989.1 513.8 990.7 512.8Q992.4 511.7 995.6 511.7L995.6 511.7L997.9 511.7L997.9 510.9Q997.9 509.6 997.3 509.0Q996.7 508.3 995.2 508.3L995.2 508.3Q993.9 508.3 993.1 508.8Q992.3 509.3 991.7 510.2L991.7 510.2L989.4 508.1Q990.2 506.9 991.7 506.1Q993.3 505.3 995.7 505.3L995.7 505.3Q998.7 505.3 1000.4 506.7Q1002.0 508.0 1002.0 510.8L1002.0 510.8L1002.0 517.1L1003.6 517.1L1003.6 520.1ZM995.3 517.7L995.3 517.7Q996.4 517.7 997.1 517.2Q997.9 516.6 997.9 515.6L997.9 515.6L997.9 513.9L995.7 513.9Q993.1 513.9 993.1 515.6L993.1 515.6L993.1 516.2Q993.1 516.9 993.7 517.3Q994.3 517.7 995.3 517.7ZM1013.4 520.4L1013.4 520.4Q1011.7 520.4 1010.3 519.9Q1009.0 519.4 1008.0 518.4Q1007.1 517.4 1006.6 516.0Q1006.1 514.6 1006.1 512.9L1006.1 512.9Q1006.1 511.1 1006.6 509.7Q1007.1 508.3 1008.0 507.3Q1009.0 506.3 1010.3 505.8Q1011.7 505.3 1013.4 505.3L1013.4 505.3Q1015.7 505.3 1017.2 506.3Q1018.6 507.2 1019.4 508.8L1019.4 508.8L1016.2 510.6Q1015.8 509.7 1015.2 509.2Q1014.5 508.6 1013.4 508.6L1013.4 508.6Q1011.9 508.6 1011.2 509.4Q1010.4 510.3 1010.4 511.7L1010.4 511.7L1010.4 514.0Q1010.4 515.5 1011.2 516.3Q1011.9 517.1 1013.4 517.1L1013.4 517.1Q1014.6 517.1 1015.3 516.6Q1016.0 516.0 1016.5 515.1L1016.5 515.1L1019.6 516.9Q1018.8 518.5 1017.3 519.5Q1015.8 520.4 1013.4 520.4ZM1030.5 503.8L1030.5 503.8Q1029.1 503.8 1028.5 503.2Q1028.0 502.6 1028.0 501.8L1028.0 501.8L1028.0 501.0Q1028.0 500.2 1028.5 499.6Q1029.1 499.1 1030.5 499.1L1030.5 499.1Q1031.9 499.1 1032.4 499.6Q1033.0 500.2 1033.0 501.0L1033.0 501.0L1033.0 501.8Q1033.0 502.6 1032.4 503.2Q1031.9 503.8 1030.5 503.8ZM1023.8 520.1L1023.8 516.9L1028.4 516.9L1028.4 508.9L1023.8 508.9L1023.8 505.6L1032.6 505.6L1032.6 516.9L1036.8 516.9L1036.8 520.1L1023.8 520.1ZM1039.9 520.1L1039.9 516.9L1044.3 516.9L1044.3 502.6L1039.9 502.6L1039.9 499.4L1048.5 499.4L1048.5 516.9L1052.9 516.9L1052.9 520.1L1039.9 520.1ZM1063.6 520.4L1063.6 520.4Q1060.0 520.4 1058.1 518.4Q1056.2 516.4 1056.2 512.9L1056.2 512.9Q1056.2 511.2 1056.7 509.7Q1057.2 508.3 1058.1 507.3Q1059.0 506.3 1060.3 505.8Q1061.6 505.3 1063.2 505.3L1063.2 505.3Q1064.9 505.3 1066.1 505.8Q1067.4 506.3 1068.3 507.3Q1069.2 508.2 1069.7 509.6Q1070.2 511.0 1070.2 512.6L1070.2 512.6L1070.2 513.9L1060.3 513.9L1060.3 514.1Q1060.3 515.5 1061.2 516.4Q1062.1 517.2 1063.7 517.2L1063.7 517.2Q1065.0 517.2 1065.9 516.7Q1066.9 516.3 1067.5 515.4L1067.5 515.4L1069.8 517.9Q1068.9 518.9 1067.4 519.7Q1065.9 520.4 1063.6 520.4ZM1063.3 508.3L1063.3 508.3Q1061.9 508.3 1061.1 509.1Q1060.3 509.9 1060.3 511.3L1060.3 511.3L1060.3 511.6L1066.1 511.6L1066.1 511.3Q1066.1 509.9 1065.4 509.1Q1064.6 508.3 1063.3 508.3Z " clip-path="url(#satori_cp-id-1-0-1-1)" mask="url(#satori_om-id-1-0-1-1)"/></svg>