<svg width="1200" height="630" viewBox="0 0 1200 630" xmlns="http://www.w3.org/2000/svg"><rect x="0" y="0" width="1200" height="630" fill="#fefbfb"/><defs><clipPath id="satori_bc-id-0"><path x="105" y="39" width="1056" height="504" d="M109,39 h1048 a4,4 0 0 1 4,4 v496 a4,4 0 0 1 -4,4 h-1048 a4,4 0 0 1 -4,-4 v-496 a4,4 0 0 1 4,-4"/></clipPath></defs><g opacity="0.9"><path x="105" y="39" width="1056" height="504" fill="#ecebeb" d="M109,39 h1048 a4,4 0 0 1 4,4 v496 a4,4 0 0 1 -4,4 h-1048 a4,4 0 0 1 -4,-4 v-496 a4,4 0 0 1 4,-4"/><path width="1056" height="504" clip-path="url(#satori_bc-id-0)" fill="none" stroke="#000" stroke-width="8" d="M106.172,40.172 A4,4 0 0 1 109,39 h1048 a4,4 0 0 1 4,4 v496 a4,4 0 0 1 -4,4 h-1048 a4,4 0 0 1 -4,-4 v-496 A4,4 0 0 1 106.172,40.172"/></g><defs><clipPath id="satori_bc-id-1"><path x="72" y="63" width="1056" height="504" d="M76,63 h1048 a4,4 0 0 1 4,4 v496 a4,4 0 0 1 -4,4 h-1048 a4,4 0 0 1 -4,-4 v-496 a4,4 0 0 1 4,-4"/></clipPath></defs><path x="72" y="63" width="1056" height="504" fill="#fefbfb" d="M76,63 h1048 a4,4 0 0 1 4,4 v496 a4,4 0 0 1 -4,4 h-1048 a4,4 0 0 1 -4,-4 v-496 a4,4 0 0 1 4,-4"/><path width="1056" height="504" clip-path="url(#satori_bc-id-1)" fill="none" stroke="#000" stroke-width="8" d="M73.172,64.172 A4,4 0 0 1 76,63 h1048 a4,4 0 0 1 4,4 v496 a4,4 0 0 1 -4,4 h-1048 a4,4 0 0 1 -4,-4 v-496 A4,4 0 0 1 73.172,64.172"/><clipPath id="satori_cp-id-1-0-0"><rect x="128" y="103" width="944" height="281"/></clipPath><mask id="satori_om-id-1-0-0"><rect x="128" y="103" width="944" height="281" fill="#fff"/></mask><path fill="black" d="M168.9 183.0L130.3 183.0L130.3 126.8L168.9 126.8L168.9 183.0ZM137.5 134.0L137.5 175.8L161.7 175.8L161.7 134.0L137.5 134.0ZM212.1 183.0L173.5 183.0L173.5 126.8L212.1 126.8L212.1 183.0ZM180.7 134.0L180.7 175.8L204.9 175.8L204.9 134.0L180.7 134.0ZM255.3 183.0L216.7 183.0L216.7 126.8L255.3 126.8L255.3 183.0ZM223.9 134.0L223.9 175.8L248.1 175.8L248.1 134.0L223.9 134.0ZM280.4 183.8L280.4 183.8Q270.3 183.8 265.4 177.0Q260.6 170.2 260.6 157.8L260.6 157.8Q260.6 145.4 265.4 138.6Q270.3 131.8 280.4 131.8L280.4 131.8Q284.2 131.8 287.2 132.9Q290.2 133.9 292.4 135.8Q294.5 137.7 295.9 140.3Q297.3 143.0 298.1 146.3L298.1 146.3L288.1 148.8Q287.6 147.0 287.0 145.4Q286.5 143.9 285.6 142.8Q284.7 141.8 283.3 141.2Q282.0 140.5 280.1 140.5L280.1 140.5Q275.7 140.5 273.9 144.0Q272.1 147.4 272.1 153.4L272.1 153.4L272.1 162.2Q272.1 168.3 273.9 171.7Q275.7 175.1 280.1 175.1L280.1 175.1Q283.9 175.1 285.6 172.8Q287.3 170.5 288.1 166.9L288.1 166.9L298.1 169.3Q297.3 172.7 295.9 175.3Q294.5 178.0 292.4 179.9Q290.2 181.8 287.2 182.8Q284.2 183.8 280.4 183.8ZM321.6 183.8L321.6 183.8Q315.3 183.8 310.6 181.7Q305.9 179.6 303.0 176.0L303.0 176.0L309.3 169.1Q312.0 172.2 315.3 173.6Q318.6 175.0 322.0 175.0L322.0 175.0Q325.9 175.0 327.9 173.3Q329.9 171.6 329.9 168.3L329.9 168.3Q329.9 165.7 328.3 164.3Q326.8 162.9 323.1 162.4L323.1 162.4L317.9 161.5Q311.1 160.3 308.1 156.5Q305.0 152.6 305.0 147.1L305.0 147.1Q305.0 139.8 309.8 135.8Q314.6 131.8 323.1 131.8L323.1 131.8Q329.0 131.8 333.3 133.6Q337.6 135.4 340.3 138.5L340.3 138.5L334.1 145.4Q332.1 143.1 329.4 141.9Q326.6 140.6 323.2 140.6L323.2 140.6Q315.9 140.6 315.9 146.6L315.9 146.6Q315.9 149.2 317.5 150.5Q319.2 151.8 322.8 152.4L322.8 152.4L328.1 153.4Q334.2 154.4 337.5 158.0Q340.8 161.5 340.8 167.5L340.8 167.5Q340.8 171.0 339.6 174.0Q338.4 177.0 335.9 179.2Q333.5 181.4 329.9 182.6Q326.4 183.8 321.6 183.8ZM364.8 183.8L364.8 183.8Q358.5 183.8 353.8 181.7Q349.1 179.6 346.2 176.0L346.2 176.0L352.5 169.1Q355.2 172.2 358.5 173.6Q361.8 175.0 365.2 175.0L365.2 175.0Q369.1 175.0 371.1 173.3Q373.1 171.6 373.1 168.3L373.1 168.3Q373.1 165.7 371.5 164.3Q370.0 162.9 366.3 162.4L366.3 162.4L361.1 161.5Q354.3 160.3 351.3 156.5Q348.2 152.6 348.2 147.1L348.2 147.1Q348.2 139.8 353.0 135.8Q357.8 131.8 366.3 131.8L366.3 131.8Q372.2 131.8 376.5 133.6Q380.8 135.4 383.5 138.5L383.5 138.5L377.3 145.4Q375.3 143.1 372.6 141.9Q369.8 140.6 366.4 140.6L366.4 140.6Q359.1 140.6 359.1 146.6L359.1 146.6Q359.1 149.2 360.7 150.5Q362.4 151.8 366.0 152.4L366.0 152.4L371.3 153.4Q377.4 154.4 380.7 158.0Q384.0 161.5 384.0 167.5L384.0 167.5Q384.0 171.0 382.8 174.0Q381.6 177.0 379.1 179.2Q376.7 181.4 373.1 182.6Q369.6 183.8 364.8 183.8Z M460.0 183.0L460.0 175.8L459.3 175.8Q458.7 177.4 457.8 178.8Q456.8 180.3 455.5 181.4Q454.1 182.5 452.3 183.2Q450.4 183.8 448.1 183.8L448.1 183.8Q444.4 183.8 441.6 182.1Q438.8 180.4 436.8 177.0Q434.9 173.7 433.9 169.0Q432.9 164.2 432.9 158.3L432.9 158.3Q432.9 145.4 437.6 138.6Q442.3 131.8 452.1 131.8L452.1 131.8Q456.0 131.8 458.9 132.9Q461.9 133.9 464.0 135.8Q466.1 137.7 467.5 140.4Q468.8 143.1 469.6 146.3L469.6 146.3L459.6 148.8Q459.1 147.2 458.6 145.7Q458.0 144.2 457.2 143.1Q456.3 141.9 455.0 141.2Q453.7 140.5 451.9 140.5L451.9 140.5Q447.8 140.5 446.1 143.9Q444.4 147.3 444.4 153.4L444.4 153.4L444.4 161.6Q444.4 167.8 446.2 171.4Q448.0 175.1 452.7 175.1L452.7 175.1Q456.4 175.1 458.2 172.9Q460.0 170.8 460.0 167.4L460.0 167.4L460.0 163.7L451.4 163.7L451.4 156.1L469.6 156.1L469.6 183.0L460.0 183.0ZM478.9 183.0L478.9 174.7L487.5 174.7L487.5 154.1L478.9 154.1L478.9 145.8L498.2 145.8L498.2 156.3L498.7 156.3Q499.2 154.3 500.1 152.4Q501.0 150.5 502.4 149.0Q503.8 147.5 505.8 146.7Q507.8 145.8 510.5 145.8L510.5 145.8L514.1 145.8L514.1 155.6L506.1 155.6Q502.2 155.6 500.2 157.9Q498.2 160.3 498.2 163.7L498.2 163.7L498.2 174.7L510.4 174.7L510.4 183.0L478.9 183.0ZM540.7 141.0L540.7 141.0Q537.1 141.0 535.7 139.6Q534.3 138.1 534.3 136.0L534.3 136.0L534.3 133.9Q534.3 131.8 535.7 130.3Q537.1 128.9 540.7 128.9L540.7 128.9Q544.3 128.9 545.7 130.3Q547.1 131.8 547.1 133.9L547.1 133.9L547.1 136.0Q547.1 138.1 545.7 139.6Q544.3 141.0 540.7 141.0ZM523.6 183.0L523.6 174.7L535.4 174.7L535.4 154.1L523.6 154.1L523.6 145.8L546.0 145.8L546.0 174.7L557.0 174.7L557.0 183.0L523.6 183.0ZM588.3 183.0L588.3 176.2L587.8 176.2Q586.4 179.6 583.8 181.7Q581.2 183.8 576.8 183.8L576.8 183.8Q573.7 183.8 571.1 182.7Q568.6 181.5 566.7 179.1Q564.9 176.8 563.9 173.1Q562.8 169.4 562.8 164.4L562.8 164.4Q562.8 159.3 563.9 155.7Q564.9 152.0 566.7 149.6Q568.6 147.2 571.1 146.1Q573.7 144.9 576.8 144.9L576.8 144.9Q579.0 144.9 580.7 145.5Q582.5 146.1 583.8 147.1Q585.1 148.1 586.1 149.5Q587.1 150.9 587.8 152.6L587.8 152.6L588.3 152.6L588.3 129.7L599.0 129.7L599.0 183.0L588.3 183.0ZM581.4 175.5L581.4 175.5Q584.2 175.5 586.2 174.2Q588.3 172.8 588.3 169.8L588.3 169.8L588.3 158.9Q588.3 156.0 586.2 154.6Q584.2 153.2 581.4 153.2L581.4 153.2Q577.8 153.2 575.8 155.4Q573.9 157.6 573.9 161.5L573.9 161.5L573.9 167.3Q573.9 171.1 575.8 173.3Q577.8 175.5 581.4 175.5ZM615.4 193.8L619.5 170.4L633.2 170.4L623.4 193.8L615.4 193.8Z M706.2 183.0L695.4 183.0L695.4 132.7L728.7 132.7L728.7 141.6L706.2 141.6L706.2 153.1L726.3 153.1L726.3 161.9L706.2 161.9L706.2 183.0ZM737.7 183.0L737.7 174.7L749.1 174.7L749.1 138.0L737.7 138.0L737.7 129.7L759.7 129.7L759.7 174.7L771.1 174.7L771.1 183.0L737.7 183.0ZM798.6 183.8L798.6 183.8Q789.2 183.8 784.4 178.6Q779.6 173.4 779.6 164.5L779.6 164.5Q779.6 160.0 780.9 156.3Q782.1 152.7 784.5 150.2Q786.8 147.6 790.1 146.3Q793.5 144.9 797.7 144.9L797.7 144.9Q801.8 144.9 805.2 146.3Q808.5 147.6 810.8 150.0Q813.1 152.5 814.3 156.0Q815.6 159.5 815.6 163.8L815.6 163.8L815.6 167.0L790.2 167.0L790.2 167.6Q790.2 171.2 792.4 173.4Q794.6 175.6 799.0 175.6L799.0 175.6Q802.3 175.6 804.7 174.3Q807.0 173.1 808.8 171.0L808.8 171.0L814.5 177.3Q812.4 179.9 808.5 181.9Q804.6 183.8 798.6 183.8ZM797.7 152.6L797.7 152.6Q794.3 152.6 792.2 154.7Q790.2 156.8 790.2 160.4L790.2 160.4L790.2 161.0L805.2 161.0L805.2 160.4Q805.2 156.7 803.2 154.7Q801.2 152.6 797.7 152.6ZM832.1 183.0L820.9 183.0L834.8 164.1L821.8 145.8L834.0 145.8L837.9 151.8L840.9 156.6L841.5 156.6L844.6 151.8L848.6 145.8L859.8 145.8L846.8 163.5L860.7 183.0L848.5 183.0L843.8 176.0L840.6 171.0L840.0 171.0L836.8 176.0L832.1 183.0ZM866.6 183.0L866.6 129.7L877.3 129.7L877.3 152.6L877.8 152.6Q879.2 149.3 881.8 147.1Q884.4 144.9 888.8 144.9L888.8 144.9Q891.9 144.9 894.5 146.1Q897.0 147.2 898.9 149.6Q900.7 152.0 901.7 155.7Q902.8 159.3 902.8 164.4L902.8 164.4Q902.8 169.4 901.7 173.1Q900.7 176.8 898.9 179.1Q897.0 181.5 894.5 182.7Q891.9 183.8 888.8 183.8L888.8 183.8Q884.4 183.8 881.8 181.7Q879.2 179.6 877.8 176.2L877.8 176.2L877.3 176.2L877.3 183.0L866.6 183.0ZM884.2 175.5L884.2 175.5Q887.8 175.5 889.8 173.3Q891.7 171.1 891.7 167.3L891.7 167.3L891.7 161.5Q891.7 157.6 889.8 155.4Q887.8 153.2 884.2 153.2L884.2 153.2Q881.4 153.2 879.4 154.6Q877.3 156.0 877.3 158.9L877.3 158.9L877.3 169.8Q877.3 172.8 879.4 174.2Q881.4 175.5 884.2 175.5ZM927.2 183.8L927.2 183.8Q922.9 183.8 919.4 182.5Q916.0 181.2 913.6 178.6Q911.1 176.1 909.8 172.5Q908.6 168.9 908.6 164.4L908.6 164.4Q908.6 159.8 909.8 156.2Q911.1 152.6 913.6 150.1Q916.0 147.6 919.4 146.3Q922.9 144.9 927.2 144.9L927.2 144.9Q931.5 144.9 935.0 146.3Q938.4 147.6 940.8 150.1Q943.3 152.6 944.6 156.2Q945.8 159.8 945.8 164.4L945.8 164.4Q945.8 168.9 944.6 172.5Q943.3 176.1 940.8 178.6Q938.4 181.2 935.0 182.5Q931.5 183.8 927.2 183.8ZM927.2 175.9L927.2 175.9Q930.8 175.9 932.8 173.7Q934.8 171.4 934.8 167.3L934.8 167.3L934.8 161.4Q934.8 157.3 932.8 155.1Q930.8 152.9 927.2 152.9L927.2 152.9Q923.6 152.9 921.6 155.1Q919.6 157.3 919.6 161.4L919.6 161.4L919.6 167.3Q919.6 171.4 921.6 173.7Q923.6 175.9 927.2 175.9ZM961.7 183.0L950.5 183.0L964.4 164.1L951.4 145.8L963.6 145.8L967.5 151.8L970.5 156.6L971.1 156.6L974.2 151.8L978.2 145.8L989.4 145.8L976.4 163.5L990.3 183.0L978.1 183.0L973.4 176.0L970.2 171.0L969.6 171.0L966.4 176.0L961.7 183.0Z M168.9 276.6L130.3 276.6L130.3 220.4L168.9 220.4L168.9 276.6ZM137.5 227.6L137.5 269.4L161.7 269.4L161.7 227.6L137.5 227.6Z M219.9 276.6L219.9 226.3L237.6 226.3Q245.0 226.3 248.9 229.9Q252.8 233.5 252.8 239.7L252.8 239.7Q252.8 244.0 250.7 246.6Q248.6 249.1 244.6 250.3L244.6 250.3L244.6 250.7Q249.3 251.9 251.9 254.7Q254.4 257.6 254.4 262.7L254.4 262.7Q254.4 269.1 250.4 272.8Q246.4 276.6 239.2 276.6L239.2 276.6L219.9 276.6ZM230.5 269.0L235.9 269.0Q239.8 269.0 241.6 267.7Q243.4 266.4 243.4 262.9L243.4 262.9L243.4 260.9Q243.4 257.4 241.6 256.1Q239.8 254.8 235.9 254.8L235.9 254.8L230.5 254.8L230.5 269.0ZM230.5 247.6L234.6 247.6Q238.4 247.6 240.1 246.3Q241.8 245.1 241.8 241.8L241.8 241.8L241.8 239.6Q241.8 236.3 240.1 235.1Q238.4 233.9 234.6 233.9L234.6 233.9L230.5 233.9L230.5 247.6ZM279.2 277.4L279.2 277.4Q274.9 277.4 271.4 276.1Q268.0 274.8 265.6 272.2Q263.1 269.7 261.8 266.1Q260.6 262.5 260.6 258.0L260.6 258.0Q260.6 253.4 261.8 249.8Q263.1 246.2 265.6 243.7Q268.0 241.2 271.4 239.9Q274.9 238.5 279.2 238.5L279.2 238.5Q283.5 238.5 287.0 239.9Q290.4 241.2 292.8 243.7Q295.3 246.2 296.6 249.8Q297.8 253.4 297.8 258.0L297.8 258.0Q297.8 262.5 296.6 266.1Q295.3 269.7 292.8 272.2Q290.4 274.8 287.0 276.1Q283.5 277.4 279.2 277.4ZM279.2 269.5L279.2 269.5Q282.8 269.5 284.8 267.3Q286.8 265.0 286.8 260.9L286.8 260.9L286.8 255.0Q286.8 250.9 284.8 248.7Q282.8 246.5 279.2 246.5L279.2 246.5Q275.6 246.5 273.6 248.7Q271.6 250.9 271.6 255.0L271.6 255.0L271.6 260.9Q271.6 265.0 273.6 267.3Q275.6 269.5 279.2 269.5ZM313.7 276.6L302.5 276.6L316.4 257.7L303.4 239.4L315.6 239.4L319.5 245.4L322.5 250.2L323.1 250.2L326.2 245.4L330.2 239.4L341.4 239.4L328.4 257.1L342.3 276.6L330.1 276.6L325.4 269.6L322.2 264.6L321.6 264.6L318.4 269.6L313.7 276.6Z M430.0 276.6L418.5 276.6L415.4 264.5L401.6 264.5L398.5 276.6L387.6 276.6L401.2 226.3L416.4 226.3L430.0 276.6ZM413.7 255.7L408.8 236.7L408.2 236.7L403.3 255.7L413.7 255.7ZM435.3 276.6L435.3 268.3L446.7 268.3L446.7 231.6L435.3 231.6L435.3 223.3L457.3 223.3L457.3 268.3L468.7 268.3L468.7 276.6L435.3 276.6ZM497.5 234.6L497.5 234.6Q493.9 234.6 492.5 233.2Q491.1 231.7 491.1 229.6L491.1 229.6L491.1 227.5Q491.1 225.4 492.5 223.9Q493.9 222.5 497.5 222.5L497.5 222.5Q501.1 222.5 502.5 223.9Q503.9 225.4 503.9 227.5L503.9 227.5L503.9 229.6Q503.9 231.7 502.5 233.2Q501.1 234.6 497.5 234.6ZM480.4 276.6L480.4 268.3L492.2 268.3L492.2 247.7L480.4 247.7L480.4 239.4L502.8 239.4L502.8 268.3L513.8 268.3L513.8 276.6L480.4 276.6ZM558.8 280.3L558.8 280.3Q558.8 286.2 553.8 289.0Q548.8 291.8 538.2 291.8L538.2 291.8Q532.9 291.8 529.4 291.2Q525.9 290.6 523.9 289.4Q521.8 288.3 521.0 286.7Q520.2 285.1 520.2 283.2L520.2 283.2Q520.2 280.1 522.1 278.5Q523.9 276.8 527.3 276.0L527.3 276.0L527.3 275.5Q524.9 274.8 523.5 273.5Q522.1 272.2 522.1 269.7L522.1 269.7Q522.1 267.0 524.0 265.7Q525.8 264.4 528.8 263.7L528.8 263.7L528.8 263.2Q525.5 261.6 523.7 258.8Q521.8 255.9 521.8 251.8L521.8 251.8Q521.8 248.5 523.0 246.1Q524.1 243.6 526.3 241.9Q528.4 240.3 531.3 239.4Q534.3 238.5 538.0 238.5L538.0 238.5Q541.5 238.5 544.5 239.3L544.5 239.3L544.5 237.3Q544.5 235.2 546.0 233.7Q547.5 232.3 550.2 232.3L550.2 232.3L556.8 232.3L556.8 240.0L547.8 240.0L547.8 240.7Q550.9 242.3 552.5 245.1Q554.2 247.8 554.2 251.8L554.2 251.8Q554.2 255.0 553.1 257.5Q551.9 259.9 549.8 261.6Q547.6 263.3 544.6 264.2Q541.6 265.0 538.0 265.0L538.0 265.0Q536.3 265.0 534.8 264.9Q533.3 264.7 531.9 264.3L531.9 264.3Q531.1 264.7 530.6 265.4Q530.0 266.0 530.0 267.0L530.0 267.0Q530.0 267.9 530.5 268.4Q530.9 268.9 531.7 269.2Q532.4 269.4 533.4 269.5Q534.4 269.6 535.5 269.6L535.5 269.6L544.0 269.6Q548.0 269.6 550.8 270.4Q553.6 271.2 555.4 272.6Q557.2 274.0 558.0 276.0Q558.8 277.9 558.8 280.3ZM548.7 281.1L548.7 281.1Q548.7 279.6 547.5 278.8Q546.4 278.0 543.2 278.0L543.2 278.0L530.4 278.0Q529.0 279.2 529.0 281.0L529.0 281.0Q529.0 282.7 530.4 283.9Q531.9 285.0 535.4 285.0L535.4 285.0L541.7 285.0Q545.4 285.0 547.0 284.0Q548.7 283.0 548.7 281.1ZM538.0 258.3L538.0 258.3Q541.2 258.3 542.7 256.7Q544.2 255.1 544.2 252.6L544.2 252.6L544.2 250.9Q544.2 248.5 542.7 246.9Q541.2 245.3 538.0 245.3L538.0 245.3Q534.8 245.3 533.4 246.9Q531.9 248.5 531.9 250.9L531.9 250.9L531.9 252.6Q531.9 255.1 533.4 256.7Q534.8 258.3 538.0 258.3ZM575.3 276.6L564.7 276.6L564.7 239.4L575.3 239.4L575.3 246.2L575.8 246.2Q576.4 244.6 577.4 243.2Q578.3 241.8 579.6 240.8Q581.0 239.8 582.7 239.1Q584.5 238.5 586.7 238.5L586.7 238.5Q589.4 238.5 591.6 239.4Q593.8 240.3 595.4 242.1Q597.0 243.9 597.9 246.5Q598.8 249.1 598.8 252.5L598.8 252.5L598.8 276.6L588.2 276.6L588.2 253.9Q588.2 246.7 581.9 246.7L581.9 246.7Q580.7 246.7 579.5 247.1Q578.3 247.4 577.4 248.1Q576.4 248.8 575.9 249.8Q575.3 250.8 575.3 252.1L575.3 252.1L575.3 276.6ZM613.9 276.6L605.4 276.6L605.4 239.4L613.9 239.4L613.9 244.9L614.4 244.9Q615.3 242.3 616.9 240.4Q618.5 238.5 621.5 238.5L621.5 238.5Q626.9 238.5 628.1 244.9L628.1 244.9L628.5 244.9Q629.0 243.6 629.6 242.4Q630.3 241.3 631.2 240.4Q632.1 239.5 633.4 239.0Q634.7 238.5 636.5 238.5L636.5 238.5Q644.2 238.5 644.2 250.0L644.2 250.0L644.2 276.6L635.7 276.6L635.7 251.1Q635.7 248.5 634.8 247.4Q633.9 246.4 632.4 246.4L632.4 246.4Q631.1 246.4 630.1 247.3Q629.1 248.2 629.1 250.1L629.1 250.1L629.1 276.6L620.5 276.6L620.5 251.1Q620.5 248.5 619.7 247.4Q618.8 246.4 617.4 246.4L617.4 246.4Q615.9 246.4 614.9 247.3Q613.9 248.2 613.9 250.1L613.9 250.1L613.9 276.6ZM669.0 277.4L669.0 277.4Q659.6 277.4 654.8 272.2Q650.0 267.0 650.0 258.1L650.0 258.1Q650.0 253.6 651.3 249.9Q652.5 246.3 654.9 243.8Q657.2 241.2 660.5 239.9Q663.9 238.5 668.1 238.5L668.1 238.5Q672.2 238.5 675.6 239.9Q678.9 241.2 681.2 243.6Q683.5 246.1 684.7 249.6Q686.0 253.1 686.0 257.4L686.0 257.4L686.0 260.6L660.6 260.6L660.6 261.2Q660.6 264.8 662.8 267.0Q665.0 269.2 669.4 269.2L669.4 269.2Q672.7 269.2 675.1 267.9Q677.4 266.7 679.2 264.6L679.2 264.6L684.9 270.9Q682.8 273.5 678.9 275.5Q675.0 277.4 669.0 277.4ZM668.1 246.2L668.1 246.2Q664.7 246.2 662.6 248.3Q660.6 250.4 660.6 254.0L660.6 254.0L660.6 254.6L675.6 254.6L675.6 254.0Q675.6 250.3 673.6 248.3Q671.6 246.2 668.1 246.2ZM704.9 276.6L694.3 276.6L694.3 239.4L704.9 239.4L704.9 246.2L705.4 246.2Q706.0 244.6 707.0 243.2Q707.9 241.8 709.2 240.8Q710.6 239.8 712.3 239.1Q714.1 238.5 716.3 238.5L716.3 238.5Q719.0 238.5 721.2 239.4Q723.4 240.3 725.0 242.1Q726.6 243.9 727.5 246.5Q728.4 249.1 728.4 252.5L728.4 252.5L728.4 276.6L717.8 276.6L717.8 253.9Q717.8 246.7 711.5 246.7L711.5 246.7Q710.3 246.7 709.1 247.1Q707.9 247.4 707.0 248.1Q706.0 248.8 705.5 249.8Q704.9 250.8 704.9 252.1L704.9 252.1L704.9 276.6ZM771.0 276.6L757.3 276.6Q751.5 276.6 748.7 273.5Q745.9 270.5 745.9 265.8L745.9 265.8L745.9 247.7L735.8 247.7L735.8 239.4L742.4 239.4Q744.8 239.4 745.8 238.5Q746.8 237.5 746.8 235.0L746.8 235.0L746.8 226.3L756.6 226.3L756.6 239.4L771.0 239.4L771.0 247.7L756.6 247.7L756.6 268.3L771.0 268.3L771.0 276.6ZM797.6 277.4L797.6 277.4Q793.6 277.4 791.8 275.7Q790.0 273.9 790.0 271.4L790.0 271.4L790.0 268.9Q790.0 266.5 791.8 264.7Q793.6 262.9 797.6 262.9L797.6 262.9Q801.6 262.9 803.4 264.7Q805.2 266.5 805.2 268.9L805.2 268.9L805.2 271.4Q805.2 273.9 803.4 275.7Q801.6 277.4 797.6 277.4ZM797.6 253.0L797.6 253.0Q793.6 253.0 791.8 251.2Q790.0 249.5 790.0 247.0L790.0 247.0L790.0 244.5Q790.0 242.1 791.8 240.3Q793.6 238.5 797.6 238.5L797.6 238.5Q801.6 238.5 803.4 240.3Q805.2 242.1 805.2 244.5L805.2 244.5L805.2 247.0Q805.2 249.5 803.4 251.2Q801.6 253.0 797.6 253.0ZM860.1 276.6L821.5 276.6L821.5 220.4L860.1 220.4L860.1 276.6ZM828.7 227.6L828.7 269.4L852.9 269.4L852.9 227.6L828.7 227.6ZM903.3 276.6L864.7 276.6L864.7 220.4L903.3 220.4L903.3 276.6ZM871.9 227.6L871.9 269.4L896.1 269.4L896.1 227.6L871.9 227.6ZM946.5 276.6L907.9 276.6L907.9 220.4L946.5 220.4L946.5 276.6ZM915.1 227.6L915.1 269.4L939.3 269.4L939.3 227.6L915.1 227.6ZM989.7 276.6L951.1 276.6L951.1 220.4L989.7 220.4L989.7 276.6ZM958.3 227.6L958.3 269.4L982.5 269.4L982.5 227.6L958.3 227.6ZM1032.9 276.6L994.3 276.6L994.3 220.4L1032.9 220.4L1032.9 276.6ZM1001.5 227.6L1001.5 269.4L1025.7 269.4L1025.7 227.6L1001.5 227.6Z M168.9 370.2L130.3 370.2L130.3 314.0L168.9 314.0L168.9 370.2ZM137.5 321.2L137.5 363.0L161.7 363.0L161.7 321.2L137.5 321.2ZM212.1 370.2L173.5 370.2L173.5 314.0L212.1 314.0L212.1 370.2ZM180.7 321.2L180.7 363.0L204.9 363.0L204.9 321.2L180.7 321.2ZM255.3 370.2L216.7 370.2L216.7 314.0L255.3 314.0L255.3 370.2ZM223.9 321.2L223.9 363.0L248.1 363.0L248.1 321.2L223.9 321.2Z " clip-path="url(#satori_cp-id-1-0-0)" mask="url(#satori_om-id-1-0-0)"/><path fill="black" d="M130.7 520.3L130.7 499.6L132.9 499.6L132.9 508.2L133.0 508.2Q134.4 505.5 137.5 505.5L137.5 505.5Q140.1 505.5 141.6 507.5Q143.1 509.5 143.1 513.0L143.1 513.0Q143.1 516.6 141.6 518.6Q140.1 520.6 137.5 520.6L137.5 520.6Q134.4 520.6 133.0 517.9L133.0 517.9L132.9 517.9L132.9 520.3L130.7 520.3ZM136.6 518.6L136.6 518.6Q138.6 518.6 139.6 517.4Q140.7 516.2 140.7 514.3L140.7 514.3L140.7 511.8Q140.7 509.9 139.6 508.7Q138.6 507.5 136.6 507.5L136.6 507.5Q135.8 507.5 135.2 507.7Q134.5 507.9 134.0 508.2Q133.5 508.6 133.2 509.2Q132.9 509.7 132.9 510.4L132.9 510.4L132.9 515.7Q132.9 516.4 133.2 516.9Q133.5 517.5 134.0 517.8Q134.5 518.2 135.2 518.4Q135.8 518.6 136.6 518.6ZM155.4 511.9L157.9 505.8L160.1 505.8L152.9 523.4Q152.7 524.1 152.4 524.5Q152.1 525.0 151.7 525.3Q151.2 525.6 150.7 525.7Q150.1 525.9 149.3 525.9L149.3 525.9L147.1 525.9L147.1 524.0L150.5 524.0L152.1 520.0L146.3 505.8L148.6 505.8L151.0 511.9L153.2 517.4L153.3 517.4L155.4 511.9Z "/><clipPath id="satori_cp-id-1-0-1-0-2"><rect x="178" y="489" width="134" height="36"/></clipPath><mask id="satori_om-id-1-0-1-0-2"><rect x="178" y="489" width="134" height="36" fill="#fff"/></mask><path fill="black" d="M193.0 520.1L179.8 520.1L179.8 516.6L187.9 508.9L180.1 508.9L180.1 505.6L192.7 505.6L192.7 509.1L184.6 516.9L193.0 516.9L193.0 520.1ZM196.6 520.1L196.6 499.4L200.8 499.4L200.8 508.3L200.9 508.3Q201.2 507.7 201.5 507.1Q201.9 506.6 202.4 506.2Q202.9 505.8 203.6 505.5Q204.3 505.3 205.2 505.3L205.2 505.3Q206.2 505.3 207.1 505.7Q208.0 506.0 208.6 506.7Q209.2 507.4 209.5 508.4Q209.9 509.4 209.9 510.7L209.9 510.7L209.9 520.1L205.7 520.1L205.7 511.3Q205.7 508.5 203.3 508.5L203.3 508.5Q202.8 508.5 202.4 508.6Q201.9 508.8 201.5 509.0Q201.2 509.3 201.0 509.7Q200.8 510.1 200.8 510.6L200.8 510.6L200.8 520.1L196.6 520.1ZM227.6 520.1L225.2 520.1Q223.9 520.1 223.2 519.4Q222.4 518.8 222.2 517.5L222.2 517.5L222.1 517.5Q221.7 519.0 220.5 519.7Q219.4 520.4 217.7 520.4L217.7 520.4Q215.6 520.4 214.3 519.3Q213.1 518.2 213.1 516.1L213.1 516.1Q213.1 513.8 214.7 512.8Q216.4 511.7 219.6 511.7L219.6 511.7L221.9 511.7L221.9 510.9Q221.9 509.6 221.3 509.0Q220.7 508.3 219.2 508.3L219.2 508.3Q217.9 508.3 217.1 508.8Q216.3 509.3 215.7 510.2L215.7 510.2L213.4 508.1Q214.2 506.9 215.7 506.1Q217.3 505.3 219.7 505.3L219.7 505.3Q222.7 505.3 224.4 506.7Q226.0 508.0 226.0 510.8L226.0 510.8L226.0 517.1L227.6 517.1L227.6 520.1ZM219.3 517.7L219.3 517.7Q220.4 517.7 221.1 517.2Q221.9 516.6 221.9 515.6L221.9 515.6L221.9 513.9L219.7 513.9Q217.1 513.9 217.1 515.6L217.1 515.6L217.1 516.2Q217.1 516.9 217.7 517.3Q218.3 517.7 219.3 517.7ZM234.4 520.1L230.2 520.1L230.2 505.6L234.4 505.6L234.4 508.3L234.5 508.3Q234.8 507.7 235.1 507.1Q235.5 506.6 236.0 506.2Q236.5 505.8 237.2 505.5Q237.9 505.3 238.8 505.3L238.8 505.3Q239.8 505.3 240.7 505.7Q241.6 506.0 242.2 506.7Q242.8 507.4 243.1 508.4Q243.5 509.4 243.5 510.7L243.5 510.7L243.5 520.1L239.3 520.1L239.3 511.3Q239.3 508.5 236.9 508.5L236.9 508.5Q236.4 508.5 236.0 508.6Q235.5 508.8 235.1 509.0Q234.8 509.3 234.6 509.7Q234.4 510.1 234.4 510.6L234.4 510.6L234.4 520.1ZM261.5 521.5L261.5 521.5Q261.5 523.8 259.6 524.9Q257.7 526.0 253.5 526.0L253.5 526.0Q251.4 526.0 250.1 525.8Q248.8 525.6 248.0 525.1Q247.2 524.7 246.8 524.0Q246.5 523.4 246.5 522.7L246.5 522.7Q246.5 521.5 247.2 520.8Q248.0 520.2 249.3 519.9L249.3 519.9L249.3 519.7Q248.4 519.4 247.8 518.9Q247.3 518.4 247.3 517.4L247.3 517.4Q247.3 516.4 248.0 515.9Q248.7 515.4 249.9 515.1L249.9 515.1L249.9 514.9Q248.6 514.3 247.9 513.2Q247.2 512.1 247.2 510.5L247.2 510.5Q247.2 509.2 247.6 508.2Q248.1 507.3 248.9 506.6Q249.7 506.0 250.9 505.6Q252.0 505.3 253.4 505.3L253.4 505.3Q254.8 505.3 256.0 505.6L256.0 505.6L256.0 504.8Q256.0 504.0 256.6 503.4Q257.2 502.9 258.2 502.9L258.2 502.9L260.7 502.9L260.7 505.9L257.3 505.9L257.3 506.1Q258.4 506.8 259.1 507.8Q259.8 508.9 259.8 510.5L259.8 510.5Q259.8 511.7 259.3 512.7Q258.9 513.6 258.0 514.3Q257.2 514.9 256.0 515.3Q254.9 515.6 253.4 515.6L253.4 515.6Q252.8 515.6 252.2 515.5Q251.6 515.5 251.1 515.3L251.1 515.3Q250.8 515.5 250.6 515.8Q250.4 516.0 250.4 516.4L250.4 516.4Q250.4 516.7 250.5 516.9Q250.7 517.1 251.0 517.2Q251.3 517.3 251.7 517.3Q252.1 517.4 252.5 517.4L252.5 517.4L255.8 517.4Q257.3 517.4 258.4 517.7Q259.5 518.0 260.2 518.6Q260.9 519.1 261.2 519.9Q261.5 520.6 261.5 521.5ZM257.6 521.9L257.6 521.9Q257.6 521.3 257.2 521.0Q256.7 520.7 255.4 520.7L255.4 520.7L250.5 520.7Q249.9 521.1 249.9 521.8L249.9 521.8Q249.9 522.5 250.5 522.9Q251.1 523.4 252.5 523.4L252.5 523.4L254.9 523.4Q256.3 523.4 257.0 523.0Q257.6 522.6 257.6 521.9ZM253.4 513.0L253.4 513.0Q254.7 513.0 255.3 512.4Q255.8 511.7 255.8 510.8L255.8 510.8L255.8 510.1Q255.8 509.2 255.3 508.6Q254.7 507.9 253.4 507.9L253.4 507.9Q252.2 507.9 251.6 508.6Q251.1 509.2 251.1 510.1L251.1 510.1L251.1 510.8Q251.1 511.7 251.6 512.4Q252.2 513.0 253.4 513.0ZM263.9 520.1L263.9 516.9L268.3 516.9L268.3 502.6L263.9 502.6L263.9 499.4L272.5 499.4L272.5 516.9L276.9 516.9L276.9 520.1L263.9 520.1ZM289.6 520.1L289.6 517.5L289.5 517.5Q289.0 518.7 288.0 519.6Q286.9 520.4 285.2 520.4L285.2 520.4Q284.2 520.4 283.3 520.1Q282.4 519.7 281.8 519.0Q281.2 518.3 280.9 517.3Q280.5 516.3 280.5 515.0L280.5 515.0L280.5 505.6L284.7 505.6L284.7 514.4Q284.7 517.2 287.1 517.2L287.1 517.2Q287.6 517.2 288.0 517.1Q288.5 517.0 288.8 516.7Q289.2 516.5 289.4 516.1Q289.6 515.7 289.6 515.1L289.6 515.1L289.6 505.6L293.8 505.6L293.8 520.1L289.6 520.1ZM301.6 520.1L297.4 520.1L297.4 505.6L301.6 505.6L301.6 508.3L301.7 508.3Q302.0 507.7 302.3 507.1Q302.7 506.6 303.2 506.2Q303.7 505.8 304.4 505.5Q305.1 505.3 306.0 505.3L306.0 505.3Q307.0 505.3 307.9 505.7Q308.8 506.0 309.4 506.7Q310.0 507.4 310.3 508.4Q310.7 509.4 310.7 510.7L310.7 510.7L310.7 520.1L306.5 520.1L306.5 511.3Q306.5 508.5 304.1 508.5L304.1 508.5Q303.6 508.5 303.2 508.6Q302.7 508.8 302.3 509.0Q302.0 509.3 301.8 509.7Q301.6 510.1 301.6 510.6L301.6 510.6L301.6 520.1Z " clip-path="url(#satori_cp-id-1-0-1-0-2)" mask="url(#satori_om-id-1-0-1-0-2)"/><clipPath id="satori_cp-id-1-0-1-1"><rect x="786" y="489" width="286" height="36"/></clipPath><mask id="satori_om-id-1-0-1-1"><rect x="786" y="489" width="286" height="36" fill="#fff"/></mask><path fill="black" d="M802.7 520.1L798.2 520.1L796.9 515.4L791.6 515.4L790.4 520.1L786.1 520.1L791.4 500.5L797.4 500.5L802.7 520.1ZM796.3 512.0L794.4 504.6L794.2 504.6L792.3 512.0L796.3 512.0ZM811.0 520.4L811.0 520.4Q808.6 520.4 806.8 519.7Q805.1 519.0 804.2 517.7L804.2 517.7L806.5 515.6Q807.3 516.5 808.5 517.0Q809.6 517.5 811.1 517.5L811.1 517.5Q812.3 517.5 813.0 517.1Q813.7 516.8 813.7 516.0L813.7 516.0Q813.7 515.4 813.2 515.1Q812.7 514.9 811.9 514.7L811.9 514.7L809.6 514.4Q808.6 514.2 807.8 513.9Q806.9 513.7 806.3 513.1Q805.7 512.6 805.3 511.9Q805.0 511.2 805.0 510.2L805.0 510.2Q805.0 507.9 806.7 506.6Q808.4 505.3 811.6 505.3L811.6 505.3Q813.7 505.3 815.2 505.9Q816.7 506.5 817.6 507.5L817.6 507.5L815.5 509.9Q814.9 509.2 813.9 508.7Q812.9 508.2 811.4 508.2L811.4 508.2Q809.0 508.2 809.0 509.7L809.0 509.7Q809.0 510.3 809.5 510.6Q810.0 510.8 810.8 510.9L810.8 510.9L813.1 511.3Q814.1 511.4 814.9 511.7Q815.8 512.0 816.4 512.5Q817.0 513.0 817.4 513.8Q817.8 514.5 817.8 515.5L817.8 515.5Q817.8 517.8 816.0 519.1Q814.3 520.4 811.0 520.4ZM834.5 520.1L829.1 520.1Q826.9 520.1 825.8 518.9Q824.7 517.7 824.7 515.9L824.7 515.9L824.7 508.9L820.8 508.9L820.8 505.6L823.3 505.6Q824.2 505.6 824.6 505.3Q825.0 504.9 825.0 503.9L825.0 503.9L825.0 500.5L828.8 500.5L828.8 505.6L834.5 505.6L834.5 508.9L828.8 508.9L828.8 516.9L834.5 516.9L834.5 520.1ZM838.5 520.1L838.5 516.9L841.8 516.9L841.8 508.9L838.5 508.9L838.5 505.6L845.9 505.6L845.9 509.7L846.1 509.7Q846.3 508.9 846.7 508.2Q847.0 507.5 847.6 506.9Q848.1 506.3 848.9 506.0Q849.7 505.6 850.8 505.6L850.8 505.6L852.1 505.6L852.1 509.5L849.1 509.5Q847.5 509.5 846.7 510.4Q845.9 511.3 845.9 512.6L845.9 512.6L845.9 516.9L850.7 516.9L850.7 520.1L838.5 520.1ZM861.6 520.4L861.6 520.4Q859.9 520.4 858.6 519.9Q857.2 519.4 856.3 518.4Q855.4 517.4 854.9 516.0Q854.3 514.6 854.3 512.9L854.3 512.9Q854.3 511.1 854.9 509.7Q855.4 508.3 856.3 507.3Q857.2 506.3 858.6 505.8Q859.9 505.3 861.6 505.3L861.6 505.3Q863.3 505.3 864.6 505.8Q866.0 506.3 866.9 507.3Q867.8 508.3 868.3 509.7Q868.9 511.1 868.9 512.9L868.9 512.9Q868.9 514.6 868.3 516.0Q867.8 517.4 866.9 518.4Q866.0 519.4 864.6 519.9Q863.3 520.4 861.6 520.4ZM861.6 517.3L861.6 517.3Q863.0 517.3 863.8 516.5Q864.6 515.6 864.6 514.0L864.6 514.0L864.6 511.7Q864.6 510.1 863.8 509.3Q863.0 508.4 861.6 508.4L861.6 508.4Q860.2 508.4 859.4 509.3Q858.6 510.1 858.6 511.7L858.6 511.7L858.6 514.0Q858.6 515.6 859.4 516.5Q860.2 517.3 861.6 517.3Z M888.5 520.1L888.5 499.4L892.6 499.4L892.6 508.3L892.8 508.3Q893.3 507.0 894.3 506.1Q895.3 505.3 897.1 505.3L897.1 505.3Q898.3 505.3 899.3 505.8Q900.3 506.2 901.0 507.1Q901.7 508.1 902.1 509.5Q902.5 510.9 902.5 512.9L902.5 512.9Q902.5 514.8 902.1 516.3Q901.7 517.7 901.0 518.6Q900.3 519.5 899.3 520.0Q898.3 520.4 897.1 520.4L897.1 520.4Q895.3 520.4 894.3 519.6Q893.3 518.8 892.8 517.5L892.8 517.5L892.6 517.5L892.6 520.1L888.5 520.1ZM895.3 517.2L895.3 517.2Q896.7 517.2 897.4 516.4Q898.2 515.5 898.2 514.0L898.2 514.0L898.2 511.7Q898.2 510.2 897.4 509.4Q896.7 508.5 895.3 508.5L895.3 508.5Q894.2 508.5 893.4 509.1Q892.6 509.6 892.6 510.7L892.6 510.7L892.6 515.0Q892.6 516.1 893.4 516.7Q894.2 517.2 895.3 517.2ZM905.5 520.1L905.5 516.9L909.9 516.9L909.9 502.6L905.5 502.6L905.5 499.4L914.1 499.4L914.1 516.9L918.5 516.9L918.5 520.1L905.5 520.1ZM928.8 520.4L928.8 520.4Q927.1 520.4 925.8 519.9Q924.4 519.4 923.5 518.4Q922.6 517.4 922.1 516.0Q921.5 514.6 921.5 512.9L921.5 512.9Q921.5 511.1 922.1 509.7Q922.6 508.3 923.5 507.3Q924.4 506.3 925.8 505.8Q927.1 505.3 928.8 505.3L928.8 505.3Q930.5 505.3 931.8 505.8Q933.2 506.3 934.1 507.3Q935.0 508.3 935.5 509.7Q936.1 511.1 936.1 512.9L936.1 512.9Q936.1 514.6 935.5 516.0Q935.0 517.4 934.1 518.4Q933.2 519.4 931.8 519.9Q930.5 520.4 928.8 520.4ZM928.8 517.3L928.8 517.3Q930.2 517.3 931.0 516.5Q931.8 515.6 931.8 514.0L931.8 514.0L931.8 511.7Q931.8 510.1 931.0 509.3Q930.2 508.4 928.8 508.4L928.8 508.4Q927.4 508.4 926.6 509.3Q925.8 510.1 925.8 511.7L925.8 511.7L925.8 514.0Q925.8 515.6 926.6 516.5Q927.4 517.3 928.8 517.3ZM953.5 521.5L953.5 521.5Q953.5 523.8 951.6 524.9Q949.7 526.0 945.5 526.0L945.5 526.0Q943.4 526.0 942.1 525.8Q940.8 525.6 940.0 525.1Q939.2 524.7 938.8 524.0Q938.5 523.4 938.5 522.7L938.5 522.7Q938.5 521.5 939.2 520.8Q940.0 520.2 941.3 519.9L941.3 519.9L941.3 519.7Q940.4 519.4 939.8 518.9Q939.3 518.4 939.3 517.4L939.3 517.4Q939.3 516.4 940.0 515.9Q940.7 515.4 941.9 515.1L941.9 515.1L941.9 514.9Q940.6 514.3 939.9 513.2Q939.2 512.1 939.2 510.5L939.2 510.5Q939.2 509.2 939.6 508.2Q940.1 507.3 940.9 506.6Q941.7 506.0 942.9 505.6Q944.0 505.3 945.4 505.3L945.4 505.3Q946.8 505.3 948.0 505.6L948.0 505.6L948.0 504.8Q948.0 504.0 948.6 503.4Q949.2 502.9 950.2 502.9L950.2 502.9L952.7 502.9L952.7 505.9L949.3 505.9L949.3 506.1Q950.4 506.8 951.1 507.8Q951.8 508.9 951.8 510.5L951.8 510.5Q951.8 511.7 951.3 512.7Q950.9 513.6 950.0 514.3Q949.2 514.9 948.0 515.3Q946.9 515.6 945.4 515.6L945.4 515.6Q944.8 515.6 944.2 515.5Q943.6 515.5 943.1 515.3L943.1 515.3Q942.8 515.5 942.6 515.8Q942.4 516.0 942.4 516.4L942.4 516.4Q942.4 516.7 942.5 516.9Q942.7 517.1 943.0 517.2Q943.3 517.3 943.7 517.3Q944.1 517.4 944.5 517.4L944.5 517.4L947.8 517.4Q949.3 517.4 950.4 517.7Q951.5 518.0 952.2 518.6Q952.9 519.1 953.2 519.9Q953.5 520.6 953.5 521.5ZM949.6 521.9L949.6 521.9Q949.6 521.3 949.2 521.0Q948.7 520.7 947.4 520.7L947.4 520.7L942.5 520.7Q941.9 521.1 941.9 521.8L941.9 521.8Q941.9 522.5 942.5 522.9Q943.1 523.4 944.5 523.4L944.5 523.4L946.9 523.4Q948.3 523.4 949.0 523.0Q949.6 522.6 949.6 521.9ZM945.4 513.0L945.4 513.0Q946.7 513.0 947.3 512.4Q947.8 511.7 947.8 510.8L947.8 510.8L947.8 510.1Q947.8 509.2 947.3 508.6Q946.7 507.9 945.4 507.9L945.4 507.9Q944.2 507.9 943.6 508.6Q943.1 509.2 943.1 510.1L943.1 510.1L943.1 510.8Q943.1 511.7 943.6 512.4Q944.2 513.0 945.4 513.0Z M972.8 520.1L972.8 516.9L977.0 516.9L977.0 508.9L972.5 508.9L972.5 505.6L977.0 505.6L977.0 503.5Q977.0 501.7 978.1 500.5Q979.2 499.4 981.5 499.4L981.5 499.4L986.4 499.4L986.4 502.6L981.2 502.6L981.2 505.6L986.4 505.6L986.4 508.9L981.2 508.9L981.2 516.9L985.7 516.9L985.7 520.1L972.8 520.1ZM1003.6 520.1L1001.2 520.1Q999.9 520.1 999.2 519.4Q998.4 518.8 998.2 517.5L998.2 517.5L998.1 517.5Q997.7 519.0 996.5 519.7Q995.4 520.4 993.7 520.4L993.7 520.4Q991.6 520.4 990.3 519.3Q989.1 518.2 989.1 516.1L989.1 516.1Q989.1 513.8 990.7 512.8Q992.4 511.7 995.6 511.7L995.6 511.7L997.9 511.7L997.9 510.9Q997.9 509.6 997.3 509.0Q996.7 508.3 995.2 508.3L995.2 508.3Q993.9 508.3 993.1 508.8Q992.3 509.3 991.7 510.2L991.7 510.2L989.4 508.1Q990.2 506.9 991.7 506.1Q993.3 505.3 995.7 505.3L995.7 505.3Q998.7 505.3 1000.4 506.7Q1002.0 508.0 1002.0 510.8L1002.0 510.8L1002.0 517.1L1003.6 517.1L1003.6 520.1ZM995.3 517.7L995.3 517.7Q996.4 517.7 997.1 517.2Q997.9 516.6 997.9 515.6L997.9 515.6L997.9 513.9L995.7 513.9Q993.1 513.9 993.1 515.6L993.1 515.6L993.1 516.2Q993.1 516.9 993.7 517.3Q994.3 517.7 995.3 517.7ZM1013.4 520.4L1013.4 520.4Q1011.7 520.4 1010.3 519.9Q1009.0 519.4 1008.0 518.4Q1007.1 517.4 1006.6 516.0Q1006.1 514.6 1006.1 512.9L1006.1 512.9Q1006.1 511.1 1006.6 509.7Q1007.1 508.3 1008.0 507.3Q1009.0 506.3 1010.3 505.8Q1011.7 505.3 1013.4 505.3L1013.4 505.3Q1015.7 505.3 1017.2 506.3Q1018.6 507.2 1019.4 508.8L1019.4 508.8L1016.2 510.6Q1015.8 509.7 1015.2 509.2Q1014.5 508.6 1013.4 508.6L1013.4 508.6Q1011.9 508.6 1011.2 509.4Q1010.4 510.3 1010.4 511.7L1010.4 511.7L1010.4 514.0Q1010.4 515.5 1011.2 516.3Q1011.9 517.1 1013.4 517.1L1013.4 517.1Q1014.6 517.1 1015.3 516.6Q1016.0 516.0 1016.5 515.1L1016.5 515.1L1019.6 516.9Q1018.8 518.5 1017.3 519.5Q1015.8 520.4 1013.4 520.4ZM1030.5 503.8L1030.5 503.8Q1029.1 503.8 1028.5 503.2Q1028.0 502.6 1028.0 501.8L1028.0 501.8L1028.0 501.0Q1028.0 500.2 1028.5 499.6Q1029.1 499.1 1030.5 499.1L1030.5 499.1Q1031.9 499.1 1032.4 499.6Q1033.0 500.2 1033.0 501.0L1033.0 501.0L1033.0 501.8Q1033.0 502.6 1032.4 503.2Q1031.9 503.8 1030.5 503.8ZM1023.8 520.1L1023.8 516.9L1028.4 516.9L1028.4 508.9L1023.8 508.9L1023.8 505.6L1032.6 505.6L1032.6 516.9L1036.8 516.9L1036.8 520.1L1023.8 520.1ZM1039.9 520.1L1039.9 516.9L1044.3 516.9L1044.3 502.6L1039.9 502.6L1039.9 499.4L1048.5 499.4L1048.5 516.9L1052.9 516.9L1052.9 520.1L1039.9 520.1ZM1063.6 520.4L1063.6 520.4Q1060.0 520.4 1058.1 518.4Q1056.2 516.4 1056.2 512.9L1056.2 512.9Q1056.2 511.2 1056.7 509.7Q1057.2 508.3 1058.1 507.3Q1059.0 506.3 1060.3 505.8Q1061.6 505.3 1063.2 505.3L1063.2 505.3Q1064.9 505.3 1066.1 505.8Q1067.4 506.3 1068.3 507.3Q1069.2 508.2 1069.7 509.6Q1070.2 511.0 1070.2 512.6L1070.2 512.6L1070.2 513.9L1060.3 513.9L1060.3 514.1Q1060.3 515.5 1061.2 516.4Q1062.1 517.2 1063.7 517.2L1063.7 517.2Q1065.0 517.2 1065.9 516.7Q1066.9 516.3 1067.5 515.4L1067.5 515.4L1069.8 517.9Q1068.9 518.9 1067.4 519.7Q1065.9 520.4 1063.6 520.4ZM1063.3 508.3L1063.3 508.3Q1061.9 508.3 1061.1 509.1Q1060.3 509.9 1060.3 511.3L1060.3 511.3L1060.3 511.6L1066.1 511.6L1066.1 511.3Q1066.1 509.9 1065.4 509.1Q1064.6 508.3 1063.3 508.3Z " clip-path="url(#satori_cp-id-1-0-1-1)" mask="url(#satori_om-id-1-0-1-1)"/></svg>