<svg width="1200" height="630" viewBox="0 0 1200 630" xmlns="http://www.w3.org/2000/svg"><rect x="0" y="0" width="1200" height="630" fill="#fefbfb"/><defs><clipPath id="satori_bc-id-0"><path x="105" y="39" width="1056" height="504" d="M109,39 h1048 a4,4 0 0 1 4,4 v496 a4,4 0 0 1 -4,4 h-1048 a4,4 0 0 1 -4,-4 v-496 a4,4 0 0 1 4,-4"/></clipPath></defs><g opacity="0.9"><path x="105" y="39" width="1056" height="504" fill="#ecebeb" d="M109,39 h1048 a4,4 0 0 1 4,4 v496 a4,4 0 0 1 -4,4 h-1048 a4,4 0 0 1 -4,-4 v-496 a4,4 0 0 1 4,-4"/><path width="1056" height="504" clip-path="url(#satori_bc-id-0)" fill="none" stroke="#000" stroke-width="8" d="M106.172,40.172 A4,4 0 0 1 109,39 h1048 a4,4 0 0 1 4,4 v496 a4,4 0 0 1 -4,4 h-1048 a4,4 0 0 1 -4,-4 v-496 A4,4 0 0 1 106.172,40.172"/></g><defs><clipPath id="satori_bc-id-1"><path x="72" y="63" width="1056" height="504" d="M76,63 h1048 a4,4 0 0 1 4,4 v496 a4,4 0 0 1 -4,4 h-1048 a4,4 0 0 1 -4,-4 v-496 a4,4 0 0 1 4,-4"/></clipPath></defs><path x="72" y="63" width="1056" height="504" fill="#fefbfb" d="M76,63 h1048 a4,4 0 0 1 4,4 v496 a4,4 0 0 1 -4,4 h-1048 a4,4 0 0 1 -4,-4 v-496 a4,4 0 0 1 4,-4"/><path width="1056" height="504" clip-path="url(#satori_bc-id-1)" fill="none" stroke="#000" stroke-width="8" d="M73.172,64.172 A4,4 0 0 1 76,63 h1048 a4,4 0 0 1 4,4 v496 a4,4 0 0 1 -4,4 h-1048 a4,4 0 0 1 -4,-4 v-496 A4,4 0 0 1 73.172,64.172"/><clipPath id="satori_cp-id-1-0-0"><rect x="128" y="103" width="1512" height="187"/></clipPath><mask id="satori_om-id-1-0-0"><rect x="128" y="103" width="1512" height="187" fill="#fff"/></mask><path fill="black" d="M168.9 183.0L130.3 183.0L130.3 126.8L168.9 126.8L168.9 183.0ZM137.5 134.0L137.5 175.8L161.7 175.8L161.7 134.0L137.5 134.0ZM213.2 186.7L213.2 186.7Q213.2 192.6 208.2 195.4Q203.2 198.2 192.6 198.2L192.6 198.2Q187.3 198.2 183.8 197.6Q180.3 197.0 178.3 195.8Q176.2 194.7 175.4 193.1Q174.6 191.5 174.6 189.6L174.6 189.6Q174.6 186.5 176.5 184.9Q178.3 183.2 181.7 182.4L181.7 182.4L181.7 181.9Q179.3 181.2 177.9 179.9Q176.5 178.6 176.5 176.1L176.5 176.1Q176.5 173.4 178.4 172.1Q180.2 170.8 183.2 170.1L183.2 170.1L183.2 169.6Q179.9 168.0 178.1 165.2Q176.2 162.3 176.2 158.2L176.2 158.2Q176.2 154.9 177.4 152.5Q178.5 150.0 180.7 148.3Q182.8 146.7 185.7 145.8Q188.7 144.9 192.4 144.9L192.4 144.9Q195.9 144.9 198.9 145.7L198.9 145.7L198.9 143.7Q198.9 141.6 200.4 140.1Q201.9 138.7 204.6 138.7L204.6 138.7L211.2 138.7L211.2 146.4L202.2 146.4L202.2 147.1Q205.3 148.7 206.9 151.5Q208.6 154.2 208.6 158.2L208.6 158.2Q208.6 161.4 207.5 163.9Q206.3 166.3 204.2 168.0Q202.0 169.7 199.0 170.6Q196.0 171.4 192.4 171.4L192.4 171.4Q190.7 171.4 189.2 171.3Q187.7 171.1 186.3 170.7L186.3 170.7Q185.5 171.1 185.0 171.8Q184.4 172.4 184.4 173.4L184.4 173.4Q184.4 174.3 184.9 174.8Q185.3 175.3 186.1 175.6Q186.8 175.8 187.8 175.9Q188.8 176.0 189.9 176.0L189.9 176.0L198.4 176.0Q202.4 176.0 205.2 176.8Q208.0 177.6 209.8 179.0Q211.6 180.4 212.4 182.4Q213.2 184.3 213.2 186.7ZM203.1 187.5L203.1 187.5Q203.1 186.0 201.9 185.2Q200.8 184.4 197.6 184.4L197.6 184.4L184.8 184.4Q183.4 185.6 183.4 187.4L183.4 187.4Q183.4 189.1 184.8 190.3Q186.3 191.4 189.8 191.4L189.8 191.4L196.1 191.4Q199.8 191.4 201.4 190.4Q203.1 189.4 203.1 187.5ZM192.4 164.7L192.4 164.7Q195.6 164.7 197.1 163.1Q198.6 161.5 198.6 159.0L198.6 159.0L198.6 157.3Q198.6 154.9 197.1 153.3Q195.6 151.7 192.4 151.7L192.4 151.7Q189.2 151.7 187.8 153.3Q186.3 154.9 186.3 157.3L186.3 157.3L186.3 159.0Q186.3 161.5 187.8 163.1Q189.2 164.7 192.4 164.7ZM237.0 183.8L237.0 183.8Q227.6 183.8 222.8 178.6Q218.0 173.4 218.0 164.5L218.0 164.5Q218.0 160.0 219.3 156.3Q220.5 152.7 222.9 150.2Q225.2 147.6 228.5 146.3Q231.9 144.9 236.1 144.9L236.1 144.9Q240.2 144.9 243.6 146.3Q246.9 147.6 249.2 150.0Q251.5 152.5 252.7 156.0Q254.0 159.5 254.0 163.8L254.0 163.8L254.0 167.0L228.6 167.0L228.6 167.6Q228.6 171.2 230.8 173.4Q233.0 175.6 237.4 175.6L237.4 175.6Q240.7 175.6 243.1 174.3Q245.4 173.1 247.2 171.0L247.2 171.0L252.9 177.3Q250.8 179.9 246.9 181.9Q243.0 183.8 237.0 183.8ZM236.1 152.6L236.1 152.6Q232.7 152.6 230.6 154.7Q228.6 156.8 228.6 160.4L228.6 160.4L228.6 161.0L243.6 161.0L243.6 160.4Q243.6 156.7 241.6 154.7Q239.6 152.6 236.1 152.6ZM295.8 183.0L282.1 183.0Q276.3 183.0 273.5 179.9Q270.7 176.9 270.7 172.2L270.7 172.2L270.7 154.1L260.6 154.1L260.6 145.8L267.2 145.8Q269.6 145.8 270.6 144.9Q271.6 143.9 271.6 141.4L271.6 141.4L271.6 132.7L281.4 132.7L281.4 145.8L295.8 145.8L295.8 154.1L281.4 154.1L281.4 174.7L295.8 174.7L295.8 183.0ZM306.3 183.0L306.3 132.7L324.0 132.7Q331.4 132.7 335.3 136.3Q339.2 139.9 339.2 146.1L339.2 146.1Q339.2 150.4 337.1 153.0Q335.0 155.5 331.0 156.7L331.0 156.7L331.0 157.1Q335.7 158.3 338.3 161.1Q340.8 164.0 340.8 169.1L340.8 169.1Q340.8 175.5 336.8 179.2Q332.8 183.0 325.6 183.0L325.6 183.0L306.3 183.0ZM316.9 175.4L322.3 175.4Q326.2 175.4 328.0 174.1Q329.8 172.8 329.8 169.3L329.8 169.3L329.8 167.3Q329.8 163.8 328.0 162.5Q326.2 161.2 322.3 161.2L322.3 161.2L316.9 161.2L316.9 175.4ZM316.9 154.0L321.0 154.0Q324.8 154.0 326.5 152.7Q328.2 151.5 328.2 148.2L328.2 148.2L328.2 146.0Q328.2 142.7 326.5 141.5Q324.8 140.3 321.0 140.3L321.0 140.3L316.9 140.3L316.9 154.0ZM365.6 183.8L365.6 183.8Q361.3 183.8 357.8 182.5Q354.4 181.2 352.0 178.6Q349.5 176.1 348.2 172.5Q347.0 168.9 347.0 164.4L347.0 164.4Q347.0 159.8 348.2 156.2Q349.5 152.6 352.0 150.1Q354.4 147.6 357.8 146.3Q361.3 144.9 365.6 144.9L365.6 144.9Q369.9 144.9 373.4 146.3Q376.8 147.6 379.2 150.1Q381.7 152.6 383.0 156.2Q384.2 159.8 384.2 164.4L384.2 164.4Q384.2 168.9 383.0 172.5Q381.7 176.1 379.2 178.6Q376.8 181.2 373.4 182.5Q369.9 183.8 365.6 183.8ZM365.6 175.9L365.6 175.9Q369.2 175.9 371.2 173.7Q373.2 171.4 373.2 167.3L373.2 167.3L373.2 161.4Q373.2 157.3 371.2 155.1Q369.2 152.9 365.6 152.9L365.6 152.9Q362.0 152.9 360.0 155.1Q358.0 157.3 358.0 161.4L358.0 161.4L358.0 167.3Q358.0 171.4 360.0 173.7Q362.0 175.9 365.6 175.9ZM415.1 183.0L415.1 176.2L414.6 176.2Q413.4 179.4 410.8 181.6Q408.2 183.8 403.7 183.8L403.7 183.8Q401.0 183.8 398.8 182.9Q396.6 182.0 395.0 180.2Q393.4 178.4 392.5 175.8Q391.6 173.2 391.6 169.8L391.6 169.8L391.6 145.8L402.2 145.8L402.2 168.4Q402.2 175.6 408.5 175.6L408.5 175.6Q409.7 175.6 410.9 175.3Q412.1 175.0 413.0 174.3Q413.9 173.6 414.5 172.6Q415.1 171.6 415.1 170.2L415.1 170.2L415.1 145.8L425.7 145.8L425.7 183.0L415.1 183.0ZM445.7 183.0L435.1 183.0L435.1 145.8L445.7 145.8L445.7 152.6L446.2 152.6Q446.8 151.0 447.8 149.6Q448.7 148.2 450.0 147.2Q451.4 146.2 453.1 145.5Q454.9 144.9 457.1 144.9L457.1 144.9Q459.8 144.9 462.0 145.8Q464.2 146.7 465.8 148.5Q467.4 150.3 468.3 152.9Q469.2 155.5 469.2 158.9L469.2 158.9L469.2 183.0L458.6 183.0L458.6 160.3Q458.6 153.1 452.3 153.1L452.3 153.1Q451.1 153.1 449.9 153.5Q448.7 153.8 447.8 154.5Q446.8 155.2 446.3 156.2Q445.7 157.2 445.7 158.5L445.7 158.5L445.7 183.0ZM501.9 183.0L501.9 176.2L501.4 176.2Q500.0 179.6 497.4 181.7Q494.8 183.8 490.4 183.8L490.4 183.8Q487.3 183.8 484.7 182.7Q482.2 181.5 480.3 179.1Q478.5 176.8 477.5 173.1Q476.4 169.4 476.4 164.4L476.4 164.4Q476.4 159.3 477.5 155.7Q478.5 152.0 480.3 149.6Q482.2 147.2 484.7 146.1Q487.3 144.9 490.4 144.9L490.4 144.9Q492.6 144.9 494.3 145.5Q496.1 146.1 497.4 147.1Q498.7 148.1 499.7 149.5Q500.7 150.9 501.4 152.6L501.4 152.6L501.9 152.6L501.9 129.7L512.6 129.7L512.6 183.0L501.9 183.0ZM495.0 175.5L495.0 175.5Q497.8 175.5 499.8 174.2Q501.9 172.8 501.9 169.8L501.9 169.8L501.9 158.9Q501.9 156.0 499.8 154.6Q497.8 153.2 495.0 153.2L495.0 153.2Q491.4 153.2 489.4 155.4Q487.5 157.6 487.5 161.5L487.5 161.5L487.5 167.3Q487.5 171.1 489.4 173.3Q491.4 175.5 495.0 175.5ZM540.7 141.0L540.7 141.0Q537.1 141.0 535.7 139.6Q534.3 138.1 534.3 136.0L534.3 136.0L534.3 133.9Q534.3 131.8 535.7 130.3Q537.1 128.9 540.7 128.9L540.7 128.9Q544.3 128.9 545.7 130.3Q547.1 131.8 547.1 133.9L547.1 133.9L547.1 136.0Q547.1 138.1 545.7 139.6Q544.3 141.0 540.7 141.0ZM523.6 183.0L523.6 174.7L535.4 174.7L535.4 154.1L523.6 154.1L523.6 145.8L546.0 145.8L546.0 174.7L557.0 174.7L557.0 183.0L523.6 183.0ZM575.3 183.0L564.7 183.0L564.7 145.8L575.3 145.8L575.3 152.6L575.8 152.6Q576.4 151.0 577.4 149.6Q578.3 148.2 579.6 147.2Q581.0 146.2 582.7 145.5Q584.5 144.9 586.7 144.9L586.7 144.9Q589.4 144.9 591.6 145.8Q593.8 146.7 595.4 148.5Q597.0 150.3 597.9 152.9Q598.8 155.5 598.8 158.9L598.8 158.9L598.8 183.0L588.2 183.0L588.2 160.3Q588.2 153.1 581.9 153.1L581.9 153.1Q580.7 153.1 579.5 153.5Q578.3 153.8 577.4 154.5Q576.4 155.2 575.9 156.2Q575.3 157.2 575.3 158.5L575.3 158.5L575.3 183.0ZM645.2 186.7L645.2 186.7Q645.2 192.6 640.2 195.4Q635.2 198.2 624.6 198.2L624.6 198.2Q619.3 198.2 615.8 197.6Q612.3 197.0 610.3 195.8Q608.2 194.7 607.4 193.1Q606.6 191.5 606.6 189.6L606.6 189.6Q606.6 186.5 608.5 184.9Q610.3 183.2 613.7 182.4L613.7 182.4L613.7 181.9Q611.3 181.2 609.9 179.9Q608.5 178.6 608.5 176.1L608.5 176.1Q608.5 173.4 610.4 172.1Q612.2 170.8 615.2 170.1L615.2 170.1L615.2 169.6Q611.9 168.0 610.1 165.2Q608.2 162.3 608.2 158.2L608.2 158.2Q608.2 154.9 609.4 152.5Q610.5 150.0 612.7 148.3Q614.8 146.7 617.7 145.8Q620.7 144.9 624.4 144.9L624.4 144.9Q627.9 144.9 630.9 145.7L630.9 145.7L630.9 143.7Q630.9 141.6 632.4 140.1Q633.9 138.7 636.6 138.7L636.6 138.7L643.2 138.7L643.2 146.4L634.2 146.4L634.2 147.1Q637.3 148.7 638.9 151.5Q640.6 154.2 640.6 158.2L640.6 158.2Q640.6 161.4 639.5 163.9Q638.3 166.3 636.2 168.0Q634.0 169.7 631.0 170.6Q628.0 171.4 624.4 171.4L624.4 171.4Q622.7 171.4 621.2 171.3Q619.7 171.1 618.3 170.7L618.3 170.7Q617.5 171.1 617.0 171.8Q616.4 172.4 616.4 173.4L616.4 173.4Q616.4 174.3 616.9 174.8Q617.3 175.3 618.1 175.6Q618.8 175.8 619.8 175.9Q620.8 176.0 621.9 176.0L621.9 176.0L630.4 176.0Q634.4 176.0 637.2 176.8Q640.0 177.6 641.8 179.0Q643.6 180.4 644.4 182.4Q645.2 184.3 645.2 186.7ZM635.1 187.5L635.1 187.5Q635.1 186.0 633.9 185.2Q632.8 184.4 629.6 184.4L629.6 184.4L616.8 184.4Q615.4 185.6 615.4 187.4L615.4 187.4Q615.4 189.1 616.8 190.3Q618.3 191.4 621.8 191.4L621.8 191.4L628.1 191.4Q631.8 191.4 633.4 190.4Q635.1 189.4 635.1 187.5ZM624.4 164.7L624.4 164.7Q627.6 164.7 629.1 163.1Q630.6 161.5 630.6 159.0L630.6 159.0L630.6 157.3Q630.6 154.9 629.1 153.3Q627.6 151.7 624.4 151.7L624.4 151.7Q621.2 151.7 619.8 153.3Q618.3 154.9 618.3 157.3L618.3 157.3L618.3 159.0Q618.3 161.5 619.8 163.1Q621.2 164.7 624.4 164.7ZM669.2 183.8L669.2 183.8Q659.1 183.8 654.2 177.0Q649.4 170.2 649.4 157.8L649.4 157.8Q649.4 145.4 654.2 138.6Q659.1 131.8 669.2 131.8L669.2 131.8Q673.0 131.8 676.0 132.9Q679.0 133.9 681.2 135.8Q683.3 137.7 684.7 140.3Q686.1 143.0 686.9 146.3L686.9 146.3L676.9 148.8Q676.4 147.0 675.8 145.4Q675.3 143.9 674.4 142.8Q673.5 141.8 672.1 141.2Q670.8 140.5 668.9 140.5L668.9 140.5Q664.5 140.5 662.7 144.0Q660.9 147.4 660.9 153.4L660.9 153.4L660.9 162.2Q660.9 168.3 662.7 171.7Q664.5 175.1 668.9 175.1L668.9 175.1Q672.7 175.1 674.4 172.8Q676.1 170.5 676.9 166.9L676.9 166.9L686.9 169.3Q686.1 172.7 684.7 175.3Q683.3 178.0 681.2 179.9Q679.0 181.8 676.0 182.8Q673.0 183.8 669.2 183.8ZM694.5 183.0L694.5 174.7L705.9 174.7L705.9 138.0L694.5 138.0L694.5 129.7L716.5 129.7L716.5 174.7L727.9 174.7L727.9 183.0L694.5 183.0ZM756.7 141.0L756.7 141.0Q753.1 141.0 751.7 139.6Q750.3 138.1 750.3 136.0L750.3 136.0L750.3 133.9Q750.3 131.8 751.7 130.3Q753.1 128.9 756.7 128.9L756.7 128.9Q760.3 128.9 761.7 130.3Q763.1 131.8 763.1 133.9L763.1 133.9L763.1 136.0Q763.1 138.1 761.7 139.6Q760.3 141.0 756.7 141.0ZM739.6 183.0L739.6 174.7L751.4 174.7L751.4 154.1L739.6 154.1L739.6 145.8L762.0 145.8L762.0 174.7L773.0 174.7L773.0 183.0L739.6 183.0ZM798.6 183.8L798.6 183.8Q789.2 183.8 784.4 178.6Q779.6 173.4 779.6 164.5L779.6 164.5Q779.6 160.0 780.9 156.3Q782.1 152.7 784.5 150.2Q786.8 147.6 790.1 146.3Q793.5 144.9 797.7 144.9L797.7 144.9Q801.8 144.9 805.2 146.3Q808.5 147.6 810.8 150.0Q813.1 152.5 814.3 156.0Q815.6 159.5 815.6 163.8L815.6 163.8L815.6 167.0L790.2 167.0L790.2 167.6Q790.2 171.2 792.4 173.4Q794.6 175.6 799.0 175.6L799.0 175.6Q802.3 175.6 804.7 174.3Q807.0 173.1 808.8 171.0L808.8 171.0L814.5 177.3Q812.4 179.9 808.5 181.9Q804.6 183.8 798.6 183.8ZM797.7 152.6L797.7 152.6Q794.3 152.6 792.2 154.7Q790.2 156.8 790.2 160.4L790.2 160.4L790.2 161.0L805.2 161.0L805.2 160.4Q805.2 156.7 803.2 154.7Q801.2 152.6 797.7 152.6ZM834.5 183.0L823.9 183.0L823.9 145.8L834.5 145.8L834.5 152.6L835.0 152.6Q835.6 151.0 836.6 149.6Q837.5 148.2 838.8 147.2Q840.2 146.2 841.9 145.5Q843.7 144.9 845.9 144.9L845.9 144.9Q848.6 144.9 850.8 145.8Q853.0 146.7 854.6 148.5Q856.2 150.3 857.1 152.9Q858.0 155.5 858.0 158.9L858.0 158.9L858.0 183.0L847.4 183.0L847.4 160.3Q847.4 153.1 841.1 153.1L841.1 153.1Q839.9 153.1 838.7 153.5Q837.5 153.8 836.6 154.5Q835.6 155.2 835.1 156.2Q834.5 157.2 834.5 158.5L834.5 158.5L834.5 183.0ZM900.6 183.0L886.9 183.0Q881.1 183.0 878.3 179.9Q875.5 176.9 875.5 172.2L875.5 172.2L875.5 154.1L865.4 154.1L865.4 145.8L872.0 145.8Q874.4 145.8 875.4 144.9Q876.4 143.9 876.4 141.4L876.4 141.4L876.4 132.7L886.2 132.7L886.2 145.8L900.6 145.8L900.6 154.1L886.2 154.1L886.2 174.7L900.6 174.7L900.6 183.0ZM921.7 164.3L921.7 183.0L911.1 183.0L911.1 132.7L930.5 132.7Q934.2 132.7 937.1 133.8Q939.9 134.9 941.9 137.0Q943.9 139.1 944.9 142.1Q945.9 145.0 945.9 148.7L945.9 148.7Q945.9 154.0 943.6 157.8Q941.3 161.6 937.1 162.9L937.1 162.9L946.9 183.0L935.1 183.0L926.7 164.3L921.7 164.3ZM921.7 156.0L927.9 156.0Q931.7 156.0 933.2 154.5Q934.7 153.1 934.7 149.8L934.7 149.8L934.7 147.6Q934.7 144.3 933.2 142.8Q931.7 141.4 927.9 141.4L927.9 141.4L921.7 141.4L921.7 156.0ZM971.4 183.8L971.4 183.8Q962.0 183.8 957.2 178.6Q952.4 173.4 952.4 164.5L952.4 164.5Q952.4 160.0 953.7 156.3Q954.9 152.7 957.3 150.2Q959.6 147.6 962.9 146.3Q966.3 144.9 970.5 144.9L970.5 144.9Q974.6 144.9 978.0 146.3Q981.3 147.6 983.6 150.0Q985.9 152.5 987.1 156.0Q988.4 159.5 988.4 163.8L988.4 163.8L988.4 167.0L963.0 167.0L963.0 167.6Q963.0 171.2 965.2 173.4Q967.4 175.6 971.8 175.6L971.8 175.6Q975.1 175.6 977.5 174.3Q979.8 173.1 981.6 171.0L981.6 171.0L987.3 177.3Q985.2 179.9 981.3 181.9Q977.4 183.8 971.4 183.8ZM970.5 152.6L970.5 152.6Q967.1 152.6 965.0 154.7Q963.0 156.8 963.0 160.4L963.0 160.4L963.0 161.0L978.0 161.0L978.0 160.4Q978.0 156.7 976.0 154.7Q974.0 152.6 970.5 152.6ZM1015.1 183.8L1015.1 183.8Q1010.7 183.8 1007.2 182.5Q1003.7 181.2 1001.3 178.6Q998.9 176.1 997.6 172.5Q996.3 168.9 996.3 164.4L996.3 164.4Q996.3 159.8 997.6 156.2Q998.9 152.6 1001.3 150.1Q1003.7 147.6 1007.2 146.3Q1010.7 144.9 1015.0 144.9L1015.0 144.9Q1021.2 144.9 1024.9 147.4Q1028.6 149.9 1030.5 154.0L1030.5 154.0L1022.3 158.5Q1021.3 156.3 1019.7 154.9Q1018.1 153.4 1015.0 153.4L1015.0 153.4Q1011.4 153.4 1009.4 155.6Q1007.4 157.7 1007.4 161.4L1007.4 161.4L1007.4 167.4Q1007.4 171.1 1009.4 173.2Q1011.4 175.3 1015.2 175.3L1015.2 175.3Q1018.3 175.3 1020.0 173.9Q1021.8 172.4 1023.0 170.1L1023.0 170.1L1031.1 174.7Q1029.1 178.8 1025.2 181.3Q1021.4 183.8 1015.1 183.8ZM1073.4 183.0L1059.7 183.0Q1053.9 183.0 1051.1 179.9Q1048.3 176.9 1048.3 172.2L1048.3 172.2L1048.3 154.1L1038.2 154.1L1038.2 145.8L1044.8 145.8Q1047.2 145.8 1048.2 144.9Q1049.2 143.9 1049.2 141.4L1049.2 141.4L1049.2 132.7L1059.0 132.7L1059.0 145.8L1073.4 145.8L1073.4 154.1L1059.0 154.1L1059.0 174.7L1073.4 174.7L1073.4 183.0ZM1119.3 183.0L1080.7 183.0L1080.7 126.8L1119.3 126.8L1119.3 183.0ZM1087.9 134.0L1087.9 175.8L1112.1 175.8L1112.1 134.0L1087.9 134.0Z M165.8 276.6L133.4 276.6L133.4 268.6L144.2 268.6L144.2 234.3L133.4 234.3L133.4 226.3L165.8 226.3L165.8 234.3L155 234.3L155 268.6L165.8 268.6L165.8 276.6ZM186.5 276.6L175.9 276.6L175.9 239.4L186.5 239.4L186.5 246.2L187.0 246.2Q187.6 244.6 188.6 243.2Q189.5 241.8 190.8 240.8Q192.2 239.8 193.9 239.1Q195.7 238.5 197.9 238.5L197.9 238.5Q200.6 238.5 202.8 239.4Q205.0 240.3 206.6 242.1Q208.2 243.9 209.1 246.5Q210.0 249.1 210.0 252.5L210.0 252.5L210.0 276.6L199.4 276.6L199.4 253.9Q199.4 246.7 193.1 246.7L193.1 246.7Q191.9 246.7 190.7 247.1Q189.5 247.4 188.6 248.1Q187.6 248.8 187.1 249.8Q186.5 250.8 186.5 252.1L186.5 252.1L186.5 276.6ZM252.6 276.6L238.9 276.6Q233.1 276.6 230.3 273.5Q227.5 270.5 227.5 265.8L227.5 265.8L227.5 247.7L217.4 247.7L217.4 239.4L224.0 239.4Q226.4 239.4 227.4 238.5Q228.4 237.5 228.4 235.0L228.4 235.0L228.4 226.3L238.2 226.3L238.2 239.4L252.6 239.4L252.6 247.7L238.2 247.7L238.2 268.3L252.6 268.3L252.6 276.6ZM280.2 277.4L280.2 277.4Q270.8 277.4 266.0 272.2Q261.2 267.0 261.2 258.1L261.2 258.1Q261.2 253.6 262.5 249.9Q263.7 246.3 266.1 243.8Q268.4 241.2 271.7 239.9Q275.1 238.5 279.3 238.5L279.3 238.5Q283.4 238.5 286.8 239.9Q290.1 241.2 292.4 243.6Q294.7 246.1 295.9 249.6Q297.2 253.1 297.2 257.4L297.2 257.4L297.2 260.6L271.8 260.6L271.8 261.2Q271.8 264.8 274.0 267.0Q276.2 269.2 280.6 269.2L280.6 269.2Q283.9 269.2 286.3 267.9Q288.6 266.7 290.4 264.6L290.4 264.6L296.1 270.9Q294.0 273.5 290.1 275.5Q286.2 277.4 280.2 277.4ZM279.3 246.2L279.3 246.2Q275.9 246.2 273.8 248.3Q271.8 250.4 271.8 254.0L271.8 254.0L271.8 254.6L286.8 254.6L286.8 254.0Q286.8 250.3 284.8 248.3Q282.8 246.2 279.3 246.2ZM306.1 276.6L306.1 268.3L314.7 268.3L314.7 247.7L306.1 247.7L306.1 239.4L325.4 239.4L325.4 249.9L325.9 249.9Q326.4 247.9 327.3 246.0Q328.2 244.1 329.6 242.6Q331.0 241.1 333.0 240.3Q335.0 239.4 337.7 239.4L337.7 239.4L341.3 239.4L341.3 249.2L333.3 249.2Q329.4 249.2 327.4 251.5Q325.4 253.9 325.4 257.3L325.4 257.3L325.4 268.3L337.6 268.3L337.6 276.6L306.1 276.6ZM365.2 277.4L365.2 277.4Q359.0 277.4 354.4 275.5Q349.8 273.7 347.5 270.4L347.5 270.4L353.5 264.9Q355.7 267.3 358.6 268.6Q361.5 269.9 365.2 269.9L365.2 269.9Q368.4 269.9 370.2 269.0Q372.0 268.0 372.0 266.0L372.0 266.0Q372.0 264.4 370.8 263.8Q369.6 263.2 367.4 262.8L367.4 262.8L361.4 261.9Q358.9 261.5 356.7 260.7Q354.6 260.0 353.0 258.7Q351.4 257.4 350.5 255.5Q349.5 253.7 349.5 251.0L349.5 251.0Q349.5 245.2 354.0 241.8Q358.5 238.5 366.5 238.5L366.5 238.5Q372.0 238.5 375.9 240.0Q379.7 241.5 382.0 244.2L382.0 244.2L376.7 250.3Q375.0 248.5 372.4 247.2Q369.8 246.0 366.2 246.0L366.2 246.0Q360.0 246.0 360.0 249.8L360.0 249.8Q360.0 251.4 361.2 252.0Q362.4 252.6 364.6 253.0L364.6 253.0L370.5 253.9Q373.0 254.3 375.2 255.1Q377.3 255.8 379.0 257.1Q380.6 258.4 381.5 260.3Q382.4 262.2 382.4 264.8L382.4 264.8Q382.4 270.6 377.9 274.0Q373.4 277.4 365.2 277.4ZM409.8 277.4L409.8 277.4Q400.4 277.4 395.6 272.2Q390.8 267.0 390.8 258.1L390.8 258.1Q390.8 253.6 392.1 249.9Q393.3 246.3 395.7 243.8Q398.0 241.2 401.3 239.9Q404.7 238.5 408.9 238.5L408.9 238.5Q413.0 238.5 416.4 239.9Q419.7 241.2 422.0 243.6Q424.3 246.1 425.5 249.6Q426.8 253.1 426.8 257.4L426.8 257.4L426.8 260.6L401.4 260.6L401.4 261.2Q401.4 264.8 403.6 267.0Q405.8 269.2 410.2 269.2L410.2 269.2Q413.5 269.2 415.9 267.9Q418.2 266.7 420.0 264.6L420.0 264.6L425.7 270.9Q423.6 273.5 419.7 275.5Q415.8 277.4 409.8 277.4ZM408.9 246.2L408.9 246.2Q405.5 246.2 403.4 248.3Q401.4 250.4 401.4 254.0L401.4 254.0L401.4 254.6L416.4 254.6L416.4 254.0Q416.4 250.3 414.4 248.3Q412.4 246.2 408.9 246.2ZM453.5 277.4L453.5 277.4Q449.1 277.4 445.6 276.1Q442.1 274.8 439.7 272.2Q437.3 269.7 436.0 266.1Q434.7 262.5 434.7 258.0L434.7 258.0Q434.7 253.4 436.0 249.8Q437.3 246.2 439.7 243.7Q442.1 241.2 445.6 239.9Q449.1 238.5 453.4 238.5L453.4 238.5Q459.6 238.5 463.3 241.0Q467.0 243.5 468.9 247.6L468.9 247.6L460.7 252.1Q459.7 249.9 458.1 248.5Q456.5 247.0 453.4 247.0L453.4 247.0Q449.8 247.0 447.8 249.2Q445.8 251.3 445.8 255.0L445.8 255.0L445.8 261.0Q445.8 264.7 447.8 266.8Q449.8 268.9 453.6 268.9L453.6 268.9Q456.7 268.9 458.4 267.5Q460.2 266.0 461.4 263.7L461.4 263.7L469.5 268.3Q467.5 272.4 463.6 274.9Q459.8 277.4 453.5 277.4ZM511.8 276.6L498.1 276.6Q492.3 276.6 489.5 273.5Q486.7 270.5 486.7 265.8L486.7 265.8L486.7 247.7L476.6 247.7L476.6 239.4L483.2 239.4Q485.6 239.4 486.6 238.5Q487.6 237.5 487.6 235.0L487.6 235.0L487.6 226.3L497.4 226.3L497.4 239.4L511.8 239.4L511.8 247.7L497.4 247.7L497.4 268.3L511.8 268.3L511.8 276.6ZM540.7 234.6L540.7 234.6Q537.1 234.6 535.7 233.2Q534.3 231.7 534.3 229.6L534.3 229.6L534.3 227.5Q534.3 225.4 535.7 223.9Q537.1 222.5 540.7 222.5L540.7 222.5Q544.3 222.5 545.7 223.9Q547.1 225.4 547.1 227.5L547.1 227.5L547.1 229.6Q547.1 231.7 545.7 233.2Q544.3 234.6 540.7 234.6ZM523.6 276.6L523.6 268.3L535.4 268.3L535.4 247.7L523.6 247.7L523.6 239.4L546.0 239.4L546.0 268.3L557.0 268.3L557.0 276.6L523.6 276.6ZM581.6 277.4L581.6 277.4Q577.3 277.4 573.8 276.1Q570.4 274.8 568.0 272.2Q565.5 269.7 564.2 266.1Q563.0 262.5 563.0 258.0L563.0 258.0Q563.0 253.4 564.2 249.8Q565.5 246.2 568.0 243.7Q570.4 241.2 573.8 239.9Q577.3 238.5 581.6 238.5L581.6 238.5Q585.9 238.5 589.4 239.9Q592.8 241.2 595.2 243.7Q597.7 246.2 599.0 249.8Q600.2 253.4 600.2 258.0L600.2 258.0Q600.2 262.5 599.0 266.1Q597.7 269.7 595.2 272.2Q592.8 274.8 589.4 276.1Q585.9 277.4 581.6 277.4ZM581.6 269.5L581.6 269.5Q585.2 269.5 587.2 267.3Q589.2 265.0 589.2 260.9L589.2 260.9L589.2 255.0Q589.2 250.9 587.2 248.7Q585.2 246.5 581.6 246.5L581.6 246.5Q578 246.5 576.0 248.7Q574.0 250.9 574.0 255.0L574.0 255.0L574.0 260.9Q574.0 265.0 576.0 267.3Q578 269.5 581.6 269.5ZM618.5 276.6L607.9 276.6L607.9 239.4L618.5 239.4L618.5 246.2L619.0 246.2Q619.6 244.6 620.6 243.2Q621.5 241.8 622.8 240.8Q624.2 239.8 625.9 239.1Q627.7 238.5 629.9 238.5L629.9 238.5Q632.6 238.5 634.8 239.4Q637.0 240.3 638.6 242.1Q640.2 243.9 641.1 246.5Q642.0 249.1 642.0 252.5L642.0 252.5L642.0 276.6L631.4 276.6L631.4 253.9Q631.4 246.7 625.1 246.7L625.1 246.7Q623.9 246.7 622.7 247.1Q621.5 247.4 620.6 248.1Q619.6 248.8 619.1 249.8Q618.5 250.8 618.5 252.1L618.5 252.1L618.5 276.6Z M711.2 277.4L711.2 277.4Q701.1 277.4 696.3 270.6Q691.5 263.7 691.5 251.4L691.5 251.4Q691.5 239.1 696.3 232.3Q701.1 225.4 711.2 225.4L711.2 225.4Q721.3 225.4 726.1 232.3Q730.9 239.1 730.9 251.4L730.9 251.4Q730.9 263.7 726.1 270.6Q721.3 277.4 711.2 277.4ZM711.2 268.7L711.2 268.7Q715.8 268.7 717.6 265.3Q719.3 261.9 719.3 255.7L719.3 255.7L719.3 247.0Q719.3 241.0 717.6 237.6Q715.8 234.1 711.2 234.1L711.2 234.1Q706.6 234.1 704.8 237.6Q703.1 241.0 703.1 247.0L703.1 247.0L703.1 255.8Q703.1 261.9 704.8 265.3Q706.6 268.7 711.2 268.7ZM737.0 276.6L737.0 223.3L747.7 223.3L747.7 246.2L748.2 246.2Q749.6 242.9 752.2 240.7Q754.8 238.5 759.2 238.5L759.2 238.5Q762.3 238.5 764.9 239.7Q767.4 240.8 769.3 243.2Q771.1 245.6 772.1 249.3Q773.2 252.9 773.2 258.0L773.2 258.0Q773.2 263.0 772.1 266.7Q771.1 270.4 769.3 272.7Q767.4 275.1 764.9 276.3Q762.3 277.4 759.2 277.4L759.2 277.4Q754.8 277.4 752.2 275.3Q749.6 273.2 748.2 269.8L748.2 269.8L747.7 269.8L747.7 276.6L737.0 276.6ZM754.6 269.1L754.6 269.1Q758.2 269.1 760.2 266.9Q762.1 264.7 762.1 260.9L762.1 260.9L762.1 255.1Q762.1 251.2 760.2 249.0Q758.2 246.8 754.6 246.8L754.6 246.8Q751.8 246.8 749.8 248.2Q747.7 249.6 747.7 252.5L747.7 252.5L747.7 263.4Q747.7 266.4 749.8 267.8Q751.8 269.1 754.6 269.1ZM797.2 277.4L797.2 277.4Q791.0 277.4 786.4 275.5Q781.8 273.7 779.5 270.4L779.5 270.4L785.5 264.9Q787.7 267.3 790.6 268.6Q793.5 269.9 797.2 269.9L797.2 269.9Q800.4 269.9 802.2 269.0Q804.0 268.0 804.0 266.0L804.0 266.0Q804.0 264.4 802.8 263.8Q801.6 263.2 799.4 262.8L799.4 262.8L793.4 261.9Q790.9 261.5 788.7 260.7Q786.6 260.0 785 258.7Q783.4 257.4 782.5 255.5Q781.5 253.7 781.5 251.0L781.5 251.0Q781.5 245.2 786.0 241.8Q790.5 238.5 798.5 238.5L798.5 238.5Q804.0 238.5 807.9 240.0Q811.7 241.5 814.0 244.2L814.0 244.2L808.7 250.3Q807.0 248.5 804.4 247.2Q801.8 246.0 798.2 246.0L798.2 246.0Q792.0 246.0 792.0 249.8L792.0 249.8Q792.0 251.4 793.2 252.0Q794.4 252.6 796.6 253.0L796.6 253.0L802.5 253.9Q805.0 254.3 807.2 255.1Q809.3 255.8 811.0 257.1Q812.6 258.4 813.5 260.3Q814.4 262.2 814.4 264.8L814.4 264.8Q814.4 270.6 809.9 274.0Q805.4 277.4 797.2 277.4ZM841.8 277.4L841.8 277.4Q832.4 277.4 827.6 272.2Q822.8 267.0 822.8 258.1L822.8 258.1Q822.8 253.6 824.1 249.9Q825.3 246.3 827.7 243.8Q830 241.2 833.3 239.9Q836.7 238.5 840.9 238.5L840.9 238.5Q845.0 238.5 848.4 239.9Q851.7 241.2 854.0 243.6Q856.3 246.1 857.5 249.6Q858.8 253.1 858.8 257.4L858.8 257.4L858.8 260.6L833.4 260.6L833.4 261.2Q833.4 264.8 835.6 267.0Q837.8 269.2 842.2 269.2L842.2 269.2Q845.5 269.2 847.9 267.9Q850.2 266.7 852.0 264.6L852.0 264.6L857.7 270.9Q855.6 273.5 851.7 275.5Q847.8 277.4 841.8 277.4ZM840.9 246.2L840.9 246.2Q837.5 246.2 835.4 248.3Q833.4 250.4 833.4 254.0L833.4 254.0L833.4 254.6L848.4 254.6L848.4 254.0Q848.4 250.3 846.4 248.3Q844.4 246.2 840.9 246.2ZM867.7 276.6L867.7 268.3L876.3 268.3L876.3 247.7L867.7 247.7L867.7 239.4L887.0 239.4L887.0 249.9L887.5 249.9Q888.0 247.9 888.9 246.0Q889.8 244.1 891.2 242.6Q892.6 241.1 894.6 240.3Q896.6 239.4 899.3 239.4L899.3 239.4L902.9 239.4L902.9 249.2L894.9 249.2Q891.0 249.2 889.0 251.5Q887.0 253.9 887.0 257.3L887.0 257.3L887.0 268.3L899.2 268.3L899.2 276.6L867.7 276.6ZM933.5 276.6L920.9 276.6L907.5 239.4L918.8 239.4L923.6 255.3L927.1 267.7L927.7 267.7L931.2 255.3L936.1 239.4L946.9 239.4L933.5 276.6ZM971.4 277.4L971.4 277.4Q962.0 277.4 957.2 272.2Q952.4 267.0 952.4 258.1L952.4 258.1Q952.4 253.6 953.7 249.9Q954.9 246.3 957.3 243.8Q959.6 241.2 962.9 239.9Q966.3 238.5 970.5 238.5L970.5 238.5Q974.6 238.5 978.0 239.9Q981.3 241.2 983.6 243.6Q985.9 246.1 987.1 249.6Q988.4 253.1 988.4 257.4L988.4 257.4L988.4 260.6L963.0 260.6L963.0 261.2Q963.0 264.8 965.2 267.0Q967.4 269.2 971.8 269.2L971.8 269.2Q975.1 269.2 977.5 267.9Q979.8 266.7 981.6 264.6L981.6 264.6L987.3 270.9Q985.2 273.5 981.3 275.5Q977.4 277.4 971.4 277.4ZM970.5 246.2L970.5 246.2Q967.1 246.2 965.0 248.3Q963.0 250.4 963.0 254.0L963.0 254.0L963.0 254.6L978.0 254.6L978.0 254.0Q978.0 250.3 976.0 248.3Q974.0 246.2 970.5 246.2ZM997.3 276.6L997.3 268.3L1005.9 268.3L1005.9 247.7L997.3 247.7L997.3 239.4L1016.6 239.4L1016.6 249.9L1017.1 249.9Q1017.6 247.9 1018.5 246.0Q1019.4 244.1 1020.8 242.6Q1022.2 241.1 1024.2 240.3Q1026.2 239.4 1028.9 239.4L1028.9 239.4L1032.5 239.4L1032.5 249.2L1024.5 249.2Q1020.6 249.2 1018.6 251.5Q1016.6 253.9 1016.6 257.3L1016.6 257.3L1016.6 268.3L1028.8 268.3L1028.8 276.6L997.3 276.6Z " clip-path="url(#satori_cp-id-1-0-0)" mask="url(#satori_om-id-1-0-0)"/><path fill="black" d="M130.7 520.3L130.7 499.6L132.9 499.6L132.9 508.2L133.0 508.2Q134.4 505.5 137.5 505.5L137.5 505.5Q140.1 505.5 141.6 507.5Q143.1 509.5 143.1 513.0L143.1 513.0Q143.1 516.6 141.6 518.6Q140.1 520.6 137.5 520.6L137.5 520.6Q134.4 520.6 133.0 517.9L133.0 517.9L132.9 517.9L132.9 520.3L130.7 520.3ZM136.6 518.6L136.6 518.6Q138.6 518.6 139.6 517.4Q140.7 516.2 140.7 514.3L140.7 514.3L140.7 511.8Q140.7 509.9 139.6 508.7Q138.6 507.5 136.6 507.5L136.6 507.5Q135.8 507.5 135.2 507.7Q134.5 507.9 134.0 508.2Q133.5 508.6 133.2 509.2Q132.9 509.7 132.9 510.4L132.9 510.4L132.9 515.7Q132.9 516.4 133.2 516.9Q133.5 517.5 134.0 517.8Q134.5 518.2 135.2 518.4Q135.8 518.6 136.6 518.6ZM155.4 511.9L157.9 505.8L160.1 505.8L152.9 523.4Q152.7 524.1 152.4 524.5Q152.1 525.0 151.7 525.3Q151.2 525.6 150.7 525.7Q150.1 525.9 149.3 525.9L149.3 525.9L147.1 525.9L147.1 524.0L150.5 524.0L152.1 520.0L146.3 505.8L148.6 505.8L151.0 511.9L153.2 517.4L153.3 517.4L155.4 511.9Z "/><clipPath id="satori_cp-id-1-0-1-0-2"><rect x="178" y="489" width="134" height="36"/></clipPath><mask id="satori_om-id-1-0-1-0-2"><rect x="178" y="489" width="134" height="36" fill="#fff"/></mask><path fill="black" d="M193.0 520.1L179.8 520.1L179.8 516.6L187.9 508.9L180.1 508.9L180.1 505.6L192.7 505.6L192.7 509.1L184.6 516.9L193.0 516.9L193.0 520.1ZM196.6 520.1L196.6 499.4L200.8 499.4L200.8 508.3L200.9 508.3Q201.2 507.7 201.5 507.1Q201.9 506.6 202.4 506.2Q202.9 505.8 203.6 505.5Q204.3 505.3 205.2 505.3L205.2 505.3Q206.2 505.3 207.1 505.7Q208.0 506.0 208.6 506.7Q209.2 507.4 209.5 508.4Q209.9 509.4 209.9 510.7L209.9 510.7L209.9 520.1L205.7 520.1L205.7 511.3Q205.7 508.5 203.3 508.5L203.3 508.5Q202.8 508.5 202.4 508.6Q201.9 508.8 201.5 509.0Q201.2 509.3 201.0 509.7Q200.8 510.1 200.8 510.6L200.8 510.6L200.8 520.1L196.6 520.1ZM227.6 520.1L225.2 520.1Q223.9 520.1 223.2 519.4Q222.4 518.8 222.2 517.5L222.2 517.5L222.1 517.5Q221.7 519.0 220.5 519.7Q219.4 520.4 217.7 520.4L217.7 520.4Q215.6 520.4 214.3 519.3Q213.1 518.2 213.1 516.1L213.1 516.1Q213.1 513.8 214.7 512.8Q216.4 511.7 219.6 511.7L219.6 511.7L221.9 511.7L221.9 510.9Q221.9 509.6 221.3 509.0Q220.7 508.3 219.2 508.3L219.2 508.3Q217.9 508.3 217.1 508.8Q216.3 509.3 215.7 510.2L215.7 510.2L213.4 508.1Q214.2 506.9 215.7 506.1Q217.3 505.3 219.7 505.3L219.7 505.3Q222.7 505.3 224.4 506.7Q226.0 508.0 226.0 510.8L226.0 510.8L226.0 517.1L227.6 517.1L227.6 520.1ZM219.3 517.7L219.3 517.7Q220.4 517.7 221.1 517.2Q221.9 516.6 221.9 515.6L221.9 515.6L221.9 513.9L219.7 513.9Q217.1 513.9 217.1 515.6L217.1 515.6L217.1 516.2Q217.1 516.9 217.7 517.3Q218.3 517.7 219.3 517.7ZM234.4 520.1L230.2 520.1L230.2 505.6L234.4 505.6L234.4 508.3L234.5 508.3Q234.8 507.7 235.1 507.1Q235.5 506.6 236.0 506.2Q236.5 505.8 237.2 505.5Q237.9 505.3 238.8 505.3L238.8 505.3Q239.8 505.3 240.7 505.7Q241.6 506.0 242.2 506.7Q242.8 507.4 243.1 508.4Q243.5 509.4 243.5 510.7L243.5 510.7L243.5 520.1L239.3 520.1L239.3 511.3Q239.3 508.5 236.9 508.5L236.9 508.5Q236.4 508.5 236.0 508.6Q235.5 508.8 235.1 509.0Q234.8 509.3 234.6 509.7Q234.4 510.1 234.4 510.6L234.4 510.6L234.4 520.1ZM261.5 521.5L261.5 521.5Q261.5 523.8 259.6 524.9Q257.7 526.0 253.5 526.0L253.5 526.0Q251.4 526.0 250.1 525.8Q248.8 525.6 248.0 525.1Q247.2 524.7 246.8 524.0Q246.5 523.4 246.5 522.7L246.5 522.7Q246.5 521.5 247.2 520.8Q248.0 520.2 249.3 519.9L249.3 519.9L249.3 519.7Q248.4 519.4 247.8 518.9Q247.3 518.4 247.3 517.4L247.3 517.4Q247.3 516.4 248.0 515.9Q248.7 515.4 249.9 515.1L249.9 515.1L249.9 514.9Q248.6 514.3 247.9 513.2Q247.2 512.1 247.2 510.5L247.2 510.5Q247.2 509.2 247.6 508.2Q248.1 507.3 248.9 506.6Q249.7 506.0 250.9 505.6Q252.0 505.3 253.4 505.3L253.4 505.3Q254.8 505.3 256.0 505.6L256.0 505.6L256.0 504.8Q256.0 504.0 256.6 503.4Q257.2 502.9 258.2 502.9L258.2 502.9L260.7 502.9L260.7 505.9L257.3 505.9L257.3 506.1Q258.4 506.8 259.1 507.8Q259.8 508.9 259.8 510.5L259.8 510.5Q259.8 511.7 259.3 512.7Q258.9 513.6 258.0 514.3Q257.2 514.9 256.0 515.3Q254.9 515.6 253.4 515.6L253.4 515.6Q252.8 515.6 252.2 515.5Q251.6 515.5 251.1 515.3L251.1 515.3Q250.8 515.5 250.6 515.8Q250.4 516.0 250.4 516.4L250.4 516.4Q250.4 516.7 250.5 516.9Q250.7 517.1 251.0 517.2Q251.3 517.3 251.7 517.3Q252.1 517.4 252.5 517.4L252.5 517.4L255.8 517.4Q257.3 517.4 258.4 517.7Q259.5 518.0 260.2 518.6Q260.9 519.1 261.2 519.9Q261.5 520.6 261.5 521.5ZM257.6 521.9L257.6 521.9Q257.6 521.3 257.2 521.0Q256.7 520.7 255.4 520.7L255.4 520.7L250.5 520.7Q249.9 521.1 249.9 521.8L249.9 521.8Q249.9 522.5 250.5 522.9Q251.1 523.4 252.5 523.4L252.5 523.4L254.9 523.4Q256.3 523.4 257.0 523.0Q257.6 522.6 257.6 521.9ZM253.4 513.0L253.4 513.0Q254.7 513.0 255.3 512.4Q255.8 511.7 255.8 510.8L255.8 510.8L255.8 510.1Q255.8 509.2 255.3 508.6Q254.7 507.9 253.4 507.9L253.4 507.9Q252.2 507.9 251.6 508.6Q251.1 509.2 251.1 510.1L251.1 510.1L251.1 510.8Q251.1 511.7 251.6 512.4Q252.2 513.0 253.4 513.0ZM263.9 520.1L263.9 516.9L268.3 516.9L268.3 502.6L263.9 502.6L263.9 499.4L272.5 499.4L272.5 516.9L276.9 516.9L276.9 520.1L263.9 520.1ZM289.6 520.1L289.6 517.5L289.5 517.5Q289.0 518.7 288.0 519.6Q286.9 520.4 285.2 520.4L285.2 520.4Q284.2 520.4 283.3 520.1Q282.4 519.7 281.8 519.0Q281.2 518.3 280.9 517.3Q280.5 516.3 280.5 515.0L280.5 515.0L280.5 505.6L284.7 505.6L284.7 514.4Q284.7 517.2 287.1 517.2L287.1 517.2Q287.6 517.2 288.0 517.1Q288.5 517.0 288.8 516.7Q289.2 516.5 289.4 516.1Q289.6 515.7 289.6 515.1L289.6 515.1L289.6 505.6L293.8 505.6L293.8 520.1L289.6 520.1ZM301.6 520.1L297.4 520.1L297.4 505.6L301.6 505.6L301.6 508.3L301.7 508.3Q302.0 507.7 302.3 507.1Q302.7 506.6 303.2 506.2Q303.7 505.8 304.4 505.5Q305.1 505.3 306.0 505.3L306.0 505.3Q307.0 505.3 307.9 505.7Q308.8 506.0 309.4 506.7Q310.0 507.4 310.3 508.4Q310.7 509.4 310.7 510.7L310.7 510.7L310.7 520.1L306.5 520.1L306.5 511.3Q306.5 508.5 304.1 508.5L304.1 508.5Q303.6 508.5 303.2 508.6Q302.7 508.8 302.3 509.0Q302.0 509.3 301.8 509.7Q301.6 510.1 301.6 510.6L301.6 510.6L301.6 520.1Z " clip-path="url(#satori_cp-id-1-0-1-0-2)" mask="url(#satori_om-id-1-0-1-0-2)"/><clipPath id="satori_cp-id-1-0-1-1"><rect x="786" y="489" width="286" height="36"/></clipPath><mask id="satori_om-id-1-0-1-1"><rect x="786" y="489" width="286" height="36" fill="#fff"/></mask><path fill="black" d="M802.7 520.1L798.2 520.1L796.9 515.4L791.6 515.4L790.4 520.1L786.1 520.1L791.4 500.5L797.4 500.5L802.7 520.1ZM796.3 512.0L794.4 504.6L794.2 504.6L792.3 512.0L796.3 512.0ZM811.0 520.4L811.0 520.4Q808.6 520.4 806.8 519.7Q805.1 519.0 804.2 517.7L804.2 517.7L806.5 515.6Q807.3 516.5 808.5 517.0Q809.6 517.5 811.1 517.5L811.1 517.5Q812.3 517.5 813.0 517.1Q813.7 516.8 813.7 516.0L813.7 516.0Q813.7 515.4 813.2 515.1Q812.7 514.9 811.9 514.7L811.9 514.7L809.6 514.4Q808.6 514.2 807.8 513.9Q806.9 513.7 806.3 513.1Q805.7 512.6 805.3 511.9Q805.0 511.2 805.0 510.2L805.0 510.2Q805.0 507.9 806.7 506.6Q808.4 505.3 811.6 505.3L811.6 505.3Q813.7 505.3 815.2 505.9Q816.7 506.5 817.6 507.5L817.6 507.5L815.5 509.9Q814.9 509.2 813.9 508.7Q812.9 508.2 811.4 508.2L811.4 508.2Q809.0 508.2 809.0 509.7L809.0 509.7Q809.0 510.3 809.5 510.6Q810.0 510.8 810.8 510.9L810.8 510.9L813.1 511.3Q814.1 511.4 814.9 511.7Q815.8 512.0 816.4 512.5Q817.0 513.0 817.4 513.8Q817.8 514.5 817.8 515.5L817.8 515.5Q817.8 517.8 816.0 519.1Q814.3 520.4 811.0 520.4ZM834.5 520.1L829.1 520.1Q826.9 520.1 825.8 518.9Q824.7 517.7 824.7 515.9L824.7 515.9L824.7 508.9L820.8 508.9L820.8 505.6L823.3 505.6Q824.2 505.6 824.6 505.3Q825.0 504.9 825.0 503.9L825.0 503.9L825.0 500.5L828.8 500.5L828.8 505.6L834.5 505.6L834.5 508.9L828.8 508.9L828.8 516.9L834.5 516.9L834.5 520.1ZM838.5 520.1L838.5 516.9L841.8 516.9L841.8 508.9L838.5 508.9L838.5 505.6L845.9 505.6L845.9 509.7L846.1 509.7Q846.3 508.9 846.7 508.2Q847.0 507.5 847.6 506.9Q848.1 506.3 848.9 506.0Q849.7 505.6 850.8 505.6L850.8 505.6L852.1 505.6L852.1 509.5L849.1 509.5Q847.5 509.5 846.7 510.4Q845.9 511.3 845.9 512.6L845.9 512.6L845.9 516.9L850.7 516.9L850.7 520.1L838.5 520.1ZM861.6 520.4L861.6 520.4Q859.9 520.4 858.6 519.9Q857.2 519.4 856.3 518.4Q855.4 517.4 854.9 516.0Q854.3 514.6 854.3 512.9L854.3 512.9Q854.3 511.1 854.9 509.7Q855.4 508.3 856.3 507.3Q857.2 506.3 858.6 505.8Q859.9 505.3 861.6 505.3L861.6 505.3Q863.3 505.3 864.6 505.8Q866.0 506.3 866.9 507.3Q867.8 508.3 868.3 509.7Q868.9 511.1 868.9 512.9L868.9 512.9Q868.9 514.6 868.3 516.0Q867.8 517.4 866.9 518.4Q866.0 519.4 864.6 519.9Q863.3 520.4 861.6 520.4ZM861.6 517.3L861.6 517.3Q863.0 517.3 863.8 516.5Q864.6 515.6 864.6 514.0L864.6 514.0L864.6 511.7Q864.6 510.1 863.8 509.3Q863.0 508.4 861.6 508.4L861.6 508.4Q860.2 508.4 859.4 509.3Q858.6 510.1 858.6 511.7L858.6 511.7L858.6 514.0Q858.6 515.6 859.4 516.5Q860.2 517.3 861.6 517.3Z M888.5 520.1L888.5 499.4L892.6 499.4L892.6 508.3L892.8 508.3Q893.3 507.0 894.3 506.1Q895.3 505.3 897.1 505.3L897.1 505.3Q898.3 505.3 899.3 505.8Q900.3 506.2 901.0 507.1Q901.7 508.1 902.1 509.5Q902.5 510.9 902.5 512.9L902.5 512.9Q902.5 514.8 902.1 516.3Q901.7 517.7 901.0 518.6Q900.3 519.5 899.3 520.0Q898.3 520.4 897.1 520.4L897.1 520.4Q895.3 520.4 894.3 519.6Q893.3 518.8 892.8 517.5L892.8 517.5L892.6 517.5L892.6 520.1L888.5 520.1ZM895.3 517.2L895.3 517.2Q896.7 517.2 897.4 516.4Q898.2 515.5 898.2 514.0L898.2 514.0L898.2 511.7Q898.2 510.2 897.4 509.4Q896.7 508.5 895.3 508.5L895.3 508.5Q894.2 508.5 893.4 509.1Q892.6 509.6 892.6 510.7L892.6 510.7L892.6 515.0Q892.6 516.1 893.4 516.7Q894.2 517.2 895.3 517.2ZM905.5 520.1L905.5 516.9L909.9 516.9L909.9 502.6L905.5 502.6L905.5 499.4L914.1 499.4L914.1 516.9L918.5 516.9L918.5 520.1L905.5 520.1ZM928.8 520.4L928.8 520.4Q927.1 520.4 925.8 519.9Q924.4 519.4 923.5 518.4Q922.6 517.4 922.1 516.0Q921.5 514.6 921.5 512.9L921.5 512.9Q921.5 511.1 922.1 509.7Q922.6 508.3 923.5 507.3Q924.4 506.3 925.8 505.8Q927.1 505.3 928.8 505.3L928.8 505.3Q930.5 505.3 931.8 505.8Q933.2 506.3 934.1 507.3Q935.0 508.3 935.5 509.7Q936.1 511.1 936.1 512.9L936.1 512.9Q936.1 514.6 935.5 516.0Q935.0 517.4 934.1 518.4Q933.2 519.4 931.8 519.9Q930.5 520.4 928.8 520.4ZM928.8 517.3L928.8 517.3Q930.2 517.3 931.0 516.5Q931.8 515.6 931.8 514.0L931.8 514.0L931.8 511.7Q931.8 510.1 931.0 509.3Q930.2 508.4 928.8 508.4L928.8 508.4Q927.4 508.4 926.6 509.3Q925.8 510.1 925.8 511.7L925.8 511.7L925.8 514.0Q925.8 515.6 926.6 516.5Q927.4 517.3 928.8 517.3ZM953.5 521.5L953.5 521.5Q953.5 523.8 951.6 524.9Q949.7 526.0 945.5 526.0L945.5 526.0Q943.4 526.0 942.1 525.8Q940.8 525.6 940.0 525.1Q939.2 524.7 938.8 524.0Q938.5 523.4 938.5 522.7L938.5 522.7Q938.5 521.5 939.2 520.8Q940.0 520.2 941.3 519.9L941.3 519.9L941.3 519.7Q940.4 519.4 939.8 518.9Q939.3 518.4 939.3 517.4L939.3 517.4Q939.3 516.4 940.0 515.9Q940.7 515.4 941.9 515.1L941.9 515.1L941.9 514.9Q940.6 514.3 939.9 513.2Q939.2 512.1 939.2 510.5L939.2 510.5Q939.2 509.2 939.6 508.2Q940.1 507.3 940.9 506.6Q941.7 506.0 942.9 505.6Q944.0 505.3 945.4 505.3L945.4 505.3Q946.8 505.3 948.0 505.6L948.0 505.6L948.0 504.8Q948.0 504.0 948.6 503.4Q949.2 502.9 950.2 502.9L950.2 502.9L952.7 502.9L952.7 505.9L949.3 505.9L949.3 506.1Q950.4 506.8 951.1 507.8Q951.8 508.9 951.8 510.5L951.8 510.5Q951.8 511.7 951.3 512.7Q950.9 513.6 950.0 514.3Q949.2 514.9 948.0 515.3Q946.9 515.6 945.4 515.6L945.4 515.6Q944.8 515.6 944.2 515.5Q943.6 515.5 943.1 515.3L943.1 515.3Q942.8 515.5 942.6 515.8Q942.4 516.0 942.4 516.4L942.4 516.4Q942.4 516.7 942.5 516.9Q942.7 517.1 943.0 517.2Q943.3 517.3 943.7 517.3Q944.1 517.4 944.5 517.4L944.5 517.4L947.8 517.4Q949.3 517.4 950.4 517.7Q951.5 518.0 952.2 518.6Q952.9 519.1 953.2 519.9Q953.5 520.6 953.5 521.5ZM949.6 521.9L949.6 521.9Q949.6 521.3 949.2 521.0Q948.7 520.7 947.4 520.7L947.4 520.7L942.5 520.7Q941.9 521.1 941.9 521.8L941.9 521.8Q941.9 522.5 942.5 522.9Q943.1 523.4 944.5 523.4L944.5 523.4L946.9 523.4Q948.3 523.4 949.0 523.0Q949.6 522.6 949.6 521.9ZM945.4 513.0L945.4 513.0Q946.7 513.0 947.3 512.4Q947.8 511.7 947.8 510.8L947.8 510.8L947.8 510.1Q947.8 509.2 947.3 508.6Q946.7 507.9 945.4 507.9L945.4 507.9Q944.2 507.9 943.6 508.6Q943.1 509.2 943.1 510.1L943.1 510.1L943.1 510.8Q943.1 511.7 943.6 512.4Q944.2 513.0 945.4 513.0Z M972.8 520.1L972.8 516.9L977.0 516.9L977.0 508.9L972.5 508.9L972.5 505.6L977.0 505.6L977.0 503.5Q977.0 501.7 978.1 500.5Q979.2 499.4 981.5 499.4L981.5 499.4L986.4 499.4L986.4 502.6L981.2 502.6L981.2 505.6L986.4 505.6L986.4 508.9L981.2 508.9L981.2 516.9L985.7 516.9L985.7 520.1L972.8 520.1ZM1003.6 520.1L1001.2 520.1Q999.9 520.1 999.2 519.4Q998.4 518.8 998.2 517.5L998.2 517.5L998.1 517.5Q997.7 519.0 996.5 519.7Q995.4 520.4 993.7 520.4L993.7 520.4Q991.6 520.4 990.3 519.3Q989.1 518.2 989.1 516.1L989.1 516.1Q989.1 513.8 990.7 512.8Q992.4 511.7 995.6 511.7L995.6 511.7L997.9 511.7L997.9 510.9Q997.9 509.6 997.3 509.0Q996.7 508.3 995.2 508.3L995.2 508.3Q993.9 508.3 993.1 508.8Q992.3 509.3 991.7 510.2L991.7 510.2L989.4 508.1Q990.2 506.9 991.7 506.1Q993.3 505.3 995.7 505.3L995.7 505.3Q998.7 505.3 1000.4 506.7Q1002.0 508.0 1002.0 510.8L1002.0 510.8L1002.0 517.1L1003.6 517.1L1003.6 520.1ZM995.3 517.7L995.3 517.7Q996.4 517.7 997.1 517.2Q997.9 516.6 997.9 515.6L997.9 515.6L997.9 513.9L995.7 513.9Q993.1 513.9 993.1 515.6L993.1 515.6L993.1 516.2Q993.1 516.9 993.7 517.3Q994.3 517.7 995.3 517.7ZM1013.4 520.4L1013.4 520.4Q1011.7 520.4 1010.3 519.9Q1009.0 519.4 1008.0 518.4Q1007.1 517.4 1006.6 516.0Q1006.1 514.6 1006.1 512.9L1006.1 512.9Q1006.1 511.1 1006.6 509.7Q1007.1 508.3 1008.0 507.3Q1009.0 506.3 1010.3 505.8Q1011.7 505.3 1013.4 505.3L1013.4 505.3Q1015.7 505.3 1017.2 506.3Q1018.6 507.2 1019.4 508.8L1019.4 508.8L1016.2 510.6Q1015.8 509.7 1015.2 509.2Q1014.5 508.6 1013.4 508.6L1013.4 508.6Q1011.9 508.6 1011.2 509.4Q1010.4 510.3 1010.4 511.7L1010.4 511.7L1010.4 514.0Q1010.4 515.5 1011.2 516.3Q1011.9 517.1 1013.4 517.1L1013.4 517.1Q1014.6 517.1 1015.3 516.6Q1016.0 516.0 1016.5 515.1L1016.5 515.1L1019.6 516.9Q1018.8 518.5 1017.3 519.5Q1015.8 520.4 1013.4 520.4ZM1030.5 503.8L1030.5 503.8Q1029.1 503.8 1028.5 503.2Q1028.0 502.6 1028.0 501.8L1028.0 501.8L1028.0 501.0Q1028.0 500.2 1028.5 499.6Q1029.1 499.1 1030.5 499.1L1030.5 499.1Q1031.9 499.1 1032.4 499.6Q1033.0 500.2 1033.0 501.0L1033.0 501.0L1033.0 501.8Q1033.0 502.6 1032.4 503.2Q1031.9 503.8 1030.5 503.8ZM1023.8 520.1L1023.8 516.9L1028.4 516.9L1028.4 508.9L1023.8 508.9L1023.8 505.6L1032.6 505.6L1032.6 516.9L1036.8 516.9L1036.8 520.1L1023.8 520.1ZM1039.9 520.1L1039.9 516.9L1044.3 516.9L1044.3 502.6L1039.9 502.6L1039.9 499.4L1048.5 499.4L1048.5 516.9L1052.9 516.9L1052.9 520.1L1039.9 520.1ZM1063.6 520.4L1063.6 520.4Q1060.0 520.4 1058.1 518.4Q1056.2 516.4 1056.2 512.9L1056.2 512.9Q1056.2 511.2 1056.7 509.7Q1057.2 508.3 1058.1 507.3Q1059.0 506.3 1060.3 505.8Q1061.6 505.3 1063.2 505.3L1063.2 505.3Q1064.9 505.3 1066.1 505.8Q1067.4 506.3 1068.3 507.3Q1069.2 508.2 1069.7 509.6Q1070.2 511.0 1070.2 512.6L1070.2 512.6L1070.2 513.9L1060.3 513.9L1060.3 514.1Q1060.3 515.5 1061.2 516.4Q1062.1 517.2 1063.7 517.2L1063.7 517.2Q1065.0 517.2 1065.9 516.7Q1066.9 516.3 1067.5 515.4L1067.5 515.4L1069.8 517.9Q1068.9 518.9 1067.4 519.7Q1065.9 520.4 1063.6 520.4ZM1063.3 508.3L1063.3 508.3Q1061.9 508.3 1061.1 509.1Q1060.3 509.9 1060.3 511.3L1060.3 511.3L1060.3 511.6L1066.1 511.6L1066.1 511.3Q1066.1 509.9 1065.4 509.1Q1064.6 508.3 1063.3 508.3Z " clip-path="url(#satori_cp-id-1-0-1-1)" mask="url(#satori_om-id-1-0-1-1)"/></svg>