<svg width="1200" height="630" viewBox="0 0 1200 630" xmlns="http://www.w3.org/2000/svg"><rect x="0" y="0" width="1200" height="630" fill="#fefbfb"/><defs><clipPath id="satori_bc-id-0"><path x="105" y="39" width="1056" height="504" d="M109,39 h1048 a4,4 0 0 1 4,4 v496 a4,4 0 0 1 -4,4 h-1048 a4,4 0 0 1 -4,-4 v-496 a4,4 0 0 1 4,-4"/></clipPath></defs><g opacity="0.9"><path x="105" y="39" width="1056" height="504" fill="#ecebeb" d="M109,39 h1048 a4,4 0 0 1 4,4 v496 a4,4 0 0 1 -4,4 h-1048 a4,4 0 0 1 -4,-4 v-496 a4,4 0 0 1 4,-4"/><path width="1056" height="504" clip-path="url(#satori_bc-id-0)" fill="none" stroke="#000" stroke-width="8" d="M106.172,40.172 A4,4 0 0 1 109,39 h1048 a4,4 0 0 1 4,4 v496 a4,4 0 0 1 -4,4 h-1048 a4,4 0 0 1 -4,-4 v-496 A4,4 0 0 1 106.172,40.172"/></g><defs><clipPath id="satori_bc-id-1"><path x="72" y="63" width="1056" height="504" d="M76,63 h1048 a4,4 0 0 1 4,4 v496 a4,4 0 0 1 -4,4 h-1048 a4,4 0 0 1 -4,-4 v-496 a4,4 0 0 1 4,-4"/></clipPath></defs><path x="72" y="63" width="1056" height="504" fill="#fefbfb" d="M76,63 h1048 a4,4 0 0 1 4,4 v496 a4,4 0 0 1 -4,4 h-1048 a4,4 0 0 1 -4,-4 v-496 a4,4 0 0 1 4,-4"/><path width="1056" height="504" clip-path="url(#satori_bc-id-1)" fill="none" stroke="#000" stroke-width="8" d="M73.172,64.172 A4,4 0 0 1 76,63 h1048 a4,4 0 0 1 4,4 v496 a4,4 0 0 1 -4,4 h-1048 a4,4 0 0 1 -4,-4 v-496 A4,4 0 0 1 73.172,64.172"/><clipPath id="satori_cp-id-1-0-0"><rect x="128" y="103" width="944" height="187"/></clipPath><mask id="satori_om-id-1-0-0"><rect x="128" y="103" width="944" height="187" fill="#fff"/></mask><path fill="black" d="M168.9 183.0L130.3 183.0L130.3 126.8L168.9 126.8L168.9 183.0ZM137.5 134.0L137.5 175.8L161.7 175.8L161.7 134.0L137.5 134.0ZM212.1 183.0L173.5 183.0L173.5 126.8L212.1 126.8L212.1 183.0ZM180.7 134.0L180.7 175.8L204.9 175.8L204.9 134.0L180.7 134.0ZM255.9 141.6L241.4 141.6L241.4 183.0L230.6 183.0L230.6 141.6L216.1 141.6L216.1 132.7L255.9 132.7L255.9 141.6ZM262.9 183.0L262.9 174.7L271.5 174.7L271.5 154.1L262.9 154.1L262.9 145.8L282.2 145.8L282.2 156.3L282.7 156.3Q283.2 154.3 284.1 152.4Q285.0 150.5 286.4 149.0Q287.8 147.5 289.8 146.7Q291.8 145.8 294.5 145.8L294.5 145.8L298.1 145.8L298.1 155.6L290.1 155.6Q286.2 155.6 284.2 157.9Q282.2 160.3 282.2 163.7L282.2 163.7L282.2 174.7L294.4 174.7L294.4 183.0L262.9 183.0ZM323.4 183.8L323.4 183.8Q314.0 183.8 309.2 178.6Q304.4 173.4 304.4 164.5L304.4 164.5Q304.4 160.0 305.7 156.3Q306.9 152.7 309.3 150.2Q311.6 147.6 314.9 146.3Q318.3 144.9 322.5 144.9L322.5 144.9Q326.6 144.9 330.0 146.3Q333.3 147.6 335.6 150.0Q337.9 152.5 339.1 156.0Q340.4 159.5 340.4 163.8L340.4 163.8L340.4 167.0L315.0 167.0L315.0 167.6Q315.0 171.2 317.2 173.4Q319.4 175.6 323.8 175.6L323.8 175.6Q327.1 175.6 329.5 174.3Q331.8 173.1 333.6 171.0L333.6 171.0L339.3 177.3Q337.2 179.9 333.3 181.9Q329.4 183.8 323.4 183.8ZM322.5 152.6L322.5 152.6Q319.1 152.6 317.0 154.7Q315.0 156.8 315.0 160.4L315.0 160.4L315.0 161.0L330.0 161.0L330.0 160.4Q330.0 156.7 328.0 154.7Q326.0 152.6 322.5 152.6ZM366.6 183.8L366.6 183.8Q357.2 183.8 352.4 178.6Q347.6 173.4 347.6 164.5L347.6 164.5Q347.6 160.0 348.9 156.3Q350.1 152.7 352.5 150.2Q354.8 147.6 358.1 146.3Q361.5 144.9 365.7 144.9L365.7 144.9Q369.8 144.9 373.2 146.3Q376.5 147.6 378.8 150.0Q381.1 152.5 382.3 156.0Q383.6 159.5 383.6 163.8L383.6 163.8L383.6 167.0L358.2 167.0L358.2 167.6Q358.2 171.2 360.4 173.4Q362.6 175.6 367.0 175.6L367.0 175.6Q370.3 175.6 372.7 174.3Q375.0 173.1 376.8 171.0L376.8 171.0L382.5 177.3Q380.4 179.9 376.5 181.9Q372.6 183.8 366.6 183.8ZM365.7 152.6L365.7 152.6Q362.3 152.6 360.2 154.7Q358.2 156.8 358.2 160.4L358.2 160.4L358.2 161.0L373.2 161.0L373.2 160.4Q373.2 156.7 371.2 154.7Q369.2 152.6 365.7 152.6ZM408.0 183.8L408.0 183.8Q401.7 183.8 397.0 181.7Q392.3 179.6 389.4 176.0L389.4 176.0L395.7 169.1Q398.4 172.2 401.7 173.6Q405.0 175.0 408.4 175.0L408.4 175.0Q412.3 175.0 414.3 173.3Q416.3 171.6 416.3 168.3L416.3 168.3Q416.3 165.7 414.7 164.3Q413.2 162.9 409.5 162.4L409.5 162.4L404.3 161.5Q397.5 160.3 394.5 156.5Q391.4 152.6 391.4 147.1L391.4 147.1Q391.4 139.8 396.2 135.8Q401.0 131.8 409.5 131.8L409.5 131.8Q415.4 131.8 419.7 133.6Q424.0 135.4 426.7 138.5L426.7 138.5L420.5 145.4Q418.5 143.1 415.8 141.9Q413.0 140.6 409.6 140.6L409.6 140.6Q402.3 140.6 402.3 146.6L402.3 146.6Q402.3 149.2 403.9 150.5Q405.6 151.8 409.2 152.4L409.2 152.4L414.5 153.4Q420.6 154.4 423.9 158.0Q427.2 161.5 427.2 167.5L427.2 167.5Q427.2 171.0 426.0 174.0Q424.8 177.0 422.3 179.2Q419.9 181.4 416.3 182.6Q412.8 183.8 408.0 183.8ZM435.1 183.0L435.1 129.7L445.7 129.7L445.7 152.6L446.2 152.6Q446.8 151.0 447.8 149.6Q448.7 148.2 450.0 147.2Q451.4 146.2 453.1 145.5Q454.9 144.9 457.1 144.9L457.1 144.9Q459.8 144.9 462.0 145.8Q464.2 146.7 465.8 148.5Q467.4 150.3 468.3 152.9Q469.2 155.5 469.2 158.9L469.2 158.9L469.2 183.0L458.6 183.0L458.6 160.3Q458.6 153.1 452.3 153.1L452.3 153.1Q451.1 153.1 449.9 153.5Q448.7 153.8 447.8 154.5Q446.8 155.2 446.3 156.2Q445.7 157.2 445.7 158.5L445.7 158.5L445.7 183.0L435.1 183.0ZM514.8 183.0L508.7 183.0Q505.4 183.0 503.3 181.3Q501.3 179.6 501.0 176.4L501.0 176.4L500.6 176.4Q499.6 180.1 496.6 181.9Q493.6 183.8 489.3 183.8L489.3 183.8Q483.9 183.8 480.6 180.9Q477.3 178.0 477.3 172.7L477.3 172.7Q477.3 166.9 481.6 164.1Q485.8 161.3 494.0 161.3L494.0 161.3L500.0 161.3L500.0 159.4Q500.0 156.1 498.5 154.4Q496.9 152.7 493.3 152.7L493.3 152.7Q489.9 152.7 487.8 154.0Q485.7 155.3 484.2 157.4L484.2 157.4L478.4 152.2Q480.2 149.0 484.2 147.0Q488.2 144.9 494.5 144.9L494.5 144.9Q502.1 144.9 506.4 148.4Q510.7 151.9 510.7 159.0L510.7 159.0L510.7 175.2L514.8 175.2L514.8 183.0ZM493.3 176.8L493.3 176.8Q496.1 176.8 498.1 175.5Q500.0 174.1 500.0 171.5L500.0 171.5L500.0 167.0L494.3 167.0Q487.8 167.0 487.8 171.4L487.8 171.4L487.8 172.9Q487.8 174.8 489.3 175.8Q490.8 176.8 493.3 176.8ZM521.5 183.0L521.5 129.7L532.1 129.7L532.1 159.9L532.6 159.9L537.6 154.1L545.4 145.8L557.6 145.8L543.2 160.5L559.1 183.0L546.5 183.0L535.7 166.5L532.1 170.1L532.1 183.0L521.5 183.0ZM583.9 141.0L583.9 141.0Q580.3 141.0 578.9 139.6Q577.5 138.1 577.5 136.0L577.5 136.0L577.5 133.9Q577.5 131.8 578.9 130.3Q580.3 128.9 583.9 128.9L583.9 128.9Q587.5 128.9 588.9 130.3Q590.3 131.8 590.3 133.9L590.3 133.9L590.3 136.0Q590.3 138.1 588.9 139.6Q587.5 141.0 583.9 141.0ZM566.8 183.0L566.8 174.7L578.6 174.7L578.6 154.1L566.8 154.1L566.8 145.8L589.2 145.8L589.2 174.7L600.2 174.7L600.2 183.0L566.8 183.0ZM618.5 183.0L607.9 183.0L607.9 145.8L618.5 145.8L618.5 152.6L619.0 152.6Q619.6 151.0 620.6 149.6Q621.5 148.2 622.8 147.2Q624.2 146.2 625.9 145.5Q627.7 144.9 629.9 144.9L629.9 144.9Q632.6 144.9 634.8 145.8Q637.0 146.7 638.6 148.5Q640.2 150.3 641.1 152.9Q642.0 155.5 642.0 158.9L642.0 158.9L642.0 183.0L631.4 183.0L631.4 160.3Q631.4 153.1 625.1 153.1L625.1 153.1Q623.9 153.1 622.7 153.5Q621.5 153.8 620.6 154.5Q619.6 155.2 619.1 156.2Q618.5 157.2 618.5 158.5L618.5 158.5L618.5 183.0ZM688.4 186.7L688.4 186.7Q688.4 192.6 683.4 195.4Q678.4 198.2 667.8 198.2L667.8 198.2Q662.5 198.2 659.0 197.6Q655.5 197.0 653.5 195.8Q651.4 194.7 650.6 193.1Q649.8 191.5 649.8 189.6L649.8 189.6Q649.8 186.5 651.7 184.9Q653.5 183.2 656.9 182.4L656.9 182.4L656.9 181.9Q654.5 181.2 653.1 179.9Q651.7 178.6 651.7 176.1L651.7 176.1Q651.7 173.4 653.6 172.1Q655.4 170.8 658.4 170.1L658.4 170.1L658.4 169.6Q655.1 168.0 653.3 165.2Q651.4 162.3 651.4 158.2L651.4 158.2Q651.4 154.9 652.6 152.5Q653.7 150.0 655.9 148.3Q658.0 146.7 660.9 145.8Q663.9 144.9 667.6 144.9L667.6 144.9Q671.1 144.9 674.1 145.7L674.1 145.7L674.1 143.7Q674.1 141.6 675.6 140.1Q677.1 138.7 679.8 138.7L679.8 138.7L686.4 138.7L686.4 146.4L677.4 146.4L677.4 147.1Q680.5 148.7 682.1 151.5Q683.8 154.2 683.8 158.2L683.8 158.2Q683.8 161.4 682.7 163.9Q681.5 166.3 679.4 168.0Q677.2 169.7 674.2 170.6Q671.2 171.4 667.6 171.4L667.6 171.4Q665.9 171.4 664.4 171.3Q662.9 171.1 661.5 170.7L661.5 170.7Q660.7 171.1 660.2 171.8Q659.6 172.4 659.6 173.4L659.6 173.4Q659.6 174.3 660.1 174.8Q660.5 175.3 661.3 175.6Q662.0 175.8 663.0 175.9Q664.0 176.0 665.1 176.0L665.1 176.0L673.6 176.0Q677.6 176.0 680.4 176.8Q683.2 177.6 685.0 179.0Q686.8 180.4 687.6 182.4Q688.4 184.3 688.4 186.7ZM678.3 187.5L678.3 187.5Q678.3 186.0 677.1 185.2Q676.0 184.4 672.8 184.4L672.8 184.4L660.0 184.4Q658.6 185.6 658.6 187.4L658.6 187.4Q658.6 189.1 660.0 190.3Q661.5 191.4 665.0 191.4L665.0 191.4L671.3 191.4Q675.0 191.4 676.6 190.4Q678.3 189.4 678.3 187.5ZM667.6 164.7L667.6 164.7Q670.8 164.7 672.3 163.1Q673.8 161.5 673.8 159.0L673.8 159.0L673.8 157.3Q673.8 154.9 672.3 153.3Q670.8 151.7 667.6 151.7L667.6 151.7Q664.4 151.7 663.0 153.3Q661.5 154.9 661.5 157.3L661.5 157.3L661.5 159.0Q661.5 161.5 663.0 163.1Q664.4 164.7 667.6 164.7ZM730.5 183.0L691.9 183.0L691.9 126.8L730.5 126.8L730.5 183.0ZM699.1 134.0L699.1 175.8L723.3 175.8L723.3 134.0L699.1 134.0ZM773.7 183.0L735.1 183.0L735.1 126.8L773.7 126.8L773.7 183.0ZM742.3 134.0L742.3 175.8L766.5 175.8L766.5 134.0L742.3 134.0ZM816.9 183.0L778.3 183.0L778.3 126.8L816.9 126.8L816.9 183.0ZM785.5 134.0L785.5 175.8L809.7 175.8L809.7 134.0L785.5 134.0ZM860.1 183.0L821.5 183.0L821.5 126.8L860.1 126.8L860.1 183.0ZM828.7 134.0L828.7 175.8L852.9 175.8L852.9 134.0L828.7 134.0ZM903.3 183.0L864.7 183.0L864.7 126.8L903.3 126.8L903.3 183.0ZM871.9 134.0L871.9 175.8L896.1 175.8L896.1 134.0L871.9 134.0ZM946.5 183.0L907.9 183.0L907.9 126.8L946.5 126.8L946.5 183.0ZM915.1 134.0L915.1 175.8L939.3 175.8L939.3 134.0L915.1 134.0ZM989.7 183.0L951.1 183.0L951.1 126.8L989.7 126.8L989.7 183.0ZM958.3 134.0L958.3 175.8L982.5 175.8L982.5 134.0L958.3 134.0Z M161.1 259.7L138.1 259.7L138.1 249.5L161.1 249.5L161.1 259.7Z M230.5 257.9L230.5 276.6L219.9 276.6L219.9 226.3L239.3 226.3Q243.0 226.3 245.9 227.4Q248.7 228.5 250.7 230.6Q252.7 232.7 253.7 235.7Q254.7 238.6 254.7 242.3L254.7 242.3Q254.7 247.6 252.4 251.4Q250.1 255.2 245.9 256.5L245.9 256.5L255.7 276.6L243.9 276.6L235.5 257.9L230.5 257.9ZM230.5 249.6L236.7 249.6Q240.5 249.6 242.0 248.1Q243.5 246.7 243.5 243.4L243.5 243.4L243.5 241.2Q243.5 237.9 242.0 236.4Q240.5 235.0 236.7 235.0L236.7 235.0L230.5 235.0L230.5 249.6ZM279.2 277.4L279.2 277.4Q274.9 277.4 271.4 276.1Q268.0 274.8 265.6 272.2Q263.1 269.7 261.8 266.1Q260.6 262.5 260.6 258.0L260.6 258.0Q260.6 253.4 261.8 249.8Q263.1 246.2 265.6 243.7Q268.0 241.2 271.4 239.9Q274.9 238.5 279.2 238.5L279.2 238.5Q283.5 238.5 287.0 239.9Q290.4 241.2 292.8 243.7Q295.3 246.2 296.6 249.8Q297.8 253.4 297.8 258.0L297.8 258.0Q297.8 262.5 296.6 266.1Q295.3 269.7 292.8 272.2Q290.4 274.8 287.0 276.1Q283.5 277.4 279.2 277.4ZM279.2 269.5L279.2 269.5Q282.8 269.5 284.8 267.3Q286.8 265.0 286.8 260.9L286.8 260.9L286.8 255.0Q286.8 250.9 284.8 248.7Q282.8 246.5 279.2 246.5L279.2 246.5Q275.6 246.5 273.6 248.7Q271.6 250.9 271.6 255.0L271.6 255.0L271.6 260.9Q271.6 265.0 273.6 267.3Q275.6 269.5 279.2 269.5ZM305.7 276.6L305.7 268.3L317.1 268.3L317.1 231.6L305.7 231.6L305.7 223.3L327.7 223.3L327.7 268.3L339.1 268.3L339.1 276.6L305.7 276.6ZM348.9 276.6L348.9 268.3L360.3 268.3L360.3 231.6L348.9 231.6L348.9 223.3L370.9 223.3L370.9 268.3L382.3 268.3L382.3 276.6L348.9 276.6ZM415.1 276.6L415.1 269.8L414.6 269.8Q413.4 273.0 410.8 275.2Q408.2 277.4 403.7 277.4L403.7 277.4Q401.0 277.4 398.8 276.5Q396.6 275.6 395.0 273.8Q393.4 272.0 392.5 269.4Q391.6 266.8 391.6 263.4L391.6 263.4L391.6 239.4L402.2 239.4L402.2 262.0Q402.2 269.2 408.5 269.2L408.5 269.2Q409.7 269.2 410.9 268.9Q412.1 268.6 413.0 267.9Q413.9 267.2 414.5 266.2Q415.1 265.2 415.1 263.8L415.1 263.8L415.1 239.4L425.7 239.4L425.7 276.6L415.1 276.6ZM434.6 291.0L434.6 239.4L445.3 239.4L445.3 246.2L445.8 246.2Q447.2 242.9 449.8 240.7Q452.4 238.5 456.8 238.5L456.8 238.5Q459.9 238.5 462.5 239.7Q465.0 240.8 466.9 243.2Q468.7 245.6 469.7 249.3Q470.8 252.9 470.8 258.0L470.8 258.0Q470.8 263.0 469.7 266.7Q468.7 270.4 466.9 272.7Q465.0 275.1 462.5 276.3Q459.9 277.4 456.8 277.4L456.8 277.4Q452.4 277.4 449.8 275.3Q447.2 273.2 445.8 269.8L445.8 269.8L445.3 269.8L445.3 291.0L434.6 291.0ZM452.2 269.1L452.2 269.1Q455.8 269.1 457.8 266.9Q459.7 264.7 459.7 260.9L459.7 260.9L459.7 255.1Q459.7 251.2 457.8 249.0Q455.8 246.8 452.2 246.8L452.2 246.8Q449.4 246.8 447.4 248.2Q445.3 249.6 445.3 252.5L445.3 252.5L445.3 263.4Q445.3 266.4 447.4 267.8Q449.4 269.1 452.2 269.1Z M546.0 276.6L530.8 276.6L517.4 226.3L529.5 226.3L535.4 251.9L538.3 266.3L538.9 266.3L541.9 251.9L547.9 226.3L559.4 226.3L546.0 276.6ZM580.8 277.4L580.8 277.4Q574.5 277.4 569.8 275.3Q565.1 273.2 562.2 269.6L562.2 269.6L568.5 262.7Q571.2 265.8 574.5 267.2Q577.8 268.6 581.2 268.6L581.2 268.6Q585.1 268.6 587.1 266.9Q589.1 265.2 589.1 261.9L589.1 261.9Q589.1 259.3 587.5 257.9Q586.0 256.5 582.3 256.0L582.3 256.0L577.1 255.1Q570.3 253.9 567.3 250.1Q564.2 246.2 564.2 240.7L564.2 240.7Q564.2 233.4 569 229.4Q573.8 225.4 582.3 225.4L582.3 225.4Q588.2 225.4 592.5 227.2Q596.8 229.0 599.5 232.1L599.5 232.1L593.3 239.0Q591.3 236.7 588.6 235.5Q585.8 234.2 582.4 234.2L582.4 234.2Q575.1 234.2 575.1 240.2L575.1 240.2Q575.1 242.8 576.7 244.1Q578.4 245.4 582.0 246.0L582.0 246.0L587.3 247.0Q593.4 248.0 596.7 251.6Q600.0 255.1 600.0 261.1L600.0 261.1Q600.0 264.6 598.8 267.6Q597.6 270.6 595.1 272.8Q592.7 275.0 589.1 276.2Q585.6 277.4 580.8 277.4Z M664.0 276.6L650.3 276.6L647.2 226.3L656.5 226.3L657.9 256.4L658.4 265.9L659 265.9L663.3 237.2L673.0 237.2L677.4 265.9L678.0 265.9L678.4 256.7L679.9 226.3L688.8 226.3L685.7 276.6L672.0 276.6L668.4 248.8L667.6 248.8L664.0 276.6ZM712.2 277.4L712.2 277.4Q702.8 277.4 698.0 272.2Q693.2 267.0 693.2 258.1L693.2 258.1Q693.2 253.6 694.5 249.9Q695.7 246.3 698.1 243.8Q700.4 241.2 703.7 239.9Q707.1 238.5 711.3 238.5L711.3 238.5Q715.4 238.5 718.8 239.9Q722.1 241.2 724.4 243.6Q726.7 246.1 727.9 249.6Q729.2 253.1 729.2 257.4L729.2 257.4L729.2 260.6L703.8 260.6L703.8 261.2Q703.8 264.8 706.0 267.0Q708.2 269.2 712.6 269.2L712.6 269.2Q715.9 269.2 718.3 267.9Q720.6 266.7 722.4 264.6L722.4 264.6L728.1 270.9Q726.0 273.5 722.1 275.5Q718.2 277.4 712.2 277.4ZM711.3 246.2L711.3 246.2Q707.9 246.2 705.8 248.3Q703.8 250.4 703.8 254.0L703.8 254.0L703.8 254.6L718.8 254.6L718.8 254.0Q718.8 250.3 716.8 248.3Q714.8 246.2 711.3 246.2ZM737.0 276.6L737.0 223.3L747.7 223.3L747.7 246.2L748.2 246.2Q749.6 242.9 752.2 240.7Q754.8 238.5 759.2 238.5L759.2 238.5Q762.3 238.5 764.9 239.7Q767.4 240.8 769.3 243.2Q771.1 245.6 772.1 249.3Q773.2 252.9 773.2 258.0L773.2 258.0Q773.2 263.0 772.1 266.7Q771.1 270.4 769.3 272.7Q767.4 275.1 764.9 276.3Q762.3 277.4 759.2 277.4L759.2 277.4Q754.8 277.4 752.2 275.3Q749.6 273.2 748.2 269.8L748.2 269.8L747.7 269.8L747.7 276.6L737.0 276.6ZM754.6 269.1L754.6 269.1Q758.2 269.1 760.2 266.9Q762.1 264.7 762.1 260.9L762.1 260.9L762.1 255.1Q762.1 251.2 760.2 249.0Q758.2 246.8 754.6 246.8L754.6 246.8Q751.8 246.8 749.8 248.2Q747.7 249.6 747.7 252.5L747.7 252.5L747.7 263.4Q747.7 266.4 749.8 267.8Q751.8 269.1 754.6 269.1ZM780.2 291.0L780.2 239.4L790.9 239.4L790.9 246.2L791.4 246.2Q792.8 242.9 795.4 240.7Q798.0 238.5 802.4 238.5L802.4 238.5Q805.5 238.5 808.1 239.7Q810.6 240.8 812.5 243.2Q814.3 245.6 815.3 249.3Q816.4 252.9 816.4 258.0L816.4 258.0Q816.4 263.0 815.3 266.7Q814.3 270.4 812.5 272.7Q810.6 275.1 808.1 276.3Q805.5 277.4 802.4 277.4L802.4 277.4Q798.0 277.4 795.4 275.3Q792.8 273.2 791.4 269.8L791.4 269.8L790.9 269.8L790.9 291.0L780.2 291.0ZM797.8 269.1L797.8 269.1Q801.4 269.1 803.4 266.9Q805.3 264.7 805.3 260.9L805.3 260.9L805.3 255.1Q805.3 251.2 803.4 249.0Q801.4 246.8 797.8 246.8L797.8 246.8Q795.0 246.8 793.0 248.2Q790.9 249.6 790.9 252.5L790.9 252.5L790.9 263.4Q790.9 266.4 793.0 267.8Q795.0 269.1 797.8 269.1ZM860.4 276.6L854.3 276.6Q851.0 276.6 848.9 274.9Q846.9 273.2 846.6 270.0L846.6 270.0L846.2 270.0Q845.2 273.7 842.2 275.5Q839.2 277.4 834.9 277.4L834.9 277.4Q829.5 277.4 826.2 274.5Q822.9 271.6 822.9 266.3L822.9 266.3Q822.9 260.5 827.2 257.7Q831.4 254.9 839.6 254.9L839.6 254.9L845.6 254.9L845.6 253.0Q845.6 249.7 844.1 248.0Q842.5 246.3 838.9 246.3L838.9 246.3Q835.5 246.3 833.4 247.6Q831.3 248.9 829.8 251.0L829.8 251.0L824.0 245.8Q825.8 242.6 829.8 240.6Q833.8 238.5 840.1 238.5L840.1 238.5Q847.7 238.5 852.0 242.0Q856.3 245.5 856.3 252.6L856.3 252.6L856.3 268.8L860.4 268.8L860.4 276.6ZM838.9 270.4L838.9 270.4Q841.7 270.4 843.7 269.1Q845.6 267.7 845.6 265.1L845.6 265.1L845.6 260.6L839.9 260.6Q833.4 260.6 833.4 265.0L833.4 265.0L833.4 266.5Q833.4 268.4 834.9 269.4Q836.4 270.4 838.9 270.4ZM885.5 277.4L885.5 277.4Q881.1 277.4 877.6 276.1Q874.1 274.8 871.7 272.2Q869.3 269.7 868.0 266.1Q866.7 262.5 866.7 258.0L866.7 258.0Q866.7 253.4 868.0 249.8Q869.3 246.2 871.7 243.7Q874.1 241.2 877.6 239.9Q881.1 238.5 885.4 238.5L885.4 238.5Q891.6 238.5 895.3 241.0Q899.0 243.5 900.9 247.6L900.9 247.6L892.7 252.1Q891.7 249.9 890.1 248.5Q888.5 247.0 885.4 247.0L885.4 247.0Q881.8 247.0 879.8 249.2Q877.8 251.3 877.8 255.0L877.8 255.0L877.8 261.0Q877.8 264.7 879.8 266.8Q881.8 268.9 885.6 268.9L885.6 268.9Q888.7 268.9 890.4 267.5Q892.2 266.0 893.4 263.7L893.4 263.7L901.5 268.3Q899.5 272.4 895.6 274.9Q891.8 277.4 885.5 277.4ZM910.3 276.6L910.3 223.3L920.9 223.3L920.9 253.5L921.4 253.5L926.4 247.7L934.2 239.4L946.4 239.4L932.0 254.1L947.9 276.6L935.3 276.6L924.5 260.1L920.9 263.7L920.9 276.6L910.3 276.6Z " clip-path="url(#satori_cp-id-1-0-0)" mask="url(#satori_om-id-1-0-0)"/><path fill="black" d="M130.7 520.3L130.7 499.6L132.9 499.6L132.9 508.2L133.0 508.2Q134.4 505.5 137.5 505.5L137.5 505.5Q140.1 505.5 141.6 507.5Q143.1 509.5 143.1 513.0L143.1 513.0Q143.1 516.6 141.6 518.6Q140.1 520.6 137.5 520.6L137.5 520.6Q134.4 520.6 133.0 517.9L133.0 517.9L132.9 517.9L132.9 520.3L130.7 520.3ZM136.6 518.6L136.6 518.6Q138.6 518.6 139.6 517.4Q140.7 516.2 140.7 514.3L140.7 514.3L140.7 511.8Q140.7 509.9 139.6 508.7Q138.6 507.5 136.6 507.5L136.6 507.5Q135.8 507.5 135.2 507.7Q134.5 507.9 134.0 508.2Q133.5 508.6 133.2 509.2Q132.9 509.7 132.9 510.4L132.9 510.4L132.9 515.7Q132.9 516.4 133.2 516.9Q133.5 517.5 134.0 517.8Q134.5 518.2 135.2 518.4Q135.8 518.6 136.6 518.6ZM155.4 511.9L157.9 505.8L160.1 505.8L152.9 523.4Q152.7 524.1 152.4 524.5Q152.1 525.0 151.7 525.3Q151.2 525.6 150.7 525.7Q150.1 525.9 149.3 525.9L149.3 525.9L147.1 525.9L147.1 524.0L150.5 524.0L152.1 520.0L146.3 505.8L148.6 505.8L151.0 511.9L153.2 517.4L153.3 517.4L155.4 511.9Z "/><clipPath id="satori_cp-id-1-0-1-0-2"><rect x="178" y="489" width="134" height="36"/></clipPath><mask id="satori_om-id-1-0-1-0-2"><rect x="178" y="489" width="134" height="36" fill="#fff"/></mask><path fill="black" d="M193.0 520.1L179.8 520.1L179.8 516.6L187.9 508.9L180.1 508.9L180.1 505.6L192.7 505.6L192.7 509.1L184.6 516.9L193.0 516.9L193.0 520.1ZM196.6 520.1L196.6 499.4L200.8 499.4L200.8 508.3L200.9 508.3Q201.2 507.7 201.5 507.1Q201.9 506.6 202.4 506.2Q202.9 505.8 203.6 505.5Q204.3 505.3 205.2 505.3L205.2 505.3Q206.2 505.3 207.1 505.7Q208.0 506.0 208.6 506.7Q209.2 507.4 209.5 508.4Q209.9 509.4 209.9 510.7L209.9 510.7L209.9 520.1L205.7 520.1L205.7 511.3Q205.7 508.5 203.3 508.5L203.3 508.5Q202.8 508.5 202.4 508.6Q201.9 508.8 201.5 509.0Q201.2 509.3 201.0 509.7Q200.8 510.1 200.8 510.6L200.8 510.6L200.8 520.1L196.6 520.1ZM227.6 520.1L225.2 520.1Q223.9 520.1 223.2 519.4Q222.4 518.8 222.2 517.5L222.2 517.5L222.1 517.5Q221.7 519.0 220.5 519.7Q219.4 520.4 217.7 520.4L217.7 520.4Q215.6 520.4 214.3 519.3Q213.1 518.2 213.1 516.1L213.1 516.1Q213.1 513.8 214.7 512.8Q216.4 511.7 219.6 511.7L219.6 511.7L221.9 511.7L221.9 510.9Q221.9 509.6 221.3 509.0Q220.7 508.3 219.2 508.3L219.2 508.3Q217.9 508.3 217.1 508.8Q216.3 509.3 215.7 510.2L215.7 510.2L213.4 508.1Q214.2 506.9 215.7 506.1Q217.3 505.3 219.7 505.3L219.7 505.3Q222.7 505.3 224.4 506.7Q226.0 508.0 226.0 510.8L226.0 510.8L226.0 517.1L227.6 517.1L227.6 520.1ZM219.3 517.7L219.3 517.7Q220.4 517.7 221.1 517.2Q221.9 516.6 221.9 515.6L221.9 515.6L221.9 513.9L219.7 513.9Q217.1 513.9 217.1 515.6L217.1 515.6L217.1 516.2Q217.1 516.9 217.7 517.3Q218.3 517.7 219.3 517.7ZM234.4 520.1L230.2 520.1L230.2 505.6L234.4 505.6L234.4 508.3L234.5 508.3Q234.8 507.7 235.1 507.1Q235.5 506.6 236.0 506.2Q236.5 505.8 237.2 505.5Q237.9 505.3 238.8 505.3L238.8 505.3Q239.8 505.3 240.7 505.7Q241.6 506.0 242.2 506.7Q242.8 507.4 243.1 508.4Q243.5 509.4 243.5 510.7L243.5 510.7L243.5 520.1L239.3 520.1L239.3 511.3Q239.3 508.5 236.9 508.5L236.9 508.5Q236.4 508.5 236.0 508.6Q235.5 508.8 235.1 509.0Q234.8 509.3 234.6 509.7Q234.4 510.1 234.4 510.6L234.4 510.6L234.4 520.1ZM261.5 521.5L261.5 521.5Q261.5 523.8 259.6 524.9Q257.7 526.0 253.5 526.0L253.5 526.0Q251.4 526.0 250.1 525.8Q248.8 525.6 248.0 525.1Q247.2 524.7 246.8 524.0Q246.5 523.4 246.5 522.7L246.5 522.7Q246.5 521.5 247.2 520.8Q248.0 520.2 249.3 519.9L249.3 519.9L249.3 519.7Q248.4 519.4 247.8 518.9Q247.3 518.4 247.3 517.4L247.3 517.4Q247.3 516.4 248.0 515.9Q248.7 515.4 249.9 515.1L249.9 515.1L249.9 514.9Q248.6 514.3 247.9 513.2Q247.2 512.1 247.2 510.5L247.2 510.5Q247.2 509.2 247.6 508.2Q248.1 507.3 248.9 506.6Q249.7 506.0 250.9 505.6Q252.0 505.3 253.4 505.3L253.4 505.3Q254.8 505.3 256.0 505.6L256.0 505.6L256.0 504.8Q256.0 504.0 256.6 503.4Q257.2 502.9 258.2 502.9L258.2 502.9L260.7 502.9L260.7 505.9L257.3 505.9L257.3 506.1Q258.4 506.8 259.1 507.8Q259.8 508.9 259.8 510.5L259.8 510.5Q259.8 511.7 259.3 512.7Q258.9 513.6 258.0 514.3Q257.2 514.9 256.0 515.3Q254.9 515.6 253.4 515.6L253.4 515.6Q252.8 515.6 252.2 515.5Q251.6 515.5 251.1 515.3L251.1 515.3Q250.8 515.5 250.6 515.8Q250.4 516.0 250.4 516.4L250.4 516.4Q250.4 516.7 250.5 516.9Q250.7 517.1 251.0 517.2Q251.3 517.3 251.7 517.3Q252.1 517.4 252.5 517.4L252.5 517.4L255.8 517.4Q257.3 517.4 258.4 517.7Q259.5 518.0 260.2 518.6Q260.9 519.1 261.2 519.9Q261.5 520.6 261.5 521.5ZM257.6 521.9L257.6 521.9Q257.6 521.3 257.2 521.0Q256.7 520.7 255.4 520.7L255.4 520.7L250.5 520.7Q249.9 521.1 249.9 521.8L249.9 521.8Q249.9 522.5 250.5 522.9Q251.1 523.4 252.5 523.4L252.5 523.4L254.9 523.4Q256.3 523.4 257.0 523.0Q257.6 522.6 257.6 521.9ZM253.4 513.0L253.4 513.0Q254.7 513.0 255.3 512.4Q255.8 511.7 255.8 510.8L255.8 510.8L255.8 510.1Q255.8 509.2 255.3 508.6Q254.7 507.9 253.4 507.9L253.4 507.9Q252.2 507.9 251.6 508.6Q251.1 509.2 251.1 510.1L251.1 510.1L251.1 510.8Q251.1 511.7 251.6 512.4Q252.2 513.0 253.4 513.0ZM263.9 520.1L263.9 516.9L268.3 516.9L268.3 502.6L263.9 502.6L263.9 499.4L272.5 499.4L272.5 516.9L276.9 516.9L276.9 520.1L263.9 520.1ZM289.6 520.1L289.6 517.5L289.5 517.5Q289.0 518.7 288.0 519.6Q286.9 520.4 285.2 520.4L285.2 520.4Q284.2 520.4 283.3 520.1Q282.4 519.7 281.8 519.0Q281.2 518.3 280.9 517.3Q280.5 516.3 280.5 515.0L280.5 515.0L280.5 505.6L284.7 505.6L284.7 514.4Q284.7 517.2 287.1 517.2L287.1 517.2Q287.6 517.2 288.0 517.1Q288.5 517.0 288.8 516.7Q289.2 516.5 289.4 516.1Q289.6 515.7 289.6 515.1L289.6 515.1L289.6 505.6L293.8 505.6L293.8 520.1L289.6 520.1ZM301.6 520.1L297.4 520.1L297.4 505.6L301.6 505.6L301.6 508.3L301.7 508.3Q302.0 507.7 302.3 507.1Q302.7 506.6 303.2 506.2Q303.7 505.8 304.4 505.5Q305.1 505.3 306.0 505.3L306.0 505.3Q307.0 505.3 307.9 505.7Q308.8 506.0 309.4 506.7Q310.0 507.4 310.3 508.4Q310.7 509.4 310.7 510.7L310.7 510.7L310.7 520.1L306.5 520.1L306.5 511.3Q306.5 508.5 304.1 508.5L304.1 508.5Q303.6 508.5 303.2 508.6Q302.7 508.8 302.3 509.0Q302.0 509.3 301.8 509.7Q301.6 510.1 301.6 510.6L301.6 510.6L301.6 520.1Z " clip-path="url(#satori_cp-id-1-0-1-0-2)" mask="url(#satori_om-id-1-0-1-0-2)"/><clipPath id="satori_cp-id-1-0-1-1"><rect x="786" y="489" width="286" height="36"/></clipPath><mask id="satori_om-id-1-0-1-1"><rect x="786" y="489" width="286" height="36" fill="#fff"/></mask><path fill="black" d="M802.7 520.1L798.2 520.1L796.9 515.4L791.6 515.4L790.4 520.1L786.1 520.1L791.4 500.5L797.4 500.5L802.7 520.1ZM796.3 512.0L794.4 504.6L794.2 504.6L792.3 512.0L796.3 512.0ZM811.0 520.4L811.0 520.4Q808.6 520.4 806.8 519.7Q805.1 519.0 804.2 517.7L804.2 517.7L806.5 515.6Q807.3 516.5 808.5 517.0Q809.6 517.5 811.1 517.5L811.1 517.5Q812.3 517.5 813.0 517.1Q813.7 516.8 813.7 516.0L813.7 516.0Q813.7 515.4 813.2 515.1Q812.7 514.9 811.9 514.7L811.9 514.7L809.6 514.4Q808.6 514.2 807.8 513.9Q806.9 513.7 806.3 513.1Q805.7 512.6 805.3 511.9Q805.0 511.2 805.0 510.2L805.0 510.2Q805.0 507.9 806.7 506.6Q808.4 505.3 811.6 505.3L811.6 505.3Q813.7 505.3 815.2 505.9Q816.7 506.5 817.6 507.5L817.6 507.5L815.5 509.9Q814.9 509.2 813.9 508.7Q812.9 508.2 811.4 508.2L811.4 508.2Q809.0 508.2 809.0 509.7L809.0 509.7Q809.0 510.3 809.5 510.6Q810.0 510.8 810.8 510.9L810.8 510.9L813.1 511.3Q814.1 511.4 814.9 511.7Q815.8 512.0 816.4 512.5Q817.0 513.0 817.4 513.8Q817.8 514.5 817.8 515.5L817.8 515.5Q817.8 517.8 816.0 519.1Q814.3 520.4 811.0 520.4ZM834.5 520.1L829.1 520.1Q826.9 520.1 825.8 518.9Q824.7 517.7 824.7 515.9L824.7 515.9L824.7 508.9L820.8 508.9L820.8 505.6L823.3 505.6Q824.2 505.6 824.6 505.3Q825.0 504.9 825.0 503.9L825.0 503.9L825.0 500.5L828.8 500.5L828.8 505.6L834.5 505.6L834.5 508.9L828.8 508.9L828.8 516.9L834.5 516.9L834.5 520.1ZM838.5 520.1L838.5 516.9L841.8 516.9L841.8 508.9L838.5 508.9L838.5 505.6L845.9 505.6L845.9 509.7L846.1 509.7Q846.3 508.9 846.7 508.2Q847.0 507.5 847.6 506.9Q848.1 506.3 848.9 506.0Q849.7 505.6 850.8 505.6L850.8 505.6L852.1 505.6L852.1 509.5L849.1 509.5Q847.5 509.5 846.7 510.4Q845.9 511.3 845.9 512.6L845.9 512.6L845.9 516.9L850.7 516.9L850.7 520.1L838.5 520.1ZM861.6 520.4L861.6 520.4Q859.9 520.4 858.6 519.9Q857.2 519.4 856.3 518.4Q855.4 517.4 854.9 516.0Q854.3 514.6 854.3 512.9L854.3 512.9Q854.3 511.1 854.9 509.7Q855.4 508.3 856.3 507.3Q857.2 506.3 858.6 505.8Q859.9 505.3 861.6 505.3L861.6 505.3Q863.3 505.3 864.6 505.8Q866.0 506.3 866.9 507.3Q867.8 508.3 868.3 509.7Q868.9 511.1 868.9 512.9L868.9 512.9Q868.9 514.6 868.3 516.0Q867.8 517.4 866.9 518.4Q866.0 519.4 864.6 519.9Q863.3 520.4 861.6 520.4ZM861.6 517.3L861.6 517.3Q863.0 517.3 863.8 516.5Q864.6 515.6 864.6 514.0L864.6 514.0L864.6 511.7Q864.6 510.1 863.8 509.3Q863.0 508.4 861.6 508.4L861.6 508.4Q860.2 508.4 859.4 509.3Q858.6 510.1 858.6 511.7L858.6 511.7L858.6 514.0Q858.6 515.6 859.4 516.5Q860.2 517.3 861.6 517.3Z M888.5 520.1L888.5 499.4L892.6 499.4L892.6 508.3L892.8 508.3Q893.3 507.0 894.3 506.1Q895.3 505.3 897.1 505.3L897.1 505.3Q898.3 505.3 899.3 505.8Q900.3 506.2 901.0 507.1Q901.7 508.1 902.1 509.5Q902.5 510.9 902.5 512.9L902.5 512.9Q902.5 514.8 902.1 516.3Q901.7 517.7 901.0 518.6Q900.3 519.5 899.3 520.0Q898.3 520.4 897.1 520.4L897.1 520.4Q895.3 520.4 894.3 519.6Q893.3 518.8 892.8 517.5L892.8 517.5L892.6 517.5L892.6 520.1L888.5 520.1ZM895.3 517.2L895.3 517.2Q896.7 517.2 897.4 516.4Q898.2 515.5 898.2 514.0L898.2 514.0L898.2 511.7Q898.2 510.2 897.4 509.4Q896.7 508.5 895.3 508.5L895.3 508.5Q894.2 508.5 893.4 509.1Q892.6 509.6 892.6 510.7L892.6 510.7L892.6 515.0Q892.6 516.1 893.4 516.7Q894.2 517.2 895.3 517.2ZM905.5 520.1L905.5 516.9L909.9 516.9L909.9 502.6L905.5 502.6L905.5 499.4L914.1 499.4L914.1 516.9L918.5 516.9L918.5 520.1L905.5 520.1ZM928.8 520.4L928.8 520.4Q927.1 520.4 925.8 519.9Q924.4 519.4 923.5 518.4Q922.6 517.4 922.1 516.0Q921.5 514.6 921.5 512.9L921.5 512.9Q921.5 511.1 922.1 509.7Q922.6 508.3 923.5 507.3Q924.4 506.3 925.8 505.8Q927.1 505.3 928.8 505.3L928.8 505.3Q930.5 505.3 931.8 505.8Q933.2 506.3 934.1 507.3Q935.0 508.3 935.5 509.7Q936.1 511.1 936.1 512.9L936.1 512.9Q936.1 514.6 935.5 516.0Q935.0 517.4 934.1 518.4Q933.2 519.4 931.8 519.9Q930.5 520.4 928.8 520.4ZM928.8 517.3L928.8 517.3Q930.2 517.3 931.0 516.5Q931.8 515.6 931.8 514.0L931.8 514.0L931.8 511.7Q931.8 510.1 931.0 509.3Q930.2 508.4 928.8 508.4L928.8 508.4Q927.4 508.4 926.6 509.3Q925.8 510.1 925.8 511.7L925.8 511.7L925.8 514.0Q925.8 515.6 926.6 516.5Q927.4 517.3 928.8 517.3ZM953.5 521.5L953.5 521.5Q953.5 523.8 951.6 524.9Q949.7 526.0 945.5 526.0L945.5 526.0Q943.4 526.0 942.1 525.8Q940.8 525.6 940.0 525.1Q939.2 524.7 938.8 524.0Q938.5 523.4 938.5 522.7L938.5 522.7Q938.5 521.5 939.2 520.8Q940.0 520.2 941.3 519.9L941.3 519.9L941.3 519.7Q940.4 519.4 939.8 518.9Q939.3 518.4 939.3 517.4L939.3 517.4Q939.3 516.4 940.0 515.9Q940.7 515.4 941.9 515.1L941.9 515.1L941.9 514.9Q940.6 514.3 939.9 513.2Q939.2 512.1 939.2 510.5L939.2 510.5Q939.2 509.2 939.6 508.2Q940.1 507.3 940.9 506.6Q941.7 506.0 942.9 505.6Q944.0 505.3 945.4 505.3L945.4 505.3Q946.8 505.3 948.0 505.6L948.0 505.6L948.0 504.8Q948.0 504.0 948.6 503.4Q949.2 502.9 950.2 502.9L950.2 502.9L952.7 502.9L952.7 505.9L949.3 505.9L949.3 506.1Q950.4 506.8 951.1 507.8Q951.8 508.9 951.8 510.5L951.8 510.5Q951.8 511.7 951.3 512.7Q950.9 513.6 950.0 514.3Q949.2 514.9 948.0 515.3Q946.9 515.6 945.4 515.6L945.4 515.6Q944.8 515.6 944.2 515.5Q943.6 515.5 943.1 515.3L943.1 515.3Q942.8 515.5 942.6 515.8Q942.4 516.0 942.4 516.4L942.4 516.4Q942.4 516.7 942.5 516.9Q942.7 517.1 943.0 517.2Q943.3 517.3 943.7 517.3Q944.1 517.4 944.5 517.4L944.5 517.4L947.8 517.4Q949.3 517.4 950.4 517.7Q951.5 518.0 952.2 518.6Q952.9 519.1 953.2 519.9Q953.5 520.6 953.5 521.5ZM949.6 521.9L949.6 521.9Q949.6 521.3 949.2 521.0Q948.7 520.7 947.4 520.7L947.4 520.7L942.5 520.7Q941.9 521.1 941.9 521.8L941.9 521.8Q941.9 522.5 942.5 522.9Q943.1 523.4 944.5 523.4L944.5 523.4L946.9 523.4Q948.3 523.4 949.0 523.0Q949.6 522.6 949.6 521.9ZM945.4 513.0L945.4 513.0Q946.7 513.0 947.3 512.4Q947.8 511.7 947.8 510.8L947.8 510.8L947.8 510.1Q947.8 509.2 947.3 508.6Q946.7 507.9 945.4 507.9L945.4 507.9Q944.2 507.9 943.6 508.6Q943.1 509.2 943.1 510.1L943.1 510.1L943.1 510.8Q943.1 511.7 943.6 512.4Q944.2 513.0 945.4 513.0Z M972.8 520.1L972.8 516.9L977.0 516.9L977.0 508.9L972.5 508.9L972.5 505.6L977.0 505.6L977.0 503.5Q977.0 501.7 978.1 500.5Q979.2 499.4 981.5 499.4L981.5 499.4L986.4 499.4L986.4 502.6L981.2 502.6L981.2 505.6L986.4 505.6L986.4 508.9L981.2 508.9L981.2 516.9L985.7 516.9L985.7 520.1L972.8 520.1ZM1003.6 520.1L1001.2 520.1Q999.9 520.1 999.2 519.4Q998.4 518.8 998.2 517.5L998.2 517.5L998.1 517.5Q997.7 519.0 996.5 519.7Q995.4 520.4 993.7 520.4L993.7 520.4Q991.6 520.4 990.3 519.3Q989.1 518.2 989.1 516.1L989.1 516.1Q989.1 513.8 990.7 512.8Q992.4 511.7 995.6 511.7L995.6 511.7L997.9 511.7L997.9 510.9Q997.9 509.6 997.3 509.0Q996.7 508.3 995.2 508.3L995.2 508.3Q993.9 508.3 993.1 508.8Q992.3 509.3 991.7 510.2L991.7 510.2L989.4 508.1Q990.2 506.9 991.7 506.1Q993.3 505.3 995.7 505.3L995.7 505.3Q998.7 505.3 1000.4 506.7Q1002.0 508.0 1002.0 510.8L1002.0 510.8L1002.0 517.1L1003.6 517.1L1003.6 520.1ZM995.3 517.7L995.3 517.7Q996.4 517.7 997.1 517.2Q997.9 516.6 997.9 515.6L997.9 515.6L997.9 513.9L995.7 513.9Q993.1 513.9 993.1 515.6L993.1 515.6L993.1 516.2Q993.1 516.9 993.7 517.3Q994.3 517.7 995.3 517.7ZM1013.4 520.4L1013.4 520.4Q1011.7 520.4 1010.3 519.9Q1009.0 519.4 1008.0 518.4Q1007.1 517.4 1006.6 516.0Q1006.1 514.6 1006.1 512.9L1006.1 512.9Q1006.1 511.1 1006.6 509.7Q1007.1 508.3 1008.0 507.3Q1009.0 506.3 1010.3 505.8Q1011.7 505.3 1013.4 505.3L1013.4 505.3Q1015.7 505.3 1017.2 506.3Q1018.6 507.2 1019.4 508.8L1019.4 508.8L1016.2 510.6Q1015.8 509.7 1015.2 509.2Q1014.5 508.6 1013.4 508.6L1013.4 508.6Q1011.9 508.6 1011.2 509.4Q1010.4 510.3 1010.4 511.7L1010.4 511.7L1010.4 514.0Q1010.4 515.5 1011.2 516.3Q1011.9 517.1 1013.4 517.1L1013.4 517.1Q1014.6 517.1 1015.3 516.6Q1016.0 516.0 1016.5 515.1L1016.5 515.1L1019.6 516.9Q1018.8 518.5 1017.3 519.5Q1015.8 520.4 1013.4 520.4ZM1030.5 503.8L1030.5 503.8Q1029.1 503.8 1028.5 503.2Q1028.0 502.6 1028.0 501.8L1028.0 501.8L1028.0 501.0Q1028.0 500.2 1028.5 499.6Q1029.1 499.1 1030.5 499.1L1030.5 499.1Q1031.9 499.1 1032.4 499.6Q1033.0 500.2 1033.0 501.0L1033.0 501.0L1033.0 501.8Q1033.0 502.6 1032.4 503.2Q1031.9 503.8 1030.5 503.8ZM1023.8 520.1L1023.8 516.9L1028.4 516.9L1028.4 508.9L1023.8 508.9L1023.8 505.6L1032.6 505.6L1032.6 516.9L1036.8 516.9L1036.8 520.1L1023.8 520.1ZM1039.9 520.1L1039.9 516.9L1044.3 516.9L1044.3 502.6L1039.9 502.6L1039.9 499.4L1048.5 499.4L1048.5 516.9L1052.9 516.9L1052.9 520.1L1039.9 520.1ZM1063.6 520.4L1063.6 520.4Q1060.0 520.4 1058.1 518.4Q1056.2 516.4 1056.2 512.9L1056.2 512.9Q1056.2 511.2 1056.7 509.7Q1057.2 508.3 1058.1 507.3Q1059.0 506.3 1060.3 505.8Q1061.6 505.3 1063.2 505.3L1063.2 505.3Q1064.9 505.3 1066.1 505.8Q1067.4 506.3 1068.3 507.3Q1069.2 508.2 1069.7 509.6Q1070.2 511.0 1070.2 512.6L1070.2 512.6L1070.2 513.9L1060.3 513.9L1060.3 514.1Q1060.3 515.5 1061.2 516.4Q1062.1 517.2 1063.7 517.2L1063.7 517.2Q1065.0 517.2 1065.9 516.7Q1066.9 516.3 1067.5 515.4L1067.5 515.4L1069.8 517.9Q1068.9 518.9 1067.4 519.7Q1065.9 520.4 1063.6 520.4ZM1063.3 508.3L1063.3 508.3Q1061.9 508.3 1061.1 509.1Q1060.3 509.9 1060.3 511.3L1060.3 511.3L1060.3 511.6L1066.1 511.6L1066.1 511.3Q1066.1 509.9 1065.4 509.1Q1064.6 508.3 1063.3 508.3Z " clip-path="url(#satori_cp-id-1-0-1-1)" mask="url(#satori_om-id-1-0-1-1)"/></svg>