<svg width="1200" height="630" viewBox="0 0 1200 630" xmlns="http://www.w3.org/2000/svg"><rect x="0" y="0" width="1200" height="630" fill="#fefbfb"/><defs><clipPath id="satori_bc-id-0"><path x="105" y="39" width="1056" height="504" d="M109,39 h1048 a4,4 0 0 1 4,4 v496 a4,4 0 0 1 -4,4 h-1048 a4,4 0 0 1 -4,-4 v-496 a4,4 0 0 1 4,-4"/></clipPath></defs><g opacity="0.9"><path x="105" y="39" width="1056" height="504" fill="#ecebeb" d="M109,39 h1048 a4,4 0 0 1 4,4 v496 a4,4 0 0 1 -4,4 h-1048 a4,4 0 0 1 -4,-4 v-496 a4,4 0 0 1 4,-4"/><path width="1056" height="504" clip-path="url(#satori_bc-id-0)" fill="none" stroke="#000" stroke-width="8" d="M106.172,40.172 A4,4 0 0 1 109,39 h1048 a4,4 0 0 1 4,4 v496 a4,4 0 0 1 -4,4 h-1048 a4,4 0 0 1 -4,-4 v-496 A4,4 0 0 1 106.172,40.172"/></g><defs><clipPath id="satori_bc-id-1"><path x="72" y="63" width="1056" height="504" d="M76,63 h1048 a4,4 0 0 1 4,4 v496 a4,4 0 0 1 -4,4 h-1048 a4,4 0 0 1 -4,-4 v-496 a4,4 0 0 1 4,-4"/></clipPath></defs><path x="72" y="63" width="1056" height="504" fill="#fefbfb" d="M76,63 h1048 a4,4 0 0 1 4,4 v496 a4,4 0 0 1 -4,4 h-1048 a4,4 0 0 1 -4,-4 v-496 a4,4 0 0 1 4,-4"/><path width="1056" height="504" clip-path="url(#satori_bc-id-1)" fill="none" stroke="#000" stroke-width="8" d="M73.172,64.172 A4,4 0 0 1 76,63 h1048 a4,4 0 0 1 4,4 v496 a4,4 0 0 1 -4,4 h-1048 a4,4 0 0 1 -4,-4 v-496 A4,4 0 0 1 73.172,64.172"/><clipPath id="satori_cp-id-1-0-0"><rect x="128" y="103" width="944" height="187"/></clipPath><mask id="satori_om-id-1-0-0"><rect x="128" y="103" width="944" height="187" fill="#fff"/></mask><path fill="black" d="M168.9 183.0L130.3 183.0L130.3 126.8L168.9 126.8L168.9 183.0ZM137.5 134.0L137.5 175.8L161.7 175.8L161.7 134.0L137.5 134.0ZM212.1 183.0L173.5 183.0L173.5 126.8L212.1 126.8L212.1 183.0ZM180.7 134.0L180.7 175.8L204.9 175.8L204.9 134.0L180.7 134.0ZM255.3 183.0L216.7 183.0L216.7 126.8L255.3 126.8L255.3 183.0ZM223.9 134.0L223.9 175.8L248.1 175.8L248.1 134.0L223.9 134.0ZM298.5 183.0L259.9 183.0L259.9 126.8L298.5 126.8L298.5 183.0ZM267.1 134.0L267.1 175.8L291.3 175.8L291.3 134.0L267.1 134.0ZM333.9 166.1L310.9 166.1L310.9 155.9L333.9 155.9L333.9 166.1ZM371.9 183.0L359.3 183.0L345.9 145.8L357.2 145.8L362.0 161.7L365.5 174.1L366.1 174.1L369.6 161.7L374.5 145.8L385.3 145.8L371.9 183.0ZM411.1 141.0L411.1 141.0Q407.5 141.0 406.1 139.6Q404.7 138.1 404.7 136.0L404.7 136.0L404.7 133.9Q404.7 131.8 406.1 130.3Q407.5 128.9 411.1 128.9L411.1 128.9Q414.7 128.9 416.1 130.3Q417.5 131.8 417.5 133.9L417.5 133.9L417.5 136.0Q417.5 138.1 416.1 139.6Q414.7 141.0 411.1 141.0ZM394.0 183.0L394.0 174.7L405.8 174.7L405.8 154.1L394.0 154.1L394.0 145.8L416.4 145.8L416.4 174.7L427.4 174.7L427.4 183.0L394.0 183.0ZM451.6 183.8L451.6 183.8Q445.4 183.8 440.8 181.9Q436.2 180.1 433.9 176.8L433.9 176.8L439.9 171.3Q442.1 173.7 445.0 175.0Q447.9 176.3 451.6 176.3L451.6 176.3Q454.8 176.3 456.6 175.4Q458.4 174.4 458.4 172.4L458.4 172.4Q458.4 170.8 457.2 170.2Q456.0 169.6 453.8 169.2L453.8 169.2L447.8 168.3Q445.3 167.9 443.1 167.1Q441.0 166.4 439.4 165.1Q437.8 163.8 436.9 161.9Q435.9 160.1 435.9 157.4L435.9 157.4Q435.9 151.6 440.4 148.2Q444.9 144.9 452.9 144.9L452.9 144.9Q458.4 144.9 462.3 146.4Q466.1 147.9 468.4 150.6L468.4 150.6L463.1 156.7Q461.4 154.9 458.8 153.6Q456.2 152.4 452.6 152.4L452.6 152.4Q446.4 152.4 446.4 156.2L446.4 156.2Q446.4 157.8 447.6 158.4Q448.8 159.0 451.0 159.4L451.0 159.4L456.9 160.3Q459.4 160.7 461.6 161.5Q463.7 162.2 465.4 163.5Q467.0 164.8 467.9 166.7Q468.8 168.6 468.8 171.2L468.8 171.2Q468.8 177.0 464.3 180.4Q459.8 183.8 451.6 183.8ZM501.5 183.0L501.5 176.2L501.0 176.2Q499.8 179.4 497.2 181.6Q494.6 183.8 490.1 183.8L490.1 183.8Q487.4 183.8 485.2 182.9Q483.0 182.0 481.4 180.2Q479.8 178.4 478.9 175.8Q478.0 173.2 478.0 169.8L478.0 169.8L478.0 145.8L488.6 145.8L488.6 168.4Q488.6 175.6 494.9 175.6L494.9 175.6Q496.1 175.6 497.3 175.3Q498.5 175.0 499.4 174.3Q500.3 173.6 500.9 172.6Q501.5 171.6 501.5 170.2L501.5 170.2L501.5 145.8L512.1 145.8L512.1 183.0L501.5 183.0ZM558.0 183.0L551.9 183.0Q548.6 183.0 546.5 181.3Q544.5 179.6 544.2 176.4L544.2 176.4L543.8 176.4Q542.8 180.1 539.8 181.9Q536.8 183.8 532.5 183.8L532.5 183.8Q527.1 183.8 523.8 180.9Q520.5 178.0 520.5 172.7L520.5 172.7Q520.5 166.9 524.8 164.1Q529.0 161.3 537.2 161.3L537.2 161.3L543.2 161.3L543.2 159.4Q543.2 156.1 541.7 154.4Q540.1 152.7 536.5 152.7L536.5 152.7Q533.1 152.7 531.0 154.0Q528.9 155.3 527.4 157.4L527.4 157.4L521.6 152.2Q523.4 149.0 527.4 147.0Q531.4 144.9 537.7 144.9L537.7 144.9Q545.3 144.9 549.6 148.4Q553.9 151.9 553.9 159.0L553.9 159.0L553.9 175.2L558.0 175.2L558.0 183.0ZM536.5 176.8L536.5 176.8Q539.3 176.8 541.3 175.5Q543.2 174.1 543.2 171.5L543.2 171.5L543.2 167.0L537.5 167.0Q531.0 167.0 531.0 171.4L531.0 171.4L531.0 172.9Q531.0 174.8 532.5 175.8Q534.0 176.8 536.5 176.8ZM564.9 183.0L564.9 174.7L576.3 174.7L576.3 138.0L564.9 138.0L564.9 129.7L586.9 129.7L586.9 174.7L598.3 174.7L598.3 183.0L564.9 183.0Z M133.1 276.6L133.1 268.3L144.1 268.3L144.1 247.7L132.4 247.7L132.4 239.4L144.1 239.4L144.1 234.0Q144.1 229.2 146.8 226.3Q149.6 223.3 155.4 223.3L155.4 223.3L168.0 223.3L168.0 231.6L154.7 231.6L154.7 239.4L168.0 239.4L168.0 247.7L154.7 247.7L154.7 268.3L166.4 268.3L166.4 276.6L133.1 276.6ZM192.8 277.4L192.8 277.4Q188.5 277.4 185.0 276.1Q181.6 274.8 179.2 272.2Q176.7 269.7 175.4 266.1Q174.2 262.5 174.2 258.0L174.2 258.0Q174.2 253.4 175.4 249.8Q176.7 246.2 179.2 243.7Q181.6 241.2 185.0 239.9Q188.5 238.5 192.8 238.5L192.8 238.5Q197.1 238.5 200.6 239.9Q204.0 241.2 206.4 243.7Q208.9 246.2 210.2 249.8Q211.4 253.4 211.4 258.0L211.4 258.0Q211.4 262.5 210.2 266.1Q208.9 269.7 206.4 272.2Q204.0 274.8 200.6 276.1Q197.1 277.4 192.8 277.4ZM192.8 269.5L192.8 269.5Q196.4 269.5 198.4 267.3Q200.4 265.0 200.4 260.9L200.4 260.9L200.4 255.0Q200.4 250.9 198.4 248.7Q196.4 246.5 192.8 246.5L192.8 246.5Q189.2 246.5 187.2 248.7Q185.2 250.9 185.2 255.0L185.2 255.0L185.2 260.9Q185.2 265.0 187.2 267.3Q189.2 269.5 192.8 269.5ZM219.7 276.6L219.7 268.3L228.3 268.3L228.3 247.7L219.7 247.7L219.7 239.4L239.0 239.4L239.0 249.9L239.5 249.9Q240.0 247.9 240.9 246.0Q241.8 244.1 243.2 242.6Q244.6 241.1 246.6 240.3Q248.6 239.4 251.3 239.4L251.3 239.4L254.9 239.4L254.9 249.2L246.9 249.2Q243.0 249.2 241.0 251.5Q239.0 253.9 239.0 257.3L239.0 257.3L239.0 268.3L251.2 268.3L251.2 276.6L219.7 276.6ZM268.3 276.6L259.8 276.6L259.8 239.4L268.3 239.4L268.3 244.9L268.8 244.9Q269.7 242.3 271.3 240.4Q272.9 238.5 275.9 238.5L275.9 238.5Q281.3 238.5 282.5 244.9L282.5 244.9L282.9 244.9Q283.4 243.6 284.0 242.4Q284.7 241.3 285.6 240.4Q286.5 239.5 287.8 239.0Q289.1 238.5 290.9 238.5L290.9 238.5Q298.6 238.5 298.6 250.0L298.6 250.0L298.6 276.6L290.1 276.6L290.1 251.1Q290.1 248.5 289.2 247.4Q288.3 246.4 286.8 246.4L286.8 246.4Q285.5 246.4 284.5 247.3Q283.5 248.2 283.5 250.1L283.5 250.1L283.5 276.6L274.9 276.6L274.9 251.1Q274.9 248.5 274.1 247.4Q273.2 246.4 271.8 246.4L271.8 246.4Q270.3 246.4 269.3 247.3Q268.3 248.2 268.3 250.1L268.3 250.1L268.3 276.6ZM342.0 276.6L335.9 276.6Q332.6 276.6 330.5 274.9Q328.5 273.2 328.2 270.0L328.2 270.0L327.8 270.0Q326.8 273.7 323.8 275.5Q320.8 277.4 316.5 277.4L316.5 277.4Q311.1 277.4 307.8 274.5Q304.5 271.6 304.5 266.3L304.5 266.3Q304.5 260.5 308.8 257.7Q313.0 254.9 321.2 254.9L321.2 254.9L327.2 254.9L327.2 253.0Q327.2 249.7 325.7 248.0Q324.1 246.3 320.5 246.3L320.5 246.3Q317.1 246.3 315.0 247.6Q312.9 248.9 311.4 251.0L311.4 251.0L305.6 245.8Q307.4 242.6 311.4 240.6Q315.4 238.5 321.7 238.5L321.7 238.5Q329.3 238.5 333.6 242.0Q337.9 245.5 337.9 252.6L337.9 252.6L337.9 268.8L342.0 268.8L342.0 276.6ZM320.5 270.4L320.5 270.4Q323.3 270.4 325.3 269.1Q327.2 267.7 327.2 265.1L327.2 265.1L327.2 260.6L321.5 260.6Q315.0 260.6 315.0 265.0L315.0 265.0L315.0 266.5Q315.0 268.4 316.5 269.4Q318.0 270.4 320.5 270.4ZM382.2 276.6L368.5 276.6Q362.7 276.6 359.9 273.5Q357.1 270.5 357.1 265.8L357.1 265.8L357.1 247.7L347.0 247.7L347.0 239.4L353.6 239.4Q356.0 239.4 357.0 238.5Q358.0 237.5 358.0 235.0L358.0 235.0L358.0 226.3L367.8 226.3L367.8 239.4L382.2 239.4L382.2 247.7L367.8 247.7L367.8 268.3L382.2 268.3L382.2 276.6ZM425.4 276.6L411.7 276.6Q405.9 276.6 403.1 273.5Q400.3 270.5 400.3 265.8L400.3 265.8L400.3 247.7L390.2 247.7L390.2 239.4L396.8 239.4Q399.2 239.4 400.2 238.5Q401.2 237.5 401.2 235.0L401.2 235.0L401.2 226.3L411.0 226.3L411.0 239.4L425.4 239.4L425.4 247.7L411.0 247.7L411.0 268.3L425.4 268.3L425.4 276.6ZM454.3 234.6L454.3 234.6Q450.7 234.6 449.3 233.2Q447.9 231.7 447.9 229.6L447.9 229.6L447.9 227.5Q447.9 225.4 449.3 223.9Q450.7 222.5 454.3 222.5L454.3 222.5Q457.9 222.5 459.3 223.9Q460.7 225.4 460.7 227.5L460.7 227.5L460.7 229.6Q460.7 231.7 459.3 233.2Q457.9 234.6 454.3 234.6ZM437.2 276.6L437.2 268.3L449.0 268.3L449.0 247.7L437.2 247.7L437.2 239.4L459.6 239.4L459.6 268.3L470.6 268.3L470.6 276.6L437.2 276.6ZM488.9 276.6L478.3 276.6L478.3 239.4L488.9 239.4L488.9 246.2L489.4 246.2Q490.0 244.6 491.0 243.2Q491.9 241.8 493.2 240.8Q494.6 239.8 496.3 239.1Q498.1 238.5 500.3 238.5L500.3 238.5Q503.0 238.5 505.2 239.4Q507.4 240.3 509.0 242.1Q510.6 243.9 511.5 246.5Q512.4 249.1 512.4 252.5L512.4 252.5L512.4 276.6L501.8 276.6L501.8 253.9Q501.8 246.7 495.5 246.7L495.5 246.7Q494.3 246.7 493.1 247.1Q491.9 247.4 491.0 248.1Q490.0 248.8 489.5 249.8Q488.9 250.8 488.9 252.1L488.9 252.1L488.9 276.6ZM558.8 280.3L558.8 280.3Q558.8 286.2 553.8 289.0Q548.8 291.8 538.2 291.8L538.2 291.8Q532.9 291.8 529.4 291.2Q525.9 290.6 523.9 289.4Q521.8 288.3 521.0 286.7Q520.2 285.1 520.2 283.2L520.2 283.2Q520.2 280.1 522.1 278.5Q523.9 276.8 527.3 276.0L527.3 276.0L527.3 275.5Q524.9 274.8 523.5 273.5Q522.1 272.2 522.1 269.7L522.1 269.7Q522.1 267.0 524.0 265.7Q525.8 264.4 528.8 263.7L528.8 263.7L528.8 263.2Q525.5 261.6 523.7 258.8Q521.8 255.9 521.8 251.8L521.8 251.8Q521.8 248.5 523.0 246.1Q524.1 243.6 526.3 241.9Q528.4 240.3 531.3 239.4Q534.3 238.5 538.0 238.5L538.0 238.5Q541.5 238.5 544.5 239.3L544.5 239.3L544.5 237.3Q544.5 235.2 546.0 233.7Q547.5 232.3 550.2 232.3L550.2 232.3L556.8 232.3L556.8 240.0L547.8 240.0L547.8 240.7Q550.9 242.3 552.5 245.1Q554.2 247.8 554.2 251.8L554.2 251.8Q554.2 255.0 553.1 257.5Q551.9 259.9 549.8 261.6Q547.6 263.3 544.6 264.2Q541.6 265.0 538.0 265.0L538.0 265.0Q536.3 265.0 534.8 264.9Q533.3 264.7 531.9 264.3L531.9 264.3Q531.1 264.7 530.6 265.4Q530.0 266.0 530.0 267.0L530.0 267.0Q530.0 267.9 530.5 268.4Q530.9 268.9 531.7 269.2Q532.4 269.4 533.4 269.5Q534.4 269.6 535.5 269.6L535.5 269.6L544.0 269.6Q548.0 269.6 550.8 270.4Q553.6 271.2 555.4 272.6Q557.2 274.0 558.0 276.0Q558.8 277.9 558.8 280.3ZM548.7 281.1L548.7 281.1Q548.7 279.6 547.5 278.8Q546.4 278.0 543.2 278.0L543.2 278.0L530.4 278.0Q529.0 279.2 529.0 281.0L529.0 281.0Q529.0 282.7 530.4 283.9Q531.9 285.0 535.4 285.0L535.4 285.0L541.7 285.0Q545.4 285.0 547.0 284.0Q548.7 283.0 548.7 281.1ZM538.0 258.3L538.0 258.3Q541.2 258.3 542.7 256.7Q544.2 255.1 544.2 252.6L544.2 252.6L544.2 250.9Q544.2 248.5 542.7 246.9Q541.2 245.3 538.0 245.3L538.0 245.3Q534.8 245.3 533.4 246.9Q531.9 248.5 531.9 250.9L531.9 250.9L531.9 252.6Q531.9 255.1 533.4 256.7Q534.8 258.3 538.0 258.3Z M613.9 276.6L605.4 276.6L605.4 239.4L613.9 239.4L613.9 244.9L614.4 244.9Q615.3 242.3 616.9 240.4Q618.5 238.5 621.5 238.5L621.5 238.5Q626.9 238.5 628.1 244.9L628.1 244.9L628.5 244.9Q629.0 243.6 629.6 242.4Q630.3 241.3 631.2 240.4Q632.1 239.5 633.4 239.0Q634.7 238.5 636.5 238.5L636.5 238.5Q644.2 238.5 644.2 250.0L644.2 250.0L644.2 276.6L635.7 276.6L635.7 251.1Q635.7 248.5 634.8 247.4Q633.9 246.4 632.4 246.4L632.4 246.4Q631.1 246.4 630.1 247.3Q629.1 248.2 629.1 250.1L629.1 250.1L629.1 276.6L620.5 276.6L620.5 251.1Q620.5 248.5 619.7 247.4Q618.8 246.4 617.4 246.4L617.4 246.4Q615.9 246.4 614.9 247.3Q613.9 248.2 613.9 250.1L613.9 250.1L613.9 276.6ZM668 277.4L668 277.4Q663.7 277.4 660.2 276.1Q656.8 274.8 654.4 272.2Q651.9 269.7 650.6 266.1Q649.4 262.5 649.4 258.0L649.4 258.0Q649.4 253.4 650.6 249.8Q651.9 246.2 654.4 243.7Q656.8 241.2 660.2 239.9Q663.7 238.5 668 238.5L668 238.5Q672.3 238.5 675.8 239.9Q679.2 241.2 681.6 243.7Q684.1 246.2 685.4 249.8Q686.6 253.4 686.6 258.0L686.6 258.0Q686.6 262.5 685.4 266.1Q684.1 269.7 681.6 272.2Q679.2 274.8 675.8 276.1Q672.3 277.4 668 277.4ZM668 269.5L668 269.5Q671.6 269.5 673.6 267.3Q675.6 265.0 675.6 260.9L675.6 260.9L675.6 255.0Q675.6 250.9 673.6 248.7Q671.6 246.5 668 246.5L668 246.5Q664.4 246.5 662.4 248.7Q660.4 250.9 660.4 255.0L660.4 255.0L660.4 260.9Q660.4 265.0 662.4 267.3Q664.4 269.5 668 269.5ZM717.9 276.6L717.9 269.8L717.4 269.8Q716.0 273.2 713.4 275.3Q710.8 277.4 706.4 277.4L706.4 277.4Q703.3 277.4 700.7 276.3Q698.2 275.1 696.3 272.7Q694.5 270.4 693.5 266.7Q692.4 263.0 692.4 258.0L692.4 258.0Q692.4 252.9 693.5 249.3Q694.5 245.6 696.3 243.2Q698.2 240.8 700.7 239.7Q703.3 238.5 706.4 238.5L706.4 238.5Q708.6 238.5 710.3 239.1Q712.1 239.7 713.4 240.7Q714.7 241.7 715.7 243.1Q716.7 244.5 717.4 246.2L717.4 246.2L717.9 246.2L717.9 223.3L728.6 223.3L728.6 276.6L717.9 276.6ZM711.0 269.1L711.0 269.1Q713.8 269.1 715.8 267.8Q717.9 266.4 717.9 263.4L717.9 263.4L717.9 252.5Q717.9 249.6 715.8 248.2Q713.8 246.8 711.0 246.8L711.0 246.8Q707.4 246.8 705.4 249.0Q703.5 251.2 703.5 255.1L703.5 255.1L703.5 260.9Q703.5 264.7 705.4 266.9Q707.4 269.1 711.0 269.1ZM755.4 277.4L755.4 277.4Q746.0 277.4 741.2 272.2Q736.4 267.0 736.4 258.1L736.4 258.1Q736.4 253.6 737.7 249.9Q738.9 246.3 741.3 243.8Q743.6 241.2 746.9 239.9Q750.3 238.5 754.5 238.5L754.5 238.5Q758.6 238.5 762.0 239.9Q765.3 241.2 767.6 243.6Q769.9 246.1 771.1 249.6Q772.4 253.1 772.4 257.4L772.4 257.4L772.4 260.6L747.0 260.6L747.0 261.2Q747.0 264.8 749.2 267.0Q751.4 269.2 755.8 269.2L755.8 269.2Q759.1 269.2 761.5 267.9Q763.8 266.7 765.6 264.6L765.6 264.6L771.3 270.9Q769.2 273.5 765.3 275.5Q761.4 277.4 755.4 277.4ZM754.5 246.2L754.5 246.2Q751.1 246.2 749.0 248.3Q747.0 250.4 747.0 254.0L747.0 254.0L747.0 254.6L762.0 254.6L762.0 254.0Q762.0 250.3 760.0 248.3Q758.0 246.2 754.5 246.2ZM780.9 276.6L780.9 268.3L792.3 268.3L792.3 231.6L780.9 231.6L780.9 223.3L802.9 223.3L802.9 268.3L814.3 268.3L814.3 276.6L780.9 276.6Z M903.3 276.6L864.7 276.6L864.7 220.4L903.3 220.4L903.3 276.6ZM871.9 227.6L871.9 269.4L896.1 269.4L896.1 227.6L871.9 227.6ZM946.5 276.6L907.9 276.6L907.9 220.4L946.5 220.4L946.5 276.6ZM915.1 227.6L915.1 269.4L939.3 269.4L939.3 227.6L915.1 227.6Z " clip-path="url(#satori_cp-id-1-0-0)" mask="url(#satori_om-id-1-0-0)"/><path fill="black" d="M130.7 520.3L130.7 499.6L132.9 499.6L132.9 508.2L133.0 508.2Q134.4 505.5 137.5 505.5L137.5 505.5Q140.1 505.5 141.6 507.5Q143.1 509.5 143.1 513.0L143.1 513.0Q143.1 516.6 141.6 518.6Q140.1 520.6 137.5 520.6L137.5 520.6Q134.4 520.6 133.0 517.9L133.0 517.9L132.9 517.9L132.9 520.3L130.7 520.3ZM136.6 518.6L136.6 518.6Q138.6 518.6 139.6 517.4Q140.7 516.2 140.7 514.3L140.7 514.3L140.7 511.8Q140.7 509.9 139.6 508.7Q138.6 507.5 136.6 507.5L136.6 507.5Q135.8 507.5 135.2 507.7Q134.5 507.9 134.0 508.2Q133.5 508.6 133.2 509.2Q132.9 509.7 132.9 510.4L132.9 510.4L132.9 515.7Q132.9 516.4 133.2 516.9Q133.5 517.5 134.0 517.8Q134.5 518.2 135.2 518.4Q135.8 518.6 136.6 518.6ZM155.4 511.9L157.9 505.8L160.1 505.8L152.9 523.4Q152.7 524.1 152.4 524.5Q152.1 525.0 151.7 525.3Q151.2 525.6 150.7 525.7Q150.1 525.9 149.3 525.9L149.3 525.9L147.1 525.9L147.1 524.0L150.5 524.0L152.1 520.0L146.3 505.8L148.6 505.8L151.0 511.9L153.2 517.4L153.3 517.4L155.4 511.9Z "/><clipPath id="satori_cp-id-1-0-1-0-2"><rect x="178" y="489" width="134" height="36"/></clipPath><mask id="satori_om-id-1-0-1-0-2"><rect x="178" y="489" width="134" height="36" fill="#fff"/></mask><path fill="black" d="M193.0 520.1L179.8 520.1L179.8 516.6L187.9 508.9L180.1 508.9L180.1 505.6L192.7 505.6L192.7 509.1L184.6 516.9L193.0 516.9L193.0 520.1ZM196.6 520.1L196.6 499.4L200.8 499.4L200.8 508.3L200.9 508.3Q201.2 507.7 201.5 507.1Q201.9 506.6 202.4 506.2Q202.9 505.8 203.6 505.5Q204.3 505.3 205.2 505.3L205.2 505.3Q206.2 505.3 207.1 505.7Q208.0 506.0 208.6 506.7Q209.2 507.4 209.5 508.4Q209.9 509.4 209.9 510.7L209.9 510.7L209.9 520.1L205.7 520.1L205.7 511.3Q205.7 508.5 203.3 508.5L203.3 508.5Q202.8 508.5 202.4 508.6Q201.9 508.8 201.5 509.0Q201.2 509.3 201.0 509.7Q200.8 510.1 200.8 510.6L200.8 510.6L200.8 520.1L196.6 520.1ZM227.6 520.1L225.2 520.1Q223.9 520.1 223.2 519.4Q222.4 518.8 222.2 517.5L222.2 517.5L222.1 517.5Q221.7 519.0 220.5 519.7Q219.4 520.4 217.7 520.4L217.7 520.4Q215.6 520.4 214.3 519.3Q213.1 518.2 213.1 516.1L213.1 516.1Q213.1 513.8 214.7 512.8Q216.4 511.7 219.6 511.7L219.6 511.7L221.9 511.7L221.9 510.9Q221.9 509.6 221.3 509.0Q220.7 508.3 219.2 508.3L219.2 508.3Q217.9 508.3 217.1 508.8Q216.3 509.3 215.7 510.2L215.7 510.2L213.4 508.1Q214.2 506.9 215.7 506.1Q217.3 505.3 219.7 505.3L219.7 505.3Q222.7 505.3 224.4 506.7Q226.0 508.0 226.0 510.8L226.0 510.8L226.0 517.1L227.6 517.1L227.6 520.1ZM219.3 517.7L219.3 517.7Q220.4 517.7 221.1 517.2Q221.9 516.6 221.9 515.6L221.9 515.6L221.9 513.9L219.7 513.9Q217.1 513.9 217.1 515.6L217.1 515.6L217.1 516.2Q217.1 516.9 217.7 517.3Q218.3 517.7 219.3 517.7ZM234.4 520.1L230.2 520.1L230.2 505.6L234.4 505.6L234.4 508.3L234.5 508.3Q234.8 507.7 235.1 507.1Q235.5 506.6 236.0 506.2Q236.5 505.8 237.2 505.5Q237.9 505.3 238.8 505.3L238.8 505.3Q239.8 505.3 240.7 505.7Q241.6 506.0 242.2 506.7Q242.8 507.4 243.1 508.4Q243.5 509.4 243.5 510.7L243.5 510.7L243.5 520.1L239.3 520.1L239.3 511.3Q239.3 508.5 236.9 508.5L236.9 508.5Q236.4 508.5 236.0 508.6Q235.5 508.8 235.1 509.0Q234.8 509.3 234.6 509.7Q234.4 510.1 234.4 510.6L234.4 510.6L234.4 520.1ZM261.5 521.5L261.5 521.5Q261.5 523.8 259.6 524.9Q257.7 526.0 253.5 526.0L253.5 526.0Q251.4 526.0 250.1 525.8Q248.8 525.6 248.0 525.1Q247.2 524.7 246.8 524.0Q246.5 523.4 246.5 522.7L246.5 522.7Q246.5 521.5 247.2 520.8Q248.0 520.2 249.3 519.9L249.3 519.9L249.3 519.7Q248.4 519.4 247.8 518.9Q247.3 518.4 247.3 517.4L247.3 517.4Q247.3 516.4 248.0 515.9Q248.7 515.4 249.9 515.1L249.9 515.1L249.9 514.9Q248.6 514.3 247.9 513.2Q247.2 512.1 247.2 510.5L247.2 510.5Q247.2 509.2 247.6 508.2Q248.1 507.3 248.9 506.6Q249.7 506.0 250.9 505.6Q252.0 505.3 253.4 505.3L253.4 505.3Q254.8 505.3 256.0 505.6L256.0 505.6L256.0 504.8Q256.0 504.0 256.6 503.4Q257.2 502.9 258.2 502.9L258.2 502.9L260.7 502.9L260.7 505.9L257.3 505.9L257.3 506.1Q258.4 506.8 259.1 507.8Q259.8 508.9 259.8 510.5L259.8 510.5Q259.8 511.7 259.3 512.7Q258.9 513.6 258.0 514.3Q257.2 514.9 256.0 515.3Q254.9 515.6 253.4 515.6L253.4 515.6Q252.8 515.6 252.2 515.5Q251.6 515.5 251.1 515.3L251.1 515.3Q250.8 515.5 250.6 515.8Q250.4 516.0 250.4 516.4L250.4 516.4Q250.4 516.7 250.5 516.9Q250.7 517.1 251.0 517.2Q251.3 517.3 251.7 517.3Q252.1 517.4 252.5 517.4L252.5 517.4L255.8 517.4Q257.3 517.4 258.4 517.7Q259.5 518.0 260.2 518.6Q260.9 519.1 261.2 519.9Q261.5 520.6 261.5 521.5ZM257.6 521.9L257.6 521.9Q257.6 521.3 257.2 521.0Q256.7 520.7 255.4 520.7L255.4 520.7L250.5 520.7Q249.9 521.1 249.9 521.8L249.9 521.8Q249.9 522.5 250.5 522.9Q251.1 523.4 252.5 523.4L252.5 523.4L254.9 523.4Q256.3 523.4 257.0 523.0Q257.6 522.6 257.6 521.9ZM253.4 513.0L253.4 513.0Q254.7 513.0 255.3 512.4Q255.8 511.7 255.8 510.8L255.8 510.8L255.8 510.1Q255.8 509.2 255.3 508.6Q254.7 507.9 253.4 507.9L253.4 507.9Q252.2 507.9 251.6 508.6Q251.1 509.2 251.1 510.1L251.1 510.1L251.1 510.8Q251.1 511.7 251.6 512.4Q252.2 513.0 253.4 513.0ZM263.9 520.1L263.9 516.9L268.3 516.9L268.3 502.6L263.9 502.6L263.9 499.4L272.5 499.4L272.5 516.9L276.9 516.9L276.9 520.1L263.9 520.1ZM289.6 520.1L289.6 517.5L289.5 517.5Q289.0 518.7 288.0 519.6Q286.9 520.4 285.2 520.4L285.2 520.4Q284.2 520.4 283.3 520.1Q282.4 519.7 281.8 519.0Q281.2 518.3 280.9 517.3Q280.5 516.3 280.5 515.0L280.5 515.0L280.5 505.6L284.7 505.6L284.7 514.4Q284.7 517.2 287.1 517.2L287.1 517.2Q287.6 517.2 288.0 517.1Q288.5 517.0 288.8 516.7Q289.2 516.5 289.4 516.1Q289.6 515.7 289.6 515.1L289.6 515.1L289.6 505.6L293.8 505.6L293.8 520.1L289.6 520.1ZM301.6 520.1L297.4 520.1L297.4 505.6L301.6 505.6L301.6 508.3L301.7 508.3Q302.0 507.7 302.3 507.1Q302.7 506.6 303.2 506.2Q303.7 505.8 304.4 505.5Q305.1 505.3 306.0 505.3L306.0 505.3Q307.0 505.3 307.9 505.7Q308.8 506.0 309.4 506.7Q310.0 507.4 310.3 508.4Q310.7 509.4 310.7 510.7L310.7 510.7L310.7 520.1L306.5 520.1L306.5 511.3Q306.5 508.5 304.1 508.5L304.1 508.5Q303.6 508.5 303.2 508.6Q302.7 508.8 302.3 509.0Q302.0 509.3 301.8 509.7Q301.6 510.1 301.6 510.6L301.6 510.6L301.6 520.1Z " clip-path="url(#satori_cp-id-1-0-1-0-2)" mask="url(#satori_om-id-1-0-1-0-2)"/><clipPath id="satori_cp-id-1-0-1-1"><rect x="786" y="489" width="286" height="36"/></clipPath><mask id="satori_om-id-1-0-1-1"><rect x="786" y="489" width="286" height="36" fill="#fff"/></mask><path fill="black" d="M802.7 520.1L798.2 520.1L796.9 515.4L791.6 515.4L790.4 520.1L786.1 520.1L791.4 500.5L797.4 500.5L802.7 520.1ZM796.3 512.0L794.4 504.6L794.2 504.6L792.3 512.0L796.3 512.0ZM811.0 520.4L811.0 520.4Q808.6 520.4 806.8 519.7Q805.1 519.0 804.2 517.7L804.2 517.7L806.5 515.6Q807.3 516.5 808.5 517.0Q809.6 517.5 811.1 517.5L811.1 517.5Q812.3 517.5 813.0 517.1Q813.7 516.8 813.7 516.0L813.7 516.0Q813.7 515.4 813.2 515.1Q812.7 514.9 811.9 514.7L811.9 514.7L809.6 514.4Q808.6 514.2 807.8 513.9Q806.9 513.7 806.3 513.1Q805.7 512.6 805.3 511.9Q805.0 511.2 805.0 510.2L805.0 510.2Q805.0 507.9 806.7 506.6Q808.4 505.3 811.6 505.3L811.6 505.3Q813.7 505.3 815.2 505.9Q816.7 506.5 817.6 507.5L817.6 507.5L815.5 509.9Q814.9 509.2 813.9 508.7Q812.9 508.2 811.4 508.2L811.4 508.2Q809.0 508.2 809.0 509.7L809.0 509.7Q809.0 510.3 809.5 510.6Q810.0 510.8 810.8 510.9L810.8 510.9L813.1 511.3Q814.1 511.4 814.9 511.7Q815.8 512.0 816.4 512.5Q817.0 513.0 817.4 513.8Q817.8 514.5 817.8 515.5L817.8 515.5Q817.8 517.8 816.0 519.1Q814.3 520.4 811.0 520.4ZM834.5 520.1L829.1 520.1Q826.9 520.1 825.8 518.9Q824.7 517.7 824.7 515.9L824.7 515.9L824.7 508.9L820.8 508.9L820.8 505.6L823.3 505.6Q824.2 505.6 824.6 505.3Q825.0 504.9 825.0 503.9L825.0 503.9L825.0 500.5L828.8 500.5L828.8 505.6L834.5 505.6L834.5 508.9L828.8 508.9L828.8 516.9L834.5 516.9L834.5 520.1ZM838.5 520.1L838.5 516.9L841.8 516.9L841.8 508.9L838.5 508.9L838.5 505.6L845.9 505.6L845.9 509.7L846.1 509.7Q846.3 508.9 846.7 508.2Q847.0 507.5 847.6 506.9Q848.1 506.3 848.9 506.0Q849.7 505.6 850.8 505.6L850.8 505.6L852.1 505.6L852.1 509.5L849.1 509.5Q847.5 509.5 846.7 510.4Q845.9 511.3 845.9 512.6L845.9 512.6L845.9 516.9L850.7 516.9L850.7 520.1L838.5 520.1ZM861.6 520.4L861.6 520.4Q859.9 520.4 858.6 519.9Q857.2 519.4 856.3 518.4Q855.4 517.4 854.9 516.0Q854.3 514.6 854.3 512.9L854.3 512.9Q854.3 511.1 854.9 509.7Q855.4 508.3 856.3 507.3Q857.2 506.3 858.6 505.8Q859.9 505.3 861.6 505.3L861.6 505.3Q863.3 505.3 864.6 505.8Q866.0 506.3 866.9 507.3Q867.8 508.3 868.3 509.7Q868.9 511.1 868.9 512.9L868.9 512.9Q868.9 514.6 868.3 516.0Q867.8 517.4 866.9 518.4Q866.0 519.4 864.6 519.9Q863.3 520.4 861.6 520.4ZM861.6 517.3L861.6 517.3Q863.0 517.3 863.8 516.5Q864.6 515.6 864.6 514.0L864.6 514.0L864.6 511.7Q864.6 510.1 863.8 509.3Q863.0 508.4 861.6 508.4L861.6 508.4Q860.2 508.4 859.4 509.3Q858.6 510.1 858.6 511.7L858.6 511.7L858.6 514.0Q858.6 515.6 859.4 516.5Q860.2 517.3 861.6 517.3Z M888.5 520.1L888.5 499.4L892.6 499.4L892.6 508.3L892.8 508.3Q893.3 507.0 894.3 506.1Q895.3 505.3 897.1 505.3L897.1 505.3Q898.3 505.3 899.3 505.8Q900.3 506.2 901.0 507.1Q901.7 508.1 902.1 509.5Q902.5 510.9 902.5 512.9L902.5 512.9Q902.5 514.8 902.1 516.3Q901.7 517.7 901.0 518.6Q900.3 519.5 899.3 520.0Q898.3 520.4 897.1 520.4L897.1 520.4Q895.3 520.4 894.3 519.6Q893.3 518.8 892.8 517.5L892.8 517.5L892.6 517.5L892.6 520.1L888.5 520.1ZM895.3 517.2L895.3 517.2Q896.7 517.2 897.4 516.4Q898.2 515.5 898.2 514.0L898.2 514.0L898.2 511.7Q898.2 510.2 897.4 509.4Q896.7 508.5 895.3 508.5L895.3 508.5Q894.2 508.5 893.4 509.1Q892.6 509.6 892.6 510.7L892.6 510.7L892.6 515.0Q892.6 516.1 893.4 516.7Q894.2 517.2 895.3 517.2ZM905.5 520.1L905.5 516.9L909.9 516.9L909.9 502.6L905.5 502.6L905.5 499.4L914.1 499.4L914.1 516.9L918.5 516.9L918.5 520.1L905.5 520.1ZM928.8 520.4L928.8 520.4Q927.1 520.4 925.8 519.9Q924.4 519.4 923.5 518.4Q922.6 517.4 922.1 516.0Q921.5 514.6 921.5 512.9L921.5 512.9Q921.5 511.1 922.1 509.7Q922.6 508.3 923.5 507.3Q924.4 506.3 925.8 505.8Q927.1 505.3 928.8 505.3L928.8 505.3Q930.5 505.3 931.8 505.8Q933.2 506.3 934.1 507.3Q935.0 508.3 935.5 509.7Q936.1 511.1 936.1 512.9L936.1 512.9Q936.1 514.6 935.5 516.0Q935.0 517.4 934.1 518.4Q933.2 519.4 931.8 519.9Q930.5 520.4 928.8 520.4ZM928.8 517.3L928.8 517.3Q930.2 517.3 931.0 516.5Q931.8 515.6 931.8 514.0L931.8 514.0L931.8 511.7Q931.8 510.1 931.0 509.3Q930.2 508.4 928.8 508.4L928.8 508.4Q927.4 508.4 926.6 509.3Q925.8 510.1 925.8 511.7L925.8 511.7L925.8 514.0Q925.8 515.6 926.6 516.5Q927.4 517.3 928.8 517.3ZM953.5 521.5L953.5 521.5Q953.5 523.8 951.6 524.9Q949.7 526.0 945.5 526.0L945.5 526.0Q943.4 526.0 942.1 525.8Q940.8 525.6 940.0 525.1Q939.2 524.7 938.8 524.0Q938.5 523.4 938.5 522.7L938.5 522.7Q938.5 521.5 939.2 520.8Q940.0 520.2 941.3 519.9L941.3 519.9L941.3 519.7Q940.4 519.4 939.8 518.9Q939.3 518.4 939.3 517.4L939.3 517.4Q939.3 516.4 940.0 515.9Q940.7 515.4 941.9 515.1L941.9 515.1L941.9 514.9Q940.6 514.3 939.9 513.2Q939.2 512.1 939.2 510.5L939.2 510.5Q939.2 509.2 939.6 508.2Q940.1 507.3 940.9 506.6Q941.7 506.0 942.9 505.6Q944.0 505.3 945.4 505.3L945.4 505.3Q946.8 505.3 948.0 505.6L948.0 505.6L948.0 504.8Q948.0 504.0 948.6 503.4Q949.2 502.9 950.2 502.9L950.2 502.9L952.7 502.9L952.7 505.9L949.3 505.9L949.3 506.1Q950.4 506.8 951.1 507.8Q951.8 508.9 951.8 510.5L951.8 510.5Q951.8 511.7 951.3 512.7Q950.9 513.6 950.0 514.3Q949.2 514.9 948.0 515.3Q946.9 515.6 945.4 515.6L945.4 515.6Q944.8 515.6 944.2 515.5Q943.6 515.5 943.1 515.3L943.1 515.3Q942.8 515.5 942.6 515.8Q942.4 516.0 942.4 516.4L942.4 516.4Q942.4 516.7 942.5 516.9Q942.7 517.1 943.0 517.2Q943.3 517.3 943.7 517.3Q944.1 517.4 944.5 517.4L944.5 517.4L947.8 517.4Q949.3 517.4 950.4 517.7Q951.5 518.0 952.2 518.6Q952.9 519.1 953.2 519.9Q953.5 520.6 953.5 521.5ZM949.6 521.9L949.6 521.9Q949.6 521.3 949.2 521.0Q948.7 520.7 947.4 520.7L947.4 520.7L942.5 520.7Q941.9 521.1 941.9 521.8L941.9 521.8Q941.9 522.5 942.5 522.9Q943.1 523.4 944.5 523.4L944.5 523.4L946.9 523.4Q948.3 523.4 949.0 523.0Q949.6 522.6 949.6 521.9ZM945.4 513.0L945.4 513.0Q946.7 513.0 947.3 512.4Q947.8 511.7 947.8 510.8L947.8 510.8L947.8 510.1Q947.8 509.2 947.3 508.6Q946.7 507.9 945.4 507.9L945.4 507.9Q944.2 507.9 943.6 508.6Q943.1 509.2 943.1 510.1L943.1 510.1L943.1 510.8Q943.1 511.7 943.6 512.4Q944.2 513.0 945.4 513.0Z M972.8 520.1L972.8 516.9L977.0 516.9L977.0 508.9L972.5 508.9L972.5 505.6L977.0 505.6L977.0 503.5Q977.0 501.7 978.1 500.5Q979.2 499.4 981.5 499.4L981.5 499.4L986.4 499.4L986.4 502.6L981.2 502.6L981.2 505.6L986.4 505.6L986.4 508.9L981.2 508.9L981.2 516.9L985.7 516.9L985.7 520.1L972.8 520.1ZM1003.6 520.1L1001.2 520.1Q999.9 520.1 999.2 519.4Q998.4 518.8 998.2 517.5L998.2 517.5L998.1 517.5Q997.7 519.0 996.5 519.7Q995.4 520.4 993.7 520.4L993.7 520.4Q991.6 520.4 990.3 519.3Q989.1 518.2 989.1 516.1L989.1 516.1Q989.1 513.8 990.7 512.8Q992.4 511.7 995.6 511.7L995.6 511.7L997.9 511.7L997.9 510.9Q997.9 509.6 997.3 509.0Q996.7 508.3 995.2 508.3L995.2 508.3Q993.9 508.3 993.1 508.8Q992.3 509.3 991.7 510.2L991.7 510.2L989.4 508.1Q990.2 506.9 991.7 506.1Q993.3 505.3 995.7 505.3L995.7 505.3Q998.7 505.3 1000.4 506.7Q1002.0 508.0 1002.0 510.8L1002.0 510.8L1002.0 517.1L1003.6 517.1L1003.6 520.1ZM995.3 517.7L995.3 517.7Q996.4 517.7 997.1 517.2Q997.9 516.6 997.9 515.6L997.9 515.6L997.9 513.9L995.7 513.9Q993.1 513.9 993.1 515.6L993.1 515.6L993.1 516.2Q993.1 516.9 993.7 517.3Q994.3 517.7 995.3 517.7ZM1013.4 520.4L1013.4 520.4Q1011.7 520.4 1010.3 519.9Q1009.0 519.4 1008.0 518.4Q1007.1 517.4 1006.6 516.0Q1006.1 514.6 1006.1 512.9L1006.1 512.9Q1006.1 511.1 1006.6 509.7Q1007.1 508.3 1008.0 507.3Q1009.0 506.3 1010.3 505.8Q1011.7 505.3 1013.4 505.3L1013.4 505.3Q1015.7 505.3 1017.2 506.3Q1018.6 507.2 1019.4 508.8L1019.4 508.8L1016.2 510.6Q1015.8 509.7 1015.2 509.2Q1014.5 508.6 1013.4 508.6L1013.4 508.6Q1011.9 508.6 1011.2 509.4Q1010.4 510.3 1010.4 511.7L1010.4 511.7L1010.4 514.0Q1010.4 515.5 1011.2 516.3Q1011.9 517.1 1013.4 517.1L1013.4 517.1Q1014.6 517.1 1015.3 516.6Q1016.0 516.0 1016.5 515.1L1016.5 515.1L1019.6 516.9Q1018.8 518.5 1017.3 519.5Q1015.8 520.4 1013.4 520.4ZM1030.5 503.8L1030.5 503.8Q1029.1 503.8 1028.5 503.2Q1028.0 502.6 1028.0 501.8L1028.0 501.8L1028.0 501.0Q1028.0 500.2 1028.5 499.6Q1029.1 499.1 1030.5 499.1L1030.5 499.1Q1031.9 499.1 1032.4 499.6Q1033.0 500.2 1033.0 501.0L1033.0 501.0L1033.0 501.8Q1033.0 502.6 1032.4 503.2Q1031.9 503.8 1030.5 503.8ZM1023.8 520.1L1023.8 516.9L1028.4 516.9L1028.4 508.9L1023.8 508.9L1023.8 505.6L1032.6 505.6L1032.6 516.9L1036.8 516.9L1036.8 520.1L1023.8 520.1ZM1039.9 520.1L1039.9 516.9L1044.3 516.9L1044.3 502.6L1039.9 502.6L1039.9 499.4L1048.5 499.4L1048.5 516.9L1052.9 516.9L1052.9 520.1L1039.9 520.1ZM1063.6 520.4L1063.6 520.4Q1060.0 520.4 1058.1 518.4Q1056.2 516.4 1056.2 512.9L1056.2 512.9Q1056.2 511.2 1056.7 509.7Q1057.2 508.3 1058.1 507.3Q1059.0 506.3 1060.3 505.8Q1061.6 505.3 1063.2 505.3L1063.2 505.3Q1064.9 505.3 1066.1 505.8Q1067.4 506.3 1068.3 507.3Q1069.2 508.2 1069.7 509.6Q1070.2 511.0 1070.2 512.6L1070.2 512.6L1070.2 513.9L1060.3 513.9L1060.3 514.1Q1060.3 515.5 1061.2 516.4Q1062.1 517.2 1063.7 517.2L1063.7 517.2Q1065.0 517.2 1065.9 516.7Q1066.9 516.3 1067.5 515.4L1067.5 515.4L1069.8 517.9Q1068.9 518.9 1067.4 519.7Q1065.9 520.4 1063.6 520.4ZM1063.3 508.3L1063.3 508.3Q1061.9 508.3 1061.1 509.1Q1060.3 509.9 1060.3 511.3L1060.3 511.3L1060.3 511.6L1066.1 511.6L1066.1 511.3Q1066.1 509.9 1065.4 509.1Q1064.6 508.3 1063.3 508.3Z " clip-path="url(#satori_cp-id-1-0-1-1)" mask="url(#satori_om-id-1-0-1-1)"/></svg>